<svg width="502" height="286" viewBox="0 0 502 286" fill="none" xmlns="http://www.w3.org/2000/svg">
<path d="M437.919 135.932C436.998 135.932 434.006 135.932 432.67 135.932V81.7686L422.127 88.516L425.902 76.513C425.166 75.8474 414.254 78.8769 413.885 77.2703C416.325 74.9982 427.836 69.8573 426.685 67.5164C426.132 66.4148 408.867 61.6181 410.892 60.4018C414.208 59.2772 427.652 62.6509 428.941 61.1591L433.085 47.8479L437.229 63.0181C438.564 64.5787 450.995 60.9067 454.54 61.8936C453.712 63.6837 441.833 67.4705 441.741 68.641C441.741 69.3295 453.113 77.3392 455.277 78.3949C455.139 80.5522 438.564 73.5524 438.748 75.3884L447.036 88.8832C444.457 88.998 436.492 81.0571 435.019 83.2604L438.011 135.909L437.919 135.932Z" fill="#FFF9C2"/>
<path d="M4.40516e-05 82.7654V80.8859C22.2537 104.288 42.8149 129.569 51.1629 161.543C50.5911 162.093 50.2481 161.565 49.8593 161.359C47.1605 159.846 33.918 145.338 30.9905 142.083C21.2703 131.173 12.8079 120.378 7.45606 106.534L-0.0228271 82.7654H4.40516e-05Z" fill="#0AA94D"/>
<path d="M4.40516e-05 78.6397V71.1447C15.3237 78.9606 28.5662 90.5124 37.3487 105.388C47.6179 122.784 54.8452 142.06 53.4043 162.666C52.6724 163.307 52.4437 161.634 52.2836 161.176C51.4831 158.7 51.2315 155.812 50.4082 153.314C40.9624 124.205 21.0873 100.116 -0.0228271 78.6397H4.40516e-05Z" fill="#0C8942"/>
<path d="M50.431 76.0268L43.3409 79.3961C40.6879 72.7492 38.172 65.896 34.9472 59.547C34.1467 59.4554 34.3526 60.3263 34.3983 60.8535C34.5813 64.1082 42.4261 80.3129 44.1186 84.8053C51.5974 104.815 58.3673 125.328 60.3571 146.759C54.0904 138.943 51.3459 129.248 47.0918 120.378C38.4694 102.339 34.5355 96.4488 31.7681 75.4538C30.6474 66.9045 30.5788 58.1947 29.5267 49.6225L30.4645 49.4392C38.1263 57.553 44.8504 66.3544 50.4539 76.0039L50.431 76.0268Z" fill="#0AA94D"/>
<path d="M121.195 24.3643C122.018 24.4789 121.492 30.1861 121.377 30.5299C120.966 31.9739 119.09 33.1657 118.381 35.0223C105.711 68.761 98.4605 105.25 90.5471 140.387C83.2741 99.9785 98.9637 57.4613 121.172 24.3414L121.195 24.3643Z" fill="#0AA94D"/>
<path d="M120.829 32.9824C122.818 71.1906 112.595 107.955 92.4454 140.043C92.3997 136.605 93.0858 133.098 93.7491 129.752C97.0197 113.616 101.777 94.8214 106.077 78.846C110.376 62.8705 115.454 48.0639 120.829 32.9824Z" fill="#0C8942"/>
<path d="M160.419 98.8554C144.043 125.03 121.286 146.232 95.6245 163.055C106.694 132.709 134.437 115.243 160.419 98.8554Z" fill="#0C8942"/>
<path d="M75.8181 63.6727C75.4293 62.5267 73.5081 56.2694 73.2108 55.9944C72.6161 55.5131 70.3519 55.9715 69.4828 55.811C69.3913 55.4672 69.0482 55.0776 68.9339 54.6879L68.385 55.238C68.8652 87.2119 74.1028 119.071 75.475 151.068C62.69 124.962 62.4842 93.6067 63.5134 64.6124C63.6506 60.9452 63.765 55.3755 64.2681 51.8917C64.3368 51.4562 64.1995 50.5164 65.0229 50.7686C65.8005 54.7338 63.1932 64.75 64.2681 67.9817C64.5197 68.761 64.6341 68.761 65.3888 68.3485L66.3265 34.4722L75.841 63.6727H75.8181Z" fill="#0AA94D"/>
<path d="M71.7241 87.9912L80.3237 81.6193C84.4634 103.325 86.4074 130.829 77.1446 151.251C75.658 130.142 73.5538 109.078 71.7241 87.9912Z" fill="#0C8942"/>
<path d="M50.4311 76.0268C61.272 94.7985 66.1436 120.355 64.2453 142.083C64.1309 143.39 63.0102 151.481 61.6379 146.209C60.5401 142.014 60.6774 135.07 59.7625 130.486C56.4233 113.479 49.7221 95.4861 43.3181 79.3961L50.4082 76.0268H50.4311Z" fill="#0C8942"/>
<path d="M119.525 115.312L123.642 122.418C110.811 133.328 99.8786 147.034 94.1379 163.032H93.0172C91.645 143.711 104.796 126.36 119.525 115.312Z" fill="#0AA94D"/>
<path d="M123.642 122.44L119.525 115.335C132.058 105.938 146.947 100.116 162.111 96.4259C149.052 104.654 135.443 112.401 123.642 122.44Z" fill="#0AA94D"/>
<path d="M75.818 63.6727C77.785 69.2882 79.1801 75.7746 80.3008 81.6422L71.7012 88.0141C70.9693 79.6482 71.1294 62.8247 69.4598 55.8339C70.3289 55.9944 72.6161 55.536 73.1878 56.0173C73.508 56.2694 75.4063 62.5496 75.7952 63.6956L75.818 63.6727Z" fill="#0C8942"/>
<path d="M145.301 257.189C145.415 257.785 145.369 261.865 145.118 262.048C141.481 262.805 108.798 260.833 108.318 262.598C108.112 263.355 109.302 263.492 109.622 263.905H144.729C145.598 264.294 145.392 267.801 145.095 268.03C143.105 269.452 108.318 267.091 108.295 269.337C108.295 271.171 142.373 269.108 145.095 269.887V275.136L107.929 275.686L144.729 276.626C145.484 276.969 146.216 281.003 145.095 281.485H107.174C103.858 279.926 102.349 277.061 101.937 273.44C101.64 270.758 103.012 258.725 105.482 257.533L145.255 257.166L145.301 257.189Z" fill="#FDEAD7"/>
<path d="M137.093 255.551C130.677 254.384 117.733 255.228 110.831 255.551C110.925 253.787 112.44 255.775 111.748 253.514C114.797 253.464 118.126 252.744 120.764 252.694C124.074 252.644 149.364 251.502 149.943 253.29C150 253.489 149.532 254.657 149.494 255.104L137.13 255.502L137.093 255.551Z" fill="#E3F0FB"/>
<path d="M144.823 256.639C145.35 257.066 145.144 257.043 145.189 257.381L105.371 257.741C102.898 258.932 101.524 270.715 101.822 273.346C102.234 276.899 103.722 279.71 107.065 281.239C107.271 281.329 106.424 281.846 106.882 281.981H156.249L157.554 282.903L157.188 283.825C157.44 282.858 156.043 282.768 155.516 282.723C139.099 281.419 121.216 284.005 104.661 282.363C98.9137 276.719 98.7076 265.543 102.6 258.865L105.783 256.661H144.869L144.823 256.639Z" fill="#0A1009"/>
<path d="M110.925 255.699C119.365 255.401 135.192 254.622 143.036 255.699C143.219 255.722 144.615 256.204 144.912 256.456H105.871L102.692 258.702C105.322 254.095 105.619 255.906 110.902 255.699H110.925Z" fill="#180705"/>
<path d="M112.046 253.82C112.892 255.906 111.04 254.072 110.925 255.699C105.619 255.883 105.345 254.072 102.715 258.702C98.8264 265.509 99.0323 276.901 104.773 282.654C121.309 284.327 139.171 281.691 155.57 283.02C156.096 283.066 157.491 283.158 157.239 284.143H2.60732C1.76108 284.052 0.846234 284.212 0 284.143V253.453C37.3258 254.462 74.7202 254.301 112.046 253.82Z" fill="#E3F0FB"/>
<path d="M70.0316 265.051C70.7635 265.051 73.9197 264.684 73.5767 265.991C61.2262 267.664 48.3955 267.801 35.8621 267.48L36.7998 266.174C47.8008 266.907 59.1449 265.005 70.0316 265.051Z" fill="#311F2A"/>
<path d="M98.8036 255.699C101.8 254.989 98.2318 258.152 97.8659 258.885C94.3208 265.899 93.8177 274.448 99.5355 280.407C100.336 282.837 96.9968 280.018 96.3564 279.101C93.3602 274.746 93.223 266.403 94.8697 261.498C95.2128 260.49 97.8201 255.928 98.7807 255.699H98.8036Z" fill="#19141C"/>
<path d="M62.1869 274.769C63.2847 274.769 70.1232 274.15 68.545 275.892C65.709 275.594 45.5824 276.992 44.8276 276.075C44.1186 275.227 45.3079 275.25 45.7653 275.136C48.2583 274.586 58.8019 274.792 62.2097 274.769H62.1869Z" fill="#522835"/>
<path d="M2.42439 262.048C2.88182 261.934 3.43072 262.484 3.36211 262.988L2.8132 276.282C1.1436 276.717 1.3037 264.661 1.50954 263.744C1.55529 263.492 2.17281 262.117 2.44726 262.071L2.42439 262.048Z" fill="#19141C"/>
<path d="M52.1007 259.435C52.6267 259.229 62.3699 259.252 62.3699 259.985C61.5922 261.819 48.3727 260.856 52.1007 259.435Z" fill="#311F2A"/>
<path d="M28.3832 209.652C26.9194 207.475 19.1889 203.441 16.6274 201.034C10.2006 195.052 7.3874 187.282 15.8726 181.575C11.3212 180.91 8.85116 186.572 8.96551 190.376C9.23997 200.255 21.9792 206.719 29.1379 211.532C29.1837 212.082 29.3438 214.42 28.589 214.534C23.6717 208.14 10.7723 205.366 7.8677 197.505C4.64286 188.749 8.46235 177.403 19.2576 178.229C21.7734 178.412 31.4022 181.162 28.9778 184.967C13.0823 174.653 8.43948 190.766 20.3782 199.567C21.2016 199.086 20.5383 198.444 20.1953 197.894C18.0683 194.319 12.9222 190.147 15.3466 184.784C17.3364 180.383 28.589 185.403 29.1608 187.03C30.5559 191.041 25.0897 186.64 23.7403 186.48C15.9184 185.471 20.4469 194.846 23.7403 197.711C24.4722 198.33 29.0007 200.507 29.1608 200.897C29.5496 201.859 29.3209 208.552 28.406 209.698L28.3832 209.652Z" fill="#317EA9"/>
<path d="M122.521 213.388C122.475 211.555 122.155 204.679 122.521 203.464C122.658 203.028 127.827 199.201 128.879 197.848C130.252 196.106 134.826 187.305 132.79 185.678C130.389 183.775 124.351 187.58 122.887 189.803C120.303 184.234 135.581 178.939 136.701 185.884L135.398 195.419C138.622 192.164 139.103 185.013 135.215 182.125C135.741 181.185 139.331 184.394 139.697 185.128C144.34 194.387 128.879 208.162 122.521 213.388Z" fill="#0879A2"/>
<path d="M120.28 251.574C120.142 251.917 120.508 252.834 120.097 253.063L31.5852 253.43C31.4479 253.384 31.2421 252.582 31.0363 252.307L32.3399 226.843L33.4606 251.917L120.303 251.551L120.28 251.574Z" fill="#010E18"/>
<path d="M122.887 214.878C128.651 209.492 140.063 200.393 141.184 192.233C143.014 178.985 130.915 178.962 122.704 184.944L123.642 181.575C133.065 175.868 144.089 177.839 143.814 190.743C143.54 203.647 130.412 210.157 122.704 218.247C121.995 217.193 122.933 215.68 122.887 214.878Z" fill="#0879A2"/>
<path d="M123.642 181.575L122.704 184.944C130.938 178.985 143.036 179.008 141.184 192.233C140.063 200.393 128.65 209.492 122.887 214.878C122.887 214.58 122.521 213.893 122.521 213.388C128.879 208.162 144.34 194.387 139.697 185.128C139.331 184.394 135.741 181.185 135.214 182.125C139.103 184.99 138.622 192.164 135.397 195.419L136.701 185.884C135.558 178.939 120.302 184.234 122.887 189.803C121.789 189.987 122.132 188.772 122.132 188.13C122.224 185.219 121.309 182.996 123.619 181.575H123.642Z" fill="#010E18"/>
<path d="M28.3831 209.652C28.3831 209.652 29.115 211.417 29.1379 211.532C21.9792 206.719 9.23992 200.255 8.96547 190.376C8.85111 186.572 11.3212 180.91 15.8726 181.575C7.38736 187.305 10.1776 195.052 16.6273 201.034C19.1889 203.418 26.9194 207.475 28.3831 209.652Z" fill="#012844"/>
<path d="M120.28 251.574L33.4377 251.94L32.317 226.866L31.0134 252.33C29.9842 250.955 30.5102 250.84 29.8927 249.534C31.1964 221.571 29.5954 193.264 31.5623 165.508H120.074C120.6 165.737 120.92 169.06 121.012 169.817C121.881 177.633 121.812 247.815 120.257 251.597L120.28 251.574Z" fill="url(#paint0_linear_1506_6753)"/>
<path d="M66.6696 186.067C69.0253 185.838 72.4331 194.456 74.5144 196.175C76.5271 196.519 87.025 191.224 87.7797 191.866C89.7924 193.631 80.5981 203.853 81.0556 206.833C81.1928 207.727 92.3768 219.921 86.0872 219.004L73.7597 213.388C72.6618 213.526 67.0127 225.605 65.5489 225.376C65.4117 225.376 63.5362 223.45 63.4905 223.313C62.7815 221.021 63.3533 211.096 62.3698 209.469C61.272 207.635 49.8135 206.123 50.797 203.097C52.3751 200.966 60.7002 202.112 62.0039 200.095C63.3075 198.078 63.8107 186.342 66.6696 186.067Z" fill="black"/>
<path d="M67.0355 190.56C68.1791 191.591 71.4268 198.949 72.2731 199.178C74.1027 199.659 81.2157 195.488 83.6629 195.992C82.4507 197.894 77.8079 205.114 78.0595 206.856C78.1509 207.406 82.222 212.655 82.9082 213.595L71.5183 210.798L65.9149 220.15C64.7942 217.835 64.7713 209.584 63.8564 207.979C63.2389 206.902 57.5897 205.939 56.3776 204.977C57.7956 204.61 63.7421 203.235 64.2224 201.974C63.5134 200.92 66.418 190.606 67.0127 190.56H67.0355Z" fill="#0BA0D2"/>
<path d="M468.562 193.173C469.431 193.012 474.76 192.943 475.104 193.723L474.555 239.953L466.893 239.77L466.527 193.723C467.213 193.723 468.105 193.264 468.585 193.173H468.562Z" fill="#0C8942"/>
<path d="M502 199.911V239.953H476.796C475.744 224.413 476.522 208.713 477.162 193.173H499.576C501.108 193.746 500.628 198.398 502 199.911Z" fill="#0C8942"/>
<path d="M486.493 206.65C490.976 207.91 489.878 227.049 487.614 227.232C485.784 227.393 488.071 223.909 488.163 222.923C488.369 220.608 488.415 215.841 488.163 213.572C488.026 212.288 485.784 206.741 486.493 206.65Z" fill="#0A1009"/>
<path d="M423.369 193.173C431.694 193.173 457.676 191.683 463.714 193.173C464.011 193.241 465.269 193.814 465.383 194.112L464.834 239.976L360.061 239.426C355.922 235.621 353.657 199.384 359.878 193.562C381.034 193.929 402.236 193.241 423.369 193.196V193.173Z" fill="#0C8942"/>
<path d="M424.49 214.878C425.29 214.878 425.999 214.649 426.548 215.428C426.708 216.551 419.664 217.033 418.52 217.101C406.719 217.972 394.254 217.514 382.475 217.285C381.743 216.299 388.33 216.024 389.016 215.978C399.789 215.314 413.763 214.764 424.49 214.855V214.878Z" fill="#001812"/>
<path d="M389.016 207.039L419.458 207.979C411.178 208.552 402.167 209.148 393.865 208.529C393.385 208.506 386.432 207.865 389.016 207.039Z" fill="#001812"/>
<path d="M414.403 225.742C414.884 225.742 421.127 225.444 418.886 226.866C416.622 227.37 389.588 228.516 389.565 227.049C389.84 226.705 390.937 226.178 391.235 226.109C395.557 225.215 408.96 225.811 414.403 225.742Z" fill="#0A1009"/>
<path d="M361.365 207.406L361.548 218.064L360.61 229.112C359.695 227.53 360.267 207.406 361.365 207.406Z" fill="#002F28"/>
<path d="M502 250.817V257.923L402.282 258.473L502 259.779V266.518L403.768 267.457L502 268.008V276.992L400.772 278.115C399.834 278.07 398.531 278.826 397.044 277.749C396.998 274.586 396.564 251.986 397.593 251.184L501.977 250.817H502Z" fill="#F06827"/>
<path d="M502 241.833V248.961L398.714 249.327L397.227 250.817L397.044 242.406L502 241.833Z" fill="#FDEAD7"/>
<path d="M400.772 278.138C434.027 280.018 468.654 278.001 502 278.505V283.754H481.462C483.337 283.662 490.565 283.868 488.941 281.874H445.989L445.051 283.364C448.596 283.777 454.611 282.081 457.195 284.121C437.252 284.235 417.239 283.387 397.25 283.754C396.312 283.341 397.067 278.849 397.067 277.772C398.577 278.849 399.88 278.092 400.795 278.138H400.772Z" fill="#FDEAD7"/>
<path d="M502 257.945V259.802L402.259 258.496L502 257.945Z" fill="black"/>
<path d="M502 277.015V278.505C468.654 277.978 434.027 280.018 400.772 278.138L502 277.015Z" fill="#0A1009"/>
<path d="M502 266.541V268.03L403.768 267.48L502 266.541Z" fill="black"/>
<path d="M488.918 281.897C490.542 283.891 483.337 283.662 481.439 283.777C473.434 284.212 465.2 284.098 457.15 284.143C454.565 282.126 448.55 283.823 445.005 283.387L445.943 281.897H488.895H488.918Z" fill="#FDEAD7"/>
<path d="M359.124 241.833L395.169 242.383L394.62 283.754C390.251 283.456 359.33 284.464 357.82 282.447C354.893 278.459 355.213 243.368 359.124 241.833Z" fill="#FDEAD7"/>
<path d="M376.689 246.715L377.055 279.284C376.094 280.087 375.797 275.823 375.751 275.365C374.859 266.541 375.98 255.585 376.689 246.737V246.715Z" fill="black"/>
<path d="M369.21 254.943C369.942 254.943 369.987 268.397 369.759 269.36C369.622 269.91 369.484 270.345 368.821 270.3L369.187 254.943H369.21Z" fill="#0A1009"/>
<path d="M484.618 138.531C485.464 138.531 488.186 138.21 488.529 139.081L488.163 143.573L408.045 144.513C398.645 156.408 402.03 172.086 403.014 185.884C390.777 173.347 392.63 152.397 403.562 139.654C430.528 139.379 457.653 138.233 484.618 138.531Z" fill="#FDEAD7"/>
<path d="M405.072 183.454H489.855L490.793 189.253L405.438 190.56C404.637 190.216 403.928 183.959 405.072 183.454Z" fill="#FDEAD7"/>
<path d="M404.5 179.695L404.866 177.633C406.719 177.839 407.702 175.73 408.594 175.203L486.471 175.959L487.019 181.758C459.711 182.698 431.991 182.698 404.843 181.758C404.912 181.048 404.683 180.337 404.477 179.695H404.5Z" fill="#FC724C"/>
<path d="M408.617 175.203C407.702 175.73 406.742 177.839 404.889 177.633L404.523 179.695C401.413 170.367 402.556 153.818 408.823 146.003L479.426 145.246L479.609 174.263L409.212 174.447C408.891 174.538 408.686 175.18 408.663 175.203H408.617Z" fill="#F06827"/>
<path d="M464.08 152.008C465.612 152.008 474.509 151.687 474.715 152.558L473.777 153.498L414.952 154.048C415.593 152.787 418.131 152.833 419.252 152.741C432.792 151.481 450.151 152.099 464.08 151.985V152.008Z" fill="#180E00"/>
<path d="M465.2 162.116C465.703 162.116 476.11 162.161 473.411 163.605L418.314 164.155C419.321 162.872 423.712 162.941 425.587 162.849C437.915 162.184 452.804 162.001 465.177 162.093L465.2 162.116Z" fill="#180705"/>
<path d="M437 135.918C437.686 135.918 439.15 135.918 439.607 135.918C455.343 135.826 471.101 135.986 486.859 135.918L487.797 136.857C459.254 138.531 430.573 136.101 402.076 138.531C393.705 149.188 390.48 164.797 395.535 177.656C397.364 182.285 401.39 185.678 403.014 190.01L375.179 189.46C367.06 177.816 364.476 161.451 369.759 148.088C373.944 137.522 380.028 138.622 390.114 137.43C405.712 135.574 421.31 136.101 437 135.941V135.918Z" fill="#FDEAD7"/>
<path d="M377.421 145.269C378.564 145.407 374.905 154.002 374.63 155.56C373.441 161.978 373.99 168.419 375.751 174.653C376.025 175.661 379.959 182.423 378.175 182.698C375.774 183.065 372.458 166.814 372.389 164.545C372.32 162.276 374.539 144.902 377.421 145.269Z" fill="#180705"/>
<path d="M199.46 104.471C197.973 105.961 189.191 113.731 189.008 114.762C190.7 171.192 191.272 227.736 190.311 284.143C188.39 284.075 186.446 284.235 184.525 284.143C183.404 284.098 182.101 284.762 180.797 283.96C179.722 224.596 178.876 165.187 178.921 105.777C179.242 104.677 194.657 92.0022 196.487 90.9937C197.356 90.5124 198.065 89.9852 198.911 89.5039L208.059 94.936L199.46 104.471Z" fill="#F06827"/>
<path d="M346.613 101.102C347.528 153.841 348.603 207.085 348.489 259.985C348.489 264.042 348.969 280.041 348.123 282.814C348.031 283.089 347.299 283.593 347.002 283.754C346.133 284.212 340.575 284.35 340.278 283.937C340.209 226.659 337.899 169.358 340.278 112.126C331.724 105.181 324.474 96.8613 317.109 88.7246C318.916 90.0769 318.665 88.5183 319.534 88.3579C322.484 87.8307 325.846 88.2891 328.316 86.1117C334.103 91.3375 340.689 95.9674 346.613 101.079V101.102Z" fill="#F06827"/>
<path d="M345.126 98.4887C341.215 93.0566 328.202 84.003 322.53 78.6397C300.024 57.3925 281.522 33.3949 265.192 7.15114C257.919 16.8694 251.835 27.5044 244.653 37.2914C227.843 60.1659 207.808 80.267 185.829 98.122C184.182 99.4743 173.227 108.482 172.38 108.597C171.168 108.78 168.835 105.686 169.201 104.677C207.465 76.233 236.946 38.3686 264.62 0.0458316C265.443 -0.137531 265.832 0.504238 266.289 0.985565C272.671 7.49494 281.339 22.8286 287.583 30.9195C300.139 47.2159 314.09 63.581 329.231 77.5166C339.157 86.6618 350.41 94.4089 360.038 103.898C360.336 104.906 357.454 107.473 356.859 107.451C356.128 107.428 346.888 99.1763 345.104 98.4658L345.126 98.4887Z" fill="white"/>
<path d="M298.812 56.1778C296.823 55.7652 294.535 58.6761 292.843 59.547C282.985 46.4825 274.134 32.7073 265.009 19.1156C258.01 30.0944 250.966 40.9816 243.533 51.6854L237.929 48.6828C244.653 40.294 261.304 18.7488 265.192 9.76407C275.827 25.6708 286.187 41.7379 298.812 56.1778Z" fill="#F06827"/>
<path d="M243.533 51.6854C234.407 64.8187 225.167 77.2645 214.395 89.1143C211.879 88.7705 203.531 86.0888 205.429 83.1321C216.842 72.9784 228.369 60.6243 237.929 48.7057L243.533 51.7083V51.6854Z" fill="#F06827"/>
<path d="M345.126 98.4887C345.218 98.6262 345.264 100.276 346.613 101.102C340.689 95.9904 334.103 91.3605 328.316 86.1346C318.161 76.9436 307.824 66.5148 298.812 56.2007C286.187 41.7609 275.827 25.6937 265.192 9.78699C265.58 8.8931 265.924 8.91602 265.946 8.84726C265.946 8.75558 264.986 7.67832 265.192 7.17407C281.499 33.4408 300.024 57.4384 322.53 78.6626C328.202 84.026 341.215 93.0566 345.126 98.5116V98.4887Z" fill="#010E18"/>
<path d="M214.395 89.1143C209.592 94.4089 204.491 99.3826 199.46 104.471L208.059 94.9361L198.911 89.5039C198.065 90.0082 197.356 90.5124 196.487 90.9938C199.025 87.8995 202.502 85.7679 205.452 83.1321C203.554 86.1117 211.902 88.7705 214.418 89.1143H214.395Z" fill="#F06827"/>
<path d="M298.812 56.1777C307.824 66.4919 318.161 76.9436 328.316 86.1117C325.869 88.2891 322.484 87.8307 319.534 88.3579C318.665 88.5183 318.916 90.0769 317.109 88.7246C308.578 79.3044 300.482 69.6778 292.82 59.5241C294.535 58.6531 296.8 55.7423 298.789 56.1548L298.812 56.1777Z" fill="#F06827"/>
<path d="M292.82 59.547C300.459 69.6778 308.578 79.3273 317.109 88.7475C324.451 96.8613 331.724 105.204 340.278 112.149C337.899 169.381 340.209 226.682 340.278 283.96C340.575 284.373 346.133 284.235 347.002 283.777L452.324 285.656C422.454 285.542 392.538 284.9 362.692 284.9C357.706 284.9 352.697 285.267 347.757 285.267C308.052 285.267 268.188 285.702 228.415 285.633C228.14 285.633 228.323 284.877 228.049 284.877C218.283 284.877 208.197 285.977 198.362 286H185.28L184.525 284.12C186.446 284.212 188.39 284.052 190.311 284.12C191.272 227.714 190.7 171.169 189.008 114.739C189.191 113.708 197.973 105.938 199.46 104.448C204.491 99.3826 209.592 94.3859 214.395 89.0913C225.167 77.2415 234.407 64.7958 243.533 51.6624C250.966 40.9815 258.01 30.0944 265.009 19.0926C274.111 32.6844 282.985 46.4366 292.843 59.5241L292.82 59.547Z" fill="#0A1009"/>
<path d="M347.734 285.266V286.023H198.339C208.174 286 218.26 284.877 228.026 284.9C228.3 284.9 228.117 285.656 228.392 285.656C268.165 285.725 308.029 285.289 347.734 285.289V285.266Z" fill="#3C5859"/>
<path d="M362.669 284.877V286H347.734V285.244C352.697 285.244 357.683 284.877 362.669 284.877Z" fill="#918E8F"/>
<path d="M338.402 140.02V212.265C338.54 236.011 339.066 259.802 338.768 283.57H319.717C320.014 238.188 327.561 191.729 315.234 147.332C306.794 116.94 287.56 95.3715 262.379 77.5166C248.061 90.627 235.596 105.869 226.333 122.991C214.463 144.994 210.484 161.107 209.523 186.251C208.288 218.683 209.843 251.207 210.644 283.57L192.53 284.121C190.769 259.894 192.53 235.575 192.347 211.326C192.118 179.145 190.723 146.942 190.471 114.762C220.707 88.61 243.899 55.8339 264.986 22.1181C286.256 55.1463 310.202 86.2263 338.745 113.272C338.105 122.165 338.425 131.127 338.38 140.043L338.402 140.02Z" fill="#F06827"/>
<path d="M338.402 140.02C338.288 164.11 338.265 188.176 338.402 212.265V140.02Z" fill="#E7C63B"/>
<path d="M307.778 166.218C304.462 142.725 297.326 121.707 282.368 103.142C280.653 101.01 266.655 85.9971 265.375 85.745C264.894 85.6533 264.323 85.9283 263.888 86.1117C262.905 86.5243 250.257 99.5201 248.77 101.262C234.27 118.269 225.716 141.946 222.628 163.949C217.208 202.501 222.605 244.973 222.628 283.914L212.359 284.098C210.118 249.098 210.164 213.549 212.176 178.549C214.257 178.022 213.8 175.432 213.663 173.507C212.588 157.875 223.177 133.144 231.594 118.475C232.646 116.642 234.453 116.069 234.59 115.862C235.551 114.395 236.305 111.416 236.831 109.697C241.497 102.935 245.408 97.3197 251.034 91.1771C252.773 89.2747 261.326 79.5794 263.179 79.7628C266.015 80.0378 290.51 104.265 293.621 108.024C318.825 138.462 321.386 179.673 320.883 217.697C320.609 239.816 318.939 262.094 318.093 284.143C312.558 283.387 310.5 286.779 309.699 280.224C307.115 259.412 310.82 227.622 310.454 205.366C310.225 192.347 309.653 179.122 307.846 166.241L307.778 166.218Z" fill="url(#paint1_linear_1506_6753)"/>
<path d="M307.778 166.218C308.075 176.762 309.379 187.282 309.653 197.848C310.156 217.743 309.859 239.678 309.287 259.619C309.287 260.306 309.653 261.475 308.533 261.292C308.83 231.587 310.042 198.513 306.291 169.221C303.981 151.114 299.018 132.778 289.481 117.192C283.351 105.869 274.089 96.1737 264.277 87.9912C251.377 99.8639 241.245 113.41 234.201 129.546C232.737 130.806 231.502 133.946 230.839 135.711C227.18 145.498 224.687 155.996 223.36 166.402L222.605 163.972C225.693 141.969 234.247 118.292 248.747 101.285C250.234 99.543 262.882 86.5472 263.865 86.1346C264.3 85.9513 264.871 85.6533 265.352 85.7679C266.633 86.02 280.63 101.033 282.345 103.164C297.303 121.707 304.439 142.748 307.755 166.241L307.778 166.218Z" fill="black"/>
<path d="M212.153 178.572C213.777 150.243 220.822 132.846 236.808 109.697C236.282 111.416 235.528 114.418 234.567 115.862C234.43 116.069 232.646 116.642 231.571 118.475C223.177 133.144 212.565 157.852 213.64 173.507C213.777 175.432 214.235 178.022 212.153 178.549V178.572Z" fill="#F77A3E"/>
<path d="M289.458 117.192C295.816 128.927 300.596 142.84 303.272 155.927C304.164 160.305 303.524 165.37 306.268 169.221C310.019 198.536 308.807 231.587 308.51 261.292C308.441 268.764 308.716 276.282 308.327 283.754L223.726 283.57C224.344 233.329 213.571 176.785 234.178 129.546C241.223 113.433 251.355 99.8639 264.254 87.9911C274.066 96.1737 283.328 105.869 289.458 117.192Z" fill="#FFF5EB"/>
<path d="M306.268 169.221C303.524 165.37 304.187 160.328 303.272 155.927C300.596 142.84 295.816 128.927 289.458 117.192C298.995 132.778 303.958 151.114 306.268 169.221Z" fill="#FFF5EB"/>
<path d="M243.35 210.775C251.057 209.515 251.286 224.757 245.225 226.132C237.495 227.874 236.557 211.876 243.35 210.775Z" fill="#0A1009"/>
<path d="M243.715 212.632C249.456 211.509 248.907 223.748 244.47 224.23C240.033 224.711 239.027 213.549 243.715 212.632Z" fill="#FD8D1E"/>
<defs>
<linearGradient id="paint0_linear_1506_6753" x1="35.4502" y1="195.969" x2="114.438" y2="240.518" gradientUnits="userSpaceOnUse">
<stop stop-color="#4AB1E6"/>
<stop offset="1" stop-color="#154665"/>
</linearGradient>
<linearGradient id="paint1_linear_1506_6753" x1="212.703" y1="186.801" x2="313.97" y2="209.905" gradientUnits="userSpaceOnUse">
<stop stop-color="#F87B3F"/>
<stop offset="1" stop-color="#E24900"/>
</linearGradient>
</defs>
</svg>
