<svg width="9" height="14" viewBox="0 0 9 14" fill="none" xmlns="http://www.w3.org/2000/svg">
<path d="M7.94471 1.60384C7.78334 1.72573 7.3016 2.08963 7.02389 2.30636C6.46767 2.74043 5.72858 3.33354 4.99169 3.97335C4.25107 4.61639 3.52978 5.2919 2.99954 5.89201C2.73366 6.19293 2.53162 6.45726 2.40013 6.67539C2.27645 6.88055 2.25073 7.00173 2.25073 7.00173C2.25073 7.00173 2.27645 7.11936 2.40012 7.3245C2.53162 7.54262 2.73365 7.80696 2.99953 8.10787C3.52978 8.70798 4.25108 9.3835 4.9917 10.0265C5.7286 10.6663 6.4677 11.2595 7.02392 11.6935C7.30163 11.9103 7.7827 12.2737 7.94407 12.3955C8.27759 12.6412 8.34953 13.1112 8.1039 13.4447C7.85826 13.7782 7.38877 13.8495 7.05524 13.6038L7.0527 13.6019C6.88345 13.4741 6.38443 13.0972 6.10108 12.8761C5.5323 12.4322 4.77139 11.8217 4.00829 11.1592C3.24891 10.4999 2.47021 9.7742 1.87546 9.10108C1.57884 8.76538 1.31212 8.42509 1.1155 8.09892C0.93128 7.79335 0.749997 7.40645 0.75 6.99994C0.750003 6.59343 0.931287 6.20654 1.1155 5.90096C1.31213 5.5748 1.57884 5.23451 1.87546 4.89881C2.47021 4.22569 3.2489 3.50002 4.00827 2.8407C4.77137 2.17815 5.53226 1.56772 6.10104 1.12384C6.38459 0.902555 6.88363 0.525629 7.05253 0.398051L7.05472 0.396402C7.38824 0.150767 7.85821 0.221663 8.10385 0.555184C8.34947 0.888695 8.27821 1.3582 7.94471 1.60384Z" fill="#E3F0FB"/>
</svg>
