<svg width="18" height="32" viewBox="0 0 18 32" fill="none" xmlns="http://www.w3.org/2000/svg">
<path d="M1.46456 3.93386C1.8254 4.20641 2.90261 5.02013 3.52359 5.50475C4.76732 6.47537 6.41998 7.8016 8.06772 9.23225C9.72379 10.6701 11.3367 12.1806 12.5223 13.5225C13.1168 14.1954 13.5686 14.7865 13.8626 15.2742C14.1392 15.7329 14.1967 16.0039 14.1967 16.0039C14.1967 16.0039 14.1392 16.2669 13.8626 16.7256C13.5686 17.2134 13.1169 17.8045 12.5223 18.4773C11.3367 19.8192 9.72379 21.3297 8.06769 22.7676C6.41994 24.1982 4.76726 25.5245 3.52352 26.4951C2.90253 26.9797 1.82684 27.7923 1.466 28.0648C0.720217 28.6141 0.559362 29.6651 1.10861 30.4108C1.65787 31.1566 2.7077 31.3159 3.45348 30.7667L3.45899 30.7625C3.83731 30.4768 4.95336 29.6338 5.58705 29.1393C6.85889 28.1468 8.56033 26.7818 10.2667 25.3003C11.9647 23.826 13.7059 22.2033 15.0358 20.6982C15.6991 19.9476 16.2955 19.1866 16.7352 18.4573C17.1471 17.774 17.5524 16.9089 17.5524 15.9999C17.5524 15.0909 17.1471 14.2258 16.7351 13.5425C16.2955 12.8132 15.6991 12.0523 15.0358 11.3016C13.7059 9.79651 11.9647 8.17386 10.2667 6.69958C8.56038 5.21806 6.85896 3.8531 5.58714 2.86056C4.95312 2.36576 3.8373 1.52297 3.45958 1.23767L3.45465 1.23395C2.70888 0.684696 1.65798 0.843223 1.10873 1.589C0.559488 2.33475 0.718843 3.38459 1.46456 3.93386Z" fill="#646B73"/>
</svg>
