<svg width="18" height="32" viewBox="0 0 18 32" fill="none" xmlns="http://www.w3.org/2000/svg">
<path d="M16.5354 3.93386C16.1746 4.20641 15.0974 5.02013 14.4764 5.50475C13.2327 6.47537 11.58 7.8016 9.93228 9.23225C8.27621 10.6701 6.66335 12.1806 5.47769 13.5225C4.88316 14.1954 4.43141 14.7865 4.13737 15.2742C3.86082 15.7329 3.80332 16.0039 3.80332 16.0039C3.80332 16.0039 3.86083 16.2669 4.13735 16.7256C4.43139 17.2134 4.88315 17.8045 5.47767 18.4773C6.66334 19.8192 8.27621 21.3297 9.93231 22.7676C11.5801 24.1982 13.2327 25.5245 14.4765 26.4951C15.0975 26.9797 16.1732 27.7923 16.534 28.0648C17.2798 28.6141 17.4406 29.6651 16.8914 30.4108C16.3421 31.1566 15.2923 31.3159 14.5465 30.7667L14.541 30.7625C14.1627 30.4768 13.0466 29.6338 12.4129 29.1393C11.1411 28.1468 9.43967 26.7818 7.73333 25.3003C6.03531 23.826 4.29408 22.2033 2.96417 20.6982C2.30091 19.9476 1.70451 19.1866 1.26484 18.4573C0.852926 17.774 0.447563 16.9089 0.447571 15.9999C0.447579 15.0909 0.85294 14.2258 1.26486 13.5425C1.70453 12.8132 2.30092 12.0523 2.96418 11.3016C4.29408 9.79651 6.03529 8.17386 7.73329 6.69958C9.43962 5.21806 11.141 3.8531 12.4129 2.86056C13.0469 2.36576 14.1627 1.52297 14.5404 1.23767L14.5453 1.23395C15.2911 0.684696 16.342 0.843223 16.8913 1.589C17.4405 2.33475 17.2812 3.38459 16.5354 3.93386Z" fill="#646B73"/>
</svg>
