<svg width="40" height="40" viewBox="0 0 40 40" fill="none" xmlns="http://www.w3.org/2000/svg">
<path fill-rule="evenodd" clip-rule="evenodd" d="M26.8093 6.75046C28.5877 4.97202 31.4712 4.97201 33.2496 6.75046C35.0281 8.5289 35.028 11.4123 33.2496 13.1908L17.1902 29.2501C17.1451 29.2953 17.1004 29.34 17.0562 29.3842C15.4422 30.9986 14.4558 31.9852 13.2413 32.6639C12.5639 33.0424 11.5365 33.3731 10.485 33.6657C9.40338 33.9667 8.15882 34.263 6.97078 34.5459L6.9563 34.5493C6.53403 34.6498 6.08983 34.5241 5.78289 34.2172C5.47595 33.9102 5.35022 33.466 5.45077 33.0438L5.45424 33.0292C5.73709 31.8412 6.03341 30.5967 6.33441 29.515C6.627 28.4636 6.95767 27.4361 7.3362 26.7587C8.01482 25.5443 9.00148 24.5579 10.6158 22.9439C10.6601 22.8997 10.7048 22.855 10.7499 22.8098L26.8093 6.75046ZM31.4818 8.51822C30.6797 7.71609 29.3792 7.71609 28.5771 8.51822L27.1247 9.97061L30.0295 12.8754L31.4818 11.423C32.284 10.6209 32.284 9.32035 31.4818 8.51822ZM28.2617 14.6431L25.3569 11.7384L12.5177 24.5776C10.7275 26.3678 10.0077 27.103 9.51858 27.9782C9.30395 28.3623 9.03965 29.1189 8.74289 30.1853C8.61608 30.6409 8.48945 31.1297 8.36287 31.6372C8.87036 31.5106 9.35913 31.384 9.81481 31.2572C10.8812 30.9604 11.6377 30.6961 12.0218 30.4815C12.8971 29.9924 13.6323 29.2725 15.4225 27.4824L28.2617 14.6431Z" fill="#0F2837"/>
<path opacity="0.4" fill-rule="evenodd" clip-rule="evenodd" d="M17.0833 33.3334C17.0833 32.643 17.6429 32.0834 18.3333 32.0834H28.3333C29.0236 32.0834 29.5833 32.643 29.5833 33.3334C29.5833 34.0237 29.0236 34.5834 28.3333 34.5834H18.3333C17.6429 34.5834 17.0833 34.0237 17.0833 33.3334Z" fill="#0F2837"/>
</svg>
