<svg width="45" height="44" viewBox="0 0 45 44" fill="none" xmlns="http://www.w3.org/2000/svg">
<path fill-rule="evenodd" clip-rule="evenodd" d="M22.5 43.9479C10.3785 43.9479 0.552124 34.1215 0.552124 22C0.552124 9.8785 10.3785 0.0520859 22.5 0.0520859C34.6215 0.0520859 44.448 9.8785 44.448 22C44.448 34.1215 34.6215 43.9479 22.5 43.9479ZM30.0687 17.3187C30.866 16.5214 30.8661 15.2287 30.0688 14.4314C29.2715 13.634 27.9788 13.634 27.1814 14.4313L22.4996 19.1127L17.8187 14.4321C17.0213 13.6348 15.7286 13.6348 14.9313 14.4322C14.134 15.2295 14.1341 16.5222 14.9314 17.3195L19.6122 22L14.9314 26.6805C14.1341 27.4778 14.134 28.7705 14.9313 29.5678C15.7286 30.3652 17.0213 30.3652 17.8187 29.5679L22.4996 24.8873L27.1814 29.5687C27.9788 30.366 29.2715 30.366 30.0688 29.5686C30.8661 28.7713 30.866 27.4786 30.0687 26.6813L25.3871 22L30.0687 17.3187Z" fill="#F06827"/>
</svg>
