<svg width="24" height="25" viewBox="0 0 24 25" fill="none" xmlns="http://www.w3.org/2000/svg">
<path d="M15.9217 7.25133C15.0461 7.25126 14.2675 7.25119 13.6389 7.33573C12.9557 7.42762 12.2658 7.63951 11.7019 8.20354C11.138 8.76757 10.9262 9.45769 10.8344 10.1411C10.7499 10.7699 10.7499 11.5488 10.75 12.4246L10.75 13.2532H10C9.30964 13.2532 8.75 13.813 8.75 14.5036C8.75 15.1942 9.30964 15.754 10 15.754H10.75V21.7515C10.75 22.2258 10.75 22.4629 10.6013 22.6098C10.4526 22.7566 10.2173 22.7536 9.7467 22.7477C8.55726 22.7326 7.54575 22.6909 6.68802 22.5756C5.31137 22.3904 4.21911 22.0033 3.36091 21.1448C2.50272 20.2863 2.11568 19.1937 1.93059 17.8166C1.74998 16.4728 1.74999 14.7516 1.75 12.5602V12.4458C1.74999 10.2544 1.74998 8.53317 1.93059 7.18933C2.11568 5.81224 2.50272 4.71964 3.36091 3.86118C4.21911 3.00271 5.31137 2.61555 6.68802 2.43041C8.03143 2.24973 9.75214 2.24974 11.9428 2.24976H12.0572C14.2479 2.24974 15.9686 2.24973 17.312 2.43041C18.6886 2.61555 19.7809 3.00271 20.6391 3.86118C21.4973 4.71964 21.8843 5.81224 22.0694 7.18933C22.25 8.53317 22.25 10.2544 22.25 12.4458V12.5602C22.25 14.7516 22.25 16.4728 22.0694 17.8166C21.8843 19.1937 21.4973 20.2863 20.6391 21.1448C19.7809 22.0033 18.6886 22.3904 17.312 22.5756C16.4543 22.6909 15.4427 22.7326 14.2533 22.7477C13.7827 22.7536 13.5474 22.7566 13.3987 22.6098C13.25 22.4629 13.25 22.2258 13.25 21.7515V15.754H15C15.6904 15.754 16.25 15.1942 16.25 14.5036C16.25 13.813 15.6904 13.2532 15 13.2532H13.25V12.503C13.25 11.5245 13.2527 10.9165 13.3121 10.4744C13.3657 10.0753 13.4449 9.99651 13.4685 9.97307L13.4697 9.97186L13.4709 9.97066C13.4943 9.94709 13.5731 9.86787 13.972 9.81422C14.414 9.75478 15.0219 9.75212 16 9.75212H17C17.6904 9.75212 18.25 9.19231 18.25 8.50173C18.25 7.81116 17.6904 7.25134 17 7.25134L15.9217 7.25133Z" fill="#1877F2" fill-opacity="0.921569"/>
</svg>
