<svg width="214" height="162" viewBox="0 0 214 162" fill="none" xmlns="http://www.w3.org/2000/svg">
<path opacity="0.1" d="M-23.4214 140.27C-8.75146 154.591 10.5434 161.751 34.4548 161.751C60.281 161.751 79.3194 155.002 91.5786 141.51C91.8265 141.237 92.0231 140.997 92.2368 140.749C106.838 154.745 125.962 161.751 149.6 161.751C175.426 161.751 194.465 155.002 206.724 141.51C208.228 139.859 208.981 138.679 208.981 137.96C208.981 135.385 206.493 129.362 201.518 119.875C199.611 116.239 197.91 113.228 196.422 110.832C193.892 106.76 188.643 105.563 184.668 108.138C183.043 109.19 181.411 110.251 179.786 111.303C179.555 111.457 179.316 111.594 179.068 111.731C170.152 116.539 161.278 118.951 152.455 118.951C145.018 118.951 138.384 117.514 132.562 114.622C132.494 114.588 132.417 114.554 132.348 114.52C124.654 110.678 127.099 98.7528 135.631 98.0341C151.395 96.7167 163.791 95.5532 172.81 94.5266C192.507 92.4649 202.903 91.3356 204.014 91.1303C210.545 89.6931 213.811 83.7645 213.811 73.3616C213.811 53.4799 207.074 36.3272 193.618 21.895C180.145 7.47135 163.766 0.259521 144.471 0.259521C121.56 0.259521 103.171 8.08731 89.3046 23.7514C87.6717 25.5908 86.1415 27.4985 84.7052 29.4576C82.8159 26.8569 80.7471 24.3332 78.4646 21.895C65 7.47135 48.6203 0.259521 29.3254 0.259521C6.41431 0.259521 -11.9658 8.08731 -25.8407 23.7514C-39.3053 38.8937 -46.0333 58.3135 -46.0333 82.0107C-46.0333 105.708 -38.5017 125.744 -23.4214 140.27ZM20.4858 98.0341C36.25 96.7167 48.6459 95.5532 57.665 94.5266C62.1703 94.0561 66.1712 93.6369 69.7105 93.2605C70.2148 98.0598 71.0441 102.662 72.2238 107.025C71.292 107.239 70.3858 107.581 69.5309 108.138C67.9066 109.19 66.2738 110.251 64.6495 111.303C64.4187 111.457 64.1793 111.594 63.9314 111.731C55.0149 116.539 46.1411 118.951 37.3186 118.951C29.8811 118.951 23.2471 117.514 17.4253 114.622C17.3569 114.588 17.28 114.554 17.2116 114.52C9.51757 110.678 11.9626 98.7528 20.4944 98.0341" fill="#000"/>
</svg>
