<svg width="229" height="162" viewBox="0 0 229 162" fill="none" xmlns="http://www.w3.org/2000/svg">
<path opacity="0.1" d="M22.6119 140.154C37.2818 154.475 56.5767 161.635 80.488 161.635C106.314 161.635 125.353 154.885 137.612 141.394C137.86 141.12 138.056 140.881 138.27 140.633C152.872 154.629 171.996 161.635 195.633 161.635C221.46 161.635 240.498 154.885 252.757 141.394C254.262 139.743 255.014 138.562 255.014 137.844C255.014 135.269 252.526 129.246 247.551 119.759C245.644 116.123 243.943 113.111 242.456 110.716C239.925 106.644 234.676 105.446 230.701 108.021C229.077 109.073 227.444 110.134 225.82 111.186C225.589 111.34 225.349 111.477 225.101 111.614C216.185 116.422 207.311 118.835 198.489 118.835C191.051 118.835 184.417 117.397 178.595 114.506C178.527 114.472 178.45 114.437 178.382 114.403C170.688 110.562 173.133 98.6363 181.664 97.9177C197.429 96.6002 209.825 95.4368 218.844 94.4102C238.54 92.3484 248.936 91.2192 250.047 91.0138C256.578 89.5766 259.844 83.648 259.844 73.2452C259.844 53.3635 253.108 36.2108 239.652 21.7786C226.179 7.3549 209.799 0.143066 190.504 0.143066C167.593 0.143066 149.204 7.97085 135.338 23.635C133.705 25.4743 132.175 27.3821 130.739 29.3411C128.849 26.7404 126.78 24.2167 124.498 21.7786C111.033 7.3549 94.6536 0.143066 75.3587 0.143066C52.4476 0.143066 34.0674 7.97085 20.1925 23.635C6.72799 38.7773 0 58.197 0 81.8942C0 105.591 7.53159 125.627 22.6119 140.154ZM66.5191 97.9177C82.2833 96.6002 94.6792 95.4368 103.698 94.4102C108.204 93.9396 112.204 93.5204 115.744 93.144C116.248 97.9434 117.077 102.546 118.257 106.909C117.325 107.123 116.419 107.465 115.564 108.021C113.94 109.073 112.307 110.134 110.683 111.186C110.452 111.34 110.213 111.477 109.965 111.614C101.048 116.422 92.1744 118.835 83.3519 118.835C75.9143 118.835 69.2804 117.397 63.4586 114.506C63.3902 114.472 63.3132 114.437 63.2449 114.403C55.5508 110.562 57.9958 98.6363 66.5276 97.9177" fill="#000"/>
</svg>
