 <svg
          width="36"
          height="36"
          viewBox="0 0 36 36"
          fill="none"
          xmlns="http://www.w3.org/2000/svg"
        >
          <path
            fill-rule="evenodd"
            clip-rule="evenodd"
            d="M20.1086 1.08308C20.2468 0.406699 20.9071 -0.0295824 21.5835 0.108618C28.4097 1.50337 33.8647 6.66792 35.7212 13.342C35.7257 13.358 35.7303 13.3746 35.7351 13.3916C35.7948 13.6051 35.8745 13.8905 35.9031 14.1413C35.9368 14.4374 35.9431 15.0542 35.4175 15.5293C34.8799 16.0152 34.2518 15.9308 33.9684 15.8653C33.7211 15.8082 33.4434 15.696 33.2324 15.6107C33.2157 15.604 33.1995 15.5975 33.1838 15.5911L33.1584 15.5809L29.9828 14.138C29.3543 13.8524 29.0763 13.1114 29.3619 12.4829C29.6475 11.8544 30.3885 11.5764 31.017 11.862L32.8914 12.7136C30.9767 7.5674 26.5274 3.67043 21.083 2.55801C20.4066 2.41981 19.9704 1.75946 20.1086 1.08308ZM12.7136 3.10846L11.8619 4.98289C11.5763 5.6114 11.8543 6.35243 12.4828 6.63801C13.1113 6.9236 13.8524 6.64559 14.138 6.01708L15.5809 2.84146L15.5911 2.81611C15.5974 2.80037 15.604 2.78417 15.6107 2.76755C15.6959 2.55651 15.8081 2.27885 15.8652 2.03152C15.9307 1.74813 16.0151 1.12001 15.5293 0.582426C15.0542 0.0567494 14.4374 0.0631045 14.1413 0.0968128C13.8904 0.125371 13.6051 0.205119 13.3916 0.264796C13.3745 0.269555 13.358 0.274187 13.3419 0.278654C6.66785 2.13523 1.50331 7.59023 0.108557 14.4164C-0.0296434 15.0928 0.406638 15.7531 1.08302 15.8913C1.7594 16.0295 2.41975 15.5933 2.55795 14.9169C3.67037 9.47251 7.56733 5.02315 12.7136 3.10846ZM34.9168 20.1086C35.5932 20.2468 36.0295 20.9072 35.8913 21.5835C34.4965 28.4097 29.332 33.8647 22.6579 35.7213C22.6419 35.7258 22.6253 35.7304 22.6083 35.7352C22.3948 35.7948 22.1094 35.8746 21.8586 35.9032C21.5625 35.9369 20.9457 35.9432 20.4706 35.4175C19.9847 34.8799 20.0691 34.2518 20.1346 33.9684C20.1917 33.7211 20.3039 33.4435 20.3891 33.2325C20.3959 33.2158 20.4024 33.1996 20.4088 33.1838L20.419 33.1585L21.8619 29.9829C22.1475 29.3544 22.8885 29.0764 23.517 29.362C24.1455 29.6475 24.4235 30.3886 24.1379 31.0171L23.2863 32.8915C28.4325 30.9768 32.3295 26.5274 33.4419 21.0831C33.5801 20.4067 34.2404 19.9704 34.9168 20.1086ZM2.76751 20.3892C2.78412 20.3959 2.80032 20.4025 2.81605 20.4088L2.8414 20.419L6.01702 21.8619C6.64553 22.1475 6.92353 22.8886 6.63795 23.5171C6.35237 24.1456 5.61134 24.4236 4.98283 24.138L3.1084 23.2863C5.02309 28.4326 9.47245 32.3295 14.9168 33.442C15.5932 33.5802 16.0295 34.2405 15.8913 34.9169C15.7531 35.5933 15.0927 36.0295 14.4164 35.8913C7.59017 34.4966 2.13517 29.332 0.278593 22.658C0.274126 22.642 0.269494 22.6254 0.264735 22.6084C0.205058 22.3948 0.12531 22.1095 0.0967521 21.8586C0.0630445 21.5626 0.0566862 20.9457 0.582365 20.4706C1.11996 19.9848 1.74808 20.0692 2.03147 20.1347C2.27879 20.1918 2.55647 20.304 2.76751 20.3892Z"
            fill="#0F2837"
          />
          <path
            opacity="0.4"
            fill-rule="evenodd"
            clip-rule="evenodd"
            d="M18.2476 11.9111L13.8188 17.5959H15.7534C16.9961 17.5959 17.7523 18.6817 17.7523 19.6917V24.0889L22.1811 18.4042H20.2464C19.0037 18.4042 18.2476 17.3183 18.2476 16.3083V11.9111ZM19.1723 10.7241L19.1727 10.7237L18.9039 10.5142L19.1727 10.7237C19.1726 10.7238 19.1725 10.7239 19.1723 10.7241ZM19.5033 8.57295C20.2512 8.89175 20.7476 9.64143 20.7476 10.5142V15.9042H23.083C24.0291 15.9042 24.6685 16.5442 24.9258 17.1871C25.1828 17.8293 25.1508 18.66 24.6312 19.327L18.7993 26.8128C18.2117 27.5671 17.2722 27.7577 16.4966 27.4271C15.7487 27.1083 15.2523 26.3586 15.2523 25.4858V20.0959H12.9169C11.9707 20.0959 11.3313 19.4558 11.074 18.8129C10.817 18.1708 10.849 17.34 11.3687 16.673L17.2005 9.18723C17.7882 8.43292 18.7276 8.24234 19.5033 8.57295Z"
            fill="#0F2837"
          />
        </svg>