<svg width="421" height="318" viewBox="0 0 421 318" fill="none" xmlns="http://www.w3.org/2000/svg">
<g clip-path="url(#clip0_1517_1993)">
<path d="M160.51 277.19C172.546 277.054 184.888 275.481 196.403 279.001C213.115 284.118 224.857 298.925 239.973 307.698C255.134 316.506 273.318 318.94 290.8 317.683C322.198 315.43 407.107 287.661 419.992 271.915C396.917 271.088 374.056 275.854 351.06 277.903C328.063 279.952 303.776 279.001 283.599 267.783C264.951 257.413 251.907 239.482 235.58 225.75C205.042 200.042 163.783 189.933 123.859 190.012C83.935 190.08 42.6412 207.423 3.81567 216.751C3.81567 216.751 20.46 226.215 34.1152 234.331C47.2042 242.108 60.5423 249.523 74.3447 255.964C101.338 268.564 130.471 277.53 160.51 277.19Z" fill="#FF9DA0" fill-opacity="0.23"/>
<path d="M6.70303 209.823C6.03499 212.268 5.08388 214.589 3.81574 216.751C38.4858 224.55 127.731 239.55 162.379 247.35C197.954 235.78 235.433 224.154 271.008 212.585C275.152 205.498 276.84 196.997 275.696 188.869C274.541 180.752 270.499 172.975 264.543 167.326C228.197 161.394 145.315 148.704 108.958 142.772C72.6463 152.791 36.3232 162.809 0 172.828C0.815233 174.164 1.58518 175.567 2.28718 177.028C7.16726 186.956 9.52238 199.419 6.6917 209.823H6.70303Z" fill="#0C8942"/>
<path d="M268.982 200.574C268.789 201.287 268.574 201.989 268.325 202.68C267.555 204.785 266.559 206.698 265.302 208.294C233.542 218.347 194.648 229.181 162.865 239.233C162.831 239.244 162.786 239.256 162.752 239.267L6.70296 209.823C7.41629 207.185 7.78993 204.423 7.89184 201.604C7.91448 200.914 7.92581 200.234 7.90316 199.533C7.89184 197.687 7.73332 195.842 7.48422 193.986C7.39364 193.238 7.28041 192.514 7.12189 191.789C6.80486 189.808 6.31798 187.839 5.74053 185.903C5.51407 185.099 5.25365 184.307 4.97059 183.514C4.18932 181.261 3.30615 179.111 2.28711 177.039C10.7452 178.228 19.0334 179.473 27.231 180.763C72.952 187.94 115.389 196.318 162.537 202.963C192.78 193.612 232.477 184.25 262.686 174.888C264.294 176.201 265.63 177.82 266.672 179.631C266.989 180.163 267.283 180.718 267.566 181.295C268.642 183.593 269.355 186.163 269.706 188.801C269.785 189.457 269.865 190.114 269.899 190.759C270.137 194.099 269.819 197.495 268.982 200.585V200.574Z" fill="#FDF9F7"/>
<path d="M268.982 200.574C268.789 201.287 268.574 201.989 268.325 202.68C267.555 204.785 266.559 206.698 265.302 208.294C233.542 218.347 194.648 229.181 162.865 239.233C162.843 236.731 161.812 234.195 160.284 232.169C158.076 229.237 154.917 227.177 151.769 225.264C113.974 202.114 70.7328 190.318 27.2197 180.752C72.9407 187.929 115.378 196.306 162.526 202.951C192.769 193.601 232.466 184.239 262.675 174.877C264.283 176.19 265.619 177.809 266.661 179.62C266.978 180.152 267.272 180.707 267.555 181.284C268.631 183.582 269.344 186.152 269.695 188.789C269.774 189.446 269.854 190.103 269.887 190.748C270.125 194.087 269.808 197.484 268.97 200.574H268.982Z" fill="#C5CDEA"/>
<path d="M162.786 211.645H162.82C162.922 211.645 163.047 211.645 163.182 211.611C171.788 209.268 180.404 206.913 188.975 204.446C204.125 200.121 219.241 195.718 234.368 191.291C245.453 188.031 256.538 184.692 267.578 181.284C267.306 180.718 267.011 180.163 266.683 179.631C262.267 181.001 257.829 182.36 253.402 183.707C238.331 188.303 223.215 192.774 208.066 197.087C192.893 201.378 177.653 205.442 162.435 209.494C162.265 209.54 162.129 209.608 162.016 209.721C161.314 210.276 161.812 211.577 162.775 211.657L162.786 211.645Z" fill="#0E2C43"/>
<path d="M164.201 230.007C164.292 230.007 164.394 230.007 164.485 229.984C173.146 227.879 181.808 225.728 190.447 223.486C205.699 219.536 220.928 215.528 236.146 211.475C246.902 208.611 257.625 205.691 268.336 202.668C268.574 201.978 268.789 201.276 268.993 200.563C264.464 201.831 259.912 203.098 255.383 204.378C240.188 208.6 224.97 212.675 209.719 216.592C194.456 220.532 179.102 224.188 163.783 227.856C163.613 227.89 163.477 227.969 163.364 228.071C162.628 228.626 163.148 230.052 164.213 230.007H164.201Z" fill="#0E2C43"/>
<path d="M162.469 220.17C162.56 220.17 162.628 220.158 162.707 220.136C171.697 218.109 180.653 216.004 189.61 213.785C205.484 209.834 221.279 205.487 236.984 200.857C244.808 198.57 252.609 196.193 260.365 193.725C263.535 192.718 266.728 191.733 269.899 190.748C269.865 190.103 269.785 189.446 269.706 188.79C265.483 190.205 261.259 191.608 256.991 192.921C241.366 197.778 225.616 202.283 209.775 206.427C193.923 210.547 178.004 214.419 161.994 217.86C161.892 217.883 161.801 217.917 161.722 217.973C160.657 218.449 161.235 220.226 162.458 220.17H162.469Z" fill="#0E2C43"/>
<path d="M4.9707 183.503C5.25377 184.284 5.51419 185.088 5.74065 185.891C33.334 190.974 64.143 196.657 69.1024 197.45C84.6484 199.974 100.217 202.442 115.774 204.853C131.354 207.264 146.946 209.54 162.56 211.645C162.628 211.645 162.718 211.645 162.786 211.645H162.82C163.76 211.521 163.828 209.959 162.73 209.811C162.503 209.777 162.254 209.743 162.016 209.721C153.411 208.544 144.828 207.321 136.223 206.087C120.632 203.834 105.052 201.457 89.5059 198.899C79.8363 197.302 38.5651 189.706 4.9707 183.503Z" fill="#0E2C43"/>
<path d="M7.89194 201.593C35.3608 206.789 65.8641 212.528 70.7668 213.457C86.2562 216.366 101.757 219.23 117.258 222.037C132.758 224.845 148.293 227.528 163.839 230.03C163.986 230.052 164.1 230.041 164.202 230.018H164.27C165.051 229.747 165.085 228.365 164.054 228.196C163.828 228.162 163.579 228.116 163.341 228.082C154.781 226.69 146.221 225.264 137.65 223.792C122.126 221.166 106.603 218.381 91.125 215.426C81.6139 213.626 41.2259 205.917 7.89194 199.533C7.91458 200.234 7.90326 200.914 7.88062 201.604L7.89194 201.593Z" fill="#0E2C43"/>
<path d="M7.1333 191.778C7.2805 192.503 7.39372 193.227 7.4843 193.974C33.4812 198.933 60.4065 204.061 65.1168 205C81.1836 208.193 97.3072 210.966 113.487 213.468C121.549 214.724 129.611 215.89 137.684 216.977C145.836 218.053 153.966 219.264 162.141 220.192C162.243 220.192 162.356 220.203 162.435 220.192C162.492 220.192 162.537 220.17 162.605 220.158C163.545 219.853 163.624 218.211 162.447 218.075C162.22 218.041 161.971 218.03 161.745 217.996C152.811 216.989 143.9 216.06 135 214.815C118.775 212.551 102.617 209.936 86.5166 206.936C77.1188 205.181 39.7653 198.106 7.1333 191.789V191.778Z" fill="#0E2C43"/>
<path d="M13.7118 172.556C23.0417 173.699 32.3263 175.296 41.6222 176.643C50.9295 177.99 60.248 179.292 69.544 180.695C88.0792 183.492 106.58 186.503 125.048 189.695C130.222 190.589 135.385 191.495 140.549 192.423C145.768 193.363 150.988 194.484 156.242 195.231C157.725 195.446 157.295 197.834 155.879 197.484C151.316 196.363 146.651 195.593 142.043 194.699C137.423 193.804 132.804 192.933 128.184 192.072C118.934 190.352 109.683 188.654 100.41 187.091C81.9197 183.99 63.3957 181.126 44.8379 178.499C34.3644 177.016 23.8343 176.077 13.3608 174.718C11.9568 174.537 12.3078 172.386 13.7005 172.556H13.7118Z" fill="#0E2C43"/>
<path d="M235.41 174.718C238.331 173.858 241.241 172.986 244.162 172.126C247.197 171.22 250.22 170.02 253.311 169.352C254.545 169.092 255.043 170.801 253.855 171.243C251.284 172.194 248.544 172.737 245.906 173.462C243.177 174.209 240.471 175.013 237.754 175.782C232.455 177.299 227.167 178.794 221.879 180.345C211.247 183.458 200.627 186.639 189.995 189.797C184.016 191.574 178.061 193.374 172.048 195.016C170.882 195.333 170.372 193.578 171.527 193.227C182.114 189.955 192.814 187.046 203.469 184.001C214.123 180.967 224.778 177.888 235.399 174.73L235.41 174.718Z" fill="#0E2C43"/>
<path d="M110.668 145.331C119.873 147.289 129.169 148.908 138.42 150.663C147.671 152.417 156.944 154.059 166.217 155.7C184.696 158.96 203.186 162.13 221.743 164.938C226.929 165.719 232.126 166.477 237.324 167.19C242.6 167.915 247.899 168.458 253.164 169.194C254.67 169.398 254.262 171.752 252.768 171.515C243.46 170.077 234.21 168.322 224.914 166.851C215.618 165.379 206.311 163.93 197.015 162.424C178.491 159.436 159.967 156.447 141.477 153.244C131.071 151.444 120.677 149.485 110.249 147.787C108.664 147.527 109.105 145.014 110.668 145.342V145.331Z" fill="#0E2C43"/>
<path d="M20.664 167.337C72.4879 174.888 124.312 182.427 176.124 189.978C207.522 178.658 240.766 169.93 272.175 158.609C271.416 157.738 270.624 156.594 269.831 155.293C267.159 150.889 264.611 144.697 264.679 140.791C264.724 137.588 265.528 134.395 266.978 131.542C267.816 129.901 268.869 128.373 270.091 127.026C223.94 119.837 177.812 109.287 131.649 102.098C94.8502 111.981 56.5116 122.305 19.7016 132.176C12.489 142.116 13.7006 157.24 20.664 167.349V167.337Z" fill="#450A0C"/>
<path d="M269.831 155.293C239.237 165.175 205.767 174.186 175.943 184.295C175.887 184.227 175.853 184.182 175.819 184.114C170.622 177.288 170.678 167.27 172.999 158.994C203.254 150.176 233.451 141.335 263.705 132.493C264.713 132.199 265.721 131.905 266.74 131.61C266.819 131.588 266.876 131.576 266.921 131.554C266.944 131.543 266.955 131.531 266.989 131.531H266.978C265.528 134.395 264.725 137.565 264.691 140.78C264.623 144.685 267.17 150.878 269.842 155.281L269.831 155.293Z" fill="#F8FDF7"/>
<path d="M263.706 132.505C264.713 132.21 265.721 131.916 266.74 131.622C261.815 133.229 182.918 159.3 175.943 184.295C175.887 184.227 175.853 184.182 175.819 184.114C170.622 177.288 170.678 167.27 172.999 158.994C203.254 150.176 233.451 141.335 263.706 132.493V132.505Z" fill="#C5CDEA"/>
<path d="M172.626 162.787C184.526 159.47 196.403 156.119 208.292 152.757C220.113 149.406 231.923 145.987 243.71 142.523C250.39 140.565 257.002 138.391 263.683 136.399C264.736 136.082 265.347 137.712 264.283 138.006C258.338 139.682 252.337 141.176 246.393 142.874C240.46 144.572 234.538 146.293 228.605 148.014C216.807 151.444 205.031 154.942 193.256 158.44C186.575 160.421 179.918 162.447 173.249 164.451C172.139 164.79 171.516 163.07 172.626 162.764V162.787Z" fill="#0E2C43"/>
<path d="M172.739 170.892C184.526 167.519 196.29 164.1 208.054 160.647C219.807 157.194 231.662 154.013 243.325 150.278C249.914 148.172 256.493 146.033 263.083 143.916C264.238 143.542 264.894 145.353 263.739 145.682C257.818 147.312 251.896 148.908 245.985 150.549C240.075 152.179 234.221 153.957 228.356 155.757C216.648 159.357 204.918 162.9 193.199 166.443C186.575 168.447 179.974 170.518 173.362 172.567C172.263 172.907 171.641 171.209 172.739 170.903V170.892Z" fill="#0E2C43"/>
<path d="M175.536 178.624C177.098 178.409 178.627 177.797 180.133 177.311L184.458 175.941C187.39 175.013 190.334 174.084 193.267 173.179C199.155 171.356 205.042 169.556 210.908 167.7C222.706 163.987 234.504 160.307 246.234 156.391C252.813 154.194 259.369 151.919 265.959 149.768C266.887 149.463 267.43 150.934 266.491 151.229C254.692 154.942 242.826 158.44 231.051 162.232C219.286 166.024 207.545 169.896 195.826 173.813C192.508 174.922 189.191 176.02 185.873 177.096C184.231 177.628 182.601 178.16 180.959 178.692C179.283 179.235 177.517 179.665 175.955 180.48C174.822 181.069 174.064 178.816 175.536 178.613V178.624Z" fill="#0E2C43"/>
<path d="M26.0649 132.833C28.4087 132.958 30.7072 133.433 33.0284 133.773C35.3382 134.112 37.6594 134.463 39.9692 134.803C44.6002 135.493 49.2311 136.184 53.8508 136.874C62.9995 138.233 72.1596 139.603 81.3083 140.961C99.7756 143.701 118.243 146.44 136.71 149.146C147.082 150.663 157.442 152.168 167.802 153.742C168.901 153.912 168.606 155.598 167.508 155.44C149.086 152.746 130.698 149.881 112.287 147.131C93.8199 144.368 75.3639 141.618 56.8966 138.867C51.7448 138.097 46.5816 137.339 41.4298 136.569C38.8482 136.184 36.278 135.799 33.6964 135.414C31.0696 135.018 28.4087 134.791 25.8271 134.146C24.9779 133.931 25.2157 132.799 26.0536 132.833H26.0649Z" fill="#0E2C43"/>
<path d="M75.7148 173.609C74.4693 171.096 73.3031 168.628 72.5445 165.911C71.8085 163.262 71.3896 160.545 71.2877 157.806C71.0952 152.281 72.1822 146.7 74.5712 141.697C75.0128 140.769 73.6315 139.954 73.1672 140.893C69.125 149.044 68.423 158.666 71.0838 167.36C71.8311 169.794 72.8049 172.318 74.1976 174.458C74.809 175.398 76.213 174.605 75.7148 173.598V173.609Z" fill="#0E2C43"/>
<path d="M89.3586 175.624C89.1095 174.277 88.4302 172.93 88.0339 171.605C87.6602 170.337 87.3432 169.058 87.0828 167.768C86.5506 165.119 86.2675 162.413 86.2336 159.708C86.1656 154.24 87.1847 148.863 89.1548 143.768C89.5738 142.67 87.7848 142.195 87.3772 143.304C85.4523 148.58 84.5352 154.24 84.5805 159.843C84.6031 162.64 84.8862 165.447 85.3957 168.198C85.6561 169.59 85.9845 170.96 86.3808 172.318C86.7544 173.598 87.0828 175.103 87.8187 176.235C88.3396 177.05 89.5285 176.552 89.3586 175.613V175.624Z" fill="#0E2C43"/>
<path d="M164.405 185.688C164.247 185.009 163.828 184.386 163.522 183.763C163.251 183.197 162.99 182.62 162.741 182.043C162.209 180.797 161.745 179.518 161.348 178.216C160.578 175.715 160.024 173.133 159.752 170.53C159.186 165.221 159.661 159.843 161.156 154.727C161.462 153.696 159.854 153.278 159.537 154.308C157.884 159.628 157.351 165.266 157.94 170.801C158.235 173.564 158.767 176.303 159.593 178.963C159.99 180.243 160.465 181.499 160.975 182.744C161.462 183.899 161.96 185.382 162.798 186.356C162.843 186.412 162.888 186.491 162.933 186.537C162.933 186.537 162.933 186.537 162.945 186.525C163.534 187.091 164.609 186.605 164.405 185.699V185.688Z" fill="#0E2C43"/>
<path d="M154.713 180.775C154.317 179.541 153.977 178.296 153.706 177.028C153.139 174.447 152.856 171.82 152.822 169.183C152.766 163.953 153.717 158.689 155.698 153.844C156.14 152.768 154.566 151.84 154.102 152.938C151.917 158.032 150.784 163.5 150.807 169.047C150.818 171.809 151.113 174.571 151.667 177.277C151.951 178.635 152.302 179.971 152.721 181.295C152.924 181.907 153.128 182.518 153.366 183.129C153.615 183.797 153.785 184.522 154.464 184.873C154.951 185.122 155.495 184.884 155.664 184.363C155.868 183.718 155.574 183.209 155.347 182.609C155.121 182.009 154.906 181.397 154.702 180.775H154.713Z" fill="#0E2C43"/>
<path d="M30.0051 135.086C30.492 134.146 29.0654 133.32 28.5672 134.271C25.9177 139.274 24.4004 144.81 24.0721 150.47C23.9135 153.278 24.0607 156.085 24.491 158.858C24.7061 160.274 25.0118 161.677 25.3855 163.047C25.7252 164.304 26.0309 165.956 26.9027 166.964C27.3783 167.519 28.352 167.066 28.3407 166.375C28.3181 165.673 28.0124 165.028 27.7859 164.372C27.5821 163.783 27.4009 163.183 27.2311 162.583C26.8688 161.292 26.5744 159.979 26.3479 158.666C25.895 156.017 25.7478 153.3 25.8724 150.617C26.1215 145.217 27.5255 139.897 30.0278 135.108L30.0051 135.086Z" fill="#0E2C43"/>
<path d="M37.6933 167.756C35.5873 162.707 34.0587 157.568 33.6398 152.078C33.2208 146.666 33.753 141.21 35.2249 135.991C35.5193 134.927 33.8775 134.497 33.5718 135.561C31.9866 140.995 31.3865 146.712 31.8168 152.361C32.2357 157.93 33.5039 163.692 36.0288 168.707C36.595 169.839 38.1575 168.866 37.6933 167.756Z" fill="#0E2C43"/>
<path d="M275.3 125.26C220.475 138.663 165.662 152.066 110.849 165.47C74.1976 157.659 37.6593 147.244 1.00781 139.433C1.73246 137.848 2.37786 136.297 2.94399 134.791C6.68048 124.852 6.99751 116.328 3.86113 107.781C3.10251 105.732 2.16273 103.683 1.00781 101.634C45.3701 89.4647 98.4395 77.3633 142.802 65.1713C184.616 70.5937 228.73 76.0728 270.544 81.4726C278.787 94.0382 280.021 110.996 275.3 125.26Z" fill="#F06827"/>
<path d="M235.897 104.396C240.664 110.804 241.422 119.803 237.776 126.879C212.844 130.614 188.092 135.471 163.624 141.414C163.443 138.154 163.001 134.905 162.299 131.701C161.801 129.426 160.884 127.026 161.111 124.66C161.609 119.35 167.961 119.101 172.229 118.128C185.794 115.037 199.37 112.049 212.98 109.162C216.795 108.347 220.611 107.555 224.438 106.751C225.605 106.513 235.455 103.785 235.908 104.396H235.897Z" fill="#4C4948" fill-opacity="0.2"/>
<path d="M108.89 155.938C73.7675 147.572 38.169 142.523 2.94409 134.78C6.68058 124.841 6.99761 116.317 3.86123 107.77C3.86123 107.77 3.91784 107.781 4.03107 107.792C38.9049 112.932 73.7561 118.06 108.641 123.188C115.141 132.278 115.095 146.633 108.902 155.927L108.89 155.938Z" fill="#FDF9F7"/>
<path d="M108.89 155.938C110.713 124.105 8.50347 108.687 4.03101 107.804C38.9049 112.943 73.7561 118.071 108.641 123.199C115.14 132.29 115.095 146.644 108.902 155.938H108.89Z" fill="#C5CDEA"/>
<path d="M132.317 127.569C131.547 124.773 130.483 122.067 129.181 119.509C128.728 118.603 127.482 119.452 127.924 120.347C132.215 129.12 133.291 139.478 131.151 149.032C130.539 151.761 129.69 154.421 128.592 156.979C128.184 157.93 129.52 158.666 129.962 157.726C134.332 148.534 135.046 137.463 132.317 127.58V127.569Z" fill="#0E2C43"/>
<path d="M140.956 125.135C140.56 123.697 140.096 122.271 139.541 120.879C139.292 120.256 139.02 119.633 138.748 119.011C138.363 118.162 138.137 117.686 137.242 117.483C137.22 117.483 137.197 117.483 137.186 117.505C136.891 118.184 136.925 118.456 137.174 119.158C137.389 119.769 137.661 120.369 137.888 120.981C138.329 122.158 138.726 123.358 139.077 124.569C139.779 127.014 140.277 129.516 140.56 132.052C141.115 137.067 140.888 142.138 139.812 147.051C139.201 149.825 138.295 152.496 137.559 155.225C137.378 155.915 138.284 156.13 138.601 155.621C141.25 151.308 142.179 145.75 142.519 140.678C142.87 135.448 142.337 130.161 140.956 125.124V125.135Z" fill="#0E2C43"/>
<path d="M272.311 108.562C271.994 104.091 270.907 99.6983 269.05 95.6117C267.974 93.257 266.649 91.0269 265.087 88.9553C264.521 88.1969 263.207 88.91 263.785 89.6911C268.903 96.7324 271.269 105.608 270.442 114.279C270.205 116.735 269.661 119.147 269.061 121.547C268.812 122.565 270.239 122.894 270.612 121.954C272.243 117.777 272.616 113.011 272.311 108.562Z" fill="#0E2C43"/>
<path d="M263.366 111.302C263.173 106.457 262.109 101.691 260.161 97.2418C259.063 94.74 257.693 92.3854 256.074 90.1892C255.474 89.3628 254.33 90.427 254.896 91.242C260.15 98.7134 262.301 108.223 261.079 117.245C260.909 118.535 260.648 119.815 260.331 121.071C260.014 122.339 259.618 123.539 259.459 124.841C259.358 125.656 260.512 125.95 260.92 125.305C262.188 123.324 262.596 120.765 262.947 118.456C263.32 116.09 263.445 113.679 263.354 111.279L263.366 111.302Z" fill="#0E2C43"/>
<path d="M267.476 86.2384C247.876 91.4684 228.129 96.2117 208.383 100.864C188.727 105.494 169.025 109.887 149.278 114.064C138.171 116.418 127.029 118.637 115.888 120.845C114.812 121.06 115.242 122.713 116.318 122.498C136.212 118.501 156.061 114.279 175.875 109.898C195.588 105.528 215.256 100.989 234.878 96.2456C245.917 93.574 256.923 90.7666 267.951 88.0497C269.118 87.7667 268.642 85.9328 267.476 86.2384Z" fill="#0E2C43"/>
<path d="M112.525 147.991C105.516 146.961 98.5527 145.546 91.6006 144.255C84.6371 142.976 77.6737 141.686 70.6989 140.406C56.8739 137.859 43.0489 135.312 29.2239 132.754C21.3773 131.305 13.5646 129.561 5.67274 128.327C4.81221 128.192 4.42724 129.482 5.32173 129.675C12.2399 131.158 19.26 132.233 26.2347 133.467C33.2095 134.712 40.173 136.037 47.1364 137.327C60.9614 139.886 74.7864 142.455 88.6114 145.014C96.458 146.463 104.361 147.765 112.14 149.497C113.136 149.723 113.51 148.138 112.536 147.991H112.525Z" fill="#0E2C43"/>
<path d="M113.827 138.029C106.796 137.191 99.7981 135.957 92.8007 134.871C85.8033 133.773 78.8058 132.686 71.8084 131.588C57.9155 129.414 44.0226 127.241 30.141 125.056C22.2604 123.822 14.4024 122.294 6.47655 121.275C5.6047 121.162 5.26502 122.464 6.15952 122.622C13.123 123.913 20.1657 124.807 27.1631 125.848C34.1718 126.901 41.1579 128.033 48.1553 129.131C62.0483 131.316 75.9299 133.501 89.8228 135.686C97.7034 136.931 105.641 138.006 113.465 139.535C114.461 139.727 114.801 138.131 113.816 138.018L113.827 138.029Z" fill="#0E2C43"/>
<path d="M112.842 130.422C105.935 129.143 98.9943 128.022 92.0761 126.799C85.158 125.577 78.2624 124.32 71.333 123.143C57.4853 120.788 43.6264 118.547 29.7334 116.498C25.8724 115.932 22 115.366 18.139 114.777C14.1761 114.177 10.2471 113.475 6.29547 112.796C5.28775 112.626 5.08395 114.086 6.11431 114.2C9.63566 114.596 13.1457 114.958 16.6557 115.468C20.1544 115.977 23.6531 116.498 27.1405 117.041C34.07 118.128 40.9995 119.26 47.929 120.381C61.686 122.611 75.4205 124.965 89.1322 127.433C96.9222 128.826 104.656 130.478 112.423 131.995C113.453 132.199 113.872 130.603 112.842 130.41V130.422Z" fill="#0E2C43"/>
<path d="M201.521 94.3891C189.881 92.4307 178.23 90.5515 166.557 88.7516C154.94 86.9629 143.311 85.2309 131.683 83.5668C128.411 83.1027 125.127 82.6046 121.855 82.1292C118.673 81.665 115.503 81.0764 112.31 80.7707C112.219 80.7028 112.106 80.6462 111.97 80.6462C111.098 80.6462 110.294 80.9292 109.456 81.1443C108.528 81.3933 107.588 81.6197 106.648 81.8575C104.825 82.3103 103.002 82.7631 101.179 83.2046C97.5902 84.0876 93.9896 84.9592 90.389 85.8309C83.1424 87.5742 75.8959 89.3515 68.6268 90.993C64.5506 91.9099 60.4631 92.8382 56.3869 93.7778C55.3792 94.0155 55.7755 95.5664 56.7832 95.3174C56.9078 95.2834 57.0323 95.2608 57.1456 95.2268C57.2248 95.4419 57.4173 95.6456 57.6437 95.6909C62.0596 96.5739 66.5434 97.106 70.9932 97.8418C75.4317 98.5776 79.8702 99.37 84.2973 100.162C93.0498 101.736 101.802 103.287 110.566 104.838C115.525 105.721 120.485 106.592 125.433 107.521C126.474 107.713 126.893 106.128 125.863 105.958C116.963 104.543 108.086 103.004 99.2093 101.498C90.4342 100.015 81.6365 98.6342 72.8841 97.0494C68.5135 96.257 64.1543 95.2947 59.7611 94.5815C73.2238 91.2081 86.6864 87.8006 100.206 84.6196C102.187 84.1555 104.169 83.6914 106.161 83.2159C107.203 82.9669 108.245 82.7178 109.298 82.4914C110.113 82.3103 110.94 82.1857 111.721 81.9027C111.766 81.9254 111.8 81.948 111.845 81.9593C114.676 82.5027 117.552 82.8084 120.405 83.1819C123.372 83.5782 126.327 84.0083 129.294 84.4498C135.102 85.3215 140.911 86.2045 146.708 87.1101C158.314 88.91 169.897 90.8232 181.491 92.7024C187.198 93.6306 192.893 94.5815 198.589 95.5324C190.685 97.1626 182.827 98.9625 174.924 100.593C166.138 102.415 157.34 104.147 148.52 105.777C143.56 106.694 138.601 107.657 133.619 108.415C132.668 108.562 133.041 110.034 133.993 109.853C142.734 108.132 151.531 106.649 160.284 104.928C169.082 103.196 177.868 101.385 186.632 99.4719C191.557 98.3965 196.482 97.3097 201.363 96.0532C201.51 96.0192 201.612 95.9287 201.668 95.8381C202.223 95.4985 202.314 94.5589 201.521 94.4231V94.3891Z" fill="#0E2C43"/>
<path d="M236.893 115.309C236.565 112.219 235.806 109.23 234.595 106.366C234.527 106.208 234.414 106.117 234.289 106.072C234.097 105.732 233.746 105.494 233.27 105.608C215.55 109.66 197.841 113.736 180.121 117.788C175.151 118.92 170.169 120.064 165.198 121.196C164.621 121.332 164.53 121.886 164.745 122.294C164.734 122.373 164.722 122.464 164.745 122.554C165.311 125.78 165.674 129.029 165.764 132.301C165.809 133.886 165.798 135.482 165.719 137.067C165.685 137.882 165.617 138.708 165.56 139.523C165.504 140.293 165.323 141.097 165.515 141.844C165.572 142.059 165.741 142.195 165.923 142.274C166.104 142.523 166.398 142.682 166.783 142.602C184.175 138.674 201.566 134.803 218.981 130.988C223.85 129.924 228.718 128.848 233.598 127.784C234.674 127.546 234.232 125.905 233.168 126.143C215.776 130.071 198.396 134.01 180.982 137.791C176.373 138.788 171.754 139.795 167.146 140.791C167.179 140.474 167.202 140.146 167.225 139.829C167.304 138.957 167.349 138.086 167.372 137.214C167.429 135.527 167.406 133.829 167.327 132.142C167.168 128.939 166.772 125.746 166.104 122.611C183.688 118.649 201.272 114.698 218.856 110.747C223.736 109.649 228.616 108.551 233.496 107.453C234.436 110.079 235.093 112.819 235.331 115.592C235.455 117.018 235.489 118.456 235.421 119.883C235.387 120.641 235.319 121.411 235.229 122.169C235.138 122.894 234.923 123.607 235.104 124.32C235.251 124.92 235.999 124.931 236.316 124.479C236.723 123.89 236.735 123.143 236.825 122.452C236.927 121.649 236.995 120.833 237.04 120.03C237.12 118.456 237.074 116.871 236.905 115.309H236.893Z" fill="#0E2C43"/>
<path d="M283.339 78.1783C232.511 90.7779 181.672 103.355 130.845 115.943C98.4847 107.758 64.5507 102.325 32.1904 94.14C32.8585 93.1891 33.5378 91.9778 34.1945 90.6081C36.4251 85.9667 38.35 79.5481 37.9084 75.6765C37.5461 72.4955 36.4364 69.3937 34.7154 66.6995C33.719 65.1486 32.5301 63.7336 31.1714 62.4996C76.4055 50.8284 121.277 35.7949 166.5 24.1237C204.091 30.3499 243.257 36.8704 280.848 43.0852C289 52.2661 289.272 67.4353 283.339 78.1783Z" fill="#9BA3AB"/>
<path d="M254.489 69.9711C255.938 76.6501 238.546 86.0913 215.64 91.0496C192.735 96.0192 172.999 94.6268 171.55 87.9478C170.101 81.2688 187.492 71.8276 210.398 66.8693C233.304 61.8997 253.039 63.2921 254.489 69.9711Z" fill="#D4DADF"/>
<path d="M130.471 110.272C130.211 110.204 129.973 110.158 129.713 110.09C99.2319 103.027 65.3431 97.389 34.1831 90.5968C36.4137 85.9554 38.3385 79.5368 37.8969 75.6652C37.5346 72.4842 36.425 69.3824 34.7039 66.6882C54.5979 70.4352 74.4692 74.1822 94.3518 77.9293C106.546 80.216 118.73 82.5253 130.924 84.8121C134.083 92.8948 135.102 102.947 130.471 110.272Z" fill="#FDF9F7"/>
<path d="M130.471 110.272C130.211 110.204 129.973 110.158 129.713 110.09C128.433 106.06 126.384 102.245 123.814 98.9172C118.299 91.7514 110.668 86.5214 102.731 82.1744C99.9793 80.6688 97.1826 79.2425 94.3406 77.9293C106.535 80.216 118.718 82.5254 130.913 84.8121C134.072 92.8948 135.091 102.947 130.46 110.272H130.471Z" fill="#C5CDEA"/>
<path d="M131.66 88.5365C119.5 86.3969 107.339 84.2347 95.1785 82.0499C83.0859 79.8764 71.0046 77.6236 58.9233 75.3369C52.0844 74.0464 45.2907 72.5295 38.4518 71.205C37.3649 70.9899 36.9233 72.6767 38.0103 72.8691C44.0905 73.9559 50.2048 74.8502 56.2851 75.9595C62.354 77.0689 68.423 78.201 74.4919 79.333C86.5732 81.5858 98.6319 83.9178 110.691 86.2384C117.529 87.5629 124.357 88.91 131.196 90.2685C132.328 90.4949 132.792 88.7289 131.649 88.5251L131.66 88.5365Z" fill="#0E2C43"/>
<path d="M132.34 96.6192C120.281 94.4117 108.234 92.159 96.1863 89.8836C84.1503 87.5969 72.0463 85.5932 60.0669 83.0234C53.3073 81.5744 46.5476 80.0915 39.788 78.6311C38.5991 78.3708 38.1236 80.25 39.3124 80.4537C45.3587 81.4952 51.4164 82.514 57.4627 83.5555C63.509 84.6083 69.51 85.7969 75.5111 87.0082C87.5131 89.4421 99.5265 91.8194 111.551 94.1966C118.345 95.5438 125.116 96.9475 131.898 98.3399C133.019 98.5663 133.472 96.823 132.351 96.6192H132.34Z" fill="#0E2C43"/>
<path d="M130.313 104.577C128.728 104.521 127.165 104.057 125.614 103.728L121.175 102.789C118.163 102.144 115.152 101.521 112.128 100.91C106.093 99.6757 100.058 98.4531 94.0348 97.1852C81.9309 94.6495 69.8269 92.1477 57.7683 89.3968C51.0086 87.8573 44.2603 86.2384 37.4893 84.7442C36.5269 84.5291 36.1419 86.046 37.1044 86.2498C49.2083 88.7968 61.3575 91.1062 73.4502 93.7325C85.5315 96.3588 97.5901 99.0644 109.649 101.804C113.057 102.574 116.465 103.355 119.873 104.102C121.56 104.464 123.236 104.838 124.923 105.2C126.644 105.574 128.444 105.834 130.075 106.491C131.252 106.966 131.796 104.645 130.313 104.589V104.577Z" fill="#0E2C43"/>
<path d="M274.575 44.3644C272.254 44.7154 270.012 45.4059 267.736 45.9833C265.472 46.5493 263.196 47.1266 260.931 47.6926L247.31 51.1114C238.331 53.3641 229.364 55.6169 220.385 57.8696C202.28 62.4091 184.163 66.9372 166.047 71.4427C155.879 73.9672 145.712 76.4803 135.555 79.0613C134.48 79.333 134.944 80.9858 136.019 80.7141C154.09 76.2312 172.105 71.5786 190.153 67.0391C208.258 62.4883 226.363 57.9262 244.468 53.3868C249.518 52.1189 254.579 50.851 259.629 49.5831C262.154 48.9492 264.679 48.3152 267.215 47.6813C269.797 47.036 272.424 46.5493 274.926 45.6436C275.753 45.3493 275.402 44.2399 274.575 44.3644Z" fill="#0E2C43"/>
<path d="M145.123 90.4722C144.806 88.5817 144.432 86.4422 143.526 84.7328C143.141 84.0196 142.19 84.5291 142.292 85.2309C142.564 87.0309 143.175 88.7968 143.458 90.6081C143.753 92.4873 143.877 94.4004 143.855 96.3135C143.832 98.1701 143.674 100.015 143.357 101.849C143.198 102.755 143.006 103.649 142.779 104.543C142.541 105.46 142.168 106.23 142.451 107.158C142.598 107.645 143.119 107.724 143.481 107.441C144.251 106.841 144.364 105.936 144.591 105.019C144.829 104.034 145.032 103.038 145.191 102.042C145.497 100.106 145.644 98.1474 145.632 96.189C145.621 94.2872 145.44 92.3741 145.134 90.4949L145.123 90.4722Z" fill="#0E2C43"/>
<path d="M151.735 94.3212C151.633 92.8608 151.441 91.4005 151.169 89.9628C151.045 89.2836 150.886 88.6044 150.705 87.9365C150.524 87.2573 150.399 86.4988 149.89 86.0007C149.89 86.0007 149.89 86.012 149.89 86.0233C149.595 85.763 149.041 85.7403 148.905 86.2724C148.757 86.8837 148.95 87.461 149.075 88.061C149.222 88.7402 149.335 89.4308 149.448 90.11C149.686 91.5477 149.822 93.008 149.867 94.4683C149.912 95.8607 149.901 97.2418 149.81 98.6342C149.765 99.3361 149.686 100.049 149.595 100.751C149.505 101.453 149.278 102.144 149.459 102.845C149.663 103.638 150.66 103.672 151.079 103.06C151.498 102.438 151.486 101.589 151.577 100.864C151.656 100.174 151.724 99.4832 151.758 98.7927C151.849 97.3097 151.849 95.8154 151.747 94.3325L151.735 94.3212Z" fill="#0E2C43"/>
<path d="M158.087 92.2835C157.929 91.242 157.714 90.2006 157.431 89.1817C157.159 88.1742 156.853 87.0309 156.276 86.1479C155.834 85.4913 155.121 85.9554 155.076 86.4762C155.076 86.4762 155.076 86.4762 155.064 86.4762C155.064 86.4875 155.064 86.4988 155.064 86.5215C155.064 86.5554 155.064 86.5781 155.076 86.612C155.189 87.5969 155.506 88.5591 155.721 89.5214C155.936 90.4723 156.106 91.4458 156.219 92.4194C156.344 93.3929 156.412 94.3778 156.423 95.3513C156.446 96.4154 156.344 97.4682 156.355 98.521C156.355 98.9965 156.683 99.3701 157.114 99.5059C157.295 99.5625 157.453 99.5399 157.634 99.5059C157.951 99.4493 158.314 99.1097 158.359 98.7814C158.642 96.6532 158.404 94.3891 158.076 92.2835H158.087Z" fill="#0E2C43"/>
<path d="M164.734 91.5024C164.677 91.2081 164.598 90.9251 164.519 90.6421C164.36 90.0534 164.19 89.4647 164.032 88.8761C163.93 88.4912 163.5 88.2082 163.103 88.3327C162.673 88.4686 162.492 88.8421 162.56 89.261C162.65 89.8723 162.741 90.4836 162.832 91.0836C162.877 91.3666 162.911 91.6496 162.979 91.9213C163.035 92.1703 163.126 92.4307 163.307 92.6344C163.511 92.8495 163.839 92.9741 164.134 92.9061C164.292 92.8382 164.303 92.8382 164.145 92.9061L164.349 92.8269C164.564 92.7137 164.711 92.4873 164.768 92.2496C164.824 92.0118 164.779 91.7515 164.734 91.5137V91.5024Z" fill="#0E2C43"/>
<path d="M279.206 56.3074C278.73 54.4509 278.176 52.3566 277.111 50.7265C276.67 50.0473 275.764 50.6359 275.934 51.3264C276.364 53.1037 277.123 54.8018 277.564 56.5791C278.017 58.4243 278.312 60.3261 278.447 62.228C278.583 64.0732 278.583 65.941 278.436 67.7862C278.357 68.7032 278.244 69.6088 278.096 70.5144C277.938 71.454 277.632 72.2465 277.995 73.1521C278.187 73.6275 278.708 73.6502 279.048 73.3445C279.772 72.6766 279.795 71.771 279.942 70.8314C280.101 69.8239 280.214 68.8164 280.282 67.8089C280.418 65.8505 280.395 63.892 280.214 61.9336C280.033 60.0318 279.693 58.1526 279.217 56.3074H279.206Z" fill="#0E2C43"/>
<path d="M274.303 63.077C274.066 61.628 273.749 60.2016 273.352 58.7866C273.16 58.1187 272.945 57.4621 272.718 56.8055C272.48 56.1489 272.288 55.4018 271.733 54.949C271.733 54.949 271.733 54.9603 271.733 54.9716C271.416 54.7339 270.861 54.7678 270.782 55.2999C270.68 55.9225 270.929 56.4772 271.11 57.0659C271.314 57.7338 271.495 58.4017 271.665 59.0809C272.027 60.4959 272.288 61.9336 272.469 63.3826C272.639 64.7637 272.752 66.1448 272.775 67.5372C272.786 68.2504 272.775 68.9522 272.741 69.6654C272.707 70.3673 272.548 71.0805 272.786 71.7597C273.058 72.5295 274.054 72.4729 274.417 71.8276C274.779 71.171 274.7 70.322 274.722 69.5975C274.745 68.907 274.745 68.2164 274.722 67.5146C274.677 66.0316 274.552 64.5373 274.315 63.077H274.303Z" fill="#0E2C43"/>
<path d="M268.031 64.277C267.782 63.2468 267.476 62.2393 267.102 61.2431C266.74 60.2582 266.344 59.1488 265.687 58.3225C265.2 57.7112 264.521 58.2319 264.521 58.7526C264.521 58.7526 264.521 58.7526 264.509 58.7526C264.509 58.7639 264.509 58.7753 264.509 58.7979C264.509 58.8319 264.521 58.8545 264.532 58.8885C264.724 59.862 265.132 60.7903 265.426 61.7299C265.721 62.6695 265.97 63.6204 266.185 64.5713C266.389 65.5335 266.547 66.5071 266.649 67.4806C266.762 68.5334 266.751 69.5975 266.853 70.6503C266.898 71.1258 267.249 71.4654 267.702 71.5673C267.883 71.6125 268.042 71.5673 268.223 71.522C268.54 71.4427 268.869 71.0692 268.88 70.7296C268.982 68.59 268.54 66.3599 268.031 64.2883V64.277Z" fill="#0E2C43"/>
<path d="M262.211 67.8768C262.131 67.5938 262.03 67.3221 261.928 67.0391C261.713 66.4618 261.497 65.8957 261.282 65.3184C261.146 64.9448 260.693 64.6958 260.309 64.8543C259.89 65.0241 259.742 65.4203 259.844 65.8278C259.992 66.4278 260.139 67.0278 260.275 67.6278C260.342 67.9108 260.41 68.1825 260.501 68.4541C260.58 68.7032 260.694 68.9522 260.886 69.1334C261.112 69.3371 261.441 69.4277 261.735 69.3258C261.894 69.2466 261.894 69.2466 261.747 69.3258L261.939 69.2239C262.143 69.0994 262.267 68.8504 262.301 68.6126C262.335 68.3636 262.267 68.1145 262.199 67.8768H262.211Z" fill="#0E2C43"/>
<path d="M250.028 66.4391C244.966 62.1487 237.493 63.4506 231.685 65.1939C224.937 67.2202 216.818 70.4465 209.991 66.9599C209.64 66.1788 208.179 66.3146 208.168 67.3787C208.145 69.0315 206.684 70.1862 205.371 70.9333C203.673 71.9069 201.782 72.5295 199.902 73.0276C196.132 74.0238 192.248 74.4313 188.466 75.3709C185.115 76.1973 181.786 77.4425 179.057 79.616C176.521 81.631 173.962 85.0838 175.287 88.4685C175.932 90.0987 177.359 91.3213 178.944 92.0005C179.94 92.4193 180.971 92.6344 182.035 92.7476C183.122 92.8608 184.311 92.9854 185.364 92.6457C185.975 92.4533 185.998 91.5816 185.364 91.3892C184.469 91.1175 183.541 91.2194 182.601 91.1854C181.616 91.1401 180.642 91.0156 179.691 90.7439C178.174 90.3024 176.645 89.2723 176.113 87.7101C174.902 84.1555 178.978 80.8839 181.673 79.4123C187.991 75.9482 195.52 76.4124 202.257 74.2502C205.02 73.3672 208.677 71.8729 209.753 68.9636C212.244 70.0956 214.984 70.5145 217.713 70.356C220.94 70.1635 224.008 69.1787 227.054 68.1825C233.066 66.224 240.154 63.3826 246.37 66.2127C248.703 67.2768 250.707 69.2692 250.707 71.9861C250.707 74.7596 248.895 77.2614 246.755 78.8689C242.385 82.1631 236.463 82.548 231.232 83.1253C225.389 83.7706 219.309 84.8234 214.825 88.8874C214.316 88.5817 213.682 88.378 213.184 88.2308C212.21 87.9365 211.168 87.8233 210.149 87.8006C207.941 87.744 205.733 88.1968 203.627 88.8421C199.053 90.2572 194.501 92.4307 189.621 91.2081C188.557 90.9477 188.228 92.442 189.202 92.8155C193.697 94.5362 198.442 92.4533 202.699 91.0156C204.805 90.3024 207.001 89.6232 209.243 89.6459C210.24 89.6572 211.213 89.8043 212.165 90.11C213.116 90.4156 214.078 91.2533 215.086 91.0722C215.097 91.0722 215.108 91.0609 215.131 91.0496C215.403 91.0835 215.675 90.993 215.901 90.7213C219.57 86.1931 225.922 85.4234 231.357 84.9819C236.927 84.5291 242.996 84.1442 247.695 80.7481C250.005 79.0726 251.93 76.752 252.53 73.8992C253.13 71.0805 252.247 68.2843 250.028 66.4052V66.4391Z" fill="#0E2C43"/>
<path d="M246.178 38.8288C246.891 40.5382 247.82 42.1343 248.941 43.5834C224.506 52.5944 161.122 72.122 136.71 81.133C109.751 76.1633 81.3989 71.3409 54.4282 66.3825C50.7257 61.6393 48.6876 55.6169 48.7329 49.6058C48.7895 43.5947 50.9748 37.5609 54.7566 32.8856C80.5836 25.0519 139.575 7.82236 165.413 0C192.757 3.76968 220.113 7.53935 247.469 11.309C247.004 12.3505 246.585 13.4486 246.212 14.5806C243.63 22.2671 243.121 31.5385 246.178 38.8288Z" fill="#1685C6"/>
<path d="M122.319 23.8973C128.467 21.8936 134.604 19.8785 140.752 17.8748C143.945 16.8334 147.184 15.7806 150.535 15.6674C153.966 15.5542 157.351 16.4258 160.771 16.7202C164.19 17.0145 167.915 16.6296 170.531 14.3995C169.829 13.5957 169.886 12.3279 170.418 11.3996C170.939 10.4713 171.833 9.80343 172.739 9.23741C173.667 8.64875 174.675 8.10537 175.773 8.07141C176.872 8.03745 178.061 8.64875 178.344 9.70154C178.695 10.9694 177.664 12.2147 176.577 12.9505C175.49 13.6863 174.188 14.2523 173.509 15.3844C176.294 17.3201 179.487 18.6673 182.827 19.3012C173.316 22.5049 163.805 25.7085 154.294 28.9122C153.026 29.3424 151.724 29.7725 150.388 29.8404C148.825 29.9197 147.297 29.5008 145.757 29.2178C143.277 28.7537 140.741 28.6065 138.227 28.799C136.823 28.9009 135.374 29.1273 134.185 29.897C132.849 30.7687 132.011 32.2177 130.936 33.395C128.999 35.5119 126.157 36.7685 123.293 36.7798C122.319 36.7798 121.209 36.5761 120.688 35.7497C120.19 34.9686 120.428 33.8818 121.017 33.1573C121.594 32.4328 122.444 31.98 123.27 31.5385C124.708 30.78 126.146 30.0216 127.584 29.2744C128.116 28.9914 128.682 28.6858 128.977 28.1537C129.464 27.2934 128.999 26.1387 128.218 25.5274C127.437 24.9161 126.418 24.7123 125.444 24.5199" fill="#D8F1FF" fill-opacity="0.85"/>
<path d="M244.513 32.9649C244.864 35.0139 245.396 36.9836 246.178 38.8175L135.646 75.2917C134.955 75.1785 134.264 75.0539 133.562 74.9294C109.898 70.8201 81.546 66.824 58.1533 62.7034C57.089 61.6733 56.1718 60.3714 55.4132 58.8998C55.1754 58.4243 54.949 57.9376 54.7339 57.4395C53.828 55.2773 53.2619 52.8321 53.126 50.3982C53.0921 49.9228 53.0694 49.436 53.0581 48.9492C53.0581 47.0021 53.3412 45.0777 53.8847 43.289C54.0432 42.8589 54.1904 42.4174 54.3829 42.0098C54.7792 41.0363 55.2887 40.1193 55.9001 39.2816C56.1718 38.8854 56.4776 38.5119 56.8059 38.1722C64.4148 39.4628 72.7822 40.6514 81.4214 41.8061C98.7112 44.1154 117.031 46.3003 132.294 48.8813C171.924 37.8213 206.56 25.6293 246.189 14.5693C245.657 16.1655 245.215 17.8182 244.876 19.5163C244.751 20.1276 244.638 20.7276 244.547 21.3502C244.332 22.8105 244.162 24.2822 244.117 25.7651C244.083 26.2972 244.06 26.8406 244.083 27.3839C244.072 28.7537 244.151 30.1235 244.31 31.448C244.343 31.9574 244.423 32.4555 244.513 32.9536V32.9649Z" fill="#FDF9F7"/>
<path d="M244.513 32.9649C244.864 35.0139 245.397 36.9836 246.178 38.8175L135.646 75.2917C126.859 56.9074 69.4421 42.4627 55.9229 39.293C56.1946 38.8967 56.5003 38.5232 56.8287 38.1836C64.4375 39.4741 72.805 40.6627 81.4442 41.8174C98.7339 44.1267 117.054 46.3116 132.317 48.8926C171.946 37.8326 206.582 25.6406 246.212 14.5806C245.68 16.1768 245.238 17.8296 244.898 19.5276C244.774 20.1389 244.661 20.7389 244.57 21.3615C244.355 22.8218 244.185 24.2935 244.14 25.7765C244.106 26.3085 244.083 26.8519 244.106 27.3953C244.095 28.765 244.174 30.1348 244.332 31.4593C244.366 31.9687 244.446 32.4668 244.536 32.9649H244.513Z" fill="#C5CDEA"/>
<path d="M132.962 55.232C132.962 55.232 132.951 55.232 132.94 55.232C132.861 55.2433 132.77 55.2546 132.668 55.2433C126.191 54.3716 119.704 53.4887 113.238 52.5378C101.814 50.8623 90.4005 49.1303 78.9985 47.3644C70.6311 46.0738 62.2523 44.7154 53.9075 43.3003C54.0547 42.8589 54.2132 42.4287 54.3943 42.0098C57.7345 42.5758 61.0861 43.1419 64.4376 43.6852C75.8282 45.5757 87.2414 47.353 98.666 49.0284C110.102 50.6812 121.561 52.1529 133.008 53.6358C133.132 53.6585 133.246 53.6924 133.336 53.7604C133.902 54.0886 133.664 55.0848 132.974 55.232H132.962Z" fill="#0E2C43"/>
<path d="M133.71 68.7032C133.642 68.7145 133.574 68.7258 133.506 68.7032C127.007 68.0127 120.507 67.2882 114.02 66.4957C102.561 65.1033 91.1138 63.6656 79.6553 62.194C71.5709 61.1525 63.4865 60.0658 55.4247 58.9111C55.1869 58.4356 54.9605 57.9489 54.7454 57.4395C58.1648 57.9262 61.5843 58.4017 65.0037 58.8885C76.4509 60.4959 87.8982 61.9789 99.3567 63.3487C110.827 64.7298 122.33 65.9071 133.823 67.0844C133.948 67.0844 134.061 67.141 134.151 67.1976C134.74 67.5259 134.502 68.6126 133.721 68.6919L133.71 68.7032Z" fill="#0E2C43"/>
<path d="M134.015 61.4016C133.948 61.4016 133.902 61.4016 133.834 61.4016C127.109 60.8016 120.394 60.1337 113.68 59.3866C101.757 58.0508 89.8683 56.4206 78.0135 54.5754C72.103 53.6698 66.2152 52.6962 60.3387 51.6548C57.9383 51.2246 55.5266 50.8284 53.1262 50.4095C53.0922 49.9341 53.0809 49.4473 53.0696 48.9605C56.2739 49.5831 59.4782 50.1944 62.7052 50.7378C74.5261 52.7528 86.4036 54.5075 98.315 55.9904C110.226 57.4621 122.172 58.73 134.129 59.6809C134.208 59.6809 134.276 59.7035 134.332 59.7375C135.148 59.9865 134.899 61.3223 134.015 61.4016Z" fill="#0E2C43"/>
<path d="M244.887 19.5389C244.762 20.1389 244.649 20.7389 244.559 21.3502C225.004 27.7122 203.174 34.8101 199.653 35.8742C188.602 39.2024 177.54 42.5079 166.466 45.7569C155.381 49.0171 144.274 52.1755 133.132 55.2207C133.087 55.232 133.019 55.2433 132.962 55.2433C132.962 55.2433 132.955 55.2433 132.94 55.2433C132.249 55.2433 132.045 54.1226 132.826 53.9075C132.996 53.8622 133.166 53.817 133.336 53.7717C139.473 52.0849 145.587 50.3756 151.724 48.6436C162.832 45.4965 173.916 42.2702 184.967 38.9081C191.84 36.8138 221.087 27.316 244.887 19.5503V19.5389Z" fill="#0E2C43"/>
<path d="M244.513 32.9649C225.061 39.3948 203.457 46.5153 199.981 47.6587C189.01 51.2699 178.027 54.8471 167.044 58.3791C156.049 61.911 145.032 65.3637 133.981 68.6806C133.879 68.7145 133.789 68.7145 133.71 68.7032H133.653C133.064 68.59 132.894 67.5825 133.63 67.3674C133.8 67.3221 133.97 67.2655 134.14 67.2203C140.232 65.375 146.3 63.5185 152.392 61.628C163.409 58.2206 174.415 54.6999 185.375 51.0548C192.112 48.8247 220.702 39.3269 244.298 31.4706C244.344 31.98 244.423 32.4781 244.502 32.9762L244.513 32.9649Z" fill="#0E2C43"/>
<path d="M244.117 25.7651C244.083 26.3085 244.061 26.8405 244.072 27.3952C225.673 33.5082 206.594 39.8363 203.265 40.9683C191.908 44.8399 180.45 48.4058 168.946 51.7906C163.205 53.4886 157.476 55.1075 151.701 56.6697C145.882 58.2432 140.096 59.896 134.242 61.3676C134.163 61.3789 134.095 61.4016 134.027 61.3903C133.993 61.3903 133.947 61.3903 133.902 61.3903C133.189 61.2544 132.974 60.0771 133.823 59.862C133.993 59.8167 134.163 59.7828 134.332 59.7375C140.73 58.1413 147.104 56.6017 153.456 54.8471C165.028 51.6321 176.509 48.1794 187.911 44.4437C194.569 42.2589 221.019 33.5082 244.117 25.7764V25.7651Z" fill="#0E2C43"/>
<path d="M179.261 17.7164C177.608 17.4673 175.989 17.0145 174.437 16.4032C173.69 16.1089 172.445 15.7127 171.799 15.0561C172.648 14.6825 173.486 14.241 174.29 13.7316C175.004 13.2788 175.694 12.7807 176.362 12.26C176.849 11.8751 177.551 11.4562 177.789 10.8449C177.97 10.3808 177.891 9.84872 177.483 9.54307C176.94 9.13554 176.136 9.37327 175.547 9.54307C173.679 10.0638 169.931 12.0562 170.259 14.4335C168.629 14.9995 166.942 15.3957 165.221 15.6108C161.337 16.0862 157.408 15.7127 153.57 14.9655C153.094 13.9693 149.946 15.407 149.358 15.6108C145.395 16.9692 141.375 18.1918 137.367 19.4031C132.747 20.7955 128.162 22.2671 123.576 23.7501C122.874 23.9765 122.976 24.8708 123.451 25.1538C123.542 25.335 123.712 25.4708 123.961 25.4934C125.535 25.5953 127.21 25.6972 128.66 26.3425C129.35 26.6481 130.075 27.0783 130.494 27.7236C130.641 27.9386 130.709 28.1651 130.743 28.3801C128.739 28.833 126.769 29.4556 124.912 30.3159C123.123 31.1423 121.379 32.1725 119.896 33.4856C119.364 33.9611 118.922 34.6177 119.262 35.3422C119.681 36.2365 120.711 35.9421 121.481 35.8063C123.315 35.478 125.082 34.912 126.735 34.0403C128.388 33.1573 130.2 31.9574 131.321 30.4291C131.547 30.1122 131.694 29.7952 131.796 29.4895C133.54 29.1386 135.306 28.9235 137.095 28.833C139.077 28.7311 141.069 28.7537 143.04 29.0028C145.1 29.2744 147.003 29.8405 148.95 30.5197C149.845 30.8367 150.399 29.2858 149.505 28.9462C145.474 27.3613 140.764 27.2255 136.495 27.5538C134.955 27.6783 133.415 27.8707 131.887 28.1537C131.717 27.2028 131.06 26.3312 130.086 25.7199C128.875 24.9388 127.471 24.6331 126.056 24.4859C133.359 21.8596 140.73 19.3465 148.237 17.3881C149.256 17.1277 150.275 16.89 151.294 16.6523C151.803 16.5277 152.653 16.4598 153.162 16.1089C158.835 17.2749 165.164 17.6032 170.667 15.5542C170.678 15.5768 170.69 15.5995 170.712 15.6221C171.188 16.29 171.969 16.7089 172.682 17.0824C173.566 17.5579 174.471 17.9428 175.411 18.2711C176.34 18.588 177.291 18.8597 178.253 19.0522C178.661 19.1314 179.068 19.188 179.476 19.2559C178.695 19.505 177.981 19.822 177.732 19.9012C173.769 21.2596 169.75 22.4822 165.742 23.6935C161.122 25.0859 156.536 26.5576 151.951 28.0405C151.022 28.3462 151.486 29.8065 152.403 29.4782C160.375 26.5915 168.436 23.7954 176.645 21.6445C177.664 21.3842 178.683 21.1464 179.702 20.9087C180.246 20.7842 181.197 20.7163 181.695 20.2748C182.261 20.3427 182.861 19.9012 182.771 19.1541C182.578 17.6484 180.303 17.9428 179.25 17.773L179.261 17.7164ZM130.086 29.9423C128.026 32.2743 124.776 33.8592 121.798 34.6177C121.583 34.6743 120.666 34.9799 120.575 34.7309C120.485 34.4592 121.085 34.1309 121.323 33.9611C121.957 33.4856 122.602 33.0441 123.282 32.6366C124.663 31.8102 126.124 31.131 127.641 30.5876C128.479 30.282 129.339 30.0329 130.2 29.8178C130.166 29.8631 130.132 29.9084 130.098 29.9537L130.086 29.9423ZM171.595 13.358C172.331 12.0562 173.984 11.1506 175.343 10.6638C175.615 10.5619 176.17 10.3129 176.464 10.3355C177.177 10.4034 176.702 10.8789 176.442 11.1053C175.762 11.7053 175.015 12.2147 174.234 12.6562C173.305 13.1769 172.343 13.6071 171.369 13.992C171.392 13.7995 171.46 13.5844 171.584 13.358H171.595Z" fill="#0E2C43"/>
<path d="M237.482 12.4298C230.813 14.1618 224.223 16.2221 217.599 18.1012C210.964 19.9804 204.329 21.8256 197.705 23.7388C184.515 27.5651 171.369 31.5385 158.257 35.6365C154.589 36.7798 150.92 37.9458 147.263 39.1118C143.56 40.3005 139.88 41.6136 136.133 42.6664C135.08 42.9607 135.612 44.6588 136.608 44.2739C139.813 43.0173 143.13 42.0098 146.391 40.9118C149.663 39.8137 152.936 38.7269 156.208 37.6628C162.764 35.5233 169.319 33.395 175.909 31.3687C189.032 27.3273 202.223 23.4558 215.448 19.7653C222.91 17.6824 230.462 15.973 237.958 13.9806C238.965 13.709 238.501 12.1807 237.493 12.4411L237.482 12.4298Z" fill="#0E2C43"/>
<path d="M76.6321 35.4214C74.4241 35.0705 72.2275 34.7308 70.0196 34.3799C67.7211 34.0177 65.4226 33.4403 63.1015 33.2479C62.173 33.18 61.9805 34.4592 62.8863 34.6742C64.8452 35.1157 66.8946 35.2516 68.876 35.5233C70.9254 35.8063 72.9748 36.1232 75.0242 36.4289C79.0212 37.0176 83.0067 37.5949 86.9923 38.2062C95.0201 39.4401 103.037 40.7193 111.064 41.9872C115.571 42.7004 120.077 43.4249 124.606 44.0475C125.478 44.1607 125.682 42.8362 124.81 42.689C116.805 41.3419 108.743 40.2552 100.715 39.0779C92.6763 37.9005 84.6485 36.6893 76.6207 35.4327L76.6321 35.4214Z" fill="#0E2C43"/>
<path d="M164.417 2.01503C157.918 4.32438 151.328 6.39601 144.772 8.56952C138.216 10.743 131.638 12.826 125.059 14.9202C111.959 19.0748 98.8246 23.1614 85.6223 26.999C81.9311 28.0745 78.2286 29.116 74.5148 30.1348C70.7556 31.1649 66.9625 32.0819 63.2034 33.1234C62.1277 33.4177 62.6486 35.0818 63.7129 34.7761C70.3367 32.829 76.8812 30.6668 83.4936 28.6971C90.1061 26.7274 96.7299 24.7689 103.331 22.7879C116.499 18.8258 129.668 14.8636 142.779 10.743C150.162 8.42235 157.533 6.01112 164.938 3.75837C166.059 3.41875 165.493 1.63014 164.394 2.02635L164.417 2.01503Z" fill="#0E2C43"/>
<path d="M421 272.005C370.603 281.854 322.097 291.986 271.699 301.835L198.906 248.652C194.524 241.554 194.048 230.913 199.461 224.562C226.748 192.616 254.025 160.67 281.312 128.735C310.049 138.018 339.805 147.866 368.553 157.16C372.381 166.398 375.494 176.643 378.438 186.22C373.275 198.706 366.142 209.823 357.344 220.079C376.91 233.539 396.951 247.259 416.505 260.73C416.833 263.096 417.569 265.598 418.634 267.919C419.302 269.39 420.094 270.783 420.989 272.005H421Z" fill="#FFD127"/>
<path d="M224.552 250.384C222.887 248.006 220.725 245.459 217.826 245.391C215.482 245.335 213.32 247.112 212.606 249.342C211.893 251.572 212.527 254.097 213.942 255.964C215.358 257.832 217.475 259.066 219.717 259.745C221.766 260.368 223.986 260.561 225.82 261.67C227.654 262.779 228.922 265.292 227.756 267.092C229.817 265.689 232.749 266.515 234.64 268.156C236.52 269.798 237.697 272.085 239.158 274.111C240.619 276.137 242.657 278.028 245.148 278.22C248.058 278.447 250.809 275.968 251.205 273.081C251.59 270.194 249.813 267.228 247.197 265.926C245.363 265.009 243.268 264.851 241.241 264.602C239.215 264.353 237.097 263.968 235.478 262.723C233.859 261.477 232.908 259.134 233.859 257.323C233.157 258.659 229.839 255.681 229.183 255.319C227.179 254.187 225.842 252.24 224.552 250.395V250.384Z" fill="#FEFCE8"/>
<path d="M416.584 261.104C416.562 260.979 416.528 260.866 416.516 260.73C416.029 260.402 415.554 260.062 415.067 259.734C395.966 246.591 376.423 233.211 357.355 220.079C362.915 213.592 367.806 206.755 371.962 199.453C374.385 195.208 376.559 190.805 378.449 186.231C378.438 186.208 378.438 186.174 378.427 186.152C375.494 176.597 372.38 166.375 368.565 157.172L323.24 209.766L267.985 273.885C267.985 273.885 262.098 288.68 274.235 296.684L287.743 294.001L418.634 267.907C417.637 265.711 416.924 263.345 416.573 261.093L416.584 261.104Z" fill="#FDF9F7"/>
<path d="M285.898 272.9C285.026 280.065 285.841 287.118 287.755 294.001L274.247 296.684C262.109 288.68 267.997 273.885 267.997 273.885L323.251 209.766C318.111 216.547 312.97 223.305 307.83 230.086C298.025 243.025 287.845 256.791 285.909 272.9H285.898Z" fill="#C5CDEA"/>
<path d="M416.584 261.104C416.426 261.376 416.177 261.579 415.792 261.602C404.877 262.304 393.984 263.289 383.126 264.557C363.9 266.787 344.764 269.843 325.822 273.794C306.8 277.767 288.026 282.782 269.469 288.544C269.253 288.612 269.061 288.578 268.914 288.488C267.985 288.578 267.329 287.265 268.314 286.801C269.412 286.28 270.522 285.748 271.643 285.228C280.576 280.96 289.227 276.137 297.56 270.805C305.871 265.496 313.854 259.689 321.462 253.429C329.094 247.135 336.352 240.388 343.179 233.222C350.018 226.045 356.483 218.517 362.428 210.581C368.27 202.793 373.569 194.586 378.427 186.152C378.506 186.027 378.585 185.88 378.653 185.756C379.084 184.986 380.261 185.665 379.842 186.424C379.242 187.499 378.642 188.563 378.03 189.616C376.094 192.955 374.079 196.227 371.973 199.453C368.644 204.559 365.111 209.517 361.443 214.362C355.419 222.309 348.92 229.882 341.956 237.014C335.016 244.123 327.633 250.814 319.877 257.04C312.144 263.255 304.014 269.028 295.579 274.258C289.6 277.971 283.452 281.458 277.157 284.616C284.958 282.352 292.805 280.247 300.685 278.243C319.504 273.488 338.548 269.538 357.706 266.402C376.717 263.277 395.875 261.081 415.078 259.734C415.316 259.723 415.554 259.7 415.792 259.678C416.652 259.61 416.901 260.504 416.584 261.093V261.104Z" fill="#0E2C43"/>
<path d="M418.702 265.462C399.431 267.353 380.227 269.934 361.115 273.024C342.07 276.103 323.161 279.862 304.365 284.186C299.112 285.397 293.858 286.597 288.604 287.831C283.248 289.088 277.87 290.231 272.549 291.601C271.371 291.907 271.858 293.729 273.024 293.424C277.734 292.156 282.399 290.752 287.121 289.541C291.74 288.352 296.371 287.231 301.025 286.156C310.423 283.971 319.877 282.058 329.354 280.247C348.331 276.613 367.399 273.454 386.568 271.009C397.257 269.651 407.979 268.485 418.713 267.466C419.992 267.341 420.004 265.326 418.713 265.462H418.702Z" fill="#0E2C43"/>
<path d="M374.6 173.937C366.447 186.491 357.604 198.536 348.014 210.026C338.424 221.517 328.12 232.429 317.307 242.765C311.227 248.584 304.886 254.074 298.557 259.61C297.628 260.413 298.964 261.704 299.893 260.945C305.701 256.214 311.249 251.085 316.684 245.923C322.13 240.75 327.418 235.418 332.547 229.928C342.783 218.981 352.407 207.445 361.363 195.423C366.413 188.654 371.327 181.76 375.97 174.707C376.525 173.858 375.155 173.077 374.6 173.926V173.937Z" fill="#0E2C43"/>
<path d="M371.339 162.696C365.87 171.198 360.118 179.507 354.094 187.624C348.082 195.718 341.798 203.608 335.254 211.283C328.698 218.97 321.881 226.452 314.839 233.697C307.819 240.908 300.572 247.893 293.088 254.629C285.581 261.398 277.859 267.941 269.944 274.213C268.971 274.983 267.985 275.752 267 276.522C266.027 277.281 267.397 278.639 268.359 277.881C276.33 271.666 284.109 265.202 291.65 258.466C299.213 251.697 306.562 244.678 313.673 237.422C320.749 230.199 327.588 222.751 334.178 215.087C340.756 207.434 347.086 199.566 353.166 191.518C359.292 183.412 365.145 175.115 370.716 166.624C371.396 165.583 372.086 164.541 372.754 163.489C373.332 162.606 371.905 161.79 371.328 162.685L371.339 162.696Z" fill="#0E2C43"/>
<path d="M250.016 269.888C249.077 266.085 245.804 264.625 242.838 263.866C239.667 263.051 234.663 262.202 234.255 257.436C234.584 256.983 234.165 256.225 233.655 256.202C233.066 256.191 232.489 256.406 231.911 256.463C231.311 256.519 230.711 256.519 230.111 256.44C228.945 256.281 227.813 255.885 226.76 255.251C225.684 254.606 224.721 253.666 223.951 252.568C223.068 251.312 222.412 249.874 221.528 248.629C220.079 246.591 217.645 244.837 215.426 246.104C213.444 247.248 212.901 250.27 213.784 252.568C214.803 255.217 217.113 256.813 219.411 257.753C219.502 257.844 219.604 257.923 219.751 257.957C223.533 258.715 226.907 261.76 228.492 265.915C228.639 266.323 228.99 266.549 229.364 266.413C232.84 265.123 235.738 268.915 237.924 271.575C240.041 274.179 242.623 277.043 245.895 276.647C248.816 276.284 250.899 273.398 250.039 269.888H250.016ZM248.42 272.594C248.001 273.885 246.835 274.609 245.714 274.779C242.611 275.243 240.075 271.994 238.105 269.594C235.829 266.821 232.84 263.911 229.443 264.738C227.779 260.832 224.733 257.878 221.177 256.712C221.076 256.576 220.951 256.474 220.77 256.429C219.524 256.134 218.369 255.919 217.226 255.183C216.195 254.527 215.301 253.553 214.803 252.297C213.931 250.078 214.837 246.761 217.271 247.112C219.672 247.463 221.053 250.282 222.366 252.353C223.657 254.402 225.254 256.044 227.258 257.051C228.345 257.595 229.5 257.946 230.677 258.07C231.379 258.138 232.172 258.172 232.908 258.036C233.202 261.262 235.795 263.425 238.331 264.364C241.287 265.451 245 265.406 247.31 268.202C248.239 269.322 248.907 271.077 248.408 272.594H248.42Z" fill="#0E2C43"/>
<path d="M266.276 273.16C261.973 270.024 257.512 267.126 253.073 264.194C248.635 261.262 244.196 258.33 239.747 255.41C230.858 249.557 221.902 243.818 212.98 238.01C207.987 234.75 203.005 231.49 198.136 228.048C197.377 227.505 196.539 228.762 197.332 229.26C206.379 234.852 215.142 240.92 223.963 246.863C232.783 252.817 241.638 258.715 250.515 264.579C255.485 267.862 260.411 271.224 265.54 274.269C266.276 274.711 266.966 273.67 266.276 273.16Z" fill="#0E2C43"/>
<path d="M263.603 292.891C263.309 291.997 262.811 291.239 262.392 290.39C261.973 289.552 261.599 288.692 261.294 287.809C260.66 286.02 260.241 284.141 260.093 282.25C259.776 278.424 260.444 274.62 261.984 271.111C262.335 270.307 261.192 269.605 260.773 270.421C258.882 274.02 258.157 278.209 258.497 282.25C258.667 284.243 259.063 286.212 259.72 288.092C260.354 289.903 261.203 292.167 262.72 293.401C263.094 293.706 263.807 293.435 263.626 292.88L263.603 292.891Z" fill="#0E2C43"/>
<path d="M257.184 268.7C257.659 267.873 256.368 267.126 255.893 267.964C254.138 271.043 253.141 274.507 252.983 278.05C252.904 279.771 253.04 281.492 253.345 283.179C253.515 284.073 253.73 284.979 254.036 285.839C254.274 286.518 254.444 287.367 255.157 287.661C255.304 287.718 255.542 287.616 255.61 287.469C255.904 286.824 255.508 286.145 255.327 285.499C255.112 284.741 254.908 283.982 254.761 283.213C254.444 281.56 254.342 279.862 254.421 278.175C254.591 274.835 255.519 271.587 257.184 268.7Z" fill="#0E2C43"/>
<path d="M199.223 230.279C198.022 233.131 197.377 236.176 197.366 239.278C197.366 240.773 197.513 242.267 197.796 243.738C197.943 244.508 198.136 245.267 198.362 246.025C198.566 246.67 198.69 247.576 199.37 247.87C199.619 247.972 199.97 247.961 200.094 247.667C200.389 247.021 200.094 246.546 199.879 245.912C199.653 245.21 199.46 244.497 199.313 243.772C199.019 242.391 198.872 240.976 198.86 239.561C198.838 236.641 199.392 233.731 200.536 231.037C200.91 230.143 199.596 229.384 199.211 230.29L199.223 230.279Z" fill="#0E2C43"/>
<path d="M204.284 233.369C203.073 236.244 202.393 239.324 202.371 242.448C202.359 243.988 202.495 245.527 202.767 247.033C202.903 247.802 203.084 248.561 203.299 249.308C203.514 250.044 203.707 250.916 204.148 251.55C204.635 252.24 205.586 251.821 205.473 251.017C205.371 250.304 205.02 249.614 204.816 248.923C204.612 248.221 204.443 247.508 204.307 246.784C204.035 245.357 203.91 243.908 203.922 242.459C203.944 239.527 204.511 236.641 205.62 233.924C205.926 233.177 204.612 232.622 204.284 233.38V233.369Z" fill="#0E2C43"/>
<path d="M328.833 167.575C321.043 177.197 312.891 186.525 304.886 195.967C296.881 205.408 288.796 214.781 280.712 224.154C276.126 229.464 271.541 234.761 266.932 240.048C266.094 241.01 267.589 242.346 268.404 241.361C276.341 231.863 284.347 222.411 292.318 212.936C300.289 203.461 308.419 194.121 316.48 184.737C321.055 179.416 325.572 174.05 330.26 168.843C331.087 167.926 329.603 166.613 328.833 167.575Z" fill="#0E2C43"/>
<path d="M325.391 183.446C324.553 183.944 324.067 184.703 323.466 185.461C322.81 186.299 322.13 187.114 321.451 187.94C320.172 189.503 318.869 191.054 317.567 192.604C315.042 195.627 312.517 198.638 309.993 201.661C304.841 207.819 299.655 213.955 294.48 220.102C291.57 223.566 288.661 227.018 285.739 230.482C284.947 231.422 286.373 232.712 287.166 231.762C297.447 219.49 307.728 207.208 318.054 194.959C319.492 193.25 320.919 191.529 322.38 189.831C323.104 188.982 323.829 188.133 324.565 187.295C325.312 186.435 326.241 185.654 326.659 184.578C326.965 183.786 326.184 182.971 325.403 183.446H325.391Z" fill="#0E2C43"/>
<path d="M295.975 134.882C295.76 135.256 295.556 135.629 295.341 136.003C293.088 135.833 290.857 136.467 289.102 137.938C287.687 139.127 286.566 141.006 286.283 142.908C283.226 141.606 279.704 141.663 276.625 142.953C274.688 143.768 273.273 145.059 271.869 146.587C271.077 147.448 270.329 148.172 269.186 148.512C268.291 148.783 267.306 148.953 266.559 148.263C265.811 147.583 264.702 148.682 265.438 149.383C266.842 150.697 269.027 150.629 270.522 149.519C272.322 148.183 273.409 146.112 275.243 144.821C278.504 142.535 283.294 142.523 286.487 144.991C287.076 145.444 288.027 145.206 288.038 144.346C288.038 143.338 287.993 142.353 288.321 141.391C288.649 140.44 289.193 139.614 289.929 138.935C291.446 137.531 293.643 137.112 295.601 137.667C295.975 137.769 296.337 137.576 296.541 137.271C296.87 136.761 297.175 136.24 297.481 135.72C298.047 134.769 296.541 133.908 295.986 134.871L295.975 134.882Z" fill="#0E2C43"/>
<path d="M223.646 202.351C223.159 201.706 222.661 200.959 221.913 200.597C221.426 200.359 220.679 200.778 220.894 201.378C221.098 201.944 221.472 202.408 221.891 202.838C220.249 205.034 218.539 207.298 218.471 210.174C218.437 211.928 219.094 213.819 220.419 214.973C217.339 216.672 214.871 219.162 213.727 222.637C213.048 224.72 212.934 226.973 213.319 229.124C213.512 230.211 213.863 231.263 214.293 232.282C214.599 232.995 215.55 234.92 214.316 235.35C213.41 235.667 213.784 237.116 214.701 236.799C216.886 236.052 216.58 233.618 215.731 231.954C214.599 229.747 214.089 227.403 214.463 224.935C215.086 220.792 218.256 216.728 222.502 215.89C223.215 215.755 223.431 214.566 222.717 214.272C220.894 213.502 220.011 211.713 220.102 209.766C220.215 207.355 222.004 205.079 223.51 203.325C223.714 203.087 223.861 202.657 223.634 202.363L223.646 202.351Z" fill="#0E2C43"/>
<path d="M348.524 161.043C348.863 159.662 348.841 158.168 348.263 156.855C347.98 156.198 346.033 153.595 347.606 153.266C348.524 153.074 348.15 151.67 347.244 151.863C346.044 152.123 345.466 153.391 345.625 154.534C345.727 155.304 346.157 155.972 346.542 156.628C346.995 157.398 347.301 158.168 347.323 159.074C347.448 162.775 344.402 165.096 341.866 167.247C341.311 167.722 341.798 168.549 342.421 168.594C343.938 168.685 344.787 170.371 344.753 171.741C344.708 173.632 343.145 175.228 341.934 176.53C340.801 177.741 339.465 179.111 339.567 180.911C339.658 182.45 341.198 183.843 342.704 183.209C343.44 182.903 343.021 181.828 342.33 181.805C341.492 181.782 340.903 181.182 340.971 180.311C341.039 179.348 341.866 178.477 342.466 177.786C343.598 176.473 344.776 175.171 345.444 173.541C346.282 171.503 345.851 168.651 343.983 167.507C345.976 165.753 347.889 163.636 348.524 161.043Z" fill="#0E2C43"/>
<path d="M289.374 245.278C287.585 243.874 285.207 242.516 283.226 244.361C282.422 245.108 281.89 246.014 281.289 246.931C280.667 247.882 279.965 248.776 279.183 249.602C277.666 251.187 275.821 252.512 273.624 252.931C271.552 253.338 269.276 252.908 267.714 251.425C267.17 250.904 266.31 251.289 266.276 252.025C266.14 254.742 264.271 257.334 261.996 258.761C259.437 260.368 256.221 260.696 253.368 259.768C252.575 259.508 252.303 260.708 253.051 260.991C256.244 262.213 259.969 261.896 262.845 259.995C265.223 258.432 266.706 256.1 267.566 253.474C270.725 255.67 275.198 255.172 278.289 252.942C280.146 251.606 281.595 249.863 282.795 247.916C283.282 247.123 283.724 245.878 284.652 245.516C285.853 245.052 287.03 246.003 287.902 246.727C288.932 247.587 290.416 246.07 289.374 245.255V245.278Z" fill="#0E2C43"/>
<path d="M281.88 204.313C295.878 189.487 300.823 171.425 292.925 163.971C285.026 156.516 267.275 162.491 253.277 177.317C239.278 192.142 234.334 210.204 242.232 217.659C250.131 225.114 267.882 219.138 281.88 204.313Z" fill="#FEFCE8"/>
<path d="M289.521 163.092C288.525 162.289 287.517 161.757 286.271 161.428C285.513 161.236 285.049 162.323 285.751 162.707C287.8 163.828 289.589 165.345 290.8 167.349C292.137 169.568 292.782 172.103 292.85 174.684C292.997 180.129 291.084 185.676 288.785 190.555C284.539 199.578 277.734 207.196 269.231 212.404C264.6 215.234 259.357 217.656 253.809 217.396C248.782 217.158 244.094 214.6 242 209.902C239.679 204.695 240.833 198.717 242.702 193.567C244.491 188.642 247.14 184.012 250.503 179.994C253.889 175.93 257.976 172.477 262.539 169.805C267.283 167.02 272.424 165.243 277.813 164.179C279.149 163.919 280.497 163.704 281.844 163.511C282.501 163.421 282.354 162.311 281.697 162.356C275.956 162.685 270.329 164.485 265.189 166.986C260.082 169.477 255.462 172.884 251.533 176.982C247.729 180.956 244.559 185.597 242.271 190.601C239.86 195.899 238.003 201.966 239.339 207.796C239.95 210.445 241.207 212.992 243.143 214.928C244.978 216.762 247.333 218.019 249.835 218.687C255.462 220.203 261.294 218.698 266.377 216.139C275.9 211.351 283.724 203.132 288.91 193.895C291.638 189.039 293.869 183.537 294.537 177.979C295.182 172.601 293.937 166.647 289.544 163.092H289.521Z" fill="#0E2C43"/>
<path d="M266.978 131.542H266.966C266.966 131.542 266.944 131.554 266.91 131.565C266.932 131.554 266.944 131.542 266.978 131.542Z" fill="#F8FDF7"/>
</g>
<defs>
<clipPath id="clip0_1517_1993">
<rect width="421" height="318" fill="white"/>
</clipPath>
</defs>
</svg>
