<svg width="24" height="25" viewBox="0 0 24 25" fill="none" xmlns="http://www.w3.org/2000/svg">
<path fill-rule="evenodd" clip-rule="evenodd" d="M11.9428 2.25H12.0572C14.2479 2.24999 15.9686 2.24998 17.312 2.43059C18.6886 2.61568 19.7809 3.00271 20.6391 3.86091C21.4973 4.71911 21.8843 5.81137 22.0694 7.18802C22.25 8.53144 22.25 10.2521 22.25 12.4428V12.5572C22.25 14.7479 22.25 16.4686 22.0694 17.812C21.8843 19.1886 21.4973 20.2809 20.6391 21.1391C19.7809 21.9973 18.6886 22.3843 17.312 22.5694C15.9686 22.75 14.2479 22.75 12.0572 22.75H11.9428C9.7521 22.75 8.03144 22.75 6.68802 22.5694C5.31137 22.3843 4.21911 21.9973 3.36091 21.1391C2.50272 20.2809 2.11568 19.1886 1.93059 17.812C1.74998 16.4686 1.74999 14.7479 1.75 12.5572V12.4428C1.74999 10.2521 1.74998 8.53144 1.93059 7.18802C2.11568 5.81137 2.50272 4.71911 3.36091 3.86091C4.21911 3.00271 5.31137 2.61568 6.68802 2.43059C8.03143 2.24998 9.75214 2.24999 11.9428 2.25ZM8.00195 11C8.00195 10.4477 7.55424 10 7.00195 10C6.44967 10 6.00195 10.4477 6.00195 11V17.5C6.00195 18.0523 6.44967 18.5 7.00195 18.5C7.55424 18.5 8.00195 18.0523 8.00195 17.5V11ZM11.002 9.5C11.4073 9.5 11.7564 9.7412 11.9134 10.0879C12.5213 9.715 13.2365 9.5 14.002 9.5C16.2111 9.5 18.002 11.2909 18.002 13.5V17.5C18.002 18.0523 17.5542 18.5 17.002 18.5C16.4497 18.5 16.002 18.0523 16.002 17.5V13.5C16.002 12.3954 15.1065 11.5 14.002 11.5C12.8974 11.5 12.002 12.3954 12.002 13.5V17.5C12.002 18.0523 11.5542 18.5 11.002 18.5C10.4497 18.5 10.002 18.0523 10.002 17.5V10.5C10.002 9.94771 10.4497 9.5 11.002 9.5ZM8.25977 7.5C8.25977 8.19036 7.70012 8.75 7.00977 8.75H7.00078C6.31043 8.75 5.75078 8.19036 5.75078 7.5C5.75078 6.80964 6.31043 6.25 7.00078 6.25H7.00977C7.70012 6.25 8.25977 6.80964 8.25977 7.5Z" fill="#0A66C2"/>
</svg>
