<svg width="103" height="64" viewBox="0 0 103 64" fill="none" xmlns="http://www.w3.org/2000/svg">
<path d="M8.96316 55.4868C14.7782 61.1623 22.4265 64 31.9048 64C42.1421 64 49.6887 61.325 54.5481 55.9784C54.6464 55.8699 54.7244 55.775 54.8091 55.6766C60.597 61.2233 68.1776 64 77.5474 64C87.7847 64 95.3313 61.325 100.191 55.9784C100.787 55.324 101.085 54.8562 101.085 54.5714C101.085 53.5509 100.099 51.1641 98.127 47.4041C97.3713 45.9632 96.697 44.7698 96.1073 43.8205C95.1043 42.2067 93.0236 41.7321 91.4479 42.7526C90.804 43.1696 90.1568 43.59 89.5129 44.007C89.4214 44.068 89.3265 44.1223 89.2283 44.1765C85.6938 46.0819 82.1763 47.038 78.6792 47.038C75.731 47.038 73.1014 46.4684 70.7937 45.3225C70.7665 45.3089 70.736 45.2953 70.7089 45.2818C67.6591 43.7595 68.6283 39.0333 72.0102 38.7485C78.259 38.2264 83.1726 37.7653 86.7477 37.3585C94.5553 36.5414 98.676 36.0939 99.1165 36.0125C101.706 35.4429 103 33.0934 103 28.9707C103 21.0915 100.33 14.2938 94.9958 8.57424C89.6552 2.85808 83.1625 0 75.5141 0C66.4324 0 59.1432 3.10219 53.6467 9.30995C52.9995 10.0389 52.3929 10.7949 51.8236 11.5713C51.0747 10.5407 50.2546 9.5405 49.3499 8.57424C44.0126 2.85808 37.5199 0 29.8715 0C20.7898 0 13.504 3.10219 8.00415 9.30995C2.66692 15.3109 1.3246e-06 23.007 1.86529e-06 32.3984C2.40599e-06 41.7897 2.98546 49.7299 8.96316 55.4868ZM26.3676 38.7485C32.6164 38.2264 37.53 37.7653 41.1051 37.3585C42.891 37.172 44.4769 37.0059 45.8798 36.8567C46.0797 38.7587 46.4085 40.5827 46.8761 42.3118C46.5067 42.3966 46.1475 42.5322 45.8086 42.7526C45.1648 43.1696 44.5176 43.59 43.8737 44.007C43.7822 44.068 43.6873 44.1223 43.589 44.1765C40.0546 46.0819 36.5371 47.038 33.04 47.038C30.0918 47.038 27.4622 46.4684 25.1544 45.3225C25.1273 45.3089 25.0968 45.2953 25.0697 45.2818C22.0199 43.7595 22.989 39.0333 26.371 38.7485" fill="#0F1113"/>
</svg>
