<svg width="17" height="16" viewBox="0 0 17 16" fill="none" xmlns="http://www.w3.org/2000/svg">
<path fill-rule="evenodd" clip-rule="evenodd" d="M10.688 1.85754C9.38417 1.82483 8.41547 1.82483 7.11162 1.85755L7.06172 1.8588C6.05548 1.88402 5.22756 1.90477 4.56025 2.02084C3.852 2.14403 3.259 2.38395 2.75673 2.8875C2.25709 3.38841 2.01786 3.97207 1.89666 4.66911C1.78292 5.32326 1.76571 6.1305 1.74488 7.10751L1.7438 7.15777C1.7296 7.82304 1.72961 8.17631 1.74381 8.84158L1.74488 8.89184C1.76572 9.86886 1.78293 10.6761 1.89667 11.3302C2.01787 12.0273 2.2571 12.6109 2.75674 13.1119C3.25901 13.6154 3.85201 13.8553 4.56026 13.9785C5.22757 14.0946 6.05549 14.1153 7.06173 14.1406L7.11163 14.1418C8.41548 14.1745 9.38417 14.1745 10.688 14.1418L10.7379 14.1406C11.7441 14.1153 12.5721 14.0946 13.2394 13.9785C13.9476 13.8553 14.5406 13.6154 15.0429 13.1118C15.5426 12.6109 15.7818 12.0273 15.903 11.3302C16.0167 10.6761 16.0339 9.86886 16.0548 8.89186L16.0558 8.84157C16.07 8.1763 16.07 7.82304 16.0558 7.15777L16.0548 7.10752C16.0339 6.13052 16.0167 5.32326 15.903 4.66911C15.7818 3.97208 15.5425 3.38842 15.0429 2.8875C14.7607 2.60453 14.4497 2.40481 14.1058 2.26227C14.0535 2.2337 13.9974 2.21216 13.939 2.19841C13.7191 2.1209 13.4862 2.06378 13.2394 2.02085C12.5721 1.90477 11.7442 1.88402 10.7379 1.8588L10.688 1.85754ZM14.6863 5.89987C14.6734 5.62953 14.667 5.49436 14.5691 5.4404C14.4712 5.38644 14.3509 5.45462 14.1102 5.59099L11.2863 7.19101C10.4199 7.68192 9.68716 7.99966 8.89969 7.99966C8.11222 7.99966 7.37946 7.68192 6.51306 7.19101L3.68945 5.59113C3.44877 5.45476 3.32843 5.38658 3.23054 5.44054C3.13265 5.49451 3.1262 5.62968 3.11331 5.90003C3.09593 6.26437 3.08651 6.68675 3.07584 7.18614C3.06204 7.8325 3.06205 8.16685 3.07585 8.81321C3.09806 9.85321 3.11489 10.5592 3.20937 11.1026C3.29833 11.6142 3.44674 11.9182 3.70063 12.1727C3.95189 12.4246 4.26 12.5756 4.78885 12.6676C5.34765 12.7648 6.07647 12.7847 7.1451 12.8115C8.42664 12.8437 9.37302 12.8437 10.6546 12.8115C11.7232 12.7847 12.452 12.7647 13.0108 12.6676C13.5397 12.5756 13.8478 12.4246 14.099 12.1727C14.3529 11.9182 14.5013 11.6142 14.5903 11.1026C14.6848 10.5592 14.7016 9.8532 14.7238 8.8132C14.7376 8.16685 14.7376 7.8325 14.7238 7.18614C14.7131 6.68668 14.7037 6.26425 14.6863 5.89987Z" fill="white"/>
</svg>
