<svg width="24" height="25" viewBox="0 0 24 25" fill="none" xmlns="http://www.w3.org/2000/svg">
<path d="M2.3569 3.28125C2.52359 2.95525 2.85886 2.75012 3.225 2.75012L8.1 2.75012C8.41308 2.75012 8.70711 2.90046 8.89041 3.15427L13.5354 9.58583L20.0856 3.03569C20.4663 2.65493 21.0837 2.65493 21.4644 3.03569C21.8452 3.41645 21.8452 4.03379 21.4644 4.41455L14.6919 11.1871L21.5654 20.7043C21.7798 21.0011 21.8098 21.393 21.6431 21.719C21.4764 22.045 21.1411 22.2501 20.775 22.2501H15.9C15.5869 22.2501 15.2929 22.0998 15.1096 21.846L10.4646 15.4144L3.91443 21.9646C3.53367 22.3453 2.91634 22.3453 2.53557 21.9646C2.15481 21.5838 2.15481 20.9665 2.53557 20.5857L9.30811 13.8132L2.43459 4.29598C2.22022 3.99915 2.19021 3.60725 2.3569 3.28125Z" fill="#14171A"/>
</svg>
