<svg width="40" height="40" viewBox="0 0 40 40" fill="none" xmlns="http://www.w3.org/2000/svg">
<g opacity="0.4">
<path d="M23.3333 14.5833C24.0237 14.5833 24.5833 14.0236 24.5833 13.3333C24.5833 12.6429 24.0237 12.0833 23.3333 12.0833H10C9.30964 12.0833 8.75 12.6429 8.75 13.3333C8.75 14.0236 9.30964 14.5833 10 14.5833L23.3333 14.5833Z" fill="#0F2837"/>
<path d="M23.3333 21.2499C24.0237 21.2499 24.5833 20.6903 24.5833 19.9999C24.5833 19.3096 24.0237 18.7499 23.3333 18.7499L10 18.7499C9.30964 18.7499 8.75 19.3096 8.75 19.9999C8.75 20.6903 9.30964 21.2499 10 21.2499L23.3333 21.2499Z" fill="#0F2837"/>
<path d="M17.9167 26.6666C17.9167 27.3569 17.357 27.9166 16.6667 27.9166H10C9.30964 27.9166 8.75 27.3569 8.75 26.6666C8.75 25.9762 9.30964 25.4166 10 25.4166L16.6667 25.4166C17.357 25.4166 17.9167 25.9762 17.9167 26.6666Z" fill="#0F2837"/>
<path fill-rule="evenodd" clip-rule="evenodd" d="M36.8183 13.1816C36.1812 12.5445 35.3958 12.2961 34.5764 12.1859C33.8118 12.0831 32.8571 12.0832 31.749 12.0833L30 12.0833C29.3096 12.0833 28.75 12.6429 28.75 13.3333V31.6666C28.75 34.1979 30.802 36.2499 33.3333 36.2499C35.8646 36.2499 37.9167 34.1979 37.9167 31.6666L37.9167 18.251C37.9167 17.1429 37.9168 16.1881 37.814 15.4235C37.7038 14.6041 37.4554 13.8187 36.8183 13.1816ZM31.6667 14.5833C32.8805 14.5833 33.6652 14.5859 34.2433 14.6636C34.7855 14.7365 34.9554 14.8542 35.0506 14.9494C35.1457 15.0445 35.2634 15.2145 35.3363 15.7566C35.414 16.3348 35.4167 17.1194 35.4167 18.3333V31.6666C35.4167 32.8172 34.4839 33.7499 33.3333 33.7499C32.1827 33.7499 31.25 32.8172 31.25 31.6666V14.5833H31.6667Z" fill="#0F2837"/>
</g>
<path fill-rule="evenodd" clip-rule="evenodd" d="M13.2418 3.75H20.0914C22.3707 3.74997 24.2079 3.74994 25.6528 3.94421C27.153 4.1459 28.4161 4.57739 29.4193 5.58058C30.4225 6.58378 30.854 7.8469 31.0557 9.34708C31.25 10.792 31.25 12.6292 31.2499 14.9086V31.6667C31.2499 32.8173 32.1827 33.75 33.3333 33.75C34.0236 33.75 34.5833 34.3096 34.5833 35C34.5833 35.6904 34.0236 36.25 33.3333 36.25H13.2418C10.9625 36.25 9.12528 36.2501 7.68034 36.0558C6.18016 35.8541 4.91703 35.4226 3.91384 34.4194C2.91064 33.4162 2.47915 32.1531 2.27746 30.6529C2.08319 29.208 2.08322 27.3708 2.08325 25.0915V14.9085C2.08322 12.6292 2.08319 10.792 2.27746 9.34708C2.47915 7.8469 2.91064 6.58378 3.91384 5.58058C4.91703 4.57739 6.18016 4.1459 7.68034 3.94421C9.12528 3.74994 10.9625 3.74997 13.2418 3.75ZM29.2497 33.75C28.9302 33.1249 28.7499 32.4169 28.7499 31.6667V15C28.7499 12.6076 28.7473 10.9391 28.578 9.6802C28.4136 8.45724 28.1128 7.80962 27.6516 7.34835C27.1903 6.88708 26.5427 6.58634 25.3197 6.42191C24.0608 6.25266 22.3923 6.25 19.9999 6.25H13.3333C10.9409 6.25 9.27237 6.25266 8.01345 6.42191C6.7905 6.58634 6.14288 6.88708 5.6816 7.34835C5.22033 7.80962 4.91959 8.45724 4.75517 9.6802C4.58591 10.9391 4.58325 12.6076 4.58325 15V25C4.58325 27.3924 4.58591 29.0609 4.75517 30.3198C4.91959 31.5428 5.22033 32.1904 5.6816 32.6517C6.14288 33.1129 6.7905 33.4137 8.01345 33.5781C9.27237 33.7473 10.9409 33.75 13.3333 33.75H29.2497Z" fill="#0F2837"/>
</svg>
