<svg width="66" height="64" viewBox="0 0 66 64" fill="none" xmlns="http://www.w3.org/2000/svg">
<path d="M6.1003 35.0529C9.7701 38.6328 14.5969 40.4228 20.5785 40.4228C27.0391 40.4228 31.8018 38.7355 34.8685 35.363C34.9305 35.2945 34.9797 35.2346 35.0331 35.1726C38.6858 38.6713 43.4698 40.4228 49.383 40.4228C55.8437 40.4228 60.6063 38.7355 63.673 35.363C64.0494 34.9502 64.2376 34.6551 64.2376 34.4754C64.2376 33.8317 63.6153 32.3262 62.3706 29.9545C61.8937 29.0456 61.4681 28.2928 61.096 27.694C60.463 26.676 59.1499 26.3766 58.1555 27.0204C57.7491 27.2834 57.3407 27.5486 56.9343 27.8116C56.8766 27.8501 56.8167 27.8843 56.7547 27.9186C54.5242 29.1204 52.3043 29.7235 50.0973 29.7235C48.2367 29.7235 46.5772 29.3642 45.1208 28.6414C45.1037 28.6328 45.0845 28.6243 45.0674 28.6157C43.1426 27.6555 43.7543 24.6743 45.8886 24.4947C49.8321 24.1653 52.9331 23.8745 55.1893 23.6179C60.1166 23.1025 62.7171 22.8202 62.9951 22.7689C64.629 22.4096 65.4459 20.9275 65.4459 18.327C65.4459 13.357 63.7607 9.06911 60.3946 5.46133C57.0242 1.85568 52.9266 0.0528564 48.0999 0.0528564C42.3685 0.0528564 37.7684 2.00966 34.2996 5.9254C33.8911 6.38519 33.5083 6.8621 33.1491 7.35183C32.6764 6.7017 32.1589 6.07082 31.5879 5.46133C28.2196 1.85568 24.1221 0.0528564 19.2953 0.0528564C13.5639 0.0528564 8.966 2.00966 5.49508 5.9254C2.12682 9.71068 0.443756 14.5653 0.443756 20.4891C0.443756 26.413 2.32785 31.4216 6.1003 35.0529ZM17.084 24.4947C21.0276 24.1653 24.1285 23.8745 26.3847 23.6179C27.5118 23.5002 28.5126 23.3955 29.398 23.3014C29.5242 24.5011 29.7316 25.6517 30.0267 26.7423C29.7936 26.7958 29.5669 26.8813 29.3531 27.0204C28.9468 27.2834 28.5383 27.5486 28.132 27.8116C28.0742 27.8501 28.0143 27.8843 27.9523 27.9186C25.7218 29.1204 23.5019 29.7235 21.2949 29.7235C19.4343 29.7235 17.7748 29.3642 16.3184 28.6414C16.3013 28.6328 16.2821 28.6243 16.265 28.6157C14.3403 27.6555 14.9519 24.6743 17.0862 24.4947" fill="#7F878F"/>
<path d="M11.1195 59.5909C10.8479 59.6038 9.22049 59.6187 8.91681 59.6337C7.46899 59.7107 6.39114 59.7492 5.66617 59.7492H5.3518C5.23845 59.7257 5.17857 59.6636 5.17002 59.5674C5.1636 59.5033 5.15932 59.4391 5.15291 59.3749C5.14863 59.3086 5.14649 59.2445 5.14221 59.1782C5.1358 58.6991 5.13152 57.9784 5.13152 57.0139L5.14435 53.8189C5.20851 52.2257 5.26839 50.842 5.32399 49.6658C5.40954 47.8801 3.90398 46.4258 2.12254 46.5777C2.10115 46.5777 2.08191 46.582 2.06052 46.582C1.13452 46.6675 0.426646 47.4481 0.443755 48.3805C0.458725 49.1354 0.48011 50.0358 0.512189 51.0815C0.567792 52.9485 0.597732 54.3514 0.597732 55.286C0.597732 56.1649 0.582762 57.4823 0.554961 59.2359C0.527159 60.9896 0.512189 62.3069 0.512189 63.1859C0.512189 63.3955 0.629811 63.5216 0.862916 63.5601C1.54085 63.6008 2.06052 63.6157 2.42408 63.6093L6.04256 63.6585C6.39756 63.6671 7.29149 63.6863 8.74358 63.7184C9.85778 63.7505 12.1033 63.7676 12.7962 63.7676C13.1704 63.789 13.4442 63.4874 13.626 63.034C14.3082 61.336 12.9502 59.5075 11.1217 59.5909" fill="#7F878F"/>
<path d="M18.7136 48.2393C18.7479 47.8757 18.5148 47.5378 18.1619 47.4416C16.8488 47.0866 15.463 46.5477 14.8492 47.6405C14.7359 47.8436 14.4686 47.8992 14.2718 47.7752C3.77353 41.1627 3.10629 64.1781 13.7051 57.9655C13.9104 57.8458 14.0986 57.7004 14.2868 57.5571C14.4964 57.3967 14.4878 57.6512 14.5755 58.2072C14.8022 59.4476 16.5622 58.8915 17.6957 58.7803C18.1213 58.7376 18.4656 58.4211 18.5447 58.0019C19.0644 55.2731 18.442 51.0494 18.7115 48.2393M13.9724 54.5053C11.7996 56.723 8.46771 53.2115 10.587 51.0643C12.8026 48.8573 16.1238 52.309 13.9724 54.5053Z" fill="#7F878F"/>
<path d="M30.9271 57.4117C30.9549 55.9639 31.3826 54.8539 31.6713 54.2423C31.4788 53.836 31.1089 53.2008 30.4331 52.6405C29.2226 51.6397 27.8582 51.5691 27.407 51.5669L26.8167 51.5563C25.8929 51.5413 24.9797 51.7701 24.1734 52.2213L23.8206 52.4181C23.7799 47.5806 25.2256 45.5597 20.4758 46.6354C19.83 46.7808 19.3873 47.3796 19.4386 48.0404C19.7509 52.0802 19.8086 59.6679 19.49 62.7025C19.4686 62.9143 19.5734 63.1217 19.7594 63.2222C20.525 63.6392 22.3685 63.3847 23.1662 63.3056C23.4592 63.2757 23.703 63.0704 23.7842 62.7881C23.8612 62.5143 23.951 62.2727 24.1371 62.4694C24.3189 62.6255 25.9271 63.9664 28.0849 63.5024C30.587 62.9656 31.4339 60.5169 31.4681 60.41C31.2265 59.7983 30.9014 58.7462 30.9271 57.4095M27.5139 59.1268C25.371 61.3852 22.4412 57.9249 24.3424 55.8013C26.4403 53.5729 29.3723 57.0823 27.5139 59.1268Z" fill="#7F878F"/>
<path d="M46.3933 58.8467C47.6871 58.7419 48.7051 58.6478 49.445 58.5666C51.0618 58.4019 51.9151 58.3121 52.0071 58.295C52.5438 58.1795 52.8112 57.7047 52.8112 56.8728C52.8112 55.2817 52.2573 53.9066 51.1538 52.7518C50.0481 51.5969 48.703 51.0195 47.1204 51.0195C45.2385 51.0195 43.7308 51.6461 42.5909 52.8993C42.4562 53.0469 42.3321 53.1987 42.2124 53.357C42.0562 53.1496 41.8873 52.9464 41.7012 52.7518C40.5956 51.5969 39.2504 51.0195 37.6679 51.0195C35.7859 51.0195 34.2782 51.6461 33.1384 52.8993C32.0327 54.1119 31.481 55.6667 31.481 57.5636C31.481 59.4605 32.099 61.0666 33.3373 62.2278C34.5413 63.3741 36.126 63.9472 38.0892 63.9472C40.2085 63.9472 41.7718 63.4062 42.7791 62.3262C42.8005 62.3048 42.8154 62.2856 42.8326 62.2642C44.0323 63.3848 45.602 63.9472 47.5417 63.9472C49.661 63.9472 51.2243 63.4062 52.2316 62.3262C52.3557 62.1936 52.4177 62.0995 52.4177 62.0418C52.4177 61.8365 52.2124 61.3531 51.806 60.594C51.6499 60.3031 51.5109 60.0614 51.389 59.869C51.1816 59.5439 50.7496 59.4477 50.4245 59.653C50.2919 59.7385 50.1572 59.8219 50.0225 59.9075C50.0032 59.9203 49.984 59.931 49.9626 59.9417C49.2312 60.3266 48.5019 60.5191 47.777 60.5191C47.1653 60.5191 46.6221 60.4036 46.1431 60.1727C46.1367 60.1705 46.1324 60.1662 46.126 60.1641C45.4951 59.8561 45.6961 58.9023 46.3954 58.8446M40.9656 59.6551C40.833 59.7407 40.6983 59.8241 40.5635 59.9096C40.5443 59.9224 40.525 59.9331 40.5036 59.9438C39.7722 60.3288 39.043 60.5212 38.318 60.5212C37.7085 60.5212 37.1632 60.4058 36.6841 60.1748C36.6777 60.1727 36.6734 60.1684 36.667 60.1662C36.0361 59.8583 36.235 58.9045 36.9365 58.8467C38.2303 58.7419 39.2483 58.6478 39.9882 58.5666C40.3582 58.5281 40.6876 58.496 40.9763 58.4661C41.0169 58.851 41.0853 59.2188 41.1837 59.5696C41.1067 59.5867 41.0319 59.6145 40.9634 59.6573" fill="#7F878F"/>
<path d="M60.5913 51.5734L60.0011 51.5627C59.0772 51.5477 58.164 51.7766 57.3578 52.2278L57.0049 52.4246C56.9643 47.5871 58.41 45.5661 53.6602 46.6418C53.0143 46.7873 52.5738 47.3861 52.623 48.0448C52.7534 49.73 52.8347 51.7424 52.8668 54.0627C52.8668 54.1461 52.8817 54.2295 52.9095 54.3087C53.087 54.8155 53.2667 55.4507 53.3907 56.1949C53.4356 56.4686 53.5896 57.4438 53.5276 58.7419C53.4891 59.5781 53.4292 60.6474 52.9245 61.9028C52.8882 61.9904 52.8539 62.0717 52.8219 62.1444C52.7427 62.3219 52.6935 62.5101 52.6722 62.7047V62.7111C52.6486 62.925 52.7556 63.1303 52.9438 63.2329C53.7115 63.6478 55.5528 63.3933 56.3484 63.3142C56.6414 63.2843 56.8852 63.079 56.9643 62.7967C57.0413 62.5229 57.1311 62.2813 57.3172 62.478C65.1444 67.8715 69.2654 52.0011 60.587 51.5734M60.7004 59.1354C58.5575 61.3938 55.6277 57.9335 57.5289 55.8099C59.6268 53.5815 62.5588 57.0909 60.7004 59.1354Z" fill="#7F878F"/>
</svg>
