<svg width="17" height="16" viewBox="0 0 17 16" fill="none" xmlns="http://www.w3.org/2000/svg">
<path d="M10.3708 0.77631C10.0171 0.674224 9.64753 0.878242 9.54545 1.232C9.44336 1.58575 9.64738 1.95528 10.0011 2.05737C12.1392 2.67436 13.8257 4.36081 14.4428 6.49879C14.5449 6.85254 14.9144 7.05655 15.2682 6.95445C15.6219 6.85235 15.8259 6.48281 15.7238 6.12906C14.9797 3.5509 12.949 1.52033 10.3708 0.77631Z" fill="white"/>
<path d="M10.0105 4.02444C9.67164 3.88053 9.28024 4.0386 9.13633 4.37749C8.99241 4.71639 9.15048 5.10779 9.48938 5.25171C10.2792 5.58712 10.913 6.22091 11.2485 7.01076C11.3924 7.34966 11.7838 7.50772 12.1227 7.3638C12.4616 7.21988 12.6196 6.82849 12.4757 6.48959C12.0053 5.3818 11.1183 4.49487 10.0105 4.02444Z" fill="white"/>
<path d="M4.82688 1.60827C4.63995 1.27291 4.33909 1.01909 3.96129 0.941004C3.57956 0.862106 3.19586 0.978487 2.8805 1.23552C1.73626 2.16812 1.00771 3.6623 1.3239 5.22979C1.51827 6.19329 1.84208 7.14395 2.50149 8.29376C3.82487 10.6013 5.89625 12.6738 8.20649 13.9988C9.35629 14.6582 10.307 14.982 11.2705 15.1763C12.8379 15.4925 14.3321 14.764 15.2647 13.6197C15.5218 13.3044 15.6381 12.9207 15.5592 12.539C15.4812 12.1612 15.2273 11.8603 14.892 11.6734L13.8236 11.0778C13.4302 10.8586 13.0991 10.674 12.8112 10.5534C12.5059 10.4256 12.2048 10.3496 11.8719 10.3843C11.539 10.4191 11.26 10.5555 10.9876 10.7436C10.7308 10.9209 10.4449 11.1699 10.1052 11.4657L9.09967 12.3411C8.91949 12.4979 8.8294 12.5763 8.7168 12.5835C8.6042 12.5907 8.50802 12.5264 8.31567 12.3978C6.67494 11.3012 5.19818 9.8239 4.10246 8.18452C3.97389 7.99217 3.90961 7.89599 3.91678 7.78339C3.92395 7.67079 4.00238 7.5807 4.15924 7.40053L5.03457 6.39507C5.33038 6.05532 5.57931 5.7694 5.75664 5.51262C5.94476 5.24023 6.0812 4.96127 6.11591 4.62836C6.15063 4.29545 6.07468 3.99435 5.94682 3.689C5.82627 3.40116 5.64169 3.07003 5.42235 2.67657L4.82688 1.60827Z" fill="white"/>
</svg>
