<svg width="24" height="25" viewBox="0 0 24 25" fill="none" xmlns="http://www.w3.org/2000/svg">
<path d="M8 12.5C8 10.2909 9.79086 8.5 12 8.5C14.2091 8.5 16 10.2909 16 12.5C16 14.7091 14.2091 16.5 12 16.5C11.6822 16.5 11.3738 16.4631 11.0786 16.3936L12.9255 11.8787C13.1347 11.3675 12.8898 10.7836 12.3786 10.5745C11.8675 10.3654 11.2836 10.6103 11.0745 11.1214L6.68663 21.8472C3.43949 19.9974 1.25 16.5044 1.25 12.5C1.25 6.56294 6.06294 1.75 12 1.75C17.9371 1.75 22.75 6.56294 22.75 12.5C22.75 18.4371 17.9371 23.25 12 23.25C10.7786 23.25 9.60469 23.0463 8.51052 22.671L10.3151 18.2599C10.8504 18.4163 11.416 18.5 12 18.5C15.3137 18.5 18 15.8137 18 12.5C18 9.18629 15.3137 6.5 12 6.5C8.68629 6.5 6 9.18629 6 12.5C6 13.3516 6.17813 14.1642 6.49997 14.9005C6.72116 15.4066 7.31072 15.6375 7.81677 15.4163C8.32282 15.1951 8.55375 14.6055 8.33255 14.0995C8.11899 13.6109 8 13.0707 8 12.5Z" fill="#BD081C"/>
</svg>
