<svg width="33" height="34" viewBox="0 0 33 34" fill="none" xmlns="http://www.w3.org/2000/svg">
<path d="M15 18.5007C15 17.6723 15.6716 17.0007 16.5 17.0007H16.5135C17.3419 17.0007 18.0135 17.6723 18.0135 18.5007C18.0135 19.3292 17.3419 20.0007 16.5135 20.0007H16.5C15.6716 20.0007 15 19.3292 15 18.5007Z" fill="#1E2226"/>
<path fill-rule="evenodd" clip-rule="evenodd" d="M22.5 7.59886H17.625V8.9381C17.6455 8.94797 17.6658 8.95797 17.6859 8.9681C17.9921 9.12188 18.3312 9.33993 18.69 9.57067L21.8949 11.631C22.533 12.0412 23.0765 12.3905 23.5015 12.7243C23.9544 13.0799 24.3388 13.4667 24.6206 13.9829C24.9024 14.499 25.0199 15.0315 25.0741 15.6048C25.125 16.1427 25.125 16.7888 25.125 17.5475V17.6209C25.8034 17.7891 26.4339 17.948 26.9925 18.114C27.78 18.3479 28.5204 18.6218 29.1461 19.0201C29.7971 19.4344 30.3201 19.9808 30.6633 20.7282C30.9959 21.4525 31.1253 22.2914 31.1253 23.2444V30.8757H31.5C32.1213 30.8757 32.625 31.3794 32.625 32.0007C32.625 32.6221 32.1213 33.1257 31.5 33.1257H30.025L30.0003 33.126L29.9756 33.1257H3.02471L3 33.126L2.97529 33.1257H1.5C0.87868 33.1257 0.375 32.6221 0.375 32.0007C0.375 31.3794 0.87868 30.8757 1.5 30.8757H1.875V23.2444C1.875 22.2914 2.00437 21.4525 2.33698 20.7282C2.68016 19.9808 3.20321 19.4344 3.85417 19.0201C4.47988 18.6218 5.22027 18.3479 6.00773 18.114C6.56632 17.948 7.1967 17.7891 7.875 17.621V17.5475C7.87498 16.7889 7.87496 16.1427 7.92586 15.6048C7.98011 15.0315 8.09765 14.499 8.37944 13.9829C8.66123 13.4667 9.04562 13.0799 9.4985 12.7243C9.92347 12.3905 10.467 12.0412 11.1051 11.631L14.31 9.57069C14.6688 9.33994 15.0079 9.12188 15.3141 8.9681C15.3342 8.95797 15.3545 8.94795 15.375 8.93808L15.375 3.40441C15.3749 3.0946 15.3748 2.76078 15.4124 2.4792C15.4564 2.15022 15.5693 1.72962 15.9219 1.37501C16.5221 0.77123 17.3579 0.852995 17.7733 0.925837C18.2838 1.01534 18.8327 1.21725 19.3285 1.43366C20.3338 1.87249 21.3679 2.48227 21.9203 2.82239C23.3561 3.7065 23.625 5.36842 23.625 6.47386C23.625 7.09518 23.1213 7.59886 22.5 7.59886ZM18.4284 3.49577C18.1176 3.36009 17.8462 3.26026 17.6255 3.19827C17.625 3.27456 17.625 3.35943 17.625 3.45607V5.34886H21.202C21.092 5.06142 20.934 4.85743 20.7406 4.7383C20.2125 4.41317 19.286 3.8701 18.4284 3.49577ZM16.3241 10.9786C16.1377 11.0723 15.9 11.2233 15.4861 11.4894L12.3638 13.4966C11.6723 13.9412 11.2195 14.2336 10.8881 14.4939C10.5754 14.7395 10.4394 14.9052 10.3543 15.061C10.2692 15.2169 10.2033 15.4209 10.1659 15.8168C10.1262 16.2362 10.125 16.7753 10.125 17.5974V18.4776C10.1254 18.4938 10.1254 18.51 10.125 18.5261V30.8757H15.375V26.0007C15.375 25.3794 15.8787 24.8757 16.5 24.8757C17.1213 24.8757 17.625 25.3794 17.625 26.0007V30.8757H22.875V17.5974C22.875 16.7753 22.8738 16.2362 22.8341 15.8168C22.7967 15.4209 22.7308 15.2169 22.6457 15.061C22.5606 14.9052 22.4246 14.7395 22.1119 14.4939C21.7805 14.2336 21.3277 13.9412 20.6362 13.4966L17.5139 11.4894C17.1 11.2233 16.8623 11.0723 16.6759 10.9786C16.5921 10.9365 16.5445 10.9198 16.5205 10.9129C16.5094 10.9098 16.5037 10.9088 16.5021 10.9086L16.5 10.9084L16.4979 10.9086C16.4963 10.9088 16.4906 10.9098 16.4795 10.9129C16.4555 10.9198 16.4079 10.9365 16.3241 10.9786ZM25.125 30.8757H28.8753V23.2444C28.8753 22.4787 28.7685 21.9938 28.6185 21.6671C28.4791 21.3634 28.273 21.1315 27.9379 20.9181C27.5775 20.6887 27.0748 20.4856 26.3519 20.2708C25.9795 20.1602 25.574 20.0534 25.125 19.9401V30.8757ZM4.125 30.8757H7.875L7.875 19.9401C7.42607 20.0535 7.0207 20.1602 6.6484 20.2708C5.92543 20.4856 5.42277 20.6887 5.06239 20.9181C4.72726 21.1315 4.52116 21.3634 4.38173 21.6671C4.23172 21.9938 4.125 22.4787 4.125 23.2444V30.8757Z" fill="#1E2226"/>
</svg>
