<svg width="184" height="143" viewBox="0 0 184 143" fill="none" xmlns="http://www.w3.org/2000/svg">
<path d="M9.53447 142.194L0 0H183.493L175.79 142.194H9.53447Z" fill="#1784C7"/>
<path d="M33.5393 46.7557C33.5393 46.7557 31.7207 38.54 35.9684 38.3837C40.216 38.2275 38.6962 46.7557 38.6962 46.7557H33.5393Z" fill="#1784C7"/>
<path d="M34.2927 60.0364C34.2927 60.0364 32.4742 51.8206 36.7218 51.6644C40.9695 51.5081 39.4497 60.0364 39.4497 60.0364H34.2927Z" fill="#1784C7"/>
<path d="M103.217 42.5632C103.217 42.5632 101.398 34.3475 105.646 34.1912C109.893 34.035 108.373 42.5632 108.373 42.5632H103.217Z" fill="#1784C7"/>
<path d="M103.217 55.8568C103.217 55.8568 101.398 47.641 105.646 47.4848C109.893 47.3285 108.373 55.8568 108.373 55.8568H103.217Z" fill="#1784C7"/>
<path d="M124.325 83.9155C120.844 82.7306 117.401 81.702 114.011 80.7906L114.362 32.9022L120.246 32.1079V22.6031L112.556 21.4053V26.1837L108.685 26.3399V22.4599H100.255V26.1837L97.6439 26.3269L97.1763 22.3167L89.5903 23.5797L91.5647 32.2121H97.0723V47.2895H93.8899V43.3704L83.1603 41.9512L84.3294 47.2765H81.1339V44.4121H71.3656L72.5347 47.3416L68.1572 47.5499V44.5292L59.9606 43.3314V47.2765H55.4012V43.2793L47.0099 42.9668L48.6206 47.2765H44.9185V34.7901L49.5818 33.8266L50.9977 25.2202H41.2684V29.6862L38.0729 30.22V25.2332H28.7333V30.3892H27.1356L25.7846 25.8322L19.7574 28.3581L20.8745 36.4046H26.525L30.0712 80.2828C22.6151 82.1968 18.3545 83.9155 18.3545 83.9155H124.325ZM62.1819 75.4523C61.8831 71.1687 61.8831 63.6299 65.0526 59.5416C66.3516 57.875 68.0013 56.9766 70.1186 56.7943C72.1061 56.625 73.7687 57.1849 75.2366 58.539C79.2894 62.2628 80.5104 70.778 80.8871 75.5044C74.2753 75.1268 68.0013 75.1528 62.1819 75.4523ZM28.2007 34.5818H22.4593L21.7578 29.5039L24.6156 28.306L25.7716 32.2251H30.5519V27.0691H36.2414V32.3813L43.074 31.2486V27.0691H48.8284L47.9711 32.3162L43.074 33.3318V49.1384H51.2185L49.6468 44.9329L53.5567 45.0761V49.1384H61.7532V45.4797L66.3126 46.1437V49.503L75.1457 49.0733L74.0285 46.2739H79.2894V49.1384H86.5766L85.4725 44.1386L92.0453 45.011V49.1514H98.8779V30.4153H92.9936L91.7725 25.09L95.5655 24.465L96.0072 28.28L102.047 27.9545V24.3218H106.828V28.2669L114.349 27.9675V23.5666L118.402 24.1916V30.5325L112.53 31.3267L112.166 80.3479C101.866 77.7178 91.9674 76.2596 82.7187 75.6216C82.368 70.7129 81.095 61.4425 76.4576 57.1979C74.6131 55.5053 72.4308 54.7762 69.9498 54.9845C67.3388 55.2189 65.2085 56.3777 63.6108 58.4349C60.0386 63.031 60.0126 71.0254 60.3503 75.5695C48.7765 76.3117 39.0342 78.1084 31.8508 79.8401L28.2007 34.5818Z" fill="#FFD127"/>
<path d="M30.3632 94.3985L30.3276 98.0439L77.0885 98.5021L77.124 94.8566L30.3632 94.3985Z" fill="white"/>
<path d="M31.132 103.959L31.0562 107.617L59.4456 108.208L59.5214 104.55L31.132 103.959Z" fill="white"/>
<path d="M122.69 36.5534L122.614 40.2113L151.004 40.8024L151.08 37.1445L122.69 36.5534Z" fill="white"/>
<path d="M31.1047 115.085L31.0933 118.743L77.7002 118.89L77.7117 115.232L31.1047 115.085Z" fill="white"/>
<path d="M161.294 46.7467L122.65 46.8549L122.66 50.5135L161.304 50.4054L161.294 46.7467Z" fill="white"/>
<path d="M123.598 55.7617L123.585 59.4204L156.151 59.5344L156.163 55.8757L123.598 55.7617Z" fill="white"/>
<path d="M171.14 136.465L13.5223 134.994L10.9893 9.08815L175.076 4.97375L171.14 136.465ZM16.7957 132.129L170.231 135.28L171.452 7.46062L12.0414 12.7859L16.7827 132.129H16.7957Z" fill="#0E2C43"/>
</svg>
