<svg width="245" height="189" viewBox="0 0 245 189" fill="none" xmlns="http://www.w3.org/2000/svg">
<g clip-path="url(#clip0_1595_2732)">
<path d="M120.184 0.557048C142.556 -1.11482 144.795 32.4286 122.374 33.603L123.388 51.5695L144.625 52.589V91.564L169.909 92.5834L170.25 142.405L211.547 142.576L212.391 185.45C212.983 186.787 238.113 185.605 241.553 185.955C242.964 186.102 246.152 186.07 244.586 187.986L0 188.5L0.843625 186.975L28.9915 186.469L29.4944 143.253L72.138 142.748V92.249L97.9254 91.7434L98.0957 52.5971L119.673 51.9202C119.43 46.7497 119.998 41.4894 119.673 36.327C119.665 36.1475 118.716 36.2454 118.659 35.3075C118.619 34.6062 120.006 34.0516 120.006 33.9537C120.014 33.5867 114.189 32.0535 113.094 31.4092C99.8154 23.5963 104.78 1.70697 120.184 0.557048Z" fill="#050202"/>
<path d="M63.2069 144.265C66.046 144.265 68.95 144.493 71.8054 144.436V185.45L30.5083 186.298L30.0054 145.121C41.0131 144.542 52.1911 144.289 63.215 144.273L63.2069 144.265Z" fill="#F06827"/>
<path d="M49.7249 147.657C51.0066 147.625 65.7376 147.356 65.7376 148.163C55.9385 148.799 45.6609 149.574 36.0728 148.506C36.0485 147.812 48.2161 147.69 49.7249 147.657Z" fill="#001210"/>
<path d="M50.7389 152.738L66.4109 153.921C63.0202 153.643 53.4969 154.655 50.7389 153.749C50.1792 153.57 50.1954 153.032 50.7389 152.73V152.738Z" fill="#001210"/>
<path d="M60.5138 158.162C61.033 157.99 68.7716 157.982 68.7716 158.667C68.4228 159.882 57.7477 159.059 60.5138 158.162Z" fill="#001210"/>
<path d="M170.412 143.93L211.368 144.436L210.865 185.613L170.242 185.107L170.412 143.93Z" fill="#F06827"/>
<path d="M195.356 147.315C196.978 147.282 203.857 146.997 204.798 147.315C205.495 147.551 205.503 147.641 205.138 148.334L176.65 148.505C182.815 147.926 189.174 147.437 195.356 147.323V147.315Z" fill="#250800"/>
<path d="M192.662 152.738C193.66 152.192 204.441 152.893 206.315 153.586C206.315 154.263 193.628 153.97 192.995 153.758C192.306 153.521 192.249 152.958 192.654 152.738H192.662Z" fill="#250800"/>
<path d="M200.077 158.161L209.008 158.667C208.538 159.646 197.822 159.295 200.077 158.161Z" fill="#190200"/>
<path d="M139.904 119.863L139.563 120.206C136.789 114.448 131.468 109.506 124.897 108.682C109.801 106.79 101.065 117.539 100.456 131.73C99.6046 131.191 100.748 129.487 99.4424 129.699C98.0958 105.852 131.086 97.705 139.896 119.872L139.904 119.863Z" fill="#1685C6"/>
<path d="M100.456 131.73L100.116 185.107L99.4424 129.691C100.748 129.479 99.6046 131.183 100.456 131.721V131.73Z" fill="#CBAE6E"/>
<path d="M139.563 120.206L139.904 119.864L141.08 123.933C140.244 122.906 140.188 121.495 139.563 120.206Z" fill="#8D6A34"/>
<path d="M73.6631 93.089H168.392L168.895 185.107L142.264 184.765V125.116C139.588 99.6378 103.109 99.6705 98.7772 124.439L99.1179 185.107L73.3306 185.955L73.6713 93.089H73.6631Z" fill="#1685C6"/>
<path d="M77.37 97.4929L105.177 98.3411L78.0433 98.5124L77.0293 123.256L77.37 97.4929Z" fill="#190200"/>
<path d="M146.474 97.1586C148.242 97.0118 164.474 97.1586 164.847 98.0067L164.344 124.61L163.841 98.6836L143.108 98.178C142.808 97.3625 146.093 97.1912 146.482 97.1586H146.474Z" fill="#190200"/>
<path d="M78.7167 176.128C79.4224 175.9 92.7095 175.932 92.7095 176.634C89.9191 176.984 80.9393 177.865 78.7167 177.139C78.1732 176.96 78.1732 176.299 78.7167 176.12V176.128Z" fill="#190200"/>
<path d="M78.7166 167.989C82.4399 168.454 87.6639 167.361 91.1925 167.989C91.7765 168.095 92.3363 167.932 92.3687 168.837C88.8969 168.625 82.9104 169.693 79.7306 169.008C79.5764 168.976 78.092 168.519 78.7166 167.989Z" fill="#190200"/>
<path d="M78.7167 172.058L92.3688 172.564C89.3836 172.474 81.5071 173.942 79.0492 173.07C78.7978 172.98 78.2462 172.287 78.7085 172.05L78.7167 172.058Z" fill="#190200"/>
<path d="M150.182 178.159C150.822 177.955 161.806 177.979 161.814 178.664C159.567 179.121 151.974 179.757 150.182 179.17C149.638 178.991 149.638 178.33 150.182 178.151V178.159Z" fill="#190200"/>
<path d="M149.849 171.382C150.376 171.096 160.759 170.998 161.481 172.23C158.966 172.026 152.185 173.078 150.189 172.401C149.5 172.164 149.443 171.602 149.849 171.382Z" fill="#190200"/>
<path d="M150.181 167.989C150.676 167.72 159.875 167.818 161.14 168.494C161.14 169.163 151.114 169.204 150.522 169C149.832 168.764 149.776 168.201 150.181 167.981V167.989Z" fill="#250800"/>
<path d="M156.249 174.432C169.69 174.342 153.466 176.617 150.011 175.28C150.011 174.807 155.657 174.44 156.249 174.432Z" fill="#190200"/>
<path d="M99.6206 53.0946H142.767L143.611 91.2214L99.6206 91.7352V53.0946Z" fill="#1784C7"/>
<path d="M127.257 56.4873C130.851 56.4465 134.452 56.5117 138.046 56.4873L137.705 57.5067L107.87 57.678C114.043 56.5607 120.881 56.5607 127.257 56.4954V56.4873Z" fill="#001210"/>
<path d="M119.843 62.5876C121.206 62.4653 139.571 62.1064 139.563 63.0932L116.809 63.9414C115.333 62.9057 119.113 62.6528 119.843 62.5876Z" fill="#001210"/>
<path d="M104.001 81.8997C104.585 81.7121 113.946 81.7284 113.946 82.4053C112.088 82.9354 105.485 83.4003 104.001 82.911C103.457 82.7316 103.457 82.071 104.001 81.8915V81.8997Z" fill="#001210"/>
<path d="M132.993 66.9915C133.358 66.8692 140.212 66.8692 140.747 66.9915C146.564 68.3046 128.799 68.3616 132.993 66.9915Z" fill="#001210"/>
<path d="M106.021 78.1726C106.499 78.0992 112.924 77.7975 111.918 79.0208C111.229 79.8608 99.0203 79.2247 106.021 78.1726Z" fill="#001210"/>
<path d="M103.66 75.1226L109.225 75.6282C108.787 76.8026 101.851 76.036 103.66 75.1226Z" fill="#001210"/>
<path d="M121.19 35.4706C121.417 35.2831 122.309 36.1312 122.366 36.3188C123.177 38.7736 122.139 48.9516 121.863 52.0752C121.409 52.1812 121.117 51.3656 121.02 50.8926C120.784 49.7264 120.59 35.96 121.19 35.4706Z" fill="white"/>
<path d="M119.843 1.91899C139.733 -0.209587 143.035 28.8728 125.238 32.0861C103.279 36.0497 100.294 4.01495 119.843 1.91899Z" fill="#FFD127"/>
<path d="M117.15 4.62659C118.87 5.08329 113.703 8.06004 112.94 9.20181C112.178 10.3436 111.18 15.1145 110.409 15.1308C109.728 10.7677 113.078 6.14351 117.15 4.62659Z" fill="#190200"/>
<path d="M130.964 25.3008C133.073 25.3008 129.634 28.9137 128.271 28.6935C127.111 28.5059 130.737 25.3008 130.964 25.3008Z" fill="#190200"/>
</g>
<defs>
<clipPath id="clip0_1595_2732">
<rect width="245" height="188" fill="white" transform="translate(0 0.5)"/>
</clipPath>
</defs>
</svg>
