<svg width="254" height="242" viewBox="0 0 254 242" fill="none" xmlns="http://www.w3.org/2000/svg">
<g clip-path="url(#clip0_1569_7763)">
<path d="M14.2252 75.8227C14.2252 77.9643 12.4838 79.6982 10.333 79.6982C12.4838 79.6982 14.2252 81.4322 14.2252 83.5738C14.2252 81.4322 15.9666 79.6982 18.1173 79.6982C15.9666 79.6982 14.2252 77.9643 14.2252 75.8227Z" fill="#FFD127"/>
<path d="M42.5025 6.91278C42.5025 9.05437 40.7611 10.7883 38.6104 10.7883C40.7611 10.7883 42.5025 12.5223 42.5025 14.6639C42.5025 12.5223 44.2439 10.7883 46.3947 10.7883C44.2439 10.7883 42.5025 9.05437 42.5025 6.91278Z" fill="#FFD127"/>
<path d="M181.756 28.6617C181.756 34.0129 177.402 38.3477 172.028 38.3477C177.402 38.3477 181.756 42.6826 181.756 48.0337C181.756 42.6826 186.109 38.3477 191.483 38.3477C186.109 38.3477 181.756 34.0129 181.756 28.6617Z" fill="#FFD127"/>
<path d="M182.586 84.814C182.586 86.9556 180.845 88.6895 178.694 88.6895C180.845 88.6895 182.586 90.4234 182.586 92.565C182.586 90.4234 184.327 88.6895 186.478 88.6895C184.327 88.6895 182.586 86.9556 182.586 84.814Z" fill="#FFD127"/>
<path d="M234.718 31.5612C234.718 33.7028 232.976 35.4368 230.826 35.4368C232.976 35.4368 234.718 37.1707 234.718 39.3123C234.718 37.1707 236.459 35.4368 238.61 35.4368C236.459 35.4368 234.718 33.7028 234.718 31.5612Z" fill="#FFD127"/>
<path d="M238.61 116.358C238.61 120.894 234.914 124.574 230.359 124.574C234.914 124.574 238.61 128.254 238.61 132.79C238.61 128.254 242.306 124.574 246.862 124.574C242.306 124.574 238.61 120.894 238.61 116.358Z" fill="#FFD127"/>
<path d="M165.126 113.011C166.142 113.011 166.965 112.191 166.965 111.179C166.965 110.168 166.142 109.348 165.126 109.348C164.11 109.348 163.287 110.168 163.287 111.179C163.287 112.191 164.11 113.011 165.126 113.011Z" fill="#C0E2F7"/>
<path d="M213.452 17.5978C214.468 17.5978 215.292 16.7778 215.292 15.7662C215.292 14.7547 214.468 13.9347 213.452 13.9347C212.436 13.9347 211.613 14.7547 211.613 15.7662C211.613 16.7778 212.436 17.5978 213.452 17.5978Z" fill="#C0E2F7"/>
<path d="M34.9947 103.095C36.0106 103.095 36.8341 102.275 36.8341 101.263C36.8341 100.252 36.0106 99.4319 34.9947 99.4319C33.9788 99.4319 33.1553 100.252 33.1553 101.263C33.1553 102.275 33.9788 103.095 34.9947 103.095Z" fill="#C0E2F7"/>
<path d="M185.503 124.402C186.519 124.402 187.343 123.582 187.343 122.57C187.343 121.559 186.519 120.739 185.503 120.739C184.488 120.739 183.664 121.559 183.664 122.57C183.664 123.582 184.488 124.402 185.503 124.402Z" fill="#C0E2F7"/>
<path d="M252.155 105.271C253.171 105.271 253.994 104.451 253.994 103.44C253.994 102.428 253.171 101.608 252.155 101.608C251.139 101.608 250.315 102.428 250.315 103.44C250.315 104.451 251.139 105.271 252.155 105.271Z" fill="#C0E2F7"/>
<path d="M7.30572 131.389C8.3216 131.389 9.14513 130.569 9.14513 129.558C9.14513 128.546 8.3216 127.726 7.30572 127.726C6.28984 127.726 5.46631 128.546 5.46631 129.558C5.46631 130.569 6.28984 131.389 7.30572 131.389Z" fill="#C0E2F7"/>
<path d="M24.9504 44.273H8.8916C8.8916 39.8578 12.4897 36.2808 16.9181 36.2808C18.475 36.2808 19.9338 36.7229 21.1678 37.4923C23.4454 38.9047 24.9562 41.4138 24.9562 44.273H24.9504Z" fill="#C0E2F7"/>
<path d="M50.8637 44.273H40.0752C40.0752 42.5965 40.8479 41.0979 42.053 40.1104C42.9871 39.3525 44.1749 38.8989 45.4723 38.8989C48.4592 38.8989 50.8695 41.3046 50.8695 44.273H50.8637Z" fill="#C0E2F7"/>
<path d="M42.8083 44.273H19.0171C19.0171 41.7525 19.8071 39.4099 21.1621 37.4923C23.3071 34.432 26.8764 32.4282 30.9127 32.4282C36.01 32.4282 40.3635 35.6205 42.053 40.1104C42.5431 41.408 42.8083 42.8089 42.8083 44.273Z" fill="#C0E2F7"/>
<path d="M131.007 11.8448H141.796C141.796 10.1683 141.023 8.66971 139.818 7.68217C138.884 6.92428 137.696 6.4707 136.404 6.4707C133.418 6.4707 131.007 8.87641 131.007 11.8448Z" fill="#C0E2F7"/>
<path d="M139.062 11.8448H162.854C162.854 9.32425 162.064 6.98171 160.709 5.06403C158.564 2.0038 154.994 0 150.958 0C145.861 0 141.507 3.19229 139.818 7.68218C139.328 8.97976 139.062 10.3807 139.062 11.8448Z" fill="#C0E2F7"/>
<path d="M77.1167 232.951L41.0781 197.067L5.03955 232.951H77.1167Z" fill="#1685C6"/>
<path d="M57.4252 232.951L41.0781 216.674L24.731 232.951H57.4252Z" fill="#C0E2F7"/>
<path d="M227.551 232.951L207.807 213.292L188.064 232.951H227.551Z" fill="#1685C6"/>
<path d="M216.762 232.951L207.807 224.035L198.853 232.951H216.762Z" fill="#C0E2F7"/>
<path d="M156.332 162.302L137.235 143.286L118.137 162.302H156.332Z" fill="#FFD127"/>
<path d="M146.253 162.302L137.235 153.322L128.216 162.302H146.253Z" fill="#FFD127"/>
<path d="M89.168 137.177H41.0781V232.951H89.168V137.177Z" fill="#FFD127"/>
<path d="M89.168 191.119H41.0781V232.946H89.168V191.119Z" fill="#F06827"/>
<path d="M89.168 224.557H41.0781V232.951H89.168V224.557Z" fill="#FFD127"/>
<path d="M65.3653 125.533V131.355H53.6715V125.533H41.0781V137.177H77.9586V125.533H65.3653Z" fill="#C0E2F7"/>
<path d="M89.168 137.177H41.0781V143.286H89.168V137.177Z" fill="#F06827"/>
<path d="M58.4633 162.273H52.7202V154.528C52.7202 152.949 54.0061 151.668 55.5918 151.668C57.1775 151.668 58.4633 152.949 58.4633 154.528V162.273Z" fill="#1685C6"/>
<path d="M60.0777 160.93H51.1113V163.617H60.0777V160.93Z" fill="#1685C6"/>
<path d="M77.5263 162.273H71.7832V154.528C71.7832 152.949 73.0691 151.668 74.6548 151.668C76.2405 151.668 77.5263 152.949 77.5263 154.528V162.273Z" fill="#1685C6"/>
<path d="M79.1407 160.93H70.1743V163.617H79.1407V160.93Z" fill="#1685C6"/>
<path d="M58.4633 179.854H52.7202V172.108C52.7202 170.529 54.0061 169.249 55.5918 169.249C57.1775 169.249 58.4633 170.529 58.4633 172.108V179.854Z" fill="#1685C6"/>
<path d="M60.0777 178.516H51.1113V181.203H60.0777V178.516Z" fill="#1685C6"/>
<path d="M77.5263 179.854H71.7832V172.108C71.7832 170.529 73.0691 169.249 74.6548 169.249C76.2405 169.249 77.5263 170.529 77.5263 172.108V179.854Z" fill="#1685C6"/>
<path d="M79.1407 178.516H70.1743V181.203H79.1407V178.516Z" fill="#1685C6"/>
<path d="M65.1231 219.114C71.5782 219.114 76.8111 213.904 76.8111 207.476C76.8111 201.049 71.5782 195.838 65.1231 195.838C58.668 195.838 53.4351 201.049 53.4351 207.476C53.4351 213.904 58.668 219.114 65.1231 219.114Z" fill="#1685C6"/>
<path d="M71.8479 210.251C73.3859 206.554 71.6227 202.315 67.9097 200.784C64.1967 199.253 59.9399 201.008 58.4019 204.705C56.864 208.402 58.6272 212.641 62.3402 214.172C66.0532 215.704 70.31 213.948 71.8479 210.251Z" fill="#1685C6"/>
<path d="M19.3803 194.512H14.8135V232.951H19.3803V194.512Z" fill="#91402D"/>
<path d="M17.0967 207.476C26.539 207.476 34.1934 199.854 34.1934 190.452C34.1934 181.051 26.539 173.429 17.0967 173.429C7.65446 173.429 0 181.051 0 190.452C0 199.854 7.65446 207.476 17.0967 207.476Z" fill="#0AA94D"/>
<path d="M17.0967 195.838C20.0838 195.838 22.5053 193.427 22.5053 190.453C22.5053 187.478 20.0838 185.067 17.0967 185.067C14.1095 185.067 11.688 187.478 11.688 190.453C11.688 193.427 14.1095 195.838 17.0967 195.838Z" fill="#89E2B1"/>
<path d="M7.95752 198.68C7.95752 202.452 11.0251 205.507 14.8135 205.507C14.8135 201.735 11.7459 198.68 7.95752 198.68Z" fill="#0F6C37"/>
<path d="M26.2359 198.68C26.2359 202.452 23.1683 205.507 19.3799 205.507C19.3799 201.735 22.4475 198.68 26.2359 198.68Z" fill="#0F6C37"/>
<path d="M235.156 194.512H230.589V232.951H235.156V194.512Z" fill="#91402D"/>
<path d="M232.873 207.476C242.315 207.476 249.969 199.854 249.969 190.452C249.969 181.051 242.315 173.429 232.873 173.429C223.43 173.429 215.776 181.051 215.776 190.452C215.776 199.854 223.43 207.476 232.873 207.476Z" fill="#0AA94D"/>
<path d="M232.873 195.838C235.86 195.838 238.281 193.427 238.281 190.453C238.281 187.478 235.86 185.067 232.873 185.067C229.885 185.067 227.464 187.478 227.464 190.453C227.464 193.427 229.885 195.838 232.873 195.838Z" fill="#89E2B1"/>
<path d="M223.733 198.68C223.733 202.452 226.801 205.507 230.589 205.507C230.589 201.735 227.522 198.68 223.733 198.68Z" fill="#0F6C37"/>
<path d="M242.006 198.68C242.006 202.452 238.939 205.507 235.15 205.507C235.15 201.735 238.218 198.68 242.006 198.68Z" fill="#0F6C37"/>
<path d="M207.807 162.198H137.264V232.951H207.807V162.198Z" fill="#1685C6"/>
<path d="M195.214 150.549V156.371H183.52V150.549H170.927V162.198H207.807V150.549H195.214Z" fill="#C0E2F7"/>
<path d="M172.535 199.329C178.99 199.329 184.223 194.118 184.223 187.691C184.223 181.263 178.99 176.053 172.535 176.053C166.08 176.053 160.847 181.263 160.847 187.691C160.847 194.118 166.08 199.329 172.535 199.329Z" fill="#F06827"/>
<path d="M172.535 194.937C176.554 194.937 179.812 191.693 179.812 187.691C179.812 183.689 176.554 180.445 172.535 180.445C168.516 180.445 165.258 183.689 165.258 187.691C165.258 191.693 168.516 194.937 172.535 194.937Z" fill="#FFD127"/>
<path d="M161.315 232.951H151.258V220.4C151.258 217.633 153.507 215.394 156.286 215.394C159.066 215.394 161.315 217.633 161.315 220.4V232.951Z" fill="#1685C6"/>
<path d="M164.29 229.185H148.375V232.951H164.29V229.185Z" fill="#C0E2F7"/>
<path d="M193.045 232.951H182.989V220.4C182.989 217.633 185.238 215.394 188.017 215.394C190.797 215.394 193.045 217.633 193.045 220.4V232.951Z" fill="#1685C6"/>
<path d="M196.021 229.185H180.106V232.951H196.021V229.185Z" fill="#C0E2F7"/>
<path d="M243.851 232.951H5.03955V242H243.851V232.951Z" fill="#FFD127"/>
<path d="M143.405 61.5722L113.265 31.5612L83.1196 61.5722H113.265H143.405Z" fill="#FFD127"/>
<path d="M113.265 61.5722V31.5612L143.405 61.5722H113.265Z" fill="#FFD127"/>
<path d="M137.356 67.4343H89.1685V137.183H137.356V67.4343Z" fill="#1685C6"/>
<path d="M137.258 137.177H89.1685V232.951H137.258V137.177Z" fill="#1685C6"/>
<path d="M137.362 55.7159V61.5722H125.587V55.7159H119.1V61.5722H107.332V55.7159H100.937V61.5722H89.1682V55.7159H82.1162V67.4344H144.316V55.7159H137.362Z" fill="#C0E2F7"/>
<path d="M137.356 67.4343H89.1685V72.9634H137.356V67.4343Z" fill="#1685C6"/>
<path d="M137.356 105.564H89.1685V111.093H137.356V105.564Z" fill="#1685C6"/>
<path d="M113.265 78.7968C113.265 84.257 108.82 88.6837 103.336 88.6837C108.82 88.6837 113.265 93.1105 113.265 98.5707C113.265 93.1105 117.711 88.6837 123.195 88.6837C117.711 88.6837 113.265 84.257 113.265 78.7968Z" fill="#FFD127"/>
<path d="M99.2535 143.286H89.1973V153.299H99.2535V143.286Z" fill="#C0E2F7"/>
<path d="M118.241 143.286H108.185V153.299H118.241V143.286Z" fill="#C0E2F7"/>
<path d="M137.235 143.286H127.179V153.299H137.235V143.286Z" fill="#C0E2F7"/>
<path d="M99.2535 162.198H89.1973V172.212H99.2535V162.198Z" fill="#C0E2F7"/>
<path d="M118.241 162.198H108.185V172.212H118.241V162.198Z" fill="#C0E2F7"/>
<path d="M137.235 162.198H127.179V172.212H137.235V162.198Z" fill="#C0E2F7"/>
<path d="M99.2535 181.105H89.1973V191.119H99.2535V181.105Z" fill="#C0E2F7"/>
<path d="M118.241 181.105H108.185V191.119H118.241V181.105Z" fill="#C0E2F7"/>
<path d="M137.235 181.105H127.179V191.119H137.235V181.105Z" fill="#C0E2F7"/>
<path d="M123.8 208.366V232.951H102.626V208.366C102.626 205.536 103.751 202.963 105.567 201.08C106.219 200.403 106.957 199.817 107.764 199.335C108.992 198.605 110.376 198.112 111.858 197.928C112.302 197.865 112.752 197.836 113.213 197.836C113.501 197.836 113.778 197.848 114.055 197.876C115.525 197.991 116.909 198.399 118.149 199.048C118.951 199.467 119.689 199.983 120.346 200.586C122.468 202.51 123.8 205.289 123.8 208.378V208.366Z" fill="#FFD127"/>
<path d="M107.77 199.329V232.951H105.573V201.074C106.224 200.397 106.962 199.811 107.77 199.329Z" fill="white"/>
<path d="M114.061 197.871V232.957H111.864V197.928C112.308 197.865 112.758 197.836 113.219 197.836C113.507 197.836 113.784 197.848 114.061 197.876V197.871Z" fill="white"/>
<path d="M120.346 200.581V232.957H118.149V199.048C118.95 199.467 119.689 199.983 120.346 200.586V200.581Z" fill="white"/>
<path d="M128.367 229.185H98.0654V232.951H128.367V229.185Z" fill="#FFD127"/>
<path d="M108.694 125.531L103.972 120.83L99.2507 125.531L103.972 130.233L108.694 125.531Z" fill="white"/>
<path d="M127.582 125.53L122.861 120.829L118.139 125.53L122.861 130.231L127.582 125.53Z" fill="white"/>
<path d="M230.826 80.7031C229.522 83.1088 227.55 85.1872 224.996 86.6513C217.656 90.8541 208.297 88.3393 204.076 81.0303C199.855 73.7213 202.381 64.4028 209.721 60.2C212.276 58.7359 215.072 58.0871 217.817 58.1733C213.654 62.3761 212.633 68.9846 215.735 74.3529C218.838 79.7212 225.082 82.1671 230.826 80.6973V80.7031Z" fill="#C0E2F7"/>
</g>
<defs>
<clipPath id="clip0_1569_7763">
<rect width="254" height="242" fill="white"/>
</clipPath>
</defs>
</svg>
