<svg width="208" height="180" viewBox="0 0 208 180" fill="none" xmlns="http://www.w3.org/2000/svg">
<path d="M38.6887 163.061C39.1664 162.114 39.8015 161.269 40.4849 160.476C41.1724 159.683 41.9263 158.948 42.7327 158.267C44.3435 156.908 46.164 155.774 48.1155 154.887C52.0144 153.11 56.4698 152.325 60.8263 152.69C65.1829 153.036 69.4104 154.447 72.9848 156.689C73.4324 156.97 73.8819 157.243 74.3093 157.549C74.7307 157.864 75.152 158.175 75.5633 158.498L76.1782 158.982C76.3757 159.155 76.5693 159.325 76.7608 159.506L77.8978 160.57C78.6296 161.305 79.303 162.1 79.9541 162.897C80.5791 163.728 81.1617 164.589 81.6758 165.501C80.6335 165.25 79.6719 164.928 78.7304 164.609C78.2446 164.473 77.7768 164.314 77.3091 164.168C76.8374 164.025 76.3999 163.834 75.9241 163.714L74.5553 163.284L73.8839 163.063L73.2046 162.871C72.753 162.742 72.3115 162.604 71.872 162.469C71.4325 162.333 70.9809 162.236 70.5455 162.108C67.0376 161.134 63.6346 160.488 60.2276 160.207C56.8185 159.913 53.4014 160.066 49.8553 160.544C48.0872 160.797 46.2769 161.112 44.4322 161.544C42.5775 161.963 40.7026 162.465 38.6887 163.061Z" fill="#0AA94D"/>
<path d="M38.5375 162.913C36.5195 160.945 34.7192 159.124 32.8685 157.438C32.6448 157.223 32.4129 157.016 32.1771 156.816C31.9472 156.609 31.7235 156.4 31.4876 156.203C31.0259 155.802 30.5562 155.416 30.0925 155.035C29.1611 154.272 28.2116 153.561 27.2358 152.905C25.2904 151.584 23.2522 150.476 21.0125 149.574C18.7707 148.649 16.3394 148.029 13.5916 147.288C14.8354 146.609 16.1902 146.135 17.5953 145.892C19.0025 145.617 20.4581 145.593 21.9116 145.722L23.0002 145.856C23.3591 145.921 23.7159 146.007 24.0748 146.083C24.4376 146.155 24.7904 146.254 25.1392 146.368C25.488 146.481 25.8468 146.577 26.1855 146.72C27.5725 147.224 28.8708 147.934 30.0824 148.749C32.5137 150.383 34.4854 152.564 35.9571 154.971C36.6848 156.181 37.2916 157.454 37.7452 158.781C38.1827 160.11 38.5194 161.481 38.5395 162.911L38.5375 162.913Z" fill="#0AA94D"/>
<path d="M38.5376 162.913C37.4167 160.331 36.4409 157.968 35.3704 155.71C35.2434 155.427 35.1084 155.148 34.9672 154.873C34.8322 154.595 34.7052 154.316 34.562 154.047C34.2878 153.501 33.9975 152.969 33.7153 152.439C33.1428 151.381 32.5339 150.366 31.8787 149.392C30.5784 147.436 29.1128 145.642 27.3831 143.965C25.6594 142.265 23.6434 140.775 21.3814 139.053C22.7906 138.894 24.224 138.965 25.6191 139.27C27.0262 139.545 28.383 140.071 29.6793 140.737L30.6369 141.273C30.9453 141.468 31.2417 141.683 31.5461 141.89C31.8545 142.092 32.1428 142.317 32.423 142.554C32.7033 142.789 32.9996 143.014 33.2577 143.273C34.3503 144.261 35.2817 145.409 36.0942 146.619C37.7231 149.049 38.721 151.809 39.1686 154.591C39.3823 155.987 39.4609 157.394 39.3762 158.791C39.2774 160.187 39.0658 161.584 38.5416 162.913L38.5376 162.913Z" fill="#0AA94D"/>
<path d="M38.9971 162.631C36.2956 163.449 33.826 164.143 31.4512 164.948C31.1528 165.041 30.8605 165.143 30.5702 165.253C30.2779 165.356 29.9856 165.448 29.6993 165.56C29.1227 165.769 28.5582 165.996 27.9978 166.217C26.8789 166.663 25.7943 167.15 24.75 167.686C22.6514 168.751 20.6958 169.997 18.825 171.519C16.932 173.031 15.2184 174.856 13.2427 176.899C13.2427 175.486 13.4786 174.077 13.9402 172.732C14.3737 171.37 15.0531 170.088 15.8655 168.881L16.5086 167.996C16.7384 167.713 16.9864 167.444 17.2263 167.167C17.4642 166.885 17.7202 166.624 17.9884 166.374C18.2545 166.123 18.5125 165.856 18.8008 165.629C19.9116 164.661 21.1615 163.868 22.4619 163.204C25.0706 161.867 27.9393 161.194 30.7637 161.068C32.181 161.013 33.5922 161.098 34.9772 161.339C36.3581 161.596 37.727 161.963 38.9951 162.631L38.9971 162.631Z" fill="#0AA94D"/>
<path d="M65.1484 175.982C62.9329 174.237 60.9511 172.615 58.9331 171.132C58.6872 170.941 58.4352 170.76 58.1791 170.585C57.9291 170.405 57.6852 170.218 57.4292 170.049C56.9272 169.698 56.4192 169.365 55.9172 169.034C54.9112 168.373 53.8891 167.765 52.8508 167.215C50.7764 166.105 48.6314 165.217 46.3089 164.557C43.9825 163.872 41.4988 163.511 38.6864 163.061C39.8517 162.256 41.148 161.642 42.5209 161.254C43.8897 160.833 45.3352 160.656 46.7948 160.632L47.8915 160.652C48.2564 160.678 48.6193 160.728 48.9842 160.766C49.3511 160.799 49.714 160.861 50.0728 160.937C50.4317 161.011 50.7986 161.07 51.1493 161.176C52.5807 161.531 53.9476 162.104 55.2378 162.786C57.8283 164.155 60.0197 166.119 61.7374 168.357C62.5901 169.485 63.328 170.688 63.9187 171.959C64.4953 173.233 64.973 174.562 65.1444 175.982L65.1484 175.982Z" fill="#0AA94D"/>
<path d="M38.6888 163.061L35.7394 162.328C34.7798 162.098 33.8343 161.885 32.9049 161.682C31.0422 161.284 29.2237 160.973 27.4557 160.766C23.9136 160.353 20.5852 160.423 17.4967 161.184C15.9444 161.547 14.4545 162.12 12.9889 162.846C12.239 163.174 11.5434 163.637 10.7995 164.041C10.104 164.527 9.35002 164.95 8.66055 165.502C7.21508 166.514 5.84622 167.733 4.4068 168.981C4.03384 169.285 3.71532 169.636 3.35042 169.961C2.98956 170.288 2.63474 170.624 2.2517 170.949C1.55013 171.639 0.820341 172.334 -0.000169542 173.009C0.10668 171.977 0.29819 170.961 0.530028 169.949C0.816298 168.965 1.12475 167.972 1.5078 167.004L2.15694 165.579C2.26379 165.338 2.38475 165.105 2.50168 164.868C2.62667 164.637 2.76577 164.412 2.89883 164.183C3.16494 163.724 3.44719 163.274 3.72943 162.82C4.02175 162.375 4.36245 161.955 4.69105 161.525C5.32407 160.646 6.12039 159.885 6.89252 159.094C7.30378 158.723 7.73521 158.369 8.16865 158.014C8.38839 157.841 8.59403 157.649 8.8299 157.494L9.5355 157.022C11.4104 155.764 13.5473 154.788 15.7911 154.264C18.0289 153.722 20.3433 153.575 22.573 153.788C24.8047 153.999 26.9517 154.555 28.9395 155.374C30.9293 156.189 32.7638 157.271 34.421 158.54C35.2395 159.195 36.0277 159.867 36.7454 160.624C37.4631 161.373 38.1425 162.164 38.6929 163.063L38.6888 163.061Z" fill="#0AA94D"/>
<path d="M38.6884 163.061C38.7731 162.047 39.0171 161.041 39.3477 160.072C39.6723 159.096 40.0996 158.156 40.5815 157.237C41.5612 155.41 42.8172 153.706 44.299 152.202C45.7767 150.694 47.4722 149.387 49.2966 148.299C51.1231 147.211 53.0847 146.366 55.0987 145.736C55.6047 145.589 56.1047 145.41 56.6187 145.3L58.1549 144.947C58.669 144.846 59.1891 144.778 59.7032 144.692L60.4774 144.569C60.7354 144.535 60.9955 144.517 61.2555 144.495L62.8099 144.368C63.328 144.342 63.8461 144.344 64.3622 144.338C65.3964 144.298 66.4225 144.393 67.4446 144.455C67.9567 144.471 68.4627 144.563 68.9708 144.623C69.4768 144.692 69.9828 144.754 70.4848 144.836C71.4867 145.025 72.4806 145.242 73.4624 145.477C74.4381 145.762 75.4078 146.041 76.3614 146.374C77.3109 146.731 78.2464 147.123 79.1616 147.552C75.1115 147.872 71.2428 147.972 67.4749 148.408C63.7171 148.827 60.0641 149.432 56.6107 150.532C53.1452 151.594 49.8772 153.124 46.8714 155.195C45.3574 156.221 43.9341 157.404 42.5612 158.705C41.1923 160.011 39.89 161.437 38.6884 163.061Z" fill="#0AA94D"/>
<path d="M38.6886 163.061C38.3076 162.246 38.0758 161.399 37.8943 160.548C37.7069 159.695 37.6081 158.837 37.5436 157.974C37.4387 156.252 37.5355 154.513 37.848 152.801C38.4669 149.382 39.8821 146.029 42.0594 143.146C43.15 141.709 44.4121 140.386 45.8313 139.253C47.2647 138.137 48.819 137.178 50.4782 136.483C52.1414 135.8 53.8651 135.311 55.625 135.142C57.3729 134.943 59.1409 135.028 60.8687 135.449C60.1953 136.069 59.5159 136.549 58.8748 137.073C58.2378 137.607 57.5967 138.061 57.008 138.583C55.7904 139.541 54.6997 140.558 53.6433 141.516C52.601 142.498 51.6414 143.502 50.7141 144.509C49.8008 145.533 48.946 146.591 48.1134 147.677C46.4523 149.855 44.9624 152.226 43.4484 154.772C42.7005 156.049 41.9384 157.368 41.1643 158.743C40.376 160.12 39.5999 161.536 38.6866 163.061L38.6886 163.061Z" fill="#0AA94D"/>
<path d="M74.2453 147.089C71.0963 146.6 67.8949 146.473 64.7238 146.722C61.5526 146.963 58.4157 147.595 55.3917 148.563C52.3697 149.539 49.4707 150.914 46.8338 152.689C44.1949 154.455 41.818 156.633 39.8887 159.165C39.5782 159.546 39.4936 159.506 39.806 159.105C41.689 156.521 44.0175 154.259 46.6443 152.41C49.2752 150.563 52.1923 149.129 55.2385 148.095C58.2867 147.055 61.4861 146.479 64.6935 146.274C67.903 146.08 71.1367 146.274 74.2796 146.901C74.8098 146.993 74.7473 147.158 74.2453 147.091L74.2453 147.089Z" fill="#F06827"/>
<path d="M57.5426 135.841C55.3734 137.094 53.3453 138.579 51.5007 140.266C49.6561 141.95 47.9888 143.823 46.503 145.831C43.5335 149.852 41.2937 154.397 39.7575 159.161C39.6345 159.528 39.5277 159.51 39.6446 159.127C41.0256 154.301 43.1565 149.647 46.1341 145.558C49.0956 141.472 52.9522 137.975 57.4479 135.666C57.8229 135.472 57.8793 135.628 57.5426 135.839L57.5426 135.841Z" fill="#F06827"/>
<path d="M26.3024 140.416C27.9656 141.452 29.4917 142.713 30.8747 144.104C32.2597 145.495 33.5056 147.011 34.693 148.561C35.8784 150.103 37.0578 151.678 38.0154 153.393C38.4932 154.248 38.9206 155.138 39.2351 156.069C39.5435 156.997 39.7572 157.982 39.6705 158.964C39.6483 159.267 39.5677 159.265 39.5637 158.958C39.5737 157.996 39.3459 157.047 38.9972 156.151C38.6484 155.254 38.1908 154.401 37.6868 153.58C36.6707 151.935 35.4651 150.418 34.2576 148.892C33.054 147.368 31.8222 145.873 30.4876 144.475C29.1571 143.076 27.7156 141.781 26.1412 140.655C25.8811 140.46 26.0343 140.257 26.3004 140.42L26.3024 140.416Z" fill="#F06827"/>
<path d="M20.2849 146.903C21.2244 147.107 22.178 147.262 23.1275 147.493C24.079 147.71 25.0225 148.063 25.9015 148.473C27.6776 149.286 29.3549 150.269 31.0141 151.259C32.6773 152.251 34.3243 153.301 35.8263 154.55C36.5863 155.17 37.2576 155.877 37.933 156.565C38.2676 156.916 38.5922 157.282 38.8886 157.671C39.1809 158.061 39.4591 158.476 39.6103 158.948C39.6829 159.249 39.5841 159.269 39.4813 158.994C39.0962 158.131 38.3946 157.444 37.7052 156.79C36.9955 156.138 36.3041 155.469 35.542 154.897C34.0219 153.732 32.3688 152.747 30.7016 151.783C29.0283 150.815 27.3712 149.838 25.6495 148.999C24.7867 148.571 23.9278 148.21 23.0045 147.951C22.0872 147.684 21.1417 147.471 20.2104 147.19C19.8979 147.095 19.9886 146.836 20.2849 146.903Z" fill="#F06827"/>
<path d="M39.3845 159.076C38.7112 158.817 37.9128 158.779 37.1528 158.725C36.3867 158.675 35.6085 158.677 34.8283 158.617C33.2801 158.5 31.7338 158.384 30.1895 158.265C27.103 158.047 24.0044 157.848 20.9542 158.253C17.9 158.631 14.9063 159.488 12.096 160.747C10.6989 161.395 9.35015 162.15 8.09015 163.037C6.82814 163.919 5.65887 164.945 4.66901 166.127C4.3525 166.484 4.26984 166.44 4.58837 166.061C5.55806 164.846 6.7092 163.78 7.95912 162.855C9.20703 161.925 10.5477 161.114 11.9488 160.428C14.7671 159.091 17.7891 158.161 20.8917 157.745C24.0024 157.296 27.1454 157.497 30.2339 157.759C31.7761 157.902 33.3204 158.045 34.8646 158.187C35.6287 158.263 36.4028 158.279 37.183 158.354C37.5721 158.39 37.9612 158.432 38.3503 158.498C38.7394 158.569 39.1285 158.639 39.5135 158.821C39.7857 158.958 39.8119 159.183 39.7433 159.189C39.6647 159.211 39.5821 159.167 39.3865 159.078L39.3845 159.076Z" fill="#F06827"/>
<path d="M78.759 163.353C76.0878 161.383 73.0558 159.956 69.8987 158.968C66.7356 157.983 63.4515 157.412 60.1453 157.135C53.5187 156.607 46.8196 157.262 40.324 158.733C39.818 158.836 39.7858 158.776 40.2978 158.631C43.5153 157.724 46.8196 157.125 50.148 156.764C53.4784 156.411 56.8431 156.31 60.1937 156.551C63.5402 156.796 66.8787 157.384 70.068 158.452C73.2533 159.512 76.3015 161.056 78.9102 163.158C79.3598 163.497 79.1925 163.65 78.759 163.353Z" fill="#F06827"/>
<path d="M16.136 170.407C17.398 168.558 19.2084 167.153 21.0953 165.986C22.9984 164.822 25.0285 163.897 27.0546 163.011C28.0707 162.576 29.0767 162.122 30.1089 161.704C31.141 161.295 32.1894 160.917 33.2578 160.596C33.7901 160.436 34.3324 160.293 34.8706 160.164C35.3988 160.034 35.925 159.867 36.4552 159.707C37.5156 159.402 38.5781 159.028 39.7111 158.992C40.0659 159.022 40.0538 159.125 39.7151 159.143C38.6325 159.243 37.5882 159.643 36.548 159.996C36.0258 160.179 35.5057 160.365 34.9654 160.524C34.4312 160.674 33.911 160.833 33.3909 161.012C31.3064 161.716 29.3206 162.656 27.2885 163.543C25.2684 164.435 23.2545 165.328 21.3574 166.424C19.4765 167.526 17.6601 168.805 16.3073 170.532C16.0715 170.811 15.9344 170.698 16.136 170.407Z" fill="#F06827"/>
<path d="M59.3491 167.948C58.0709 166.673 56.5428 165.682 54.9703 164.802C53.3878 163.929 51.7367 163.182 50.0513 162.516C48.3538 161.871 46.6564 161.227 44.9528 160.578C43.2513 159.968 41.5196 159.374 39.7072 159.243C39.429 159.223 39.4169 159.147 39.7092 159.149C41.5519 159.159 43.3421 159.675 45.0758 160.233C45.9447 160.518 46.8035 160.825 47.6603 161.132C48.5131 161.44 49.378 161.733 50.2307 162.068C51.9342 162.736 53.5995 163.509 55.182 164.435C56.7525 165.37 58.2745 166.438 59.4882 167.82C59.6938 168.049 59.5527 168.147 59.3491 167.948Z" fill="#F06827"/>
<path d="M165.013 163.061C165.491 162.114 166.126 161.269 166.809 160.476C167.497 159.683 168.251 158.948 169.057 158.267C170.668 156.908 172.488 155.774 174.44 154.887C178.339 153.11 182.794 152.325 187.151 152.69C191.507 153.036 195.735 154.447 199.309 156.689C199.757 156.97 200.206 157.243 200.634 157.549C201.055 157.864 201.476 158.175 201.887 158.498L202.502 158.982C202.7 159.155 202.893 159.325 203.085 159.506L204.222 160.57C204.954 161.305 205.627 162.1 206.278 162.897C206.903 163.728 207.486 164.589 208 165.501C206.958 165.25 205.996 164.928 205.055 164.609C204.569 164.473 204.101 164.314 203.633 164.168C203.162 164.025 202.724 163.834 202.248 163.714L200.879 163.284L200.208 163.063L199.529 162.871C199.077 162.742 198.636 162.604 198.196 162.469C197.757 162.333 197.305 162.236 196.87 162.108C193.362 161.134 189.959 160.488 186.552 160.207C183.143 159.913 179.726 160.066 176.179 160.544C174.411 160.797 172.601 161.112 170.756 161.544C168.902 161.963 167.027 162.465 165.013 163.061Z" fill="#0AA94D"/>
<path d="M164.862 162.913C162.844 160.945 161.043 159.124 159.193 157.438C158.969 157.223 158.737 157.016 158.501 156.816C158.271 156.609 158.048 156.4 157.812 156.203C157.35 155.802 156.88 155.416 156.417 155.035C155.485 154.272 154.536 153.561 153.56 152.905C151.615 151.584 149.576 150.476 147.337 149.574C145.095 148.649 142.664 148.029 139.916 147.288C141.16 146.609 142.514 146.135 143.92 145.892C145.327 145.617 146.782 145.593 148.236 145.722L149.324 145.856C149.683 145.921 150.04 146.007 150.399 146.083C150.762 146.155 151.115 146.254 151.463 146.368C151.812 146.481 152.171 146.577 152.51 146.72C153.897 147.224 155.195 147.934 156.407 148.749C158.838 150.383 160.81 152.564 162.281 154.971C163.009 156.181 163.616 157.454 164.069 158.781C164.507 160.11 164.844 161.481 164.864 162.911L164.862 162.913Z" fill="#0AA94D"/>
<path d="M164.862 162.913C163.741 160.331 162.765 157.968 161.695 155.71C161.568 155.427 161.433 155.148 161.291 154.873C161.156 154.595 161.029 154.316 160.886 154.047C160.612 153.501 160.322 152.969 160.04 152.439C159.467 151.381 158.858 150.366 158.203 149.392C156.903 147.436 155.437 145.642 153.707 143.965C151.984 142.265 149.968 140.775 147.706 139.053C149.115 138.894 150.548 138.965 151.943 139.27C153.35 139.545 154.707 140.071 156.003 140.737L156.961 141.273C157.27 141.468 157.566 141.683 157.87 141.89C158.179 142.092 158.467 142.317 158.747 142.554C159.027 142.789 159.324 143.014 159.582 143.273C160.675 144.261 161.606 145.409 162.418 146.619C164.047 149.049 165.045 151.809 165.493 154.591C165.706 155.987 165.785 157.394 165.7 158.791C165.602 160.187 165.39 161.584 164.866 162.913L164.862 162.913Z" fill="#0AA94D"/>
<path d="M165.321 162.631C162.62 163.449 160.15 164.143 157.775 164.948C157.477 165.041 157.185 165.143 156.894 165.253C156.602 165.356 156.31 165.448 156.024 165.56C155.447 165.769 154.882 165.996 154.322 166.217C153.203 166.663 152.119 167.15 151.074 167.686C148.976 168.751 147.02 169.997 145.149 171.519C143.256 173.031 141.543 174.856 139.567 176.899C139.567 175.486 139.803 174.077 140.264 172.732C140.698 171.37 141.377 170.088 142.19 168.881L142.833 167.996C143.063 167.713 143.311 167.444 143.551 167.167C143.788 166.885 144.044 166.624 144.313 166.374C144.579 166.123 144.837 165.856 145.125 165.629C146.236 164.661 147.486 163.868 148.786 163.204C151.395 161.867 154.264 161.194 157.088 161.068C158.505 161.013 159.916 161.098 161.301 161.339C162.682 161.596 164.051 161.963 165.319 162.631L165.321 162.631Z" fill="#0AA94D"/>
<path d="M191.473 175.982C189.257 174.237 187.275 172.615 185.257 171.132C185.011 170.941 184.759 170.76 184.503 170.585C184.253 170.405 184.009 170.218 183.753 170.049C183.251 169.698 182.743 169.365 182.241 169.034C181.235 168.373 180.213 167.765 179.175 167.215C177.101 166.105 174.956 165.217 172.633 164.557C170.307 163.872 167.823 163.511 165.011 163.061C166.176 162.256 167.472 161.642 168.845 161.254C170.214 160.833 171.659 160.656 173.119 160.632L174.216 160.652C174.581 160.678 174.943 160.728 175.308 160.766C175.675 160.799 176.038 160.861 176.397 160.937C176.756 161.011 177.123 161.07 177.474 161.176C178.905 161.531 180.272 162.104 181.562 162.786C184.153 164.155 186.344 166.119 188.062 168.357C188.914 169.485 189.652 170.688 190.243 171.959C190.819 173.233 191.297 174.562 191.469 175.982L191.473 175.982Z" fill="#0AA94D"/>
<path d="M165.013 163.061L162.064 162.328C161.104 162.098 160.159 161.885 159.229 161.682C157.366 161.284 155.548 160.973 153.78 160.766C150.238 160.353 146.909 160.423 143.821 161.184C142.269 161.547 140.779 162.12 139.313 162.846C138.563 163.174 137.868 163.637 137.124 164.041C136.428 164.527 135.674 164.95 134.985 165.502C133.539 166.514 132.17 167.733 130.731 168.981C130.358 169.285 130.04 169.636 129.675 169.961C129.314 170.288 128.959 170.624 128.576 170.949C127.874 171.639 127.145 172.334 126.324 173.009C126.431 171.977 126.622 170.961 126.854 169.949C127.141 168.965 127.449 167.972 127.832 167.004L128.481 165.579C128.588 165.338 128.709 165.105 128.826 164.868C128.951 164.637 129.09 164.412 129.223 164.183C129.489 163.724 129.771 163.274 130.054 162.82C130.346 162.375 130.687 161.955 131.015 161.525C131.648 160.646 132.445 159.885 133.217 159.094C133.628 158.723 134.059 158.369 134.493 158.014C134.713 157.841 134.918 157.649 135.154 157.494L135.86 157.022C137.735 155.764 139.872 154.788 142.115 154.264C144.353 153.722 146.667 153.575 148.897 153.788C151.129 153.999 153.276 154.555 155.264 155.374C157.253 156.189 159.088 157.271 160.745 158.54C161.564 159.195 162.352 159.867 163.07 160.624C163.787 161.373 164.467 162.164 165.017 163.063L165.013 163.061Z" fill="#0AA94D"/>
<path d="M165.013 163.061C165.097 162.047 165.341 161.041 165.672 160.072C165.996 159.096 166.424 158.156 166.906 157.237C167.885 155.41 169.141 153.706 170.623 152.202C172.101 150.694 173.796 149.387 175.621 148.299C177.447 147.211 179.409 146.366 181.423 145.736C181.929 145.589 182.429 145.41 182.943 145.3L184.479 144.947C184.993 144.846 185.513 144.778 186.027 144.692L186.802 144.569C187.06 144.535 187.32 144.517 187.58 144.495L189.134 144.368C189.652 144.342 190.17 144.344 190.686 144.338C191.721 144.298 192.747 144.393 193.769 144.455C194.281 144.471 194.787 144.563 195.295 144.623C195.801 144.692 196.307 144.754 196.809 144.836C197.811 145.025 198.805 145.242 199.787 145.477C200.762 145.762 201.732 146.041 202.686 146.374C203.635 146.731 204.571 147.123 205.486 147.552C201.436 147.872 197.567 147.972 193.799 148.408C190.041 148.827 186.388 149.432 182.935 150.532C179.469 151.594 176.201 153.124 173.196 155.195C171.682 156.221 170.258 157.404 168.885 158.705C167.517 160.011 166.214 161.437 165.013 163.061Z" fill="#0AA94D"/>
<path d="M165.013 163.061C164.632 162.246 164.4 161.399 164.219 160.548C164.031 159.695 163.932 158.837 163.868 157.974C163.763 156.252 163.86 154.513 164.172 152.801C164.791 149.382 166.206 146.029 168.384 143.146C169.474 141.709 170.736 140.386 172.156 139.253C173.589 138.137 175.143 137.178 176.802 136.483C178.466 135.8 180.189 135.311 181.949 135.142C183.697 134.943 185.465 135.028 187.193 135.449C186.52 136.069 185.84 136.549 185.199 137.073C184.562 137.607 183.921 138.061 183.332 138.583C182.115 139.541 181.024 140.558 179.968 141.516C178.925 142.498 177.966 143.502 177.038 144.509C176.125 145.533 175.27 146.591 174.438 147.677C172.776 149.855 171.287 152.226 169.773 154.772C169.025 156.049 168.263 157.368 167.489 158.743C166.7 160.12 165.924 161.536 165.011 163.061L165.013 163.061Z" fill="#0AA94D"/>
<path d="M200.57 147.089C197.421 146.6 194.219 146.473 191.048 146.722C187.877 146.963 184.74 147.595 181.716 148.563C178.694 149.539 175.795 150.914 173.158 152.689C170.519 154.455 168.142 156.633 166.213 159.165C165.902 159.546 165.818 159.506 166.13 159.105C168.013 156.521 170.342 154.259 172.969 152.41C175.599 150.563 178.517 149.129 181.563 148.095C184.611 147.055 187.81 146.479 191.018 146.274C194.227 146.08 197.461 146.274 200.604 146.901C201.134 146.993 201.072 147.158 200.57 147.091L200.57 147.089Z" fill="#F06827"/>
<path d="M183.867 135.841C181.698 137.094 179.67 138.579 177.825 140.266C175.98 141.95 174.313 143.823 172.827 145.831C169.858 149.852 167.618 154.397 166.082 159.161C165.959 159.528 165.852 159.51 165.969 159.127C167.35 154.301 169.481 149.647 172.458 145.558C175.42 141.472 179.276 137.975 183.772 135.666C184.147 135.472 184.204 135.628 183.867 135.839L183.867 135.841Z" fill="#F06827"/>
<path d="M152.627 140.416C154.29 141.452 155.816 142.713 157.199 144.104C158.584 145.495 159.83 147.011 161.017 148.561C162.203 150.103 163.382 151.678 164.34 153.393C164.817 154.248 165.245 155.138 165.559 156.069C165.868 156.997 166.081 157.982 165.995 158.964C165.973 159.267 165.892 159.265 165.888 158.958C165.898 157.996 165.67 157.047 165.321 156.151C164.973 155.254 164.515 154.401 164.011 153.58C162.995 151.935 161.789 150.418 160.582 148.892C159.378 147.368 158.146 145.873 156.812 144.475C155.481 143.076 154.04 141.781 152.465 140.655C152.205 140.46 152.359 140.257 152.625 140.42L152.627 140.416Z" fill="#F06827"/>
<path d="M146.609 146.903C147.549 147.107 148.502 147.262 149.452 147.493C150.403 147.71 151.347 148.063 152.226 148.473C154.002 149.286 155.679 150.269 157.338 151.259C159.001 152.251 160.649 153.301 162.15 154.55C162.911 155.17 163.582 155.877 164.257 156.565C164.592 156.916 164.916 157.282 165.213 157.671C165.505 158.061 165.783 158.476 165.935 158.948C166.007 159.249 165.908 159.269 165.805 158.994C165.42 158.131 164.719 157.444 164.029 156.79C163.32 156.138 162.628 155.469 161.866 154.897C160.346 153.732 158.693 152.747 157.026 151.783C155.353 150.815 153.695 149.838 151.974 148.999C151.111 148.571 150.252 148.21 149.329 147.951C148.411 147.684 147.466 147.471 146.535 147.19C146.222 147.095 146.313 146.836 146.609 146.903Z" fill="#F06827"/>
<path d="M165.709 159.076C165.035 158.817 164.237 158.779 163.477 158.725C162.711 158.675 161.933 158.677 161.153 158.617C159.604 158.5 158.058 158.384 156.514 158.265C153.427 158.047 150.329 157.848 147.278 158.253C144.224 158.631 141.23 159.488 138.42 160.747C137.023 161.395 135.674 162.15 134.414 163.037C133.152 163.919 131.983 164.945 130.993 166.127C130.677 166.484 130.594 166.44 130.913 166.061C131.882 164.846 133.033 163.78 134.283 162.855C135.531 161.925 136.872 161.114 138.273 160.428C141.091 159.091 144.113 158.161 147.216 157.745C150.327 157.296 153.47 157.497 156.558 157.759C158.1 157.902 159.645 158.045 161.189 158.187C161.953 158.263 162.727 158.279 163.507 158.354C163.896 158.39 164.285 158.432 164.675 158.498C165.064 158.569 165.453 158.639 165.838 158.821C166.11 158.958 166.136 159.183 166.068 159.189C165.989 159.211 165.906 159.167 165.711 159.078L165.709 159.076Z" fill="#F06827"/>
<path d="M205.083 163.353C202.412 161.383 199.38 159.956 196.223 158.968C193.06 157.983 189.776 157.412 186.47 157.135C179.843 156.607 173.144 157.262 166.648 158.733C166.142 158.836 166.11 158.776 166.622 158.631C169.84 157.724 173.144 157.125 176.472 156.764C179.803 156.411 183.167 156.31 186.518 156.551C189.864 156.796 193.203 157.384 196.392 158.452C199.578 159.512 202.626 161.056 205.234 163.158C205.684 163.497 205.517 163.65 205.083 163.353Z" fill="#F06827"/>
<path d="M142.46 170.407C143.722 168.558 145.533 167.153 147.42 165.986C149.323 164.822 151.353 163.897 153.379 163.011C154.395 162.576 155.401 162.122 156.433 161.704C157.465 161.295 158.514 160.917 159.582 160.596C160.114 160.436 160.657 160.293 161.195 160.164C161.723 160.034 162.249 159.867 162.779 159.707C163.84 159.402 164.902 159.028 166.035 158.992C166.39 159.022 166.378 159.125 166.039 159.143C164.957 159.243 163.912 159.643 162.872 159.996C162.35 160.179 161.83 160.365 161.29 160.524C160.755 160.674 160.235 160.833 159.715 161.012C157.631 161.716 155.645 162.656 153.613 163.543C151.593 164.435 149.579 165.328 147.682 166.424C145.801 167.526 143.984 168.805 142.632 170.532C142.396 170.811 142.259 170.698 142.46 170.407Z" fill="#F06827"/>
<path d="M185.673 167.948C184.395 166.673 182.867 165.682 181.295 164.802C179.712 163.929 178.061 163.182 176.376 162.516C174.678 161.871 172.981 161.227 171.277 160.578C169.576 159.968 167.844 159.374 166.031 159.243C165.753 159.223 165.741 159.147 166.033 159.149C167.876 159.159 169.666 159.675 171.4 160.233C172.269 160.518 173.128 160.825 173.985 161.132C174.837 161.44 175.702 161.733 176.555 162.068C178.258 162.736 179.924 163.509 181.506 164.435C183.077 165.37 184.599 166.438 185.812 167.82C186.018 168.049 185.877 168.147 185.673 167.948Z" fill="#F06827"/>
<path d="M103.343 27.9329H171.408C171.408 28.4393 171.408 28.9636 171.408 29.4656H103.343V27.9329Z" fill="#C0E2F7"/>
<path d="M103.343 10.8353L109.662 10.7098C110.121 8.5138 108.492 0.782932 111.071 0.119646C112.142 -0.158217 120.026 0.0120866 120.423 1.0115L120.549 10.8353L127.083 10.7098C127.484 10.1496 126.633 2.34255 127.083 1.01598C127.583 -0.449525 137.146 -0.153736 137.587 1.01598C138.028 2.18569 137.146 10.4364 137.713 10.8398L144.248 10.7143C144.626 8.60343 143.375 1.29832 145.144 0.379583C146.206 -0.171662 154.577 -0.0775474 155.009 1.01598V10.7098C155.198 10.9742 156.179 10.795 156.548 10.8353V27.9284H103.343V10.8308V10.8353Z" fill="#2294B8"/>
<path d="M155.139 18.239C151.255 18.4183 150.972 18.1897 151.552 22.3218C155.292 22.8282 156.138 21.9678 155.139 18.239Z" fill="#C0E2F7"/>
<path d="M110.045 18.239C106.17 18.0373 105.877 18.5393 106.458 22.3218C110.513 22.7969 110.756 21.9991 110.045 18.239Z" fill="#C0E2F7"/>
<path d="M140.535 18.239C137.362 17.0514 136.777 19.8434 137.461 22.3218L141.174 22.1963V18.6244C140.936 18.5751 140.648 18.2838 140.535 18.2435V18.239Z" fill="#C0E2F7"/>
<path d="M129.262 18.239C125.526 18.109 125.783 18.9292 126.188 22.3218L129.901 22.1963V18.6244L129.262 18.2435V18.239Z" fill="#C0E2F7"/>
<path d="M156.548 29.4656V176.939C161.566 176.957 166.66 176.894 171.665 176.939C171.818 127.784 171.575 78.6115 171.408 29.4656H156.548Z" fill="#2294B8"/>
<path d="M165.9 35.0766C165.198 35.1887 161.651 34.875 161.417 35.2021C161.215 35.489 161.197 41.8036 161.543 42.2204C161.8 42.5296 165.85 42.5969 166.026 42.3459L165.9 35.0722V35.0766Z" fill="#E3F0FB"/>
<path d="M161.286 113.152C160.08 113.367 157.511 112.583 157.061 113.788C156.084 116.379 156.903 122.823 161.417 120.932L161.291 113.152H161.286Z" fill="#E3F0FB"/>
<path d="M167.182 160.097C164.311 158.829 161.773 161.522 163.082 164.435L167.565 164.31C167.407 163.535 167.938 160.433 167.182 160.102V160.097Z" fill="#E3F0FB"/>
<path d="M165.386 48.3469C164.63 48.0107 161.115 48.5978 160.004 48.3469C158.487 51.8515 163.294 52.842 165.386 51.9187C165.976 51.6588 165.976 48.6068 165.386 48.3469Z" fill="#E3F0FB"/>
<path d="M167.439 95.5477C164.59 94.6648 162.844 97.2104 163.852 99.8859C168.393 102.423 169.784 96.2782 167.439 95.5477Z" fill="#E3F0FB"/>
<path d="M161.543 136.882C158.456 135.901 156.588 139.087 158.469 141.476C162.358 143.815 163.465 137.492 161.543 136.882Z" fill="#E3F0FB"/>
<path d="M166.156 66.9727H160.774C160.387 67.1161 160.585 69.7737 160.648 69.9081C160.877 70.419 165.931 70.4504 166.156 70.2891C166.291 70.195 166.921 67.2998 166.156 66.9727Z" fill="#E3F0FB"/>
<path d="M165.643 151.425C164.923 151.569 161.309 151.232 161.03 151.425C160.877 151.533 160.81 154.181 160.904 154.361C161.138 154.809 165.022 154.903 165.387 154.742C165.792 154.562 166.273 151.721 165.643 151.425Z" fill="#E3F0FB"/>
<path d="M170.256 133.055C164.28 132.042 163.771 136.887 169.743 136.882C170.562 136.631 170.499 133.848 170.256 133.055Z" fill="#E3F0FB"/>
<path d="M169.999 53.447C167.767 53.3753 164.549 53.5366 165.773 56.6379C165.85 56.8351 169.815 57.3819 169.999 57.2743C170.377 57.0503 170.711 53.7607 169.999 53.447Z" fill="#E3F0FB"/>
<path d="M164.622 75.6447C163.758 75.4744 162.475 75.7657 161.548 75.6447C161.012 75.8822 161.071 78.4502 161.165 78.5801C161.426 78.9432 165.13 79.109 165.648 78.7056C166.697 77.8989 166.318 75.9763 164.622 75.6447Z" fill="#E3F0FB"/>
<path d="M170.513 83.5548C170.337 83.4293 166.984 83.5682 166.669 83.8102C166.165 84.2001 166.156 86.5665 166.287 86.7457C166.404 86.9071 169.685 87.0057 170.256 87.1267L170.513 83.5548Z" fill="#E3F0FB"/>
<path d="M156.548 10.8398V27.9329H171.408C171.372 18.9875 171.966 9.97932 171.665 1.01599C171.237 -0.126832 163.343 -0.153721 162.313 0.379596C160.54 1.29834 161.795 8.60345 161.417 10.7143C161.278 10.9115 157.128 10.9115 156.548 10.8398Z" fill="#2294B8"/>
<path d="M165.13 18.239C161.255 18.0373 160.963 18.5393 161.543 22.3218C165.189 22.7744 166.354 22.0529 165.13 18.239Z" fill="#C0E2F7"/>
<path d="M103.343 140.902L104.153 140.449C105.467 140.302 114.891 145.666 116.322 146.827C116.997 147.374 117.655 147.974 118.37 148.485L118.114 177.19C113.591 177.181 109.059 177.199 104.536 177.19L103.64 141.982L103.514 177.19C103.46 177.19 103.402 177.19 103.348 177.19V140.902H103.343Z" fill="#EFB303"/>
<path d="M103.514 177.195C103.852 177.195 104.198 177.195 104.541 177.195L103.645 141.987L103.519 177.195H103.514Z" fill="white"/>
<path d="M116.323 146.831C116.998 147.378 117.655 147.979 118.37 148.49L118.114 177.195C118.28 177.195 118.456 177.195 118.627 177.195L118.883 148.49L116.323 146.831Z" fill="white"/>
<path d="M108.253 156.525C106.939 156.05 106.588 160.787 107.74 161.63C109.275 161.607 109.149 156.852 108.253 156.525Z" fill="white"/>
<path d="M103.343 29.4656H156.548V176.939C143.933 176.894 131.26 177.213 118.627 177.195L118.883 148.49L116.323 146.831C114.891 145.671 105.467 140.306 104.153 140.454L103.343 140.907V29.4656Z" fill="#E3F0FB"/>
<path d="M121.062 113.152C120.783 113.008 116.548 113.026 116.323 113.533C116.183 113.846 115.94 120.098 116.066 120.421C116.449 121.398 121.035 121.151 121.192 120.932C121.444 120.582 121.674 113.465 121.066 113.152H121.062Z" fill="#89CCF0"/>
<path d="M151.039 113.152C150.625 112.968 146.939 113.058 146.557 113.533C146.219 113.954 146.12 120.842 146.431 121.057L151.426 120.932C151.224 119.811 151.854 113.51 151.044 113.152H151.039Z" fill="#89CCF0"/>
<path d="M130.8 113.152L126.061 113.533C126.534 118.66 123.775 122.402 131.188 120.932L130.805 113.152H130.8Z" fill="#89CCF0"/>
<path d="M146.174 35.0766C145.963 34.9691 141.57 35.0094 141.435 35.2021C141.589 36.2239 141.179 42.1084 141.561 42.4759C141.742 42.6462 146.053 43.0719 146.557 42.3504C146.391 41.2972 146.931 35.471 146.174 35.0766Z" fill="#89CCF0"/>
<path d="M103.343 35.0587C104.531 34.9511 106.255 35.211 106.971 35.0766L107.097 42.6013C106.962 42.7895 104.702 42.7851 103.343 42.6596V35.0587Z" fill="#89CCF0"/>
<path d="M125.931 35.0766C125.747 34.9466 121.633 35.0587 121.449 35.2021C121.093 35.4844 121.053 42.2248 121.323 42.4758C121.534 42.673 125.859 42.8881 126.062 42.6013C125.936 41.6198 126.278 35.3186 125.936 35.0766H125.931Z" fill="#89CCF0"/>
<path d="M135.666 34.8212C134.991 35.4576 131.759 34.7539 131.44 35.2021C131.12 35.6503 130.954 42.3235 131.822 42.7268C132.128 42.8702 135.823 42.8478 136.048 42.3459C136.219 41.9649 136.161 34.987 135.666 34.8212Z" fill="#89CCF0"/>
<path d="M110.557 113.152C110.377 113.058 106.759 113.125 106.588 113.277C106.322 113.515 106.165 119.991 106.331 120.421C106.7 121.367 110.526 121.16 110.688 120.932C111.084 120.376 111.079 113.425 110.562 113.152H110.557Z" fill="#89CCF0"/>
<path d="M155.909 35.0766C155.738 34.9556 151.827 35.0498 151.683 35.2021C151.462 35.4352 151.269 41.1269 151.426 41.5795C151.8 42.6372 155.877 43.2781 156.296 42.3459C156.444 42.0143 156.21 35.2828 155.913 35.0722L155.909 35.0766Z" fill="#89CCF0"/>
<path d="M115.94 34.8212C115.112 35.3052 112.389 34.8301 111.97 35.2021C111.655 35.48 111.444 42.0277 112.096 42.4758C112.376 42.6641 115.877 42.8747 116.066 42.6013L115.94 34.8212Z" fill="#89CCF0"/>
<path d="M140.279 113.152C139.523 113.304 136.642 112.789 136.309 113.533C136.125 113.949 136.21 120.847 136.692 121.057C136.926 121.16 140.301 121.08 140.405 120.932L140.279 113.152Z" fill="#89CCF0"/>
<path d="M127.47 78.1992C125.274 78.3874 126.741 81.9324 126.957 82.0265C127.223 82.143 132.421 82.3402 132.722 81.901C132.821 81.7576 133.271 78.6249 132.848 78.4546C131.332 78.8042 128.744 78.0916 127.466 78.1992H127.47Z" fill="#89CCF0"/>
<path d="M110.301 76.6664C107.034 75.7835 105.594 78.7414 106.971 81.5156C107.776 81.3542 111.116 81.892 111.453 81.1346C111.836 80.2741 111.665 77.0384 110.301 76.6709V76.6664Z" fill="#89CCF0"/>
<path d="M133.105 56.2525C129.001 54.666 127.497 62.0114 132.335 61.1016C134.698 60.658 133.866 56.5483 133.105 56.2525Z" fill="#89CCF0"/>
<path d="M141.818 76.6664C137.754 75.0979 135.765 80.0815 139.001 80.7492C143.564 81.6904 142.943 77.1012 141.818 76.6664Z" fill="#89CCF0"/>
<path d="M132.491 138.014C130.844 137.705 125.344 142.639 124.678 144.521C123.234 148.586 124.593 155.972 124.296 160.467L139.795 160.086C140.11 159.373 139.867 145.695 139.539 144.521C139.08 142.89 133.846 138.269 132.491 138.014Z" fill="#89CCF0"/>
<path d="M132.235 141.075C130.52 141.115 126.726 144.172 126.213 145.794C125.848 146.95 125.691 156.859 126.339 157.146L137.739 157.021C138.117 156.622 138.189 146.986 137.995 146.05C137.635 144.306 134.048 141.03 132.23 141.075H132.235Z" fill="#EFB303"/>
<path d="M146.174 51.6633C137.574 54.4957 139.32 64.4584 139.77 71.8218L152.196 71.4408C151.674 63.7279 154.77 55.7147 146.174 51.6677V51.6633Z" fill="#89CCF0"/>
<path d="M146.683 53.9579C145.063 53.6934 141.48 56.9695 141.174 58.4216C141.017 59.179 140.868 68.7025 141.3 69.0118L150.396 68.8863C149.95 65.3995 151.318 59.5868 149.626 56.6379C149.432 56.3018 146.921 53.9982 146.678 53.9579H146.683Z" fill="#EFB303"/>
<path d="M115.17 84.3212C106.547 88.0768 108.478 96.9729 109.023 104.731H121.066C121.426 97.188 123.861 88.1171 115.175 84.3212H115.17Z" fill="#89CCF0"/>
<path d="M115.683 86.6157C114.414 86.4633 110.818 89.8291 110.431 91.0795C110.08 92.2178 109.9 101.629 110.557 101.925L119.653 101.544C119.212 98.4339 120.458 92.4284 119.14 89.8067C118.969 89.4705 115.985 86.6561 115.679 86.6157H115.683Z" fill="#EFB303"/>
<path d="M115.427 51.6633C113.753 51.4123 109.361 55.9971 108.893 57.9152C108.555 59.3045 108.348 71.5215 109.019 71.8218H121.062C121.71 71.4857 121.588 58.937 121.188 57.4043C120.787 55.8716 116.782 51.8694 115.423 51.6633H115.427Z" fill="#89CCF0"/>
<path d="M115.941 53.9579C114.226 53.6935 110.864 56.9248 110.432 58.4217C110.099 59.5734 109.883 68.7116 110.558 69.0118L119.653 68.8863C119.208 65.3996 120.576 59.5869 118.884 56.638C118.681 56.2839 116.265 54.0072 115.936 53.9579H115.941Z" fill="#EFB303"/>
<path d="M145.661 84.3212C137.362 88.4443 139.217 96.9595 139.77 104.731L151.939 104.35C152.092 96.5337 154.536 88.0589 145.661 84.3212Z" fill="#89CCF0"/>
<path d="M146.174 86.6158C144.734 86.5844 141.201 90.34 140.922 91.8459C140.742 92.8184 140.805 101.701 141.305 101.925L150.4 101.544C149.968 98.0978 151.309 92.4733 149.631 89.5513C149.347 89.0583 146.674 86.6292 146.17 86.6158H146.174Z" fill="#EFB303"/>
<path d="M103.793 27.9329H35.7278C35.7278 28.4393 35.7278 28.9636 35.7278 29.4656H103.793V27.9329Z" fill="#C0E2F7"/>
<path d="M103.793 10.8353L97.4743 10.7098C97.0153 8.5138 98.6444 0.782932 96.0657 0.119646C94.9945 -0.158217 87.1097 0.0120866 86.7137 1.0115L86.5877 10.8353L80.053 10.7098C79.6524 10.1496 80.503 2.34255 80.053 1.01598C79.5534 -0.449525 69.9899 -0.153736 69.5489 1.01598C69.1078 2.18569 69.9899 10.4364 69.4228 10.8398L62.8882 10.7143C62.5101 8.60343 63.7612 1.29832 61.9926 0.379583C60.9305 -0.171662 52.5596 -0.0775474 52.1275 1.01598V10.7098C51.9385 10.9742 50.9574 10.795 50.5884 10.8353V27.9284H103.793V10.8308V10.8353Z" fill="#2294B8"/>
<path d="M52.0016 18.239C55.8855 18.4183 56.169 18.1897 55.5884 22.3218C51.8485 22.8282 51.0025 21.9678 52.0016 18.239Z" fill="#C0E2F7"/>
<path d="M97.0916 18.239C100.967 18.0373 101.259 18.5393 100.679 22.3218C96.6236 22.7969 96.3806 21.9991 97.0916 18.239Z" fill="#C0E2F7"/>
<path d="M66.6053 18.239C69.7781 17.0514 70.3632 19.8434 69.6791 22.3218L65.9662 22.1963V18.6244C66.2047 18.5751 66.4928 18.2838 66.6053 18.2435V18.239Z" fill="#C0E2F7"/>
<path d="M77.8793 18.239C81.6147 18.109 81.3582 18.9292 80.9531 22.3218L77.2402 22.1963V18.6244L77.8793 18.2435V18.239Z" fill="#C0E2F7"/>
<path d="M50.5884 29.4656V176.939C45.5703 176.957 40.4758 176.894 35.4713 176.939C35.3183 127.784 35.5613 78.6115 35.7278 29.4656H50.5884Z" fill="#2294B8"/>
<path d="M41.2408 35.0766C41.9429 35.1887 45.4892 34.875 45.7233 35.2021C45.9258 35.489 45.9438 41.8036 45.5972 42.2204C45.3407 42.5296 41.2903 42.5969 41.1148 42.3459L41.2408 35.0722V35.0766Z" fill="#E3F0FB"/>
<path d="M45.8493 113.152C47.0555 113.367 49.6252 112.583 50.0753 113.788C51.0519 116.379 50.2328 122.823 45.7188 120.932L45.8448 113.152H45.8493Z" fill="#E3F0FB"/>
<path d="M39.9581 160.097C42.8294 158.829 45.3677 161.522 44.0581 164.435L39.5756 164.31C39.7331 163.535 39.2021 160.433 39.9581 160.102V160.097Z" fill="#E3F0FB"/>
<path d="M41.7494 48.3469C42.5055 48.0107 46.0204 48.5978 47.132 48.3469C48.6487 51.8515 43.8421 52.842 41.7494 51.9187C41.1599 51.6588 41.1599 48.6068 41.7494 48.3469Z" fill="#E3F0FB"/>
<path d="M39.7015 95.5477C42.5503 94.6648 44.2965 97.2104 43.2884 99.8859C38.7474 102.423 37.3567 96.2782 39.7015 95.5477Z" fill="#E3F0FB"/>
<path d="M45.593 136.882C48.6803 135.901 50.548 139.087 48.6668 141.476C44.7784 143.815 43.6713 137.492 45.593 136.882Z" fill="#E3F0FB"/>
<path d="M40.9842 66.9727H46.3668C46.7538 67.1161 46.5558 69.7737 46.4928 69.9081C46.2633 70.419 41.2092 70.4504 40.9842 70.2891C40.8492 70.195 40.2191 67.2998 40.9842 66.9727Z" fill="#E3F0FB"/>
<path d="M41.4929 151.425C42.213 151.569 45.8269 151.232 46.1059 151.425C46.2589 151.533 46.3264 154.181 46.2319 154.361C45.9979 154.809 42.114 154.903 41.7494 154.742C41.3444 154.562 40.8628 151.721 41.4929 151.425Z" fill="#E3F0FB"/>
<path d="M36.8844 133.055C42.861 132.042 43.3696 136.887 37.3974 136.882C36.5784 136.631 36.6414 133.848 36.8844 133.055Z" fill="#E3F0FB"/>
<path d="M37.1409 53.447C39.3731 53.3753 42.591 53.5366 41.3668 56.6379C41.2903 56.8351 37.3254 57.3819 37.1409 57.2743C36.7629 57.0503 36.4298 53.7607 37.1409 53.447Z" fill="#E3F0FB"/>
<path d="M42.5191 75.6447C43.3832 75.4744 44.6659 75.7657 45.593 75.6447C46.1285 75.8822 46.07 78.4502 45.9755 78.5801C45.7145 78.9432 42.0106 79.109 41.493 78.7056C40.4444 77.8989 40.8225 75.9763 42.5191 75.6447Z" fill="#E3F0FB"/>
<path d="M36.628 83.5548C36.8035 83.4293 40.1564 83.5682 40.4714 83.8102C40.9755 84.2001 40.9845 86.5665 40.854 86.7457C40.7369 86.9071 37.4561 87.0057 36.8845 87.1267L36.628 83.5548Z" fill="#E3F0FB"/>
<path d="M50.5884 10.8398V27.9329H35.7278C35.7638 18.9875 35.1697 9.97932 35.4713 1.01599C35.8988 -0.126832 43.7926 -0.153721 44.8233 0.379596C46.5964 1.29834 45.3408 8.60345 45.7189 10.7143C45.8584 10.9115 50.0078 10.9115 50.5884 10.8398Z" fill="#2294B8"/>
<path d="M42.0062 18.239C45.8811 18.0373 46.1736 18.5393 45.5931 22.3218C41.9477 22.7744 40.7821 22.0529 42.0062 18.239Z" fill="#C0E2F7"/>
<path d="M103.793 140.902L102.983 140.449C101.669 140.302 92.2448 145.666 90.8136 146.827C90.1385 147.374 89.4815 147.974 88.7659 148.485L89.0224 177.19C93.5454 177.181 98.0774 177.199 102.6 177.19L103.496 141.982L103.622 177.19C103.676 177.19 103.734 177.19 103.788 177.19V140.902H103.793Z" fill="#EFB303"/>
<path d="M103.626 177.195C103.289 177.195 102.942 177.195 102.6 177.195L103.496 141.987L103.622 177.195H103.626Z" fill="white"/>
<path d="M90.8179 146.831C90.1428 147.378 89.4857 147.979 88.7702 148.49L89.0267 177.195C88.8602 177.195 88.6846 177.195 88.5136 177.195L88.2571 148.49L90.8179 146.831Z" fill="white"/>
<path d="M98.8873 156.525C100.201 156.05 100.552 160.787 99.4003 161.63C97.8657 161.607 97.9917 156.852 98.8873 156.525Z" fill="white"/>
<path d="M103.793 29.4656H50.5884V176.939C63.2032 176.894 75.8765 177.213 88.5094 177.195L88.2528 148.49L90.8136 146.831C92.2448 145.671 101.669 140.306 102.983 140.454L103.793 140.907V29.4656Z" fill="#E3F0FB"/>
<path d="M86.0748 113.152C86.3539 113.008 90.5888 113.026 90.8138 113.533C90.9533 113.846 91.1964 120.098 91.0703 120.421C90.6878 121.398 86.1018 121.151 85.9443 120.932C85.6923 120.582 85.4628 113.465 86.0703 113.152H86.0748Z" fill="#89CCF0"/>
<path d="M56.0969 113.152C56.5109 112.968 60.1968 113.058 60.5793 113.533C60.9169 113.954 61.0159 120.842 60.7053 121.057L55.7098 120.932C55.9123 119.811 55.2823 113.51 56.0924 113.152H56.0969Z" fill="#89CCF0"/>
<path d="M76.34 113.152L81.079 113.533C80.6064 118.66 83.3652 122.402 75.9529 120.932L76.3355 113.152H76.34Z" fill="#89CCF0"/>
<path d="M60.9663 35.0766C61.1778 34.9691 65.5703 35.0094 65.7053 35.2021C65.5523 36.2239 65.9618 42.1084 65.5793 42.4759C65.3993 42.6462 61.0878 43.0719 60.5838 42.3504C60.7503 41.2972 60.2102 35.471 60.9663 35.0766Z" fill="#89CCF0"/>
<path d="M103.793 35.0587C102.605 34.9511 100.881 35.211 100.166 35.0766L100.04 42.6013C100.175 42.7895 102.434 42.7851 103.793 42.6596V35.0587Z" fill="#89CCF0"/>
<path d="M81.2094 35.0766C81.394 34.9466 85.5074 35.0587 85.6919 35.2021C86.0474 35.4844 86.0879 42.2248 85.8179 42.4758C85.6064 42.673 81.2814 42.8881 81.0789 42.6013C81.2049 41.6198 80.8629 35.3186 81.2049 35.0766H81.2094Z" fill="#89CCF0"/>
<path d="M71.4706 34.8212C72.1457 35.4576 75.377 34.7539 75.6965 35.2021C76.0161 35.6503 76.1826 42.3235 75.314 42.7268C75.008 42.8702 71.3131 42.8478 71.0881 42.3459C70.917 41.9649 70.9755 34.987 71.4706 34.8212Z" fill="#89CCF0"/>
<path d="M96.5787 113.152C96.7587 113.058 100.377 113.125 100.548 113.277C100.814 113.515 100.971 119.991 100.805 120.421C100.436 121.367 96.6102 121.16 96.4482 120.932C96.0521 120.376 96.0566 113.425 96.5742 113.152H96.5787Z" fill="#89CCF0"/>
<path d="M51.2321 35.0766C51.4031 34.9556 55.314 35.0498 55.458 35.2021C55.6786 35.4352 55.8721 41.1269 55.7146 41.5795C55.341 42.6372 51.2636 43.2781 50.8451 42.3459C50.6965 42.0143 50.9306 35.2828 51.2276 35.0722L51.2321 35.0766Z" fill="#89CCF0"/>
<path d="M91.2007 34.8212C92.0288 35.3052 94.7516 34.8301 95.1702 35.2021C95.4852 35.48 95.6967 42.0277 95.0441 42.4758C94.7651 42.6641 91.2638 42.8747 91.0747 42.6013L91.2007 34.8212Z" fill="#89CCF0"/>
<path d="M66.8619 113.152C67.618 113.304 70.4983 112.789 70.8313 113.533C71.0158 113.949 70.9303 120.847 70.4488 121.057C70.2148 121.16 66.8394 121.08 66.7359 120.932L66.8619 113.152Z" fill="#89CCF0"/>
<path d="M79.6705 78.1992C81.8667 78.3874 80.3996 81.9324 80.1835 82.0265C79.918 82.143 74.72 82.3402 74.4184 81.901C74.3194 81.7576 73.8694 78.6249 74.2924 78.4546C75.8091 78.8042 78.3969 78.0916 79.675 78.1992H79.6705Z" fill="#89CCF0"/>
<path d="M96.8353 76.6664C100.103 75.7835 101.543 78.7414 100.166 81.5156C99.3601 81.3542 96.0207 81.892 95.6832 81.1346C95.3007 80.2741 95.4717 77.0384 96.8353 76.6709V76.6664Z" fill="#89CCF0"/>
<path d="M74.0357 56.2525C78.1401 54.666 79.6433 62.0114 74.8053 61.1016C72.4425 60.658 73.2751 56.5483 74.0357 56.2525Z" fill="#89CCF0"/>
<path d="M65.3229 76.6664C69.3868 75.0979 71.376 80.0815 68.1402 80.7492C63.5767 81.6904 64.1978 77.1012 65.3229 76.6664Z" fill="#89CCF0"/>
<path d="M65.3229 138.155C66.9701 137.846 72.4697 142.78 73.1358 144.662C74.5804 148.727 73.2213 156.113 73.5183 160.608L58.0187 160.227C57.7036 159.514 57.9467 145.836 58.2752 144.662C58.7342 143.031 63.9683 138.41 65.3229 138.155Z" fill="#89CCF0"/>
<path d="M65.5795 141.216C67.2942 141.256 71.0881 144.313 71.6012 145.935C71.9657 147.091 72.1232 157 71.4751 157.287L60.0754 157.162C59.6974 156.763 59.6254 147.127 59.8189 146.191C60.179 144.447 63.7658 141.171 65.584 141.216H65.5795Z" fill="#EFB303"/>
<path d="M60.9666 51.6633C69.567 54.4957 67.8208 64.4584 67.3708 71.8218L54.945 71.4408C55.467 63.7279 52.3707 55.7147 60.9666 51.6677V51.6633Z" fill="#89CCF0"/>
<path d="M60.4534 53.9579C62.0736 53.6934 65.6559 56.9695 65.962 58.4216C66.1195 59.179 66.268 68.7025 65.8359 69.0118L56.7405 68.8863C57.186 65.3995 55.8179 59.5868 57.5101 56.6379C57.7036 56.3018 60.2149 53.9982 60.4579 53.9579H60.4534Z" fill="#EFB303"/>
<path d="M91.9703 84.3212C100.593 88.0768 98.6625 96.9729 98.118 104.731H86.0747C85.7147 97.188 83.2799 88.1171 91.9658 84.3212H91.9703Z" fill="#89CCF0"/>
<path d="M91.4571 86.6157C92.7262 86.4633 96.3221 89.8291 96.7091 91.0795C97.0601 92.2178 97.2402 101.629 96.5831 101.925L87.4876 101.544C87.9287 98.4339 86.6821 92.4284 88.0007 89.8067C88.1717 89.4705 91.1555 86.6561 91.4616 86.6157H91.4571Z" fill="#EFB303"/>
<path d="M91.7136 51.6633C93.3878 51.4123 97.7803 55.9971 98.2483 57.9152C98.5859 59.3045 98.7929 71.5215 98.1223 71.8218H86.079C85.431 71.4857 85.5525 58.937 85.953 57.4043C86.3536 55.8716 90.359 51.8694 91.7181 51.6633H91.7136Z" fill="#89CCF0"/>
<path d="M91.2005 53.9579C92.9152 53.6935 96.2771 56.9248 96.7091 58.4217C97.0422 59.5734 97.2582 68.7116 96.5831 69.0118L87.4877 68.8863C87.9332 65.3996 86.5651 59.5869 88.2572 56.638C88.4598 56.2839 90.8765 54.0072 91.205 53.9579H91.2005Z" fill="#EFB303"/>
<path d="M61.4797 84.3212C69.7785 88.4443 67.9243 96.9595 67.3708 104.731L55.2015 104.35C55.0485 96.5337 52.6047 88.0589 61.4797 84.3212Z" fill="#89CCF0"/>
<path d="M60.9666 86.6158C62.4068 86.5844 65.9396 90.34 66.2187 91.8459C66.3987 92.8184 66.3357 101.701 65.8361 101.925L56.7407 101.544C57.1727 98.0978 55.8316 92.4733 57.5103 89.5513C57.7938 89.0583 60.4671 86.6292 60.9711 86.6158H60.9666Z" fill="#EFB303"/>
<path d="M60.211 167.747C59.0094 168.173 59.1984 170.736 58.4153 171.064C58.3028 171.108 56.2281 171.808 56.1111 171.83C55.6385 172.498 56.0616 175.164 55.7285 175.402C55.5665 175.514 52.3847 175.384 51.7591 175.402C50.1839 175.447 48.5953 175.37 47.0201 175.402L46.8941 173.363C45.8905 172.762 45.706 171.601 44.4593 171.068C43.6628 170.727 41.5385 170.75 41.129 170.557C40.922 170.459 39.7563 168.496 38.8247 168.263C36.318 167.64 34.0497 168.818 34.2118 171.579C30.0758 168.272 29.1847 171.454 29.5988 175.406H1.92986C-0.113373 176.482 -0.329391 178.893 1.92986 180H206.634C208.457 179.059 208.538 175.949 206.377 175.406C204.357 174.9 193.848 175.178 190.878 175.151C185.873 175.106 180.779 175.169 175.761 175.151C163.146 175.106 150.473 175.424 137.84 175.406C137.673 175.406 137.498 175.406 137.327 175.406C132.804 175.397 128.272 175.415 123.749 175.406C123.411 175.406 123.065 175.406 122.723 175.406C118.371 175.397 114.005 175.424 109.658 175.406C99.9682 175.37 90.2697 175.433 80.5756 175.406C79.194 172.076 77.9069 171.557 74.554 171.324C73.4289 171.243 72.2273 171.247 71.0932 171.324C70.7421 171.346 69.1444 172.126 69.0454 172.09C68.6269 171.942 68.5324 169.159 66.4846 168.263C65.526 167.841 61.0256 167.46 60.2065 167.752L60.211 167.747Z" fill="#0AA94D"/>
</svg>
