<svg width="245" height="183" viewBox="0 0 245 183" fill="none" xmlns="http://www.w3.org/2000/svg">
<g clip-path="url(#clip0_1047_22122)">
<path d="M108.756 0.719018C140.705 -1.64137 170.549 11.5824 189.935 36.8747L228.097 17.4084C229.632 17.2084 230.558 15.8644 231.738 17.5806C231.816 21.9903 229.006 32.1983 230.003 36.0083C230.718 38.7408 242.589 41.6399 244.401 43.4838C244.861 43.9503 245.144 44.3724 244.922 45.05C244.202 47.2215 208.329 62.117 204.333 65.9103C218.958 111.374 192.251 161.787 148.132 177.51L233.644 177.682V179.77H143.1C126.097 183.052 109.388 183.891 92.4514 179.77L0 179.248L0.520946 177.682L86.0338 177.51C45.2946 161.176 21.2535 122.404 27.056 78.0788C32.2266 38.6075 69.0864 3.65146 108.756 0.719018Z" fill="#040506"/>
<path d="M166.864 114.057C162.064 124.409 154.954 131.968 145.876 138.738C155.137 133.523 163.095 124.021 167.556 114.401C168.543 115.107 170.926 114.979 171.026 116.14C161.322 136.9 141.614 151.168 118.471 151.951L117.95 131.613C132.62 130.33 146.187 121.905 152.643 108.492L166.864 114.057Z" fill="#FFD127"/>
<path d="M116.044 73.3806C121.874 73.1251 128.098 75.7688 131.484 80.5062C131.584 82.028 116.609 86.9431 115.872 90.9364C114.287 99.5115 131.035 88.7481 133.739 87.6318C139.863 104.038 120.2 116.334 106.334 107.098C92.5348 97.9065 98.6808 74.1359 116.049 73.3751L116.044 73.3806Z" fill="#F58C2F"/>
<path d="M188.721 91.1141C186.466 86.6099 181.611 83.8274 177.271 81.7281C176.302 76.9962 174.268 72.5309 173.281 67.8212L190.279 59.1294C194.13 63.0782 201.268 62.7616 203.635 68.3433C204.665 70.7758 207.819 88.987 207.104 90.592L201.379 91.1141L200.686 86.2489L199.994 91.1141C196.231 90.9808 192.484 91.1697 188.721 91.1141Z" fill="#2298D5"/>
<path d="M192.19 129.352L185.424 122.049L172.417 116.484C176.052 108.686 177.133 101.272 178.485 92.8413L195.31 93.0135L194.097 111.263C196.652 107.587 194.812 95.7015 196.003 93.0135C196.43 92.0526 200.193 92.6747 200.337 92.8413C201.451 94.102 199.611 107.603 199.123 110.053C197.86 116.373 195.039 123.593 192.185 129.347L192.19 129.352Z" fill="#35777F"/>
<path d="M171.026 116.145C170.926 114.985 168.543 115.112 167.557 114.407C169.94 109.27 171.68 103.738 172.24 98.0675C170.754 103.66 169.286 108.836 166.864 114.057L152.643 108.492C155.176 103.233 155.819 98.1397 156.977 92.5026H176.402C177.327 100.645 174.451 108.809 171.026 116.145Z" fill="#BC982B"/>
<path d="M171.203 68.8653C171.907 68.8486 171.962 68.882 172.417 69.3874C174.046 71.1924 177.737 88.8814 176.579 90.592C174.296 91.314 157.321 91.4862 156.633 90.7642C155.835 89.9311 156.384 85.4991 156.112 84.3328C155.802 82.9943 153.452 79.0122 154.029 77.7293C157.121 77.0906 169.336 68.9153 171.203 68.8653Z" fill="#BC982B"/>
<path d="M152.986 105.021L154.2 97.7177C147.794 97.5177 141.803 94.9796 135.989 92.5026C136.033 91.1641 135.191 87.4763 135.468 86.9376C135.917 86.0823 150.775 79.7342 152.815 78.5957C156.35 87.1764 156.223 96.4236 152.986 105.015V105.021Z" fill="#D15534"/>
<path d="M206.068 104.671C205.314 109.697 203.829 114.468 202.249 119.272L196.352 131.613L192.19 130.746C197.633 120.211 200.326 109.586 201.213 97.7177C201.906 97.9787 205.624 100.761 205.724 101.022C206.145 102.133 204.46 104.382 206.073 104.671H206.068Z" fill="#35777F"/>
<path d="M188.721 91.1141C185.313 91.0641 181.899 91.1474 178.485 91.1141C177.97 90.8864 177.571 83.1998 177.271 81.728C181.611 83.8274 186.466 86.6099 188.721 91.1141Z" fill="#35777F"/>
<path d="M206.068 104.671C204.461 104.382 206.14 102.133 205.719 101.022C205.619 100.761 201.9 97.9786 201.207 97.7176C201.268 96.9234 201.008 93.119 201.379 92.8524L207.104 93.0246C207.442 93.5022 206.267 103.299 206.062 104.671H206.068Z" fill="#2298D5"/>
<path d="M90.8885 177.332C90.617 178.882 84.0553 176.694 86.7265 175.944C88.112 176.438 89.4753 176.916 90.8885 177.332Z" fill="#4B1A1D"/>
<path d="M84.2992 141.871C85.7789 142.815 88.5388 145.131 89.6749 145.697C98.0655 149.874 107.415 151.546 116.559 153.173L116.387 170.035L99.2126 169.168C102.687 171.279 113.871 169.612 116.387 170.734C117.185 171.09 117.185 174.9 116.387 175.255C114.98 175.883 103.425 174.594 101.125 174.211C86.5825 171.79 71.7355 164.292 61.2279 154.045C74.6561 169.44 96.6689 175.872 116.736 175.949C116.382 177.843 117.695 180.026 116.044 181.514C107.454 181.214 99.1184 179.776 90.8941 177.343C89.4809 176.927 88.1176 176.444 86.7321 175.955C57.221 165.491 24.3737 128.003 27.4107 95.124C27.7986 90.903 33.0635 92.4803 33.3074 93.0357C33.784 94.1076 32.8197 97.1456 33.1356 98.423L34.1775 92.5136H55.6859C57.0437 107.82 62.6633 122.049 73.2041 133.362C77.2442 137.7 79.5109 138.822 84.3047 141.882L84.2992 141.871Z" fill="#2298D5"/>
<path d="M68.1665 154.039L77.7043 160.471C74.1629 159.782 70.2281 156.916 68.1665 154.039Z" fill="#040506"/>
<path d="M109.105 2.11337C110.047 2.06339 116.348 1.98008 116.565 2.28554C116.415 7.02854 117.989 8.01713 112.403 7.85052L116.565 8.54475V30.7935C113.821 30.5769 109.288 31.0712 106.329 31.6599C82.57 36.3918 62.5247 56.3135 57.5868 80.1563C57.149 82.2612 57.3873 90.5254 55.6803 91.1085C54.8823 91.3807 39.3426 91.6195 38.8549 90.9364L40.0686 73.0307L38.1621 90.9364C37.8462 91.6028 34.0167 91.2141 33.8283 91.1085C33.2907 90.8086 34.183 80.1563 34.3492 78.7678C37.7188 50.5764 59.9643 23.9567 86.0393 13.7543C80.4973 15.0928 74.0021 18.6472 69.2139 21.924C47.4782 36.7917 32.199 64.2389 33.3074 90.9364L27.9316 91.1085C26.862 52.4258 55.7136 15.3927 92.8061 5.23464C97.2009 4.02946 104.683 2.34663 109.111 2.10782L109.105 2.11337Z" fill="#2298D5"/>
<path d="M86.5549 18.4528C86.832 18.4251 87.3253 18.3695 87.4195 18.625C78.0369 22.7071 69.6297 28.4054 61.749 34.9645L66.0829 30.6213C69.1642 28.061 83.2131 18.7972 86.5494 18.4528H86.5549Z" fill="#0A161D"/>
<path d="M50.8256 48.3494L48.2209 54.7807L46.3145 56.6968L50.8256 48.3494Z" fill="#040506"/>
<path d="M135.989 92.5026C141.809 94.9796 147.794 97.5177 154.2 97.7177L152.987 105.021C142.44 133.046 105.636 139.027 87.0759 115.279C63.0957 84.605 96.1315 41.9013 131.656 56.3525C135.335 57.852 148.947 67.2381 149.174 71.1258C149.274 72.8086 134.909 78.8123 133.041 80.3396C120.378 64.7666 95.5053 74.0249 97.8274 94.7686C100.238 116.284 135.169 117.906 135.989 92.5081V92.5026Z" fill="#F06827"/>
<path d="M109.449 59.1294L110.313 59.6515C96.719 63.3281 87.0427 73.9249 84.4712 87.9873C84.6264 74.397 96.6802 62.3895 109.449 59.1294Z" fill="#FFD127"/>
<path d="M149.002 98.0676C151.141 97.962 146.093 108.376 145.705 109.02C143.366 112.93 139.171 116.978 135.469 119.622C134.488 119.056 140.534 114.313 141.194 113.541C145.073 108.986 147.523 103.882 148.997 98.0676H149.002Z" fill="#FFD127"/>
<path d="M120.899 124.487C121.27 124.365 122.805 124.487 122.805 125.009C122.805 126.264 119.053 125.104 120.899 124.487Z" fill="#F5B430"/>
<path d="M192.191 129.352C189.907 133.951 187.103 138.166 184.21 142.387C187.552 139.544 190.162 134.662 192.191 130.741L196.353 131.607L202.249 119.267C190.351 155.6 156.894 180.92 118.471 181.498C116.775 176.177 117.69 175.572 123.154 175.76L117.95 175.066L118.299 153.512C118.698 152.479 127.532 152.057 129.572 151.601C148.442 147.375 164.287 133.934 172.417 116.49L185.424 122.055L192.191 129.358V129.352Z" fill="#2298D5"/>
<path d="M173.63 154.039L170.51 157.866C163.605 162.481 156.55 168.485 148.132 169.862C157.37 165.536 166.332 161.426 173.63 154.045V154.039Z" fill="#040506"/>
<path d="M171.896 148.474C172.927 148.608 172.29 148.941 172.068 149.341C170.727 151.796 158.534 160.104 155.592 161.681C152.843 163.153 149.723 164.392 146.747 165.33C155.725 160.643 165.007 156.15 171.896 148.469V148.474Z" fill="#0A161D"/>
<path d="M188.201 125.881C189.231 126.198 184.055 134.151 183.689 134.923L188.201 125.881Z" fill="#040506"/>
<path d="M118.122 2.1134C139.619 2.3911 161.189 10.6608 177.1 25.0564C179.084 26.8503 189.12 37.6637 189.414 39.4854C189.647 40.9127 188.261 51.5428 187.33 52.698C186.704 53.4756 170.438 61.7841 169.463 61.562C158.584 43.6008 139.453 32.1765 118.466 30.6214L118.117 13.5877L137.719 14.804C135.003 12.4991 119.424 13.821 118.117 12.8935C117.651 12.5602 117.762 8.62253 118.117 8.37261C133.252 7.93941 149.396 12.4491 162.175 20.5411C166.171 23.0737 170.095 27.2002 174.146 29.755L170.156 25.7562C155.669 13.9098 136.97 7.26739 118.117 7.67838V2.1134H118.122Z" fill="#2298D5"/>
<path d="M156.977 22.9738C160.812 24.5844 164.448 26.9725 167.213 30.0994L156.977 22.9738Z" fill="#040506"/>
<path d="M112.918 31.6655C113.711 31.6488 116.205 31.3767 116.559 32.1875V52.0037C116.232 52.7424 108.762 53.2034 107.365 53.5699C91.9418 57.6187 81.9995 70.3315 78.3972 85.3825C78.0702 86.7376 78.5191 90.5975 77.1835 91.1196H57.4097C58.1578 73.7638 67.7953 55.0028 81.3455 44.1839C88.5057 38.469 103.752 31.8321 112.913 31.6655H112.918Z" fill="#FFD127"/>
<path d="M88.2896 44.8726C89.3149 44.8726 88.0957 45.7778 87.9405 45.9167C86.228 47.4884 83.457 48.8658 81.6947 50.4375C71.1206 59.8569 64.9357 71.6144 62.27 85.5491C63.9492 68.9541 74.2462 53.6754 88.2896 44.8726Z" fill="#1E170E"/>
<path d="M57.7587 92.5026H76.8398C78.9901 97.0179 79.1231 102.749 81.1736 107.626C84.8258 116.306 93.8759 124.448 102.51 127.964C107.16 129.858 112.181 130.369 116.908 131.963L116.044 151.607C86.2944 150.518 56.4619 123.171 57.7643 92.5026H57.7587Z" fill="#FFD127"/>
<path d="M68.1665 116.84C77.7209 133.207 92.8671 143.498 111.355 147.258C94.0199 145.131 78.6187 134.406 69.3802 119.794L68.1665 116.84Z" fill="#291A14"/>
<path d="M167.556 114.407C163.095 124.021 155.137 133.529 145.876 138.744C154.954 131.968 162.064 124.41 166.863 114.063C169.285 108.842 170.759 103.666 172.239 98.0731C171.679 103.744 169.939 109.281 167.556 114.413V114.407Z" fill="#1E170E"/>
<path d="M147.439 66.4272C144.923 63.4614 144.28 63.0338 141.193 60.8622C133.845 55.6971 126.823 53.3312 117.95 51.9983L118.471 32.0099C138.522 32.5042 158.423 44.6505 168.255 62.0841L151.08 70.948L150.216 70.7759C149.429 69.2541 148.553 67.7379 147.439 66.4328V66.4272Z" fill="#FFD127"/>
<path d="M147.439 66.4272L141.193 60.8622C144.28 63.0282 144.918 63.4614 147.439 66.4272Z" fill="#DFECDC"/>
<path d="M122.982 36.1808C132.115 37.386 140.622 41.2626 148.132 46.4388C143.748 44.6893 139.891 41.7235 135.468 40.0074C131.389 38.4245 127.011 37.8247 122.977 36.1808H122.982Z" fill="#291A14"/>
<path d="M225.67 34.0981C226.75 33.987 229.211 33.7426 228.446 35.4866C223.198 35.8031 190.722 55.5082 189.07 54.0864C187.419 52.6647 190.827 51.1707 192.019 50.4376C195.881 48.0661 222.81 34.398 225.67 34.0981Z" fill="#F06827"/>
<path d="M229.483 38.269C231.899 37.9358 240.085 43.3508 243.011 43.834V45.2225L203.812 64.6888C201.485 65.0109 199.706 63.4503 199.65 61.2121L198.958 62.9504L191.498 58.6073L229.483 38.269Z" fill="#F38444"/>
<path d="M215.955 47.655L222.716 53.0423L218.382 50.4375L215.955 47.655Z" fill="#6E4620"/>
<path d="M224.279 43.484L231.389 48.177C229.089 47.2051 225.731 45.3557 224.279 43.484Z" fill="#6E4620"/>
<path d="M199.65 55.9969L206.068 61.7341C203.807 60.9677 200.615 58.1352 199.65 55.9969Z" fill="#563A1D"/>
<path d="M212.485 49.7433L217.861 53.7421C216.198 53.1256 212.873 51.4872 212.485 49.7433Z" fill="#482E1B"/>
<path d="M220.117 46.6109C220.466 46.5943 224.423 49.1657 225.149 49.5656L219.773 47.3052C219.413 47.1274 220.078 46.6109 220.122 46.6109H220.117Z" fill="#3F241A"/>
<path d="M221.852 44.8726L225.149 46.7831C224.118 46.8275 222.04 45.9056 221.852 44.8726Z" fill="#6E4620"/>
<path d="M236.771 42.0956L240.412 44.0061C239.231 44.3449 237.286 43.0897 236.771 42.0956Z" fill="#482E1B"/>
<path d="M206.932 53.22C207.946 53.1867 208.938 54.4197 209.531 55.1305C208.717 54.9917 207.082 54.142 206.932 53.22Z" fill="#482E1B"/>
<path d="M210.751 54.6084L213.35 56.5189C213.112 57.1909 210.124 55.5081 210.751 54.6084Z" fill="#563A1D"/>
<path d="M228.441 40.3572C229.56 40.4405 230.652 41.1014 231.389 41.9234C231.206 42.4676 228.546 40.7515 228.441 40.3572Z" fill="#7F531F"/>
<path d="M206.589 56.3468C207.104 57.1688 208.927 57.963 208.673 59.1293C208.157 58.3073 206.334 57.5131 206.589 56.3468Z" fill="#482E1B"/>
<path d="M227.055 41.3958C227.947 41.3458 228.651 42.1456 229.311 42.6121C229.111 43.2341 226.9 42.0067 227.055 41.3958Z" fill="#6E4620"/>
<path d="M230.524 39.3131L232.78 40.5294C232.592 41.1348 230.269 40.0851 230.524 39.3131Z" fill="#6E4620"/>
<path d="M231.217 42.7898L233.817 44.356C233.235 44.5393 230.824 43.6451 231.217 42.7898Z" fill="#482E1B"/>
<path d="M196.181 60.1735C196.973 60.329 197.583 60.7899 198.087 61.3898C197.938 61.8896 195.92 60.8399 196.181 60.1735Z" fill="#563A1D"/>
<path d="M235.036 45.2224C235.828 45.3779 236.438 45.8389 236.942 46.4387C236.793 46.9386 234.775 45.8889 235.036 45.2224Z" fill="#7F531F"/>
<path d="M201.036 61.9117C201.712 62.0284 203.258 63.1669 202.421 63.6501L201.036 61.9117Z" fill="#413214"/>
<path d="M209.36 52.1759L210.923 53.0423C210.679 53.6255 209.149 52.8812 209.36 52.1759Z" fill="#563A1D"/>
<path d="M197.567 57.391C197.655 57.3577 199.429 58.4573 198.608 58.7795C198.52 58.8128 196.752 57.7187 197.567 57.391Z" fill="#7F531F"/>
<path d="M203.64 54.9583C203.579 54.7306 203.762 54.5473 203.989 54.6084C204.422 54.7251 204.97 55.1916 204.51 55.6526C204.427 55.3638 203.657 55.0139 203.646 54.9583H203.64Z" fill="#2B2426"/>
<path d="M203.984 54.6084C203.757 54.5473 203.579 54.7251 203.635 54.9583C202.776 54.7195 203.635 53.7087 203.984 54.6084Z" fill="#824F29"/>
<path d="M213.527 48.3492L214.048 48.527L213.871 49.049L213.699 48.8713L213.527 48.3492Z" fill="#A07229"/>
<path d="M230.176 17.7587C230.929 18.0086 229.372 32.4653 228.441 33.054C228.28 33.1595 225.554 33.054 224.622 33.4039C212.436 37.9914 201.418 45.5835 189.409 50.6153C189.675 47.7273 189.398 39.5743 190.972 37.5804L230.17 17.7642L230.176 17.7587Z" fill="#FFE143"/>
<path d="M227.405 20.5411L226.019 32.0154C225.437 32.0154 226.717 21.3409 227.405 20.5411Z" fill="#6F5725"/>
<path d="M206.589 31.3157C207.298 34.6036 206.228 38.5857 205.203 41.7458L206.589 31.3157Z" fill="#7E662D"/>
<path d="M197.223 36.8806C197.766 37.7637 196.879 46.4388 196.181 46.2666L197.223 36.8806Z" fill="#977A30"/>
<path d="M218.033 26.7948C218.615 29.3329 217.479 32.5764 216.991 35.1367L218.033 26.7948Z" fill="#6F5725"/>
<path d="M202.078 34.4425C202.637 37.0195 201.767 39.6354 201.036 42.0902L202.078 34.4425Z" fill="#6F5725"/>
<path d="M194.097 41.0515C194.43 41.0515 194.552 47.0997 193.748 47.6551C193.233 45.4502 193.992 43.262 194.097 41.0515Z" fill="#977A30"/>
<path d="M190.977 42.7899C191.165 44.3228 191.116 47.0053 190.284 48.3549C190.185 46.511 190.506 44.5672 190.977 42.7899Z" fill="#6D602F"/>
<path d="M191.67 37.9192C192.723 38.6301 192.235 41.196 191.67 42.0901C191.382 40.7683 191.382 39.241 191.67 37.9192Z" fill="#7E662D"/>
<path d="M228.441 26.4504C228.552 27.3502 229.117 29.7217 228.092 30.2771C227.898 29.1774 227.526 27.3224 228.441 26.4504Z" fill="#A07229"/>
<path d="M212.485 28.5332C212.979 28.611 212.508 32.4487 212.136 33.054C211.743 33.0485 211.942 29.0608 212.485 28.5332Z" fill="#7E662D"/>
<path d="M223.935 22.9738C224.439 24.2623 223.88 25.5563 223.586 26.8004C223.27 26.7893 223.259 23.468 223.935 22.9738Z" fill="#977A30"/>
<path d="M221.502 27.1447C222.001 27.5501 221.746 32.0098 221.502 32.0098C221.214 30.4492 221.214 28.7053 221.502 27.1447Z" fill="#A68930"/>
<path d="M197.916 42.4401C198.082 43.0399 198.52 45.067 197.567 45.2226C197.301 44.395 197.107 43.0454 197.916 42.4401Z" fill="#7E662D"/>
<path d="M211.095 35.1422C211.377 35.892 211.194 38.1469 210.402 38.6189C210.69 37.4693 210.33 36.1752 211.095 35.1422Z" fill="#7E662D"/>
<path d="M207.282 36.8806C207.841 37.0472 207.437 40.0074 207.282 40.0074C206.993 39.0799 206.993 37.8137 207.282 36.8806Z" fill="#7E662D"/>
<path d="M215.262 33.7483C215.644 33.8427 214.935 36.2364 214.913 36.5308C214.663 36.5308 214.481 34.0149 215.262 33.7483Z" fill="#7E662D"/>
<path d="M221.159 33.4039C221.685 33.215 221.923 33.9148 221.508 34.0981C220.998 34.3203 220.743 33.5538 221.159 33.4039Z" fill="#7E662D"/>
<path d="M202.77 41.3959C203.197 41.1015 203.225 42.7288 202.77 42.44C202.504 42.2734 202.471 41.6014 202.77 41.3959Z" fill="#312B13"/>
<path d="M187.851 53.5645C188.472 53.6589 189.652 56.2636 188.544 56.6913L149.517 76.3353L188.544 57.0412L189.758 57.9076C188.544 58.624 187.33 59.4627 186.117 60.168C169.413 69.8873 142.34 84.1829 124.711 91.4585C117.241 94.5409 113.167 92.8081 121.242 87.2875L187.851 53.5645Z" fill="#E5F2F6"/>
<path d="M148.653 76.5131L136.161 83.4665L122.112 89.8979C130.736 84.9938 139.974 81.3172 148.653 76.5131Z" fill="#2E3C45"/>
<path d="M228.441 35.8365C230.924 36.5363 225.243 39.6354 224.622 40.0075C219.491 43.1066 196.164 55.936 191.664 57.0412C190.966 57.2134 190.229 57.6244 189.758 56.869L189.409 55.1307L228.435 35.8365H228.441Z" fill="#F06827"/>
<path d="M190.628 55.9971C190.75 55.9138 191.393 55.9416 191.493 56.1693C191.753 56.7469 189.508 56.7524 190.628 55.9971Z" fill="#4B1A1D"/>
</g>
<defs>
<clipPath id="clip0_1047_22122">
<rect width="245" height="182.095" fill="white" transform="translate(0 0.452759)"/>
</clipPath>
</defs>
</svg>
