<svg width="24" height="25" viewBox="0 0 24 25" fill="none" xmlns="http://www.w3.org/2000/svg">
<path d="M5.83163 7.92444C5.83163 4.51439 8.5933 1.75 12 1.75C15.4067 1.75 18.1684 4.51439 18.1684 7.92444C18.1684 9.63807 18.2036 10.9544 18.4163 12.0256C18.7423 11.0083 19.5056 9.99916 20.4979 8.97725C20.7864 8.68023 21.2607 8.67349 21.5574 8.96219C21.8542 9.2509 21.8609 9.72573 21.5725 10.0227C20.1462 11.4916 19.6711 12.4956 19.751 13.2458C19.8276 13.9655 20.4647 14.8141 22.3486 15.8414C22.7662 16.0691 22.7717 16.5913 22.7368 17.0072C22.71 17.327 22.4829 17.5942 22.1719 17.6721C21.0763 17.9462 20.5606 18.1861 20.2306 18.5164C19.9005 18.8468 19.6609 19.363 19.387 20.4597C19.3036 20.7936 19.0039 21.0278 18.6601 21.0278C16.8964 21.0278 15.9218 21.5204 15.0984 22.0276C14.9893 22.0948 14.8785 22.1659 14.765 22.2388L14.765 22.2389C14.0334 22.7087 13.1904 23.25 12 23.25C10.8096 23.25 9.9666 22.7087 9.23502 22.2389C9.12151 22.166 9.01068 22.0948 8.90165 22.0276C8.07816 21.5204 7.10358 21.0278 5.3399 21.0278C4.99608 21.0278 4.69639 20.7936 4.61301 20.4597C4.3391 19.363 4.09951 18.8468 3.76945 18.5164C3.43939 18.1861 2.92374 17.9462 1.82812 17.6721C1.51712 17.5942 1.29004 17.327 1.26321 17.0072C1.22832 16.5913 1.23381 16.0691 1.65141 15.8414C3.53529 14.8141 4.17237 13.9655 4.24902 13.2458C4.32891 12.4956 3.85381 11.4916 2.42752 10.0227C2.13909 9.72573 2.14583 9.2509 2.44256 8.96219C2.73929 8.67349 3.21365 8.68023 3.50207 8.97725C4.49438 9.99916 5.25772 11.0083 5.58367 12.0256C5.79643 10.9544 5.83163 9.63807 5.83163 7.92444Z" fill="#FFFC00" stroke="black" stroke-width="0.5" stroke-linecap="round"/>
</svg>
