<svg width="40" height="40" viewBox="0 0 40 40" fill="none" xmlns="http://www.w3.org/2000/svg">
<path d="M20.0949 2.08325H19.9051C16.45 2.08323 13.7295 2.08321 11.6039 2.36899C9.42294 2.66221 7.68213 3.27676 6.31282 4.64607C4.94351 6.01538 4.32896 7.75619 4.03574 9.93716C3.74996 12.0627 3.74998 14.7833 3.75 18.2383V18.4282C3.74998 21.8832 3.74996 24.6038 4.03574 26.7294C4.32896 28.9103 4.94351 30.6511 6.31282 32.0204C7.2402 32.9478 8.34572 33.5357 9.65934 33.9078C10.3236 34.0959 11.0145 33.71 11.2027 33.0458C11.3908 32.3816 11.0049 31.6906 10.3407 31.5024C9.35737 31.2239 8.65219 30.8243 8.08058 30.2527C7.2532 29.4253 6.76939 28.3 6.51344 26.3962C6.25266 24.4565 6.25 21.9041 6.25 18.3333C6.25 14.7624 6.25266 12.21 6.51344 10.2703C6.76939 8.36653 7.2532 7.24122 8.08058 6.41384C8.90797 5.58645 10.0333 5.10265 11.937 4.84669C13.8767 4.58591 16.4291 4.58325 20 4.58325C23.5709 4.58325 26.1233 4.58591 28.063 4.84669C29.9667 5.10265 31.092 5.58645 31.9194 6.41384C32.7468 7.24122 33.2306 8.36653 33.4866 10.2703C33.7473 12.21 33.75 14.7624 33.75 18.3333C33.75 21.9041 33.7473 24.4565 33.4866 26.3962C33.2306 28.3 32.7468 29.4253 31.9194 30.2527C31.3478 30.8243 30.6426 31.2239 29.6593 31.5024C28.9951 31.6906 28.6092 32.3816 28.7973 33.0458C28.9855 33.71 29.6764 34.0959 30.3407 33.9078C31.6543 33.5357 32.7598 32.9478 33.6872 32.0204C35.0565 30.6511 35.671 28.9103 35.9643 26.7294C36.25 24.6038 36.25 21.8832 36.25 18.4282V18.2383C36.25 14.7833 36.25 12.0627 35.9643 9.93716C35.671 7.75619 35.0565 6.01538 33.6872 4.64607C32.3179 3.27676 30.5771 2.66221 28.3961 2.36899C26.2705 2.08321 23.55 2.08323 20.0949 2.08325Z" fill="#0F2837"/>
<path fill-rule="evenodd" clip-rule="evenodd" d="M22.9244 22.1962C22.1525 22.0831 21.1033 22.0832 20 22.0833C18.8968 22.0832 17.8476 22.0831 17.0756 22.1962C16.2355 22.3193 15.4426 22.5981 14.8112 23.2862C14.1939 23.9589 13.9573 24.7777 13.8509 25.6398C13.7499 26.4587 13.75 27.4866 13.75 28.7043L13.75 34.0953C13.7499 34.8139 13.7499 35.4657 13.8107 35.9666C13.8672 36.4311 14.0179 37.227 14.741 37.6878C14.8195 37.7378 14.9033 37.7789 14.9908 37.8102C15.7701 38.0897 16.4916 37.7652 16.9368 37.4984C17.4276 37.2043 17.9536 36.7548 18.5102 36.2186C19.0909 35.6592 19.4385 35.328 19.7196 35.1213C19.8482 35.0268 19.9241 34.9885 19.9627 34.973C19.9921 34.9612 20.0005 34.9627 20.0005 34.9627C20.0005 34.9627 20.0102 34.9621 20.0373 34.973C20.076 34.9885 20.1518 35.0268 20.2804 35.1213C20.5616 35.328 20.9091 35.6592 21.4898 36.2186C22.0464 36.7548 22.5725 37.2043 23.0633 37.4984C23.5084 37.7652 24.2299 38.0897 25.0092 37.8103C25.0968 37.7789 25.1806 37.7378 25.259 37.6878C25.9821 37.227 26.1329 36.4311 26.1893 35.9666C26.2502 35.4657 26.2501 34.8139 26.25 34.0953L26.25 28.7043C26.2501 27.4867 26.2501 26.4587 26.1491 25.6398C26.0427 24.7777 25.8061 23.9589 25.1888 23.2862C24.5575 22.5981 23.7645 22.3193 22.9244 22.1962ZM16.6533 24.9764C16.7542 24.8664 16.9166 24.7462 17.4381 24.6698C18.0073 24.5864 18.7831 24.5833 20 24.5833C21.2169 24.5833 21.9928 24.5864 22.562 24.6698C23.0834 24.7462 23.2459 24.8664 23.3467 24.9764C23.4617 25.1017 23.5912 25.3241 23.6679 25.9459C23.7478 26.5934 23.75 27.4656 23.75 28.7825V34.0201C23.75 34.3663 23.7496 34.6548 23.7461 34.8974C23.5932 34.7652 23.3671 34.5557 23.1714 34.3672C22.6615 33.8759 22.1932 33.4246 21.7611 33.107C21.2834 32.7559 20.7143 32.4627 20 32.4627C19.2857 32.4627 18.7166 32.7559 18.239 33.107C17.8069 33.4246 17.3385 33.8759 16.8286 34.3672C16.6329 34.5557 16.4068 34.7652 16.2539 34.8974C16.2504 34.6548 16.25 34.3663 16.25 34.0201V28.7825C16.25 27.4656 16.2523 26.5934 16.3321 25.9459C16.4088 25.3241 16.5383 25.1017 16.6533 24.9764Z" fill="#0F2837"/>
<g opacity="0.4">
<path d="M13.3333 8.75C12.6429 8.75 12.0833 9.30964 12.0833 10C12.0833 10.6904 12.6429 11.25 13.3333 11.25H19.9999C20.6903 11.25 21.2499 10.6904 21.2499 10C21.2499 9.30964 20.6903 8.75 19.9999 8.75H13.3333Z" fill="#0F2837"/>
<path d="M13.3333 15.4167C12.6429 15.4167 12.0833 15.9763 12.0833 16.6667C12.0833 17.357 12.6429 17.9167 13.3333 17.9167H26.6666C27.3569 17.9167 27.9166 17.357 27.9166 16.6667C27.9166 15.9763 27.3569 15.4167 26.6666 15.4167H13.3333Z" fill="#0F2837"/>
</g>
</svg>
