<svg width="25" height="24" viewBox="0 0 25 24" fill="none" xmlns="http://www.w3.org/2000/svg">
<path d="M16.4961 7C16.4961 6.44772 16.9438 6 17.4961 6H17.5051C18.0574 6 18.5051 6.44772 18.5051 7C18.5051 7.55228 18.0574 8 17.5051 8H17.4961C16.9438 8 16.4961 7.55228 16.4961 7Z" fill="#0F1113"/>
<path fill-rule="evenodd" clip-rule="evenodd" d="M21.1204 1.77536C21.5188 1.82567 21.8886 1.96638 22.2111 2.28884C22.5335 2.61131 22.6742 2.98107 22.7245 3.37953C22.7671 3.71633 22.7476 4.11201 22.7276 4.51882L22.7251 4.56943C22.6057 7.01036 21.8693 9.40045 20.0264 11.2434L18.5408 12.7289C17.8925 13.3773 17.6068 13.6753 17.4658 13.9507C17.368 14.1418 17.3201 14.3634 17.4288 14.9351L17.4342 14.9569C17.5534 15.4333 17.6974 16.0084 17.6984 16.5654C17.6996 17.179 17.5295 17.8183 16.9881 18.3597C16.4716 18.8762 15.8643 19.2499 15.1559 19.2499C14.4476 19.2499 13.8402 18.8762 13.3237 18.3597L6.14025 11.1762C5.62372 10.6597 5.25001 10.0523 5.25 9.34399C5.24999 8.63564 5.6237 8.0283 6.14024 7.51175C6.68163 6.97037 7.32087 6.80032 7.93448 6.80148C8.49153 6.80254 9.0666 6.94647 9.54302 7.06571L9.56475 7.07114C10.1365 7.17981 10.3581 7.13194 10.5492 7.03411C10.8246 6.89305 11.1226 6.60738 11.771 5.95906L13.2565 4.47348C15.0994 2.63057 17.4895 1.8942 19.9305 1.77479L19.9811 1.7723C20.3879 1.7523 20.7836 1.73284 21.1204 1.77536ZM20.9325 3.26355C20.7422 3.23952 20.4807 3.24966 20.0038 3.27299C17.8095 3.38034 15.8197 4.03163 14.3172 5.53414L12.7573 7.09403C12.2142 7.63769 11.7457 8.10664 11.2328 8.36925C10.6145 8.68588 10.0015 8.68354 9.26046 8.54012C9.24725 8.53756 9.23411 8.53465 9.22106 8.53139C8.69174 8.39905 8.28666 8.30216 7.93163 8.30148C7.61673 8.30088 7.39662 8.3767 7.20091 8.57241C6.82333 8.94998 6.75 9.19748 6.75 9.34398C6.75 9.49048 6.82334 9.73797 7.20091 10.1155L14.3844 17.299C14.7619 17.6766 15.0094 17.7499 15.1559 17.7499C15.3024 17.7499 15.5499 17.6766 15.9275 17.299C16.1232 17.1033 16.199 16.8832 16.1984 16.5683C16.1977 16.2132 16.1008 15.8082 15.9685 15.2788C15.9652 15.2658 15.9623 15.2526 15.9598 15.2394C15.8164 14.4984 15.814 13.8854 16.1306 13.2671C16.3933 12.7542 16.8622 12.2857 17.4059 11.7426L18.9658 10.1827C20.4683 8.68019 21.1196 6.69043 21.2269 4.49614C21.2502 4.01922 21.2604 3.75774 21.2363 3.56741C21.2183 3.42479 21.1894 3.38847 21.1504 3.3495C21.1114 3.31053 21.0751 3.28156 20.9325 3.26355Z" fill="#0F1113"/>
<path d="M8.53033 17.0303C8.82322 16.7374 8.82322 16.2626 8.53033 15.9697C8.23744 15.6768 7.76256 15.6768 7.46967 15.9697L2.46967 20.9697C2.17678 21.2626 2.17678 21.7374 2.46967 22.0303C2.76256 22.3232 3.23744 22.3232 3.53033 22.0303L8.53033 17.0303Z" fill="#0F1113"/>
<path d="M11.5303 18.9697C11.8232 19.2626 11.8232 19.7374 11.5303 20.0303L9.53033 22.0303C9.23744 22.3232 8.76256 22.3232 8.46967 22.0303C8.17678 21.7374 8.17678 21.2626 8.46967 20.9697L10.4697 18.9697C10.7626 18.6768 11.2374 18.6768 11.5303 18.9697Z" fill="#0F1113"/>
<path d="M5.53033 14.0303C5.82322 13.7374 5.82322 13.2626 5.53033 12.9697C5.23744 12.6768 4.76256 12.6768 4.46967 12.9697L2.46967 14.9697C2.17678 15.2626 2.17678 15.7374 2.46967 16.0303C2.76256 16.3232 3.23744 16.3232 3.53033 16.0303L5.53033 14.0303Z" fill="#0F1113"/>
</svg>
