<svg width="21" height="21" viewBox="0 0 21 21" fill="none" xmlns="http://www.w3.org/2000/svg">
<path d="M14.2461 5.25C14.2461 4.69772 14.6938 4.25 15.2461 4.25H15.2551C15.8074 4.25 16.2551 4.69772 16.2551 5.25C16.2551 5.80228 15.8074 6.25 15.2551 6.25H15.2461C14.6938 6.25 14.2461 5.80228 14.2461 5.25Z" fill="#ffff"/>
<path fill-rule="evenodd" clip-rule="evenodd" d="M18.8704 0.0253631C19.2688 0.0756667 19.6386 0.216379 19.9611 0.538842C20.2835 0.861306 20.4242 1.23107 20.4745 1.62953C20.5171 1.96633 20.4976 2.36201 20.4776 2.76882L20.4751 2.81943C20.3557 5.26036 19.6193 7.65045 17.7764 9.49337L16.2908 10.9789C15.6425 11.6273 15.3568 11.9253 15.2158 12.2007C15.118 12.3918 15.0701 12.6134 15.1788 13.1851L15.1842 13.2069C15.3034 13.6833 15.4474 14.2584 15.4484 14.8154C15.4496 15.429 15.2795 16.0683 14.7381 16.6097C14.2216 17.1262 13.6143 17.4999 12.9059 17.4999C12.1976 17.4999 11.5902 17.1262 11.0737 16.6097L3.89025 9.42619C3.37372 8.90967 3.00001 8.30233 3 7.59399C2.99999 6.88564 3.3737 6.2783 3.89024 5.76175C4.43163 5.22037 5.07087 5.05032 5.68448 5.05148C6.24153 5.05254 6.8166 5.19647 7.29302 5.31571L7.31475 5.32114C7.88647 5.42981 8.10811 5.38194 8.29917 5.28411C8.57464 5.14305 8.87263 4.85738 9.52096 4.20906L11.0065 2.72348C12.8494 0.880566 15.2395 0.144196 17.6805 0.0247856L17.7311 0.0223024C18.1379 0.0022999 18.5336 -0.0171558 18.8704 0.0253631ZM18.6825 1.51355C18.4922 1.48952 18.2307 1.49966 17.7538 1.52299C15.5595 1.63034 13.5697 2.28163 12.0672 3.78414L10.5073 5.34403C9.96419 5.88769 9.49569 6.35664 8.98284 6.61925C8.36449 6.93588 7.75149 6.93354 7.01046 6.79012C6.99725 6.78756 6.98411 6.78465 6.97106 6.78139C6.44174 6.64905 6.03666 6.55216 5.68163 6.55148C5.36673 6.55088 5.14662 6.6267 4.95091 6.82241C4.57333 7.19998 4.5 7.44748 4.5 7.59398C4.5 7.74048 4.57334 7.98797 4.95091 8.36553L12.1344 15.549C12.5119 15.9266 12.7594 15.9999 12.9059 15.9999C13.0524 15.9999 13.2999 15.9266 13.6775 15.549C13.8732 15.3533 13.949 15.1332 13.9484 14.8183C13.9477 14.4632 13.8508 14.0582 13.7185 13.5288C13.7152 13.5158 13.7123 13.5026 13.7098 13.4894C13.5664 12.7484 13.564 12.1354 13.8806 11.5171C14.1433 11.0042 14.6122 10.5357 15.1559 9.99255L16.7158 8.4327C18.2183 6.93019 18.8696 4.94043 18.9769 2.74614C19.0002 2.26922 19.0104 2.00774 18.9863 1.81741C18.9683 1.67479 18.9394 1.63847 18.9004 1.5995C18.8614 1.56053 18.8251 1.53156 18.6825 1.51355Z" fill="#ffff"/>
<path d="M6.28033 15.2803C6.57322 14.9874 6.57322 14.5126 6.28033 14.2197C5.98744 13.9268 5.51256 13.9268 5.21967 14.2197L0.21967 19.2197C-0.0732233 19.5126 -0.0732233 19.9874 0.21967 20.2803C0.512563 20.5732 0.987437 20.5732 1.28033 20.2803L6.28033 15.2803Z" fill="#ffff"/>
<path d="M9.28033 17.2197C9.57322 17.5126 9.57322 17.9874 9.28033 18.2803L7.28033 20.2803C6.98744 20.5732 6.51256 20.5732 6.21967 20.2803C5.92678 19.9874 5.92678 19.5126 6.21967 19.2197L8.21967 17.2197C8.51256 16.9268 8.98744 16.9268 9.28033 17.2197Z" fill="#ffff"/>
<path d="M3.28033 12.2803C3.57322 11.9874 3.57322 11.5126 3.28033 11.2197C2.98744 10.9268 2.51256 10.9268 2.21967 11.2197L0.21967 13.2197C-0.0732233 13.5126 -0.0732233 13.9874 0.21967 14.2803C0.512563 14.5732 0.987437 14.5732 1.28033 14.2803L3.28033 12.2803Z" fill="#ffff"/>
</svg>
