<svg width="24" height="25" viewBox="0 0 24 25" fill="none" xmlns="http://www.w3.org/2000/svg">
<path d="M14.7041 20.1345L14.7041 20.1344L12.0442 17.1103C10.7274 15.6131 10.5714 14.9552 10.6581 14.8134L11.6564 14.0094L15.7027 10.8444C16.029 10.5892 16.0866 10.1179 15.8314 9.79159C15.5762 9.46533 15.1048 9.40772 14.7785 9.66292L10.728 12.8311L9.50989 13.8253C9.22553 14.1305 9.04418 14.6524 9.24197 15.3946C9.42654 16.0872 9.94427 17.0026 11.0466 18.2593L10.6395 19.0622C10.3765 19.4277 10.1324 19.7671 9.90771 19.9997C9.68445 20.2308 9.27877 20.5705 8.71374 20.4581C8.15614 20.3472 7.90592 19.8862 7.78203 19.5904C7.65621 19.2899 7.54964 18.8824 7.43402 18.4404L6.93252 16.5239C6.65396 15.4594 6.55777 15.1534 6.37651 14.9282C6.35363 14.8998 6.3298 14.8723 6.30509 14.8459C6.11372 14.641 5.84345 14.5149 4.8535 14.1181L4.79927 14.0963C3.82368 13.7053 3.02006 13.3832 2.45798 13.0667C1.91344 12.7601 1.3254 12.3144 1.25775 11.5623C1.24724 11.4454 1.24742 11.3278 1.25829 11.2109C1.32825 10.459 1.91775 10.0152 2.46325 9.71037C3.02632 9.39576 3.83094 9.07633 4.80773 8.68854L16.7918 3.93052C18.0177 3.44379 19.02 3.04579 19.8076 2.86434C20.6106 2.67935 21.4401 2.65976 22.0901 3.26101C22.7273 3.85039 22.8036 4.68068 22.7242 5.51747C22.6454 6.3477 22.3864 7.42742 22.0669 8.7593L19.6472 18.8463L19.6472 18.8464C19.4436 19.6954 19.2717 20.4121 19.0655 20.9321C18.8573 21.4575 18.5233 22.0216 17.8484 22.2001C17.1654 22.3807 16.6009 22.044 16.1719 21.6809C15.7505 21.3243 15.2699 20.7779 14.7041 20.1345Z" fill="#0E2C43"/>
</svg>
