<svg width="128" height="128" viewBox="0 0 128 128" fill="none" xmlns="http://www.w3.org/2000/svg">
<path d="M64 2C98.2417 2 126 29.7583 126 64C126 98.2417 98.2417 126 64 126C29.7583 126 2 98.2417 2 64C2 29.7583 29.7583 2 64 2Z" fill="#F3F4F6" stroke="white" stroke-width="4"/>
<path fill-rule="evenodd" clip-rule="evenodd" d="M63.9995 28.1667C54.3346 28.1667 46.4995 36.0017 46.4995 45.6667C46.4995 55.3317 54.3346 63.1667 63.9995 63.1667C73.6645 63.1667 81.4995 55.3317 81.4995 45.6667C81.4995 36.0017 73.6645 28.1667 63.9995 28.1667ZM51.4995 45.6667C51.4995 38.7631 57.096 33.1667 63.9995 33.1667C70.9031 33.1667 76.4995 38.7631 76.4995 45.6667C76.4995 52.5702 70.9031 58.1667 63.9995 58.1667C57.096 58.1667 51.4995 52.5702 51.4995 45.6667Z" fill="#161616"/>
<path fill-rule="evenodd" clip-rule="evenodd" d="M84.7624 74.264C84.2203 73.9582 83.7415 73.688 83.3539 73.4572C71.5071 66.4031 56.4932 66.4031 44.6463 73.4572C44.2586 73.6881 43.7797 73.9583 43.2375 74.2642C40.8615 75.6047 37.2698 77.631 34.8092 80.0395C33.2703 81.5458 31.8081 83.5307 31.5423 85.9625C31.2596 88.5487 32.3878 90.9756 34.6512 93.1319C38.556 96.8521 43.242 99.8333 49.303 99.8333H78.6972C84.7583 99.8333 89.4442 96.8521 93.349 93.1319C95.6124 90.9756 96.7406 88.5487 96.4579 85.9625C96.1921 83.5307 94.73 81.5458 93.1911 80.0395C90.7305 77.631 87.1384 75.6045 84.7624 74.264ZM47.2044 77.7533C57.475 71.6378 70.5253 71.6378 80.7958 77.7533C81.3555 78.0865 81.9687 78.4344 82.611 78.7988C84.9864 80.1464 87.7599 81.72 89.6936 83.6126C90.894 84.7876 91.4057 85.7569 91.4876 86.5058C91.5525 87.1004 91.4022 88.0808 89.9001 89.5118C86.4473 92.8014 82.9387 94.8333 78.6972 94.8333H49.303C45.0615 94.8333 41.5529 92.8014 38.1001 89.5118C36.598 88.0808 36.4477 87.1004 36.5127 86.5058C36.5946 85.7569 37.1063 84.7876 38.3067 83.6126C40.2403 81.72 43.0137 80.1465 45.3891 78.7989C46.0313 78.4346 46.6449 78.0865 47.2044 77.7533Z" fill="#161616"/>
</svg>
