<svg width="22" height="22" viewBox="0 0 22 22" fill="none" xmlns="http://www.w3.org/2000/svg">
<path fill-rule="evenodd" clip-rule="evenodd" d="M10.9428 0.75L11.0572 0.75C13.2479 0.749987 14.9686 0.749977 16.312 0.930594C17.6886 1.11568 18.7809 1.50271 19.6391 2.36091C20.4973 3.21911 20.8843 4.31137 21.0694 5.68802C21.25 7.03144 21.25 8.75214 21.25 10.9428V11.0572C21.25 13.2479 21.25 14.9686 21.0694 16.312C20.8843 17.6886 20.4973 18.7809 19.6391 19.6391C18.7809 20.4973 17.6886 20.8843 16.312 21.0694C14.9686 21.25 13.2479 21.25 11.0572 21.25H10.9428C8.7521 21.25 7.03144 21.25 5.68802 21.0694C4.31137 20.8843 3.21911 20.4973 2.36091 19.6391C1.50272 18.7809 1.11568 17.6886 0.930594 16.312C0.749977 14.9686 0.749987 13.2479 0.75 11.0572L0.75 10.9428C0.749987 8.75213 0.749977 7.03144 0.930594 5.68802C1.11568 4.31137 1.50272 3.21911 2.36091 2.36091C3.21911 1.50271 4.31137 1.11568 5.68802 0.930594C7.03143 0.749977 8.75214 0.749987 10.9428 0.75ZM13.3077 5.42857C13.3077 4.91574 12.8944 4.5 12.3846 4.5C11.8748 4.5 11.4615 4.91574 11.4615 5.42857L11.4615 13.3214C11.4615 14.6035 10.4283 15.6429 9.15385 15.6429C7.87934 15.6429 6.84615 14.6035 6.84615 13.3214C6.84615 12.0393 7.87934 11 9.15385 11C9.26668 11 9.3771 11.0081 9.48468 11.0236C9.98934 11.0962 10.457 10.7435 10.5292 10.2358C10.6013 9.72816 10.2508 9.25774 9.74609 9.18513C9.55219 9.15723 9.35442 9.14286 9.15385 9.14286C6.85974 9.14286 5 11.0137 5 13.3214C5 15.6292 6.85974 17.5 9.15385 17.5C11.448 17.5 13.3077 15.6292 13.3077 13.3214L13.3077 8.69915C14.1074 9.26172 15.0922 9.60714 16.0769 9.60714C16.5867 9.60714 17 9.19141 17 8.67857C17 8.16574 16.5867 7.75 16.0769 7.75C15.421 7.75 14.7034 7.47606 14.1534 7.01397C13.6041 6.55253 13.3077 5.98166 13.3077 5.42857Z" fill="#0F1113"/>
</svg>
