<svg width="49" height="31" viewBox="0 0 49 31" fill="none" xmlns="http://www.w3.org/2000/svg">
<path d="M4.26416 26.2934C7.03063 28.9828 10.6693 30.3275 15.1785 30.3275C20.0488 30.3275 23.6391 29.0599 25.9509 26.5264C25.9977 26.4749 26.0348 26.43 26.0751 26.3834C28.8286 29.0117 32.4351 30.3275 36.8927 30.3275C41.763 30.3275 45.3533 29.0599 47.6651 26.5264C47.9489 26.2163 48.0907 25.9946 48.0907 25.8596C48.0907 25.376 47.6216 24.245 46.6833 22.4633C46.3238 21.7805 46.003 21.215 45.7225 20.7651C45.2453 20.0004 44.2554 19.7755 43.5058 20.2591C43.1994 20.4567 42.8915 20.6559 42.5852 20.8535C42.5417 20.8824 42.4965 20.9081 42.4498 20.9338C40.7683 21.8367 39.0949 22.2898 37.4311 22.2898C36.0286 22.2898 34.7775 22.0199 33.6796 21.4769C33.6667 21.4704 33.6522 21.464 33.6393 21.4576C32.1884 20.7362 32.6495 18.4966 34.2584 18.3617C37.2312 18.1143 39.5689 17.8958 41.2697 17.703C44.9841 17.3158 46.9445 17.1037 47.1541 17.0652C48.3858 16.7953 49.0016 15.6819 49.0016 13.7283C49.0016 9.99458 47.7312 6.77337 45.1937 4.06306C42.6529 1.35435 39.564 0 35.9254 0C31.6048 0 28.137 1.47003 25.5221 4.41169C25.2142 4.7571 24.9256 5.11537 24.6548 5.48328C24.2985 4.99488 23.9083 4.52094 23.4779 4.06306C20.9387 1.35435 17.8498 0 14.2112 0C9.8906 0 6.42446 1.47003 3.80792 4.41169C1.26877 7.25535 0 10.9023 0 15.3525C0 19.8028 1.42031 23.5654 4.26416 26.2934ZM12.5442 18.3617C15.517 18.1143 17.8547 17.8958 19.5555 17.703C20.4051 17.6146 21.1596 17.5359 21.827 17.4652C21.9222 18.3665 22.0785 19.2308 22.301 20.0502C22.1253 20.0904 21.9544 20.1546 21.7932 20.2591C21.4869 20.4567 21.1789 20.6559 20.8726 20.8535C20.8291 20.8824 20.784 20.9081 20.7372 20.9338C19.0557 21.8367 17.3823 22.2898 15.7186 22.2898C14.316 22.2898 13.0649 22.0199 11.9671 21.4769C11.9542 21.4704 11.9397 21.464 11.9268 21.4576C10.4758 20.7362 10.9369 18.4966 12.5458 18.3617" fill="#1685C6"/>
</svg>
