<svg width="24" height="25" viewBox="0 0 24 25" fill="none" xmlns="http://www.w3.org/2000/svg">
<path d="M7.38764 11.4445H6.38713C5.45101 11.4445 5.24987 11.2634 5.25 10.3694L5.25027 8.48601C5.25037 7.78167 5.23612 7.78262 5.98415 7.43769C7.90383 6.55248 9.59254 4.84926 10.0444 2.81728C10.167 2.2659 10.2283 1.99021 10.3849 1.87004C10.5415 1.74988 10.7942 1.74988 11.2997 1.74988H12.8461C13.3821 1.74988 13.6502 1.74988 13.8167 1.90731C13.9832 2.06474 13.9832 2.31812 13.9832 2.82488V6.65707C13.9832 7.55097 14.1843 7.73207 15.1203 7.73207H17.2123C18.1485 7.73207 18.3496 7.91319 18.3495 8.80721L18.3493 10.3697C18.3491 11.2635 18.148 11.4445 17.2121 11.4445H15.1199C14.1838 11.4445 13.9827 11.6256 13.9828 12.5196L13.9832 17.0791C13.9832 18.9716 15.7382 19.5951 17.2814 18.9419C17.8182 18.7146 17.8261 18.7297 17.9903 19.2067L18.6376 21.0872C18.8504 21.7057 18.7915 21.9369 18.1946 22.2647C13.7712 24.6938 8.52519 22.572 8.52519 16.5505L8.52477 12.5194C8.52468 11.6256 8.32356 11.4445 7.38764 11.4445Z" fill="#35465D"/>
</svg>
