<svg width="353" height="313" viewBox="0 0 353 313" fill="none" xmlns="http://www.w3.org/2000/svg">
<circle opacity="0.2" cx="155.845" cy="156.4" r="155.7" fill="url(#paint0_linear_525_962)"/>
<g clip-path="url(#clip0_525_962)">
<path d="M66.1473 140.311C87.196 139.246 85.8787 172.702 64.9795 170.338C48.275 168.451 47.7332 141.236 66.1473 140.311Z" fill="#00121B"/>
<path d="M316.134 116.525C337.389 112.386 335.165 143.674 316.527 141.096C303.167 139.246 305.26 118.646 316.134 116.525Z" fill="#00121B"/>
<path d="M299.365 41.2515C301.392 44.6522 302.149 48.2865 304.634 51.5845C307.119 54.8824 311.071 57.4329 314.387 59.7779C311.052 62.1323 307.25 62.9264 304.634 66.4112L300.149 77.5289C297.907 74.8475 298.3 70.8956 296.44 67.9714C294.89 65.5236 286.5 60.4039 286.304 59.7779C285.734 58.0309 290.629 56.1437 291.956 54.9011C294.273 52.7336 296.814 49.4637 298.001 46.5114C298.505 45.2595 298.402 41.3076 299.365 41.2422V41.2515Z" fill="#00121B"/>
<path d="M84.8697 91.9537C86.5046 91.2904 86.4953 95.3451 87.0185 96.4382C89.7838 102.259 94.3617 106.865 99.8924 110.088C100.005 110.863 94.8662 112.648 93.8478 113.404C88.7095 117.207 87.7378 122.028 86.0468 127.839C84.7669 128.287 82.9638 119.86 81.9548 118.281C79.9835 115.217 74.6209 112.442 71.8182 110.088C73.8081 107.023 77.8254 105.968 80.3946 102.679C82.506 99.9884 84.3372 92.178 84.879 91.9537H84.8697Z" fill="#00121B"/>
<path d="M307.558 163.714C324.944 160.024 323.646 186.408 307.558 183.605C297.328 181.82 299.178 165.489 307.558 163.714Z" fill="#00121B"/>
<path d="M33.3924 200.375C47.0792 200.758 60.8968 199.609 74.5369 200.963L53.675 201.16L33.3924 200.384V200.375Z" fill="#00030A"/>
<path d="M36.8958 211.679C39.3996 212.399 68.6791 210.67 68.6791 212.268L52.1054 212.857L36.8958 211.689V211.679Z" fill="#00030A"/>
<path d="M307.558 86.1052C308.829 89.6367 311.024 91.8883 313.995 94.1025C310.492 95.4291 308.903 97.8863 307.95 101.315C306.839 97.3911 305.129 95.9897 301.906 93.7101C304.811 91.8322 307.091 89.7769 307.558 86.1052Z" fill="#151620"/>
<path d="M33 206.223C44.865 206.597 56.8701 205.457 68.6884 206.812L50.5546 207.008L33.0093 206.232L33 206.223Z" fill="#1C2225"/>
<path d="M99.6869 39.6912C100.434 43.0265 102.714 45.7359 105.732 47.2961C102.583 48.875 100.434 50.7902 100.079 54.5086C98.5938 54.1536 99.0516 51.7992 98.3229 50.7996C97.6689 49.9027 94.0627 47.6418 94.0347 47.2868C93.9786 46.6421 96.8001 45.1567 97.5475 44.1663C98.5658 42.821 98.8648 41.1113 99.6963 39.6819L99.6869 39.6912Z" fill="#151620"/>
<path d="M35.728 217.145C46.1543 217.518 56.7487 216.379 67.1189 217.733L51.3207 217.93L35.7187 217.154L35.728 217.145Z" fill="#1C2225"/>
<path d="M314.191 222.993C324.225 223.367 334.436 222.227 344.414 223.582L328.616 223.778L314.182 223.003L314.191 222.993Z" fill="#00121B"/>
<path d="M314.574 218.312C323.954 218.686 333.521 217.546 342.845 218.901L328.607 219.097L314.565 218.322L314.574 218.312Z" fill="#00030A"/>
<path d="M314.967 212.857C323.085 212.978 331.232 212.604 339.341 213.053L327.056 213.641L314.967 212.866V212.857Z" fill="#00030A"/>
<path d="M64.5871 142.656C83.9541 140.526 83.0666 170.843 63.8116 168.003C50.8909 166.097 50.4705 144.207 64.5871 142.656Z" fill="#F06827"/>
<path d="M318.872 118.468C335.174 116.16 332.204 141.871 316.536 139.134C306.045 137.303 308.053 120 318.872 118.468Z" fill="#EFB303"/>
<path d="M299.757 45.5398C302.055 51.2108 305.96 56.2745 311.258 59.3855C305.942 62.4873 302.336 66.2243 300.14 72.0635C297.73 67.0371 295.637 60.1329 289.022 59.7779C293.217 55.1627 297.842 51.8741 299.748 45.5398H299.757Z" fill="#F06827"/>
<path d="M85.2621 95.8496C87.7565 101.399 91.316 106.687 96.7627 109.695C91.7925 113.105 87.6725 116.16 86.0375 122.373C83.0946 117.739 81.1794 110.097 74.5369 110.48C78.6009 105.781 83.8233 102.427 85.2621 95.859V95.8496Z" fill="#F06827"/>
<path d="M309.903 165.275C321.562 163.518 321.282 180.447 312.239 182.045C299.514 184.287 299.86 166.788 309.903 165.275Z" fill="#EFB303"/>
<path d="M307.558 88.4409C307.885 89.8423 312.379 93.3551 312.435 93.7101C312.491 94.0278 307.96 96.868 308.343 98.587C306.549 96.5877 306.39 94.5884 303.466 93.7101L307.558 88.4409Z" fill="#F06827"/>
<path d="M99.6869 41.6438C99.5188 43.2601 104.199 46.9411 104.171 47.2961C104.143 47.6231 99.799 50.6688 99.6869 52.1729C99.9205 49.4916 95.3427 47.6137 95.2025 47.2961C95.0624 46.9784 99.6963 43.1573 99.6869 41.6438Z" fill="#F06827"/>
<path d="M58.9348 244.444C58.9909 244.163 59.1871 243.911 59.3272 243.668L284.164 244.061L284.36 282.085L59.5234 282.674L58.9348 244.453V244.444Z" fill="#F06827"/>
<path d="M69.2676 250.685C70.94 250.965 89.7371 250.087 89.7464 251.273L79.806 251.469L69.277 250.694L69.2676 250.685Z" fill="#00030A"/>
<path d="M67.7075 254.197C72.6403 254.562 77.8815 253.441 82.7209 254.786L74.7237 254.982L67.7075 254.207V254.197Z" fill="#210F18"/>
<path d="M80.3852 205.055C80.3852 204.924 80.3665 204.794 80.3852 204.663L267.002 205.055L267.198 241.912L81.3662 242.5C80.8337 230.121 80.2357 217.434 80.3946 205.065L80.3852 205.055Z" fill="#7BCFE5"/>
<path d="M87.2053 213.239C88.4291 221.834 87.6724 230.719 87.5977 239.371L86.626 226.693L87.2146 213.239H87.2053Z" fill="#00030A"/>
<path d="M95.3987 211.679C100.369 211.427 106.301 211.39 111.197 212.268C111.197 213.37 90.2136 213.193 89.1579 212.856C89.0364 212.819 88.3825 212.268 88.7655 212.081C90.989 212.417 93.2312 211.801 95.3987 211.689V211.679Z" fill="#151620"/>
<path d="M102.424 214.416C103.657 214.435 104.704 214.23 105.741 215.005C105.769 216.051 90.4378 215.556 88.5786 215.397C92.9229 214.8 98.0706 214.36 102.424 214.426V214.416Z" fill="#151620"/>
<path d="M97.5475 172.291C97.5755 172.16 97.5007 171.992 97.5475 171.898L248.28 172.291C248.803 182.558 248.224 192.863 247.504 203.103L97.7437 203.495C98.6966 195.031 95.8191 180.008 97.5475 172.291Z" fill="#7BCFE5"/>
<path d="M138.692 199.59C149.249 199.964 159.974 198.824 170.475 200.178L154.294 200.375L138.692 199.599V199.59Z" fill="#0E0C24"/>
<path d="M108.656 176.196C110.132 176.467 126.005 175.607 126.014 176.785L117.045 177.177L108.656 176.205V176.196Z" fill="#00030A"/>
<path d="M103.2 174.636C102.639 177.653 104.564 199.179 103.592 199.982C102.705 200.72 102.723 199.468 102.62 199.011C101.275 192.994 104.087 181.297 103.209 174.636H103.2Z" fill="#151620"/>
<path d="M117.242 178.924C117.746 178.924 121.399 179.344 119.194 180.092C118.026 180.494 113.252 179.288 111.589 179.503C113.224 179.569 115.849 178.905 117.242 178.915V178.924Z" fill="#00030A"/>
<path d="M58.9348 244.444L59.5234 282.664L284.36 282.076L284.164 244.051L59.3272 243.659C59.3552 243.603 58.421 243.126 59.5234 242.491L80.0022 241.903L80.3946 205.046C80.2451 217.416 80.8337 230.112 81.3662 242.482L267.198 241.893L267.002 205.037L80.3853 204.644C80.4226 204.299 80.2264 203.626 80.5814 203.476L96.7627 202.888L97.5381 172.272C95.8097 179.989 98.6779 195.003 97.7343 203.476L247.495 203.084C248.224 192.845 248.803 182.54 248.27 172.272L97.5381 171.88C98.4443 169.862 116.064 172.216 116.644 170.516V76.1367C131.096 -15.2247 266.965 -9.04921 270.692 85.498L270.3 170.908L288.238 171.684L288.63 202.495C289.564 204.598 302.513 200.674 303.064 205.616L302.672 241.108L327.439 242.08L328.803 282.057C329.279 283.132 348.955 281.478 351.617 282.253C352.169 282.412 353.065 283.393 352.981 284.01L34.5508 284.981C32.972 283.935 33.654 282.655 35.3263 282.253C41.1373 280.871 52.1522 283.449 58.5331 282.057C59.6262 280.525 57.6642 250.264 58.9255 244.425L58.9348 244.444Z" fill="#0F1113"/>
<path d="M130.302 141.479C130.302 141.61 130.312 141.74 130.302 141.871L129.91 170.534H117.821V83.564C118.83 57.8252 132.488 34.5994 155.069 22.1364C169.952 13.9242 177.51 14.7464 193.29 20.5762C231.837 34.8237 248.551 71.2225 239.89 110.863L230.137 112.031L230.912 140.498L221.747 141.086L221.551 71.0823C211.844 43.6618 174.614 44.1849 165.393 71.8578L164.617 140.105L130.293 141.47L130.302 141.479Z" fill="#F06827"/>
<path d="M127.77 143.431C128.901 143.431 128.415 164.153 128.546 166.05C128.144 164.452 126.631 143.422 127.77 143.431Z" fill="#00121B"/>
<path d="M130.302 141.871C130.312 141.74 130.302 141.61 130.302 141.479L231.893 141.871L232.089 170.142L130.882 170.73C131.479 161.799 129.574 150.485 130.293 141.871H130.302Z" fill="#EFB303"/>
<path d="M229.95 148.112C230.174 154.082 229.66 160.08 229.557 166.05C229.482 160.155 228.726 153.942 229.95 148.112Z" fill="#2D1E19"/>
<path d="M228.389 149.672C229.828 153.848 228.333 158.669 228.389 162.929C228.062 158.538 228.062 154.063 228.389 149.672Z" fill="#2D1E19"/>
<path d="M206.35 111.452C206.388 111.573 206.313 111.723 206.35 111.844C206.444 112.143 206.659 112.844 206.743 113.012C206.827 113.199 207.06 113.713 207.135 113.787C208.994 115.796 211.433 115.628 213.768 115.348C214.777 115.226 217.225 116.525 215.329 113.395C214.656 112.283 212.909 111.648 212.601 110.863C210.639 105.93 211.096 97.1856 207.528 91.5614C204.753 87.1703 201.418 87.8897 196.606 88.2447C198.316 86.5817 200.605 85.5073 202.062 83.5641C207.967 75.735 204.183 63.8979 194.457 61.9173C178.304 58.6287 170.681 80.0232 184.9 87.8523C173.951 86.0959 172.213 98.8112 170.466 106.958C170.027 109.023 170.886 110.648 170.858 110.854C170.643 112.414 167.775 110.546 168.13 114.563C168.149 114.806 167.271 114.516 168.13 115.338C167.747 116.684 167.018 115.591 166.962 115.142C166.047 107.771 165.851 75.9312 168.13 69.9052C174.184 53.9013 196.98 49.1366 210.442 59.1799C222.513 68.1861 220.635 82.116 220.775 95.6441C220.925 110.144 219.944 124.821 219.607 139.321L203.23 139.713V101.493L206.35 111.433V111.452Z" fill="#FAD0AE"/>
<path d="M188.217 64.6547C199.764 62.5993 209.219 77.3232 198.353 84.9375C183.022 95.6721 172.194 67.5042 188.217 64.6547Z" fill="#EFB303"/>
<path d="M207.528 91.5613C208.032 92.3274 212.573 108.462 212.208 109.303C212.077 109.602 206.986 110.882 206.36 111.835C206.322 111.713 206.397 111.564 206.36 111.442C205.781 109.471 204.426 97.6994 203.043 97.4005C202.473 97.279 202.072 98.0731 201.679 98.3721L201.287 138.545C201.128 138.947 192.953 138.891 192.71 138.545C191.589 136.966 192.785 120.215 192.318 117.095L199.334 115.927C197.746 115.918 192.897 115.292 191.729 115.731C189.525 116.571 192.056 135.5 190.758 138.545L182.761 139.134L181.397 97.5967C180.761 96.7652 180.07 96.7558 179.444 97.5967C178.267 99.1756 177.407 107.705 176.324 110.078C176.324 110.751 172.007 109.667 171.839 109.49C171.223 108.845 174.96 93.3084 175.548 92.1312C175.838 91.552 177.192 89.8143 177.697 89.5994C182.854 87.3758 197.54 91.0568 203.828 89.207C204.865 89.3752 206.995 90.7298 207.537 91.5427L207.528 91.5613Z" fill="#F06827"/>
<path d="M171.839 111.059C172.801 110.947 178.127 113.815 173.007 114.572C167.028 115.46 170.316 111.246 171.839 111.059Z" fill="#EFB303"/>
<path d="M169.307 115.357C169.382 115.805 168.924 115.721 168.915 115.749C168.737 115.703 168.196 115.422 168.14 115.357C167.28 114.535 168.158 114.815 168.14 114.582C168.625 114.731 168.831 115.161 169.307 115.357Z" fill="#958C58"/>
<path d="M215.329 113.404L213.768 115.357C211.433 115.637 208.994 115.805 207.135 113.797C208.406 113.722 214.376 116.273 214.151 113.601C214.142 113.432 212.171 111.106 212.003 111.069C211.405 110.929 207.985 113.414 206.734 113.021C206.659 112.853 206.435 112.143 206.341 111.854C206.967 110.891 212.059 109.621 212.19 109.322C212.554 108.481 208.013 92.3462 207.509 91.5801C211.068 97.2043 210.62 105.949 212.582 110.882C212.89 111.667 214.637 112.302 215.31 113.414L215.329 113.404Z" fill="#00121B"/>
<path d="M207.135 113.797C207.061 113.713 206.836 113.208 206.743 113.021C207.985 113.414 211.414 110.929 212.012 111.069C212.171 111.106 214.142 113.442 214.161 113.601C214.385 116.273 208.415 113.722 207.145 113.797H207.135Z" fill="#EFB303"/>
<path d="M213.768 115.357L215.329 113.404C217.225 116.534 214.777 115.235 213.768 115.357Z" fill="#FFFAE6"/>
</g>
<defs>
<linearGradient id="paint0_linear_525_962" x1="274.743" y1="-15.3419" x2="-30.9954" y2="312.1" gradientUnits="userSpaceOnUse">
<stop stop-color="#1685C6"/>
<stop offset="0.5" stop-color="#0AA94D"/>
<stop offset="1" stop-color="#0AA94D" stop-opacity="0"/>
</linearGradient>
<clipPath id="clip0_525_962">
<rect width="320" height="274" fill="white" transform="translate(33 11)"/>
</clipPath>
</defs>
</svg>
