<svg width="371" height="312" viewBox="0 0 371 312" fill="none" xmlns="http://www.w3.org/2000/svg">
<circle opacity="0.2" cx="213.4" cy="155.7" r="155.7" fill="url(#paint0_linear_1367_2568)"/>
<path d="M240.172 103.16L239.859 104.106C185.944 79.8128 121.082 103.216 96.4703 156.819L95.0509 158.711L94.5777 158.077C118.973 102.182 184.532 78.1698 240.172 103.152V103.16Z" fill="#121515"/>
<path d="M248.704 129.04L247.758 129.985C202.881 97.3732 134.932 113.771 112.581 165.018H111.002C133.376 112.473 203.057 95.5859 248.704 129.032V129.04Z" fill="#121515"/>
<path d="M232.593 80.1174V81.3838C173.762 63.2303 107.297 90.2562 80.3672 145.775L79.4209 144.829C83.9759 135.524 90.0066 127.148 96.4783 119.101L62.5238 119.262C59.9977 114.685 63.6385 107.023 67.5761 103.793C74.0077 98.5274 83.9519 98.9763 89.6858 105.06C91.3699 93.9109 103.191 87.6353 113.375 92.4362C116.84 84.0768 124.851 79.5243 133.905 81.3918C136.247 81.8727 141.219 85.5515 142.117 85.4954C142.967 85.4473 149.351 82.2414 150.963 81.7044C178.245 72.6236 205.022 71.6778 232.601 80.1255L232.593 80.1174Z" fill="#121515"/>
<path d="M127.586 82.3217C131.964 81.8328 136.824 83.2834 140.064 86.2649C124.105 93.887 109.767 104.579 97.8977 117.675L62.9969 117.515C62.2671 105.757 74.8417 97.8303 85.259 103.152C89.357 105.244 90.9127 109.291 93.1582 112.938C94.0083 109.123 90.7283 107.937 91.418 103.312C92.8134 93.9752 106.567 89.3106 114.314 93.9992C116.078 88.3328 121.531 82.9949 127.578 82.3217H127.586Z" fill="#E3F0FB"/>
<path d="M232.593 81.3758C284.239 97.3172 322.468 145.935 321.337 200.844L303.806 201.317C304.175 158.446 278.882 120.536 240.164 103.152C184.524 78.1619 118.965 102.182 94.5697 158.077C89.7821 169.042 87.0234 179.357 86.045 191.379C85.8766 193.407 87.272 202.832 83.992 201.325C82.2999 200.548 84.0481 183.829 84.4652 181.28C84.794 179.301 86.863 176.047 85.8846 173.867C83.8637 182.611 81.6423 191.812 83.1981 200.852H75.6197L75.7801 183.332L75.3069 200.852L68.5144 201.325C67.6322 182.475 72.1552 162.67 80.3592 145.775C107.297 90.2562 173.754 63.2303 232.585 81.3838L232.593 81.3758Z" fill="#F06827"/>
<path d="M259.916 102.527C282.466 117.098 299.339 140.357 308.554 165.339C299.957 145.847 287.952 125.674 271.6 111.68C267.935 108.546 262.947 106.414 259.916 102.527Z" fill="#25171B"/>
<path d="M128.532 110.101C129.398 110.317 127.369 111.904 127.265 111.992C125.108 113.948 122.253 115.471 119.999 117.362C110.865 126.82 102.148 135.964 95.3636 147.345C103.006 132.614 115.444 120.111 128.524 110.101H128.532Z" fill="#25171B"/>
<path d="M249.811 100.948C250.437 100.924 259.667 106.174 260.862 106.943C268.079 111.584 274.246 118.116 280.598 123.83L285.337 129.825C279.106 123.862 273.38 116.994 266.548 111.68C264.318 109.949 261.487 108.466 259.282 106.63C257.381 105.436 250.533 102.559 249.49 101.581C249.234 101.333 249.755 100.956 249.803 100.948H249.811Z" fill="#562A2B"/>
<path d="M195.487 91.1619L216.33 92.7408L224.854 94.3197L231.013 96.6841L195.487 91.1619Z" fill="#25171B"/>
<path d="M122.846 109.468L100.264 131.092C107.513 123.574 113.744 114.966 122.846 109.468Z" fill="#25171B"/>
<path d="M207.805 80.7427C217.252 82.0731 226.699 83.5479 235.44 87.5312L207.805 80.7427Z" fill="#1B1310"/>
<path d="M173.377 92.4281C173.674 92.4281 174.757 92.5483 174.644 93.0613L147.009 101.108C150.097 99.962 152.903 98.2709 156.007 97.1648C158.934 96.1229 170.899 92.4682 173.377 92.4281Z" fill="#1B1310"/>
<path d="M191.381 82.3214C193.225 82.2894 198.149 82.634 199.906 82.9546C200.355 83.0347 201.012 82.7863 200.539 83.5878C193.177 82.8263 186.08 82.5779 179.063 85.1667L172.271 85.6395C178.638 84.8381 185.03 82.4256 191.381 82.3214Z" fill="#25171B"/>
<path d="M94.1046 149.87L90.6322 159.969L86.5262 170.388C88.0659 163.279 90.993 156.402 94.1046 149.87Z" fill="#1B1310"/>
<path d="M211.59 84.2209C219.658 85.4632 228.343 86.1044 235.432 90.3763L211.59 84.2209Z" fill="#361E22"/>
<path d="M286.757 132.198C292.362 138.024 295.522 145.278 299.075 152.395L286.757 132.198Z" fill="#361E22"/>
<path d="M100.424 126.828L89.9986 142.609C88.9801 142.256 98.5393 127.276 100.424 126.828Z" fill="#1B1310"/>
<path d="M81.4739 159.969L76.7344 179.221C77.2637 172.552 78.9077 166.108 81.4739 159.969Z" fill="#1B1310"/>
<path d="M239.386 89.2704C245.817 91.6428 253.259 94.0632 258.496 98.5836L239.386 89.2704Z" fill="#361E22"/>
<path d="M174.011 82.3216C175.671 82.1693 177.395 82.4338 179.063 82.3216L178.75 82.9547L160.594 85.6397C160.418 84.9664 173.008 82.4177 174.019 82.3216H174.011Z" fill="#25171B"/>
<path d="M279.812 127.773C284.527 132.638 287.871 138.986 291.183 144.821C287.142 139.291 283.846 133.304 279.812 127.773Z" fill="#562A2B"/>
<path d="M291.496 128.719C295.634 132.558 297.567 138.04 300.655 142.609C297.126 138.321 294.52 133.352 291.496 128.719Z" fill="#25171B"/>
<path d="M150.642 92.1075C150.915 92.0674 151.636 92.0274 151.275 92.4201C149.824 92.3079 138.693 99.5933 138.172 98.5755C141.612 97.0847 147.097 92.6125 150.65 92.1075H150.642Z" fill="#1B1310"/>
<path d="M214.437 89.5829C219.297 91.0015 226.009 90.6969 229.754 93.8468L214.437 89.5829Z" fill="#361E22"/>
<path d="M121.579 102.206C118.099 105.596 114.009 109.42 109.735 112.153L121.579 102.206Z" fill="#362828"/>
<path d="M98.0501 124.624C100.215 120.64 104.458 117.306 107.682 114.204L98.0501 124.624Z" fill="#362828"/>
<path d="M184.436 85.1667L196.594 85.319L182.856 86.1125L184.436 85.1667Z" fill="#562A2B"/>
<path d="M232.441 97.1569C237.397 98.3751 242.569 99.5132 246.499 103L232.441 97.1569Z" fill="#361E22"/>
<path d="M134.844 97.1569C135.124 97.1409 135.501 97.0688 135.63 97.3172C132.55 99.906 128.428 100.691 125.525 103.633L127.891 100.948C128.524 100.475 134.443 97.181 134.836 97.1569H134.844Z" fill="#1B1310"/>
<path d="M135.164 100.627C135.381 100.579 135.862 100.563 135.95 100.788C131.684 102.952 128.412 106.799 123.945 108.682C126.591 107.232 132.614 101.172 135.156 100.635L135.164 100.627Z" fill="#25171B"/>
<path d="M121.9 106.31L117.481 110.101L111.956 113.732C115.116 111.071 118.171 108.185 121.908 106.318L121.9 106.31Z" fill="#121515"/>
<path d="M89.0523 144.188C87.1838 148.444 85.2431 152.707 83.0538 156.811L85.5799 150.495L89.0523 144.18V144.188Z" fill="#361E22"/>
<path d="M96.6307 126.194C94.9386 130.306 91.5223 133.576 88.7315 136.926C90.7604 132.951 94.1848 129.897 96.6307 126.194Z" fill="#533430"/>
<path d="M200.226 87.6914C200.716 87.7155 206.722 88.5971 206.385 89.4306C202.504 87.7555 197.724 89.4306 194.541 88.012C196.361 88.3967 198.486 87.6273 200.226 87.6994V87.6914Z" fill="#562A2B"/>
<path d="M145.269 101.581C145.517 101.525 146.263 101.509 145.902 101.894L134.058 107.736C136.552 105.444 141.997 102.27 145.269 101.581Z" fill="#25171B"/>
<path d="M282.811 118.621V118.308C285.843 120.608 288.609 124.143 290.71 127.301L282.811 118.621Z" fill="#25171B"/>
<path d="M146.063 90.8492C149.607 88.8375 153.874 87.6513 158.068 87.2185C154.163 88.8135 149.992 89.3104 146.063 90.8492Z" fill="#362828"/>
<path d="M237.493 90.8492C237.798 90.8011 242.497 92.7166 243.179 93.0612L247.758 96.0588C245.16 95.4977 243.051 93.5261 240.653 92.4281C240.444 92.3319 235.504 91.1537 237.493 90.8492Z" fill="#562A2B"/>
<path d="M171.485 85.4792C171.573 85.4953 172.062 85.88 171.797 86.1124C171.156 86.6735 163.585 88.1402 162.166 87.8516C163.674 87.6913 170.643 85.351 171.485 85.4873V85.4792Z" fill="#25171B"/>
<path d="M261.175 100.315C263.917 102.334 267.293 103.489 269.547 106.157C266.884 104.466 263.131 102.839 261.175 100.315Z" fill="#25171B"/>
<path d="M301.922 144.821C303.87 148.356 306.212 152.171 306.974 156.186C305.386 152.363 303.277 148.732 301.922 144.821Z" fill="#734035"/>
<path d="M85.5799 141.984L83.5269 146.873L80.5276 151.762C82.1235 148.468 83.5028 145.021 85.5799 141.976V141.984Z" fill="#361E22"/>
<path d="M271.287 118.941C273.781 121.49 276.524 123.87 278.553 126.836C275.802 124.648 273.172 121.923 271.287 118.941Z" fill="#562A2B"/>
<path d="M169.905 89.5829C170.169 89.5589 170.891 89.4867 171.011 89.7432C167.579 90.8813 164.018 91.9553 160.586 93.2136C160.289 92.4522 169.111 89.655 169.905 89.5829Z" fill="#562A2B"/>
<path d="M272.546 108.209L279.651 114.998C277.037 113.178 274.31 110.726 272.546 108.209Z" fill="#562A2B"/>
<path d="M247.91 103.16C251.262 104.458 254.823 105.941 257.229 108.682L247.91 103.16Z" fill="#361E22"/>
<path d="M263.388 112.625L270.493 118.148C268.063 117.138 264.559 115.078 263.388 112.625Z" fill="#361E22"/>
<path d="M250.757 97.4775L258.809 102.054C255.906 101.244 253.211 99.2168 250.757 97.4775Z" fill="#562A2B"/>
<path d="M144.796 91.4745C144.443 91.6749 138.204 96.6841 137.851 95.4178C140.104 93.9831 142.35 92.5645 144.796 91.4745Z" fill="#362828"/>
<path d="M127.586 97.4775C128.556 97.5016 127.017 98.6878 126.952 98.7439C125.814 99.6816 123.464 101.164 122.06 101.741L127.586 97.4775Z" fill="#25171B"/>
<path d="M160.746 88.3246C161.091 88.2926 161.597 88.2285 161.853 88.4849C159.752 89.2463 156.889 90.3123 154.588 90.0639C156.328 89.6711 159.078 88.4769 160.746 88.3246Z" fill="#361E22"/>
<path d="M179.063 91.795L182.535 92.1076L175.117 92.9011L179.063 91.795Z" fill="#2B2018"/>
<path d="M203.539 83.5878C203.723 83.5156 203.571 82.9065 204.958 82.9546L210.804 84.3732C208.286 84.3652 206.097 83.6519 203.539 83.5878Z" fill="#562A2B"/>
<path d="M237.806 94.6322C239.835 95.1291 241.96 95.7222 243.652 96.9966C243.524 97.3733 238.078 95.3215 237.806 94.6322Z" fill="#562A2B"/>
<path d="M206.538 85.7919C208.751 86.2647 211.309 85.7358 213.33 86.8979C211.35 86.6735 208.246 86.8979 206.538 85.7919Z" fill="#562A2B"/>
<path d="M309.813 167.864L311.393 172.913C309.805 172.985 309.356 167.936 309.813 167.864Z" fill="#362828"/>
<path d="M182.223 87.6913C182.8 87.507 185.864 87.515 186.489 88.1642L181.91 88.3245C181.597 88.1642 182.126 87.7234 182.223 87.6913Z" fill="#734035"/>
<path d="M196.746 79.1637L201.638 79.6366C200.283 79.8209 197.845 80.1014 196.746 79.1637Z" fill="#562A2B"/>
<path d="M220.436 88.004C220.636 87.9719 223.996 88.3647 224.381 88.7894L220.115 88.6291C219.794 88.4688 220.371 88.012 220.428 87.996L220.436 88.004Z" fill="#734035"/>
<path d="M106.11 119.887C106.406 120.704 103.183 123.734 102.79 122.884L106.11 119.887Z" fill="#734035"/>
<path d="M82.4202 157.444C83.0939 156.955 82.8052 158.558 82.4202 158.39C82.1796 158.286 82.1556 157.637 82.4202 157.444Z" fill="#624135"/>
<path d="M282.811 118.308V118.621L282.178 117.835C282.923 117.25 282.779 118.284 282.811 118.308Z" fill="#9A5D46"/>
<path d="M203.539 83.5879C203.49 83.5879 202.688 84.5416 202.592 83.4276C202.969 82.9066 203.306 83.676 203.539 83.5879Z" fill="#734035"/>
<path d="M146.063 90.8492C145.598 91.1137 145.117 91.2981 144.796 91.4824C145.133 91.3301 145.309 91.1458 146.063 90.8492Z" fill="#362828"/>
<path d="M98.0501 124.624L97.577 125.569C96.9916 125.032 98.0101 124.696 98.0501 124.624Z" fill="#362828"/>
<path d="M239.859 104.106C276.869 120.785 303.806 159.921 302.074 201.165L285.49 201.325C284.872 172.384 272.033 146.143 248.696 129.04C203.049 95.594 133.368 112.481 110.994 165.026C106.19 176.303 103.688 188.566 104.049 200.852L87.7852 201.325C86.2775 186.121 90.167 170.548 96.4703 156.819C121.082 103.216 185.944 79.8129 239.859 104.106Z" fill="#FFF5F3"/>
<path d="M190.435 101.581C204.741 100.868 219.706 103.497 232.601 109.628C210.082 100.114 186.297 100.275 162.96 106.943L164.852 105.677C173.377 104.394 181.774 102.006 190.435 101.573V101.581Z" fill="#302513"/>
<path d="M271.6 137.559C281.416 147.722 286.869 162.285 290.237 175.75C285.883 162.069 280.686 148.812 271.6 137.559Z" fill="#121515"/>
<path d="M194.541 108.209C195.904 108.53 198.815 107.496 199.593 108.842C190.932 109.219 181.268 109.387 172.744 111.054C165.847 112.401 159.399 115.607 152.687 117.522C165.687 110.67 180.082 109.46 194.533 108.209H194.541Z" fill="#2B2018"/>
<path d="M98.8441 169.442L93.7918 197.534C93.4791 189.359 95.7807 181.649 97.1119 173.706L98.8521 169.442H98.8441Z" fill="#2B2018"/>
<path d="M147.795 113.571L129.639 125.409L141.484 116.416L147.795 113.571Z" fill="#1B1310"/>
<path d="M282.338 148.291L289.764 162.654L291.184 169.755L282.338 148.291Z" fill="#2B2018"/>
<path d="M194.541 104.731C198.959 104.651 203.346 104.771 207.645 105.837L185.382 105.677C188.213 104.923 191.63 104.787 194.541 104.731Z" fill="#2B2018"/>
<path d="M121.267 137.56L115.894 144.5L109.895 152.074C112.301 146.248 117.337 142.24 121.267 137.552V137.56Z" fill="#2B2018"/>
<path d="M106.423 171.967L101.37 193.431C101.619 185.993 103.568 178.788 106.423 171.967Z" fill="#25171B"/>
<path d="M116.375 138.505C118.604 134.53 124.899 129.064 128.693 126.355C124.474 129.705 120.769 135.62 116.375 138.505Z" fill="#1B1310"/>
<path d="M205.279 108.522C211.309 109.7 217.853 109.532 223.435 112.465L214.437 110.413L205.279 108.522Z" fill="#1B1310"/>
<path d="M246.33 115.783C251.687 118.108 256.94 121.891 260.701 126.355L253.596 120.512L246.33 115.775V115.783Z" fill="#1B1310"/>
<path d="M250.436 126.515C255.4 129.473 259.923 133.216 263.54 137.72C259.073 134.185 255.328 129.681 250.116 127.148L250.428 126.515H250.436Z" fill="#2B2018"/>
<path d="M277.599 156.499C280.542 162.486 283.116 168.817 284.231 175.438C282.434 168.962 279.692 162.862 277.599 156.499Z" fill="#2B2018"/>
<path d="M102.317 176.704L98.5233 196.901C98.82 190.121 99.4616 182.859 102.317 176.704Z" fill="#2B2018"/>
<path d="M137.057 127.148C133.36 130.699 129.767 134.418 125.846 137.72C128.893 133.592 132.734 129.921 137.057 127.148Z" fill="#121515"/>
<path d="M107.369 156.819C105.765 162.67 103.038 168.144 101.049 173.867C102.156 167.896 104.923 162.317 107.369 156.819Z" fill="#2B2018"/>
<path d="M229.915 114.838C234.879 117.37 241.086 119.198 244.919 123.518C240.388 119.807 234.598 118.26 229.915 114.838Z" fill="#443020"/>
<path d="M275.072 147.346C278.858 151.738 280.542 157.5 283.284 162.494C279.9 157.821 278.048 152.259 275.072 147.346Z" fill="#544820"/>
<path d="M125.06 138.193L120.954 143.563L115.902 149.878C117.963 145.302 121.78 141.863 125.06 138.201V138.193Z" fill="#3F371F"/>
<path d="M208.751 105.997C213.491 107.336 219.12 106.703 223.435 109.315C218.679 107.729 213.378 108.001 208.751 105.997Z" fill="#1B1310"/>
<path d="M255.649 126.828C259.643 129.28 262.562 130.835 265.441 134.875C265.04 135.748 260.172 130.162 259.595 129.665C258.496 128.711 257.012 128.006 255.649 126.828Z" fill="#2B2018"/>
<path d="M211.277 100.627C213.09 100.347 220.011 102.431 222.176 102.992C218.375 102.92 214.694 101.789 210.965 101.252C210.644 101.092 211.221 100.627 211.277 100.619V100.627Z" fill="#1B1310"/>
<path d="M193.594 98.7359C196.393 98.3191 202.119 99.5053 205.118 99.8419L192.327 99.369C192.231 99.1206 193.522 98.7519 193.594 98.7359Z" fill="#2B2018"/>
<path d="M262.442 127.773C265.12 129.152 267.398 132.286 269.074 134.714L262.442 127.773Z" fill="#121515"/>
<path d="M131.058 128.719C132.005 128.919 130.601 130.13 130.425 130.298C129.984 130.723 123.833 135.804 123.632 135.187L131.05 128.719H131.058Z" fill="#121515"/>
<path d="M113.055 153.661C113.993 153.974 108.355 161.42 108.002 162.181C108.668 158.783 111.154 156.37 113.055 153.661Z" fill="#100E16"/>
<path d="M106.422 165.339C105.965 166.228 103.199 176.535 102.629 176.383L104.049 170.861L106.414 165.339H106.422Z" fill="#2B2018"/>
<path d="M233.387 109.788C234.109 110.389 243.307 114.052 243.018 114.677C241.342 114.124 239.722 113.371 238.127 112.625C236.699 111.96 234.269 111.103 233.387 109.788Z" fill="#302513"/>
<path d="M227.068 110.734C230.532 111.728 233.828 113.355 237.02 114.998C233.596 114.02 230.147 112.521 227.068 110.734Z" fill="#302513"/>
<path d="M293.389 177.016C293.854 176.952 295.145 185.256 294.656 186.169L293.389 177.016Z" fill="#1B1310"/>
<path d="M97.8978 183.332L96.9515 192.172C95.8688 189.632 97.3204 185.937 97.8978 183.332Z" fill="#2B2018"/>
<path d="M158.22 108.522C158.493 108.506 158.918 108.434 159.006 108.682C156.6 109.756 154.042 111.159 151.428 111.84C152.719 110.814 156.713 108.602 158.22 108.522Z" fill="#1B1310"/>
<path d="M291.817 184.911C292.755 185.993 292.427 188.213 292.603 189.487C292.755 190.585 293.637 192.421 293.076 193.431C292.042 190.706 291.977 187.764 291.809 184.911H291.817Z" fill="#1B1310"/>
<path d="M112.421 143.242L108.315 150.183C107.305 149.83 111.611 143.531 112.421 143.242Z" fill="#3F371F"/>
<path d="M100.737 174.179L98.5233 181.753L99.3172 176.856L100.737 174.179Z" fill="#7C6625"/>
<path d="M241.912 117.675C244.109 118.204 246.17 119.711 247.758 121.306L241.912 117.675Z" fill="#2B2018"/>
<path d="M147.795 120.199C146.6 121.875 143.553 123.309 141.636 124.143L147.795 120.199Z" fill="#867522"/>
<path d="M158.373 111.992V111.68C160.747 110.87 163.016 109.588 165.638 109.628C163.265 110.518 160.795 111.247 158.373 111.992Z" fill="#7C6625"/>
<path d="M174.324 106.63C174.733 106.582 175.174 106.662 175.591 106.63C174.051 107.552 171.42 108.466 169.432 108.37C170.795 107.945 173.008 106.783 174.324 106.63Z" fill="#2B2018"/>
<path d="M265.914 140.084C266.556 140.284 270.116 144.476 269.387 144.821L265.914 140.084Z" fill="#302513"/>
<path d="M284.864 178.283L286.131 184.911C285 183.116 284.832 180.351 284.864 178.283Z" fill="#7C6625"/>
<path d="M269.707 139.772C270.245 140.02 273.597 143.947 272.867 144.188L269.707 139.772Z" fill="#544820"/>
<path d="M224.229 112.625L229.121 114.99C227.613 114.124 225.031 114.164 224.229 112.625Z" fill="#544820"/>
<path d="M105.789 154.607L105.003 157.292L103.584 158.39L105.789 154.607Z" fill="#3F371F"/>
<path d="M158.373 111.68V111.992C157.106 112.385 154.892 113.699 153.633 113.098C155.133 112.425 156.841 112.201 158.373 111.68Z" fill="#2B2018"/>
<path d="M273.18 149.87C273.966 150.896 275.393 152.275 275.393 153.661C274.607 152.635 273.18 151.257 273.18 149.87Z" fill="#544820"/>
<path d="M255.649 126.828C254.976 126.411 254.262 126.219 253.757 125.409C254.631 125.016 255.224 126.459 255.649 126.828Z" fill="#2B2018"/>
<path d="M102.95 159.344C103.415 159.608 103.118 160.594 102.317 160.29C102.052 160.065 102.902 159.312 102.95 159.344Z" fill="#302513"/>
<path d="M107.69 150.816C108.131 150.872 107.577 151.794 107.377 151.762C106.936 151.706 107.489 150.784 107.69 150.816Z" fill="#64601D"/>
<path d="M295.915 191.539C296.308 192.116 296.035 192.846 295.602 192.172C295.378 191.828 295.723 191.788 295.915 191.539Z" fill="#544820"/>
<path d="M249.49 126.194L249.65 126.675L249.177 126.828L249.017 126.675L249.49 126.194Z" fill="#544820"/>
<path d="M116.375 138.505C116.375 138.505 116.495 139.563 115.741 138.978C115.837 138.722 116.351 138.537 116.375 138.505Z" fill="#1B1310"/>
<path d="M293.076 175.75L293.549 175.91L293.389 176.383L293.237 176.231L293.076 175.75Z" fill="#6C5A2E"/>
<path d="M247.758 129.985C269.932 146.095 284.896 173.554 283.292 201.317L268.288 200.844C267.855 153.645 224.766 121.682 179.063 130.931C152.029 136.397 127.361 158.502 122.053 186.009C121.587 188.437 121.114 200.428 120.633 201.005C120.36 201.333 112.181 202.439 113.688 199.113C114.955 202.511 105.564 201.405 105.316 200.852C105.107 188.413 107.633 176.375 112.581 165.026C134.932 113.772 202.881 97.3732 247.758 129.993V129.985Z" fill="#646B73"/>
<path d="M134.531 149.558C134.707 149.493 135.221 149.502 135.317 149.718C125.854 158.029 121.363 170.316 116.84 181.753C118.38 175.91 120.24 170.244 122.999 164.866C124.571 161.804 131.652 150.656 134.523 149.558H134.531Z" fill="#100E16"/>
<path d="M186.962 121.145C188.566 121.001 195.439 120.905 196.754 121.145C197.203 121.225 197.861 120.977 197.388 121.778C181.308 120.368 166.272 126.491 151.749 132.35C160.522 127.22 170.097 124.584 180.017 122.724C182.383 122.283 183.979 121.41 186.962 121.145Z" fill="#101C2B"/>
<path d="M163.585 130.619C163.858 130.619 164.307 130.531 164.371 130.779C153.938 134.61 144.756 140.942 136.263 148.139C140.345 144.324 145.221 139.796 150 136.934C151.3 136.157 162.832 130.611 163.577 130.619H163.585Z" fill="#101C2B"/>
<path d="M242.225 138.193C248.704 142.617 254.96 148.532 258.961 155.24L242.225 138.193Z" fill="#101C2B"/>
<path d="M231.174 135.035L245.071 143.875L249.963 149.397L231.174 135.035Z" fill="#101C2B"/>
<path d="M150.955 132.823L142.43 138.818L133.745 145.286C139.166 140.661 144.555 136.069 150.955 132.815V132.823Z" fill="#101C2B"/>
<path d="M199.593 120.52C203.755 119.582 215.536 122.524 219.65 124.463L198.959 121.145C198.623 120.985 199.545 120.52 199.593 120.512V120.52Z" fill="#101C2B"/>
<path d="M198.013 117.987C204.581 118.14 211.181 118.981 217.436 120.985L198.013 117.987Z" fill="#100E16"/>
<path d="M139.583 148.291L127.578 162.814C130.449 157.164 134.844 152.427 139.583 148.291Z" fill="#101C2B"/>
<path d="M262.755 155.24C266.957 159.336 269.523 165.162 271.913 170.388C268.705 165.419 266.051 160.137 262.755 155.24Z" fill="#101C2B"/>
<path d="M164.379 133.456C159.207 135.412 154.451 138.409 149.535 140.87C153.697 137.239 158.942 134.995 164.067 133.135L164.379 133.448V133.456Z" fill="#100E16"/>
<path d="M116.527 173.546C115.3 178.82 114.306 184.342 112.108 189.327C113.271 183.997 114.354 178.579 116.527 173.546Z" fill="#101C2B"/>
<path d="M272.546 171.967C274.254 177.08 276.532 182.891 276.339 188.381C275.77 182.715 273.244 177.593 272.546 171.967Z" fill="#101C2B"/>
<path d="M125.685 165.018L120.633 179.541C121.002 174.347 122.983 169.37 125.685 165.018Z" fill="#100E16"/>
<path d="M119.374 184.278C118.219 189.824 117.73 195.034 118.428 200.692C117.097 195.314 117.217 189.439 119.374 184.278Z" fill="#0F1225"/>
<path d="M126.952 153.341C124.41 158.182 121.315 162.718 118.74 167.543C120.425 162.494 123.737 157.524 126.952 153.341Z" fill="#101C2B"/>
<path d="M185.382 126.828C186.706 126.74 189.897 126.611 191.068 126.828C191.517 126.908 192.175 126.659 191.702 127.461L178.598 128.246C180.482 127.549 183.418 126.956 185.39 126.828H185.382Z" fill="#102128"/>
<path d="M258.969 161.548C262.442 165.403 264.022 170.556 266.235 175.117C263.332 170.853 261.68 165.916 258.969 161.548Z" fill="#0F1225"/>
<path d="M179.697 125.249L174.324 127.14L167.218 128.246C171.204 126.635 175.623 126.555 179.697 125.249Z" fill="#101C2B"/>
<path d="M161.059 124.936C161.468 124.88 161.909 124.976 162.326 124.936C161.645 125.329 152.414 129.729 152.061 128.879C154.523 128.19 158.806 125.241 161.059 124.936Z" fill="#101C2B"/>
<path d="M115.902 188.381C115.918 191.659 115.765 195.482 114.322 198.48L115.902 188.381Z" fill="#101C2B"/>
<path d="M164.379 133.456L164.067 133.143C167.98 131.725 172.198 131.108 176.072 129.513C176.489 130.571 165.27 133.127 164.387 133.456H164.379Z" fill="#25596D"/>
<path d="M230.54 131.252C233.924 132.654 237.068 134.546 240.172 136.461C236.811 135.436 233.331 133.344 230.54 131.252Z" fill="#102128"/>
<path d="M239.386 132.823L246.804 137.712C244.438 136.542 240.99 134.738 239.386 132.823Z" fill="#101C2B"/>
<path d="M265.281 165.018L268.753 171.959C267.205 170.268 265.633 167.391 265.281 165.018Z" fill="#101C2B"/>
<path d="M256.756 147.979C258.865 148.941 260.605 150.976 261.495 153.028L256.756 147.979Z" fill="#101C2B"/>
<path d="M220.748 124.303L226.907 126.667C226.322 127.012 225.488 126.667 224.854 126.507C224.068 126.315 221.334 125.032 220.748 124.295V124.303Z" fill="#101C2B"/>
<path d="M194.853 123.67C197.067 123.822 199.433 123.141 201.325 124.455C199.056 123.806 196.786 125.185 194.853 123.67Z" fill="#100E16"/>
<path d="M146.849 143.242C147.779 143.234 146.648 144.1 146.536 144.188C145.293 145.15 142.558 146.664 141.011 147.185L146.857 143.242H146.849Z" fill="#101C2B"/>
<path d="M111.796 194.377C112.798 196.084 112.718 198.456 112.429 200.372L111.796 194.377Z" fill="#102128"/>
<path d="M248.231 139.451L253.757 144.027C253.476 144.893 248.536 140.004 248.231 139.451Z" fill="#101C2B"/>
<path d="M252.65 152.082C254.294 153.549 255.433 155.529 256.443 157.452C254.767 156.154 253.468 154.006 252.65 152.082Z" fill="#101C2B"/>
<path d="M271.287 178.595L272.554 185.224C272.177 183.18 270.606 180.623 271.287 178.595Z" fill="#122C3B"/>
<path d="M212.224 128.094C213.01 127.958 217.067 129.689 218.07 130.146L211.911 128.727C211.59 128.567 212.168 128.11 212.224 128.094Z" fill="#101C2B"/>
<path d="M231.174 128.094C233.395 128.655 235.183 130.138 237.02 131.412C235.031 130.963 232.738 129.376 231.174 128.094Z" fill="#122C3B"/>
<path d="M260.862 158.39C261.672 158.518 264.623 163.151 264.021 163.439L260.862 158.39Z" fill="#101C2B"/>
<path d="M225.175 132.823C225.873 133.143 230.652 134.153 230.067 135.187L225.175 132.823Z" fill="#100E16"/>
<path d="M213.17 125.249L219.016 127.3C217.204 127.148 214.477 126.451 213.17 125.249Z" fill="#102128"/>
<path d="M192.64 127.148L198.166 127.621C198.166 127.91 192.857 128.118 192.64 127.148Z" fill="#101C2B"/>
<path d="M220.436 127.148L225.328 129.513C223.996 129.408 220.933 128.423 220.436 127.148Z" fill="#122C3B"/>
<path d="M130.112 149.558C131.596 149.365 128.26 152.579 127.899 152.395L130.112 149.558Z" fill="#101C2B"/>
<path d="M203.378 124.624C203.972 124.576 205.03 125.072 205.744 125.097C204.477 125.409 203.41 125.954 202.271 125.097C202.64 125.088 203.314 124.632 203.378 124.624Z" fill="#100E16"/>
<path d="M202.753 126.828L206.385 127.301C206.385 127.493 202.865 127.805 202.753 126.828Z" fill="#22434E"/>
<path d="M177.796 119.887L180.795 120.36C180.122 120.496 177.868 120.977 177.796 119.887Z" fill="#122C3B"/>
<path d="M277.446 194.064H277.133C277.109 193.142 277.021 192.116 277.294 191.227C278.216 192.325 277.558 193.118 277.454 194.064H277.446Z" fill="#27707D"/>
<path d="M205.912 123.67C206.971 123.55 207.893 123.886 208.912 124.143C208.238 124.84 206.57 124.062 205.912 123.67Z" fill="#25596D"/>
<path d="M219.489 130.931C220.323 130.995 221.133 131.34 221.855 131.717C221.398 132.053 219.457 131.733 219.489 130.931Z" fill="#25596D"/>
<path d="M186.962 124.624C187.941 124.704 189.015 124.439 189.962 124.784C189.962 124.936 187.139 125.233 186.962 124.624Z" fill="#0F1225"/>
<path d="M277.125 194.064H277.438C277.358 194.769 277.615 195.619 277.278 196.276C277.013 196.276 277.133 194.449 277.117 194.064H277.125Z" fill="#101C2B"/>
<path d="M229.594 130.298C230.075 130.122 230.292 130.763 229.907 130.931C229.442 131.132 229.209 130.434 229.594 130.298Z" fill="#25596D"/>
<path d="M189.168 145.767C220.195 143.306 247.694 165.259 251.543 196.108C232.882 194.425 209.649 181.416 194.533 198.472C179.921 181.673 156.328 194.016 138.003 196.26C139.631 170.46 163.569 147.786 189.168 145.759V145.767Z" fill="white"/>
<path d="M42.1784 250.167H201.365L359.951 251.169L200.563 251.37L42.1784 250.167Z" fill="#F06827"/>
<path d="M258.304 307.473C259.635 307.433 260.982 307.505 262.313 307.473C261.046 309.429 256.539 307.369 254.294 308.676C226.298 308.852 198.206 311.601 170.29 310.88C199.593 309.501 228.984 308.347 258.304 307.473Z" fill="#F06827"/>
<path d="M117.963 277.418C149.038 277.546 180.122 277.153 211.189 277.618L164.476 278.219L117.963 277.418Z" fill="#F06827"/>
<path d="M68.6427 263.392C93.9602 263.785 119.342 262.598 144.627 263.993L105.933 264.193L68.6427 263.392Z" fill="#0F2837"/>
<path d="M195.752 288.639C196.425 288.631 198.254 288.27 198.157 289.44C175.518 289.52 152.791 291.596 130.192 290.442C152.005 289.384 173.915 289.015 195.752 288.639Z" fill="#0F2837"/>
<path d="M15.3131 305.47L74.8578 308.074C57.3833 307.586 39.1309 308.163 21.7287 307.073C21.1753 307.041 13.1077 306.664 15.3131 305.47Z" fill="#0F2837"/>
<path d="M360.552 279.822C364.024 279.734 367.505 279.886 370.977 279.822C371.33 280.792 367.441 280.984 366.968 281.024C352.388 282.275 336.55 281.666 321.858 282.026C334.713 281.313 347.689 280.151 360.552 279.822Z" fill="#0F2837"/>
<path d="M36.5648 299.459C50.254 299.739 64.0155 299.37 77.6646 300.46L56.6135 300.661L36.5648 299.459Z" fill="#F06827"/>
<path d="M237.854 265.796C253.821 265.925 269.812 265.532 285.77 265.997L261.912 266.598L237.854 265.796Z" fill="#0F2837"/>
<path d="M0.477051 268.601C12.803 268.986 25.2893 267.816 37.5672 269.203L18.5209 269.804L0.477051 268.601Z" fill="#0F2837"/>
<path d="M163.273 266.598C174.027 266.726 184.805 266.333 195.551 266.798L178.51 267.399L163.273 266.598Z" fill="#DBCD28"/>
<path d="M265.521 289.039C267.927 288.991 270.333 289.071 272.739 289.039L272.338 289.841L242.866 290.843C250.092 289.729 258.111 289.184 265.521 289.039Z" fill="#0F2837"/>
<path d="M336.494 289.039C340.84 287.508 355.396 290.177 360.753 289.64L336.093 290.241C335.539 289.969 336.189 289.143 336.494 289.039Z" fill="#0F2837"/>
<path d="M318.049 267.8C318.843 267.367 327.977 268.169 329.477 268.802C327.015 268.666 320.407 269.659 318.45 269.002C317.632 268.73 317.568 268.065 318.049 267.8Z" fill="#0F2837"/>
<path d="M273.14 280.624C273.669 280.343 280.157 280.784 280.157 281.225C279.7 282.187 270.541 282.034 273.14 280.624Z" fill="#0F2837"/>
<path d="M1.67997 298.657C1.96868 298.593 5.3529 298.938 5.48923 299.659C4.71936 300.693 -0.685775 299.21 1.67997 298.657Z" fill="#0F2837"/>
<path d="M51.4008 225.722C52.0905 225.418 52.2508 226.724 51.8018 226.925C51.1121 227.229 50.9517 225.923 51.4008 225.722Z" fill="#139DA3"/>
<path d="M51.4008 216.906C52.0905 216.601 52.2508 217.908 51.8018 218.108C51.1121 218.413 50.9517 217.106 51.4008 216.906Z" fill="#139DA3"/>
<path d="M51.8018 223.318C52.2108 223.446 52.1387 224.809 51.4009 224.52C50.7914 224.28 51.6655 223.278 51.8018 223.318Z" fill="#08AAC1"/>
<path d="M51.4009 214.902C52.0103 214.686 52.283 215.495 51.8018 215.704C51.2164 215.96 50.9197 215.079 51.4009 214.902Z" fill="#087C7E"/>
<path d="M51.4009 227.726C52.0103 227.51 52.283 228.319 51.8018 228.528C51.2164 228.784 50.9197 227.902 51.4009 227.726Z" fill="#0EA296"/>
<path d="M51.4009 211.296C52.0103 211.079 52.283 211.889 51.8018 212.097C51.2164 212.354 50.9197 211.472 51.4009 211.296Z" fill="#24DECB"/>
<path d="M51.4007 220.913C51.898 220.569 51.93 222.452 51.4007 222.116C51.096 221.923 51.0559 221.154 51.4007 220.913Z" fill="#138B8C"/>
<path d="M51.4008 212.899L52.0023 213.099L51.4008 213.7L51.2003 213.5L51.4008 212.899Z" fill="#15AFB1"/>
<path d="M192.327 130.619C232.032 129.385 266.099 159.48 267.021 199.586C260.012 201.109 262.081 192.429 260.862 187.748C260.669 191.267 260.718 195.034 261.969 198.32C261.864 199.057 253.115 196.933 252.81 196.428C252.49 195.891 250.99 186.274 250.284 184.118C232.353 129.705 154.243 131.653 137.851 187.588C137.434 189.007 136.512 196.052 136.271 196.428C135.902 197.005 133.119 197.518 132.799 197.062C132.213 196.228 133.793 189.407 133.272 189.327C132.975 190.578 132.342 192.02 132.165 193.27C131.636 197.07 134.01 197.631 128.845 198.48L128.212 194.689C128.677 200.155 126.423 198.56 122.526 200.059C121.034 161.973 155.285 131.773 192.327 130.619Z" fill="#FFD127"/>
<path d="M255.81 166.597C257.413 169.37 260.276 173.65 261.335 176.544C262.313 179.196 263.749 185.119 264.174 187.909C264.286 188.622 264.519 190.593 264.013 191.227C263.115 182.042 259.787 174.692 255.802 166.605L255.81 166.597Z" fill="#121515"/>
<path d="M183.169 142.929C183.899 142.873 184.653 142.97 185.382 142.929C183.538 144.797 179.28 144.148 176.858 144.821C173.634 145.727 169.351 148.428 165.959 149.397C170.763 146.624 177.563 143.386 183.169 142.929Z" fill="#121515"/>
<path d="M151.901 154.92C147.242 161.059 141.644 166.309 138.003 173.225L140.056 168.649C143.537 163.64 147.482 159.119 151.901 154.92Z" fill="#101C1A"/>
<path d="M161.059 152.082L154.74 157.765L147.947 163.287C151.644 158.959 156.191 155.056 161.051 152.082H161.059Z" fill="#101C1A"/>
<path d="M252.65 174.492C254.919 180.19 257.847 186.338 258.648 192.485L255.649 183.172L252.65 174.492Z" fill="#101C1A"/>
<path d="M148.589 154.286C151.853 150.551 156.584 148.548 160.113 145.133L163.433 144.661C157.835 146.576 153.553 151.545 148.589 154.286Z" fill="#101C1A"/>
<path d="M229.915 145.767C233.78 149.093 239.145 151.545 242.072 155.713L229.915 145.767Z" fill="#121515"/>
<path d="M169.271 136.926L162.479 140.87L154.58 144.661C159.335 141.855 164.115 138.962 169.263 136.926H169.271Z" fill="#101C1A"/>
<path d="M195.487 132.51C196.826 132.518 200.499 132.51 201.173 133.456L186.802 133.296C189.569 133.023 192.736 132.486 195.487 132.51Z" fill="#121515"/>
<path d="M130.746 171.967L129.005 178.435L126.64 185.536C127.169 180.936 129.11 176.255 130.746 171.967Z" fill="#112C24"/>
<path d="M131.371 178.908L129.952 185.063L127.899 191.531C128.925 187.315 129.422 182.851 131.371 178.908Z" fill="#101C1A"/>
<path d="M146.849 155.553C147.691 155.641 146.167 157.46 146.063 157.605C144.331 159.841 141.732 161.58 139.904 163.76C141.267 160.29 144.643 158.358 146.849 155.553Z" fill="#121515"/>
<path d="M146.215 165.651C146.52 167.15 144.026 168.457 143.216 169.595C141.989 171.318 141.227 173.442 139.896 175.117C140.906 171.342 143.416 168.208 146.215 165.651Z" fill="#101C1A"/>
<path d="M211.911 137.88C213.266 137.544 223.266 141.767 222.809 142.769L211.911 137.88Z" fill="#121515"/>
<path d="M243.179 156.819L245.857 159.183L249.49 164.393L243.179 156.819Z" fill="#121515"/>
<path d="M179.697 134.089C180.106 134.041 180.547 134.121 180.964 134.089C177.868 135.532 173.866 135.933 170.386 136.774C170.266 136.269 178.983 134.177 179.705 134.089H179.697Z" fill="#102128"/>
<path d="M136.111 176.383L134.37 182.539L132.638 185.536L136.111 176.383Z" fill="#101C1A"/>
<path d="M192.64 141.663C193.586 141.374 197.981 141.984 199.112 142.448L192.007 142.609C191.726 142.384 192.584 141.679 192.64 141.663Z" fill="#121515"/>
<path d="M204.645 142.929C207.452 143.466 210.187 143.771 212.697 145.294C212.593 145.703 205.038 143.883 204.645 142.929Z" fill="#121515"/>
<path d="M186.329 139.138C186.746 139.138 187.171 139.138 187.596 139.138C187.909 139.299 187.379 139.74 187.283 139.772C184.99 140.517 180.258 140.597 177.652 141.511C177.523 141.006 185.583 139.154 186.337 139.146L186.329 139.138Z" fill="#101C1A"/>
<path d="M182.535 136.926C182.648 136.95 182.84 137.295 183.009 137.399C180.025 138.193 176.93 138.666 173.85 138.978C173.722 138.497 182.094 136.846 182.535 136.926Z" fill="#121515"/>
<path d="M219.177 143.555C221.47 143.915 223.692 145.166 225.023 147.185L219.177 143.555Z" fill="#121515"/>
<path d="M176.537 141.663C176.802 141.655 177.267 141.583 177.323 141.823C174.989 143.242 171.87 143.178 169.424 144.661C169.953 143.138 175.302 141.711 176.529 141.663H176.537Z" fill="#121515"/>
<path d="M243.179 165.651C245.096 167.952 247.253 171.133 248.231 173.859L243.179 165.651Z" fill="#112C24"/>
<path d="M214.116 135.035C216.835 136.253 220.395 136.67 222.489 138.978L214.116 135.035Z" fill="#121515"/>
<path d="M171.164 139.772C171.22 140.357 164.203 143.458 164.059 143.09C165.927 141.014 168.75 140.814 171.164 139.772Z" fill="#121515"/>
<path d="M248.865 157.765C250.597 160.025 253.372 162.117 253.917 165.026L248.865 157.765Z" fill="#112C24"/>
<path d="M125.685 188.694C126.383 188.806 124.811 197.005 123.793 196.589L125.685 188.694Z" fill="#101C1A"/>
<path d="M194.853 138.505C196.922 138.313 200.684 138.642 202.592 139.291L192.961 139.13C193.081 138.882 194.709 138.513 194.853 138.497V138.505Z" fill="#102128"/>
<path d="M167.691 145.134C168.742 145.246 167.162 146.023 167.058 146.079C164.893 147.217 162.375 148.019 160.265 149.397C162.102 147.033 165.117 146.44 167.683 145.134H167.691Z" fill="#112C24"/>
<path d="M240.965 149.237C243.299 150.271 244.703 153.309 246.338 155.232L240.965 149.237Z" fill="#101C1A"/>
<path d="M204.012 132.51C204.95 132.35 210.724 134.153 212.063 134.562C210.307 134.305 205.014 133.809 203.691 133.143C203.378 132.983 203.931 132.526 204.004 132.51H204.012Z" fill="#101C1A"/>
<path d="M138.95 178.283L135.79 185.544C136.247 183.108 137.177 180.038 138.95 178.283Z" fill="#101C1A"/>
<path d="M240.965 158.078C242.77 159.256 244.606 161.716 245.384 163.76L240.965 158.078Z" fill="#112C24"/>
<path d="M138.95 165.651L134.844 171.967C135.221 169.434 137.185 167.375 138.95 165.651Z" fill="#121515"/>
<path d="M135.798 163.76L134.058 167.703L131.692 170.701L135.798 163.76Z" fill="#112C24"/>
<path d="M204.645 135.981C206.089 135.5 207.725 136.662 208.912 137.399C208.727 137.792 202.664 136.638 204.645 135.981Z" fill="#121515"/>
<path d="M231.807 143.555L237.966 147.498C235.761 147.097 233.491 145.045 231.807 143.555Z" fill="#112C24"/>
<path d="M254.542 171.967L256.595 174.965L257.389 178.283L254.542 171.967Z" fill="#121515"/>
<path d="M147.795 150.183C148.725 150.183 147.611 151.016 147.482 151.129C146.632 151.858 144.074 153.597 142.903 153.814L147.795 150.183Z" fill="#100E16"/>
<path d="M227.068 150.816L230.701 154.134C230.283 154.102 225.769 151.425 227.068 150.816Z" fill="#121515"/>
<path d="M254.23 186.169L255.176 192.485C254.631 190.658 253.652 188.013 254.23 186.169Z" fill="#102128"/>
<path d="M252.177 181.753C251.046 179.854 250.228 177.826 249.49 175.758C251.07 177.297 251.567 179.741 252.177 181.753Z" fill="#112C24"/>
<path d="M158.854 150.503C159.76 151.465 155.534 153.653 154.588 153.501L158.854 150.503Z" fill="#121515"/>
<path d="M224.229 139.451C225.985 139.619 228.134 140.557 229.441 141.815L224.229 139.451Z" fill="#121515"/>
<path d="M264.334 193.431C265.168 194.978 265.257 197.374 265.281 199.113C264.479 197.334 264.414 195.346 264.334 193.431Z" fill="#112C24"/>
<path d="M187.909 136.301C188.358 136.221 193.121 136.197 193.121 136.462L186.962 136.934C186.818 136.678 187.852 136.309 187.909 136.301Z" fill="#102128"/>
<path d="M228.648 148.924L232.28 151.609C230.973 151.417 229.161 150.127 228.648 148.924Z" fill="#112C24"/>
<path d="M152.222 146.087L149.696 149.245C148.236 149.445 152.182 146.312 152.222 146.087Z" fill="#112C24"/>
<path d="M248.544 168.176C249.442 169.066 250.493 170.027 250.757 171.334C250.412 171.486 248.263 168.833 248.544 168.176Z" fill="#1B1310"/>
<path d="M216.65 146.4L220.596 148.452C219.594 148.243 216.763 147.458 216.65 146.4Z" fill="#112C24"/>
<path d="M258.336 193.11C259.017 193.495 259.394 196.829 258.969 196.901L258.336 193.11Z" fill="#112C24"/>
<path d="M134.218 173.225C134.675 174.38 133.569 176.055 132.638 176.696L134.218 173.225Z" fill="#101C1A"/>
<path d="M234.021 152.395C235.047 152.523 236.378 153.445 236.707 154.447C235.657 154.262 234.622 153.22 234.021 152.395Z" fill="#112C24"/>
<path d="M246.018 164.393C246.427 165.042 248.416 166.701 247.598 167.551L246.018 164.393Z" fill="#19402C"/>
<path d="M197.38 135.668C198.422 135.82 199.906 135.243 200.7 136.141C199.689 136.509 198.238 136.309 197.38 135.668Z" fill="#121515"/>
<path d="M141.484 155.24C141.604 156.386 140.257 157.34 139.591 158.077C139.471 156.939 140.81 155.985 141.484 155.24Z" fill="#19402C"/>
<path d="M204.332 139.139C204.757 139.058 207.829 139.219 207.653 139.924C206.594 139.82 205.118 139.94 204.332 139.139Z" fill="#112C24"/>
<path d="M183.482 133.143C183.899 133.111 184.324 133.167 184.749 133.143C185.086 133.913 181.79 134.097 181.75 133.929C181.942 133.608 183.313 133.151 183.49 133.143H183.482Z" fill="#19402C"/>
<path d="M259.282 181.433C260.028 181.737 260.357 184.206 259.916 184.27L259.282 181.433Z" fill="#112C24"/>
<path d="M213.17 141.351C214.285 141.198 215.367 141.743 216.169 142.457C215.239 142.473 213.916 141.871 213.17 141.351Z" fill="#112C24"/>
<path d="M240.019 161.548C240.5 161.363 241.479 163.592 240.966 163.76C240.661 163.543 239.57 161.724 240.019 161.548Z" fill="#121515"/>
<path d="M250.757 165.972C251.303 165.724 252.546 167.695 252.024 167.864C251.768 167.727 250.348 166.156 250.757 165.972Z" fill="#121515"/>
<path d="M252.177 181.753C252.193 181.817 253.316 182.218 252.65 183.02C251.984 182.715 252.289 181.946 252.177 181.753Z" fill="#112C24"/>
<path d="M148.589 154.286C148.589 154.286 148.308 155.12 147.956 154.759C147.811 154.086 148.541 154.342 148.589 154.286Z" fill="#101C1A"/>
<path d="M223.908 142.609L224.229 142.929V143.242H223.908V142.609Z" fill="#1B301F"/>
<path d="M204.974 211.296H337.296C337.552 213.732 336.029 214.742 337.897 217.106L206.578 217.707L204.974 211.296Z" fill="#FAD0AE"/>
<path d="M54.6087 211.296L186.73 212.298L184.925 217.707H54.6087V211.296Z" fill="#FAD0AE"/>
<path d="M206.578 218.509H337.296C337.905 221.186 335.507 221.074 337.897 224.32L206.979 224.921L206.578 218.509Z" fill="#FAD0AE"/>
<path d="M54.6087 218.509H184.925L185.126 224.32L54.6087 224.921C52.9246 224.015 55.6272 221.915 55.6111 221.515C55.5951 221.05 52.7321 219.767 54.6087 218.509Z" fill="#FAD0AE"/>
<path d="M206.578 225.722L337.897 226.724C335.523 228.736 338.547 229.521 336.895 231.333H206.177L206.578 225.722Z" fill="#FAD0AE"/>
<path d="M54.6087 225.722H156.055L156.657 230.732L54.6087 231.333C53.1812 230.187 55.563 228.952 55.6111 228.728C55.7956 227.886 52.8203 226.949 54.6087 225.722Z" fill="#FAD0AE"/>
<path d="M338.9 229.73L340.303 230.331L340.103 235.34L201.566 235.54L204.974 232.535H338.098L338.9 229.73Z" fill="#E14915"/>
<path d="M52.6039 228.928L53.8068 232.535H156.055L156.657 233.937L156.055 235.34H51.4009C50.9679 232.663 50.7674 230.836 52.6039 228.928Z" fill="#E14915"/>
<path d="M207.781 208.49H339.702C341.161 211.809 338.29 216.802 338.098 210.494H203.771L202.568 208.891L207.781 208.49Z" fill="#E14915"/>
<path d="M51.802 208.49L189.136 209.492L52.2029 210.895C51.1845 210.711 51.1123 208.731 51.802 208.49Z" fill="#E14915"/>
<path d="M157.659 225.722L167.483 225.923L167.282 237.745C166.649 237.224 162.784 233.737 162.471 233.737C162.158 233.737 158.774 237.6 157.459 237.144L157.659 225.722Z" fill="#F4533E"/>
<path d="M168.886 225.722C171.942 226.412 182.856 224.809 184.925 225.722C185.407 225.939 186.104 230.924 185.928 231.132C185.383 231.79 169.584 231.822 168.886 231.333C168.654 231.172 167.844 226.187 168.886 225.722Z" fill="#FAD0AE"/>
<path d="M168.886 232.535C169.608 232.03 185.679 232.286 186.529 232.535C187.139 232.711 188.454 235.012 189.537 235.14C186.658 234.635 170.579 236.31 169.287 235.741C168.437 235.364 168.518 232.799 168.886 232.535Z" fill="#E14915"/>
<path d="M338.9 223.318C340.624 224.632 339.068 226.291 339.1 227.125C339.116 227.534 341.498 227.205 338.9 228.928V223.318Z" fill="#15AFB1"/>
<path d="M339.1 220.112C339.028 219.158 339.525 217.9 338.298 218.108C338.274 217.427 337.905 215.431 339.1 215.503L339.902 219.912L339.1 220.112Z" fill="#156267"/>
<path d="M53.0048 222.917C53.1893 224.416 53.7105 226.876 52.6038 228.127C52.2991 226.468 52.0665 224.44 53.0048 222.917Z" fill="#E14915"/>
<path d="M52.6038 211.296C53.903 211.512 52.8284 213.299 53.0048 214.101C51.9542 214.053 52.3793 211.921 52.6038 211.296Z" fill="#15AFB1"/>
<path d="M339.1 220.112C337.913 220.328 338.33 219.062 338.298 218.108C339.525 217.9 339.028 219.158 339.1 220.112Z" fill="#15AFB1"/>
<path d="M53.0048 218.509C53.4058 219.294 53.3898 220.393 52.6039 220.913C52.1387 220.633 52.3071 218.782 53.0048 218.509Z" fill="#08AAC1"/>
<path d="M53.0048 216.104C53.3176 216.401 53.3497 217.507 53.0048 217.707C52.7963 217.828 51.9142 216.577 53.0048 216.104Z" fill="#08AAC1"/>
<path d="M194.549 208.491C206.281 207.473 206.851 221.114 205.175 229.529C203.499 237.945 187.893 237.753 186.329 229.129C185.07 222.204 185.238 209.3 194.549 208.491Z" fill="#E14915"/>
<path d="M193.346 211.296C197.139 210.454 201.59 211.592 202.368 215.904C202.681 217.635 202.512 228.447 201.967 229.93C200.339 234.37 190.675 234.507 189.537 229.93C189.328 229.105 189.208 215.624 189.537 214.702C189.938 213.596 192.255 211.536 193.346 211.296Z" fill="#121515"/>
<path d="M205.576 206.888C209.337 204.387 213.98 204.956 218.206 204.082L304.817 204.884L215.8 203.281C211.767 203.626 208.43 204.86 204.774 206.086C203.94 206.367 203.025 206.647 202.167 206.888L202.769 206.086C204.228 205.862 210.612 202.007 213.796 201.277C218.343 200.235 224.357 199.827 229.033 199.674C249.298 199.017 270.654 202.528 290.983 202.68C278.168 201.47 265.152 200.155 252.289 199.674C236.314 199.073 217.845 197.142 203.37 204.483C215.143 194.096 233.78 197.398 248.279 198.071C249.025 197.23 245.625 196.885 245.472 196.869C243.419 196.677 240.99 197.334 239.057 196.468C225.704 195.843 217.789 196.156 205.576 201.277C212.063 194.745 224.341 194.168 233.042 194.465C231.631 192.653 226.915 194.144 224.622 193.663C216.121 194.441 207.757 196.981 201.766 203.281C209.289 192.926 223.667 192.766 235.248 191.259C235.352 189.776 233.323 191.034 234.646 189.656C232.296 189.936 229.987 190.241 227.629 190.457H220.612C211.061 192.036 202.376 196.605 197.556 205.285C196.963 205.381 197.251 206.591 196.353 205.886C197.356 200.516 195.014 188.846 196.353 184.246C197.412 180.607 210.315 173.875 214.196 173.225C223.796 171.622 241.824 176.047 251.888 178.034C280.911 183.765 303.782 192.621 330.479 204.884C331.04 205.14 332.324 205.341 331.682 206.086L205.576 206.888Z" fill="#F06827"/>
<path d="M227.629 190.457C218.102 191.323 206.786 193.222 201.365 202.079C209.842 192.83 223.331 191.267 235.248 191.259C223.667 192.766 209.289 192.926 201.766 203.281C207.757 196.981 216.121 194.441 224.622 193.663C226.915 194.144 231.631 192.653 233.042 194.465C224.341 194.168 212.063 194.745 205.576 201.277C205.527 201.325 204.597 201.253 204.373 201.878C205.062 202.616 205.511 201.301 205.576 201.277C217.789 196.156 225.704 195.843 239.057 196.468C240.99 197.334 243.419 196.677 245.472 196.869C245.625 196.885 249.025 197.23 248.279 198.071C233.78 197.398 215.143 194.096 203.37 204.483C217.845 197.142 236.314 199.073 252.289 199.674C265.152 200.155 278.168 201.47 290.983 202.68C270.654 202.528 249.298 199.017 229.033 199.674C224.357 199.827 218.343 200.235 213.795 201.277C210.612 202.007 204.228 205.862 202.769 206.086C201.221 206.319 201.71 204.066 200.964 204.082C200.403 204.098 198.791 205.084 197.556 205.285C202.376 196.605 211.061 192.036 220.612 190.457H227.629Z" fill="#2B2018"/>
<path d="M205.575 206.887L204.773 206.086C208.43 204.86 211.766 203.625 215.8 203.281L304.817 204.884L218.206 204.082C213.98 204.956 209.337 204.387 205.575 206.887Z" fill="#1B1310"/>
<path d="M191.14 203.281C182.199 194.24 171.725 190.73 159.263 191.724C168.726 192.036 173.714 193.11 181.918 197.671C173.457 194.136 165.093 193.928 156.055 193.663C158.212 195.338 163.265 194.144 166.481 194.465C174.083 195.218 181.413 197.382 187.131 202.479C171.741 193.455 151.252 196.5 134.202 198.272C152.086 198.183 173.77 192.918 188.735 205.285C161.565 193.246 129.19 202.311 100.32 202.079C125.717 204.243 163.746 193.23 186.73 205.685V206.086C186.192 205.95 185.888 205.774 185.527 205.685C180.924 204.539 176.449 203.658 171.693 203.281L86.6866 204.884L176.104 204.483C178.133 205.188 180.442 205.164 182.519 205.685C182.904 205.782 184.332 206.134 183.522 206.888C142.149 206.992 100.504 206.471 59.2199 205.886C58.9633 205.485 60.7516 204.619 61.0243 204.483C87.5367 191.259 115.701 182.226 144.828 176.832C156.609 174.652 171.645 170.564 182.92 175.229C184.893 176.047 194.268 182.579 194.749 184.246C196.072 188.79 193.739 200.211 194.749 205.485C194.324 205.862 188.598 198.809 187.732 198.071C180.787 192.196 173.666 190.088 164.877 190.922C176.128 191.459 184.364 193.463 191.14 203.281Z" fill="#F06827"/>
<path d="M185.527 205.685C185.807 207.312 184.813 206.887 183.522 206.887C184.332 206.134 182.904 205.781 182.519 205.685C180.442 205.164 178.133 205.188 176.104 204.483L86.6866 204.884L171.693 203.281C176.449 203.657 180.924 204.539 185.527 205.685Z" fill="#1B1310"/>
<path d="M188.735 205.285C188.654 205.87 189.047 206.543 188.334 206.888C188.574 205.781 187.195 205.934 186.73 205.685C163.746 193.23 125.717 204.243 100.32 202.079C129.19 202.311 161.565 193.246 188.735 205.285Z" fill="#2B2018"/>
<path d="M188.334 206.888C187.74 207.176 186.818 206.11 186.73 206.086V205.685C187.195 205.934 188.574 205.781 188.334 206.888Z" fill="#BA3614"/>
<path d="M183.522 198.472C183.971 198.729 185.134 198.704 185.527 199.474C184.717 200.171 183.682 198.552 183.522 198.472Z" fill="#BA3614"/>
<path d="M191.14 203.281C191.493 203.633 192.768 204.034 192.143 204.884C191.357 204.587 191.309 203.521 191.14 203.281Z" fill="#BA3614"/>
<path d="M187.131 202.479C187.5 202.696 188.374 202.68 188.735 203.481C187.9 204.146 187.467 202.776 187.131 202.479Z" fill="#BA3614"/>
<path d="M183.522 198.472C183.145 198.256 182.487 197.983 181.918 197.671C182.832 198.055 182.888 198.151 183.522 198.472Z" fill="#C5932D"/>
<path d="M235.248 191.259C223.331 191.267 209.842 192.83 201.365 202.079C206.786 193.222 218.102 191.323 227.629 190.457C229.987 190.241 232.296 189.936 234.646 189.656C233.323 191.034 235.352 189.776 235.248 191.259Z" fill="#FAD0AE"/>
<path d="M205.575 201.277C205.511 201.301 205.062 202.616 204.373 201.878C204.597 201.253 205.527 201.325 205.575 201.277Z" fill="#BA3614"/>
<path d="M304.817 29.3597C349.942 23.8135 356.077 88.6292 314.841 94.2796C270.108 100.403 264.735 34.2888 304.817 29.3597Z" fill="#121515"/>
<path d="M306.02 30.9626C348.956 26.7148 352.982 88.7093 313.638 92.6766C271.014 96.9725 267.815 34.7376 306.02 30.9626Z" fill="#F06827"/>
<path d="M334.088 46.5914C342.765 58.4213 340.447 75.4848 328.875 84.6617L324.865 86.6654C339.3 77.5606 342.404 61.1383 334.088 46.5914Z" fill="#533430"/>
<path d="M333.286 66.6285C333.919 68.1834 331.321 72.287 330.278 73.6415C325.411 79.9491 315.603 84.4615 307.824 84.8622C318.738 82.1372 328.907 77.8012 333.286 66.6285Z" fill="#361E22"/>
<path d="M286.372 45.79C285.129 51.192 283.397 58.1008 283.765 63.623C284.014 67.414 286.564 70.684 285.57 73.8419C285.474 70.6439 283.044 67.0934 282.963 64.0237C282.851 59.5995 284.447 53.4682 284.567 48.7956L286.372 45.79Z" fill="#562A2B"/>
<path d="M335.692 68.2314C333.903 76.663 326.557 84.0767 318.45 86.6655C326.365 82.4978 332.347 76.6069 335.692 68.2314Z" fill="#361E22"/>
<path d="M328.875 62.2205L327.071 66.829C324.857 70.091 316.581 75.8296 312.836 77.0478C312.403 77.1921 310.543 77.8814 310.23 77.2482C317.985 73.9621 325.106 70.2112 328.875 62.2205Z" fill="#562A2B"/>
<path d="M328.474 49.7974L327.472 58.814C325.066 62.4447 324.12 67.0933 320.054 69.4336C322.941 65.3701 326.044 61.2746 327.472 56.4096C327.584 56.0168 326.646 54.5101 326.67 54.4059C326.822 53.7567 328.787 51.248 328.474 49.7974Z" fill="#734035"/>
<path d="M327.271 38.5767L330.679 41.5822C334.007 47.2006 335.499 53.2999 334.088 59.8159C333.991 51.4244 333.414 44.8442 327.271 38.5767Z" fill="#562A2B"/>
<path d="M332.083 57.8121C333.583 65.2579 328.121 73.1765 321.658 76.6469C323.494 73.7456 327.255 72.1907 329.076 69.2332C330.896 66.2758 331.906 61.3146 332.083 57.8121Z" fill="#361E22"/>
<path d="M324.464 54.6062L324.665 57.6118C322.756 61.8997 320.038 65.3781 315.643 67.4299C319.693 63.3984 323.622 60.8818 324.464 54.6062Z" fill="#361E22"/>
<path d="M331.281 45.3892C331.674 50.8553 331.634 56.8343 329.276 61.8195L331.281 45.3892Z" fill="#734035"/>
<path d="M290.783 56.2092C290.999 59.3911 289.283 61.6593 289.78 65.2259C290.029 67.0132 291.769 69.8424 291.985 71.8381C289.106 68.7604 289.475 64.2962 288.978 60.417L290.783 56.2092Z" fill="#562A2B"/>
<path d="M287.174 64.6248C287.07 70.3714 290.935 74.5471 293.188 79.4521C289.612 75.6852 286.284 69.8424 287.174 64.6248Z" fill="#562A2B"/>
<path d="M283.565 49.3966L280.758 63.4225C280.822 58.6297 281.071 53.5803 283.565 49.3966Z" fill="#734035"/>
<path d="M296.396 74.2426C298.048 76.8073 302.395 75.3085 303.413 78.0496C301.681 76.5428 296.508 77.2721 296.396 74.2426Z" fill="#25171B"/>
<path d="M336.494 57.0107C338.202 57.8763 335.082 65.5866 334.489 65.4263L336.494 57.0107Z" fill="#562A2B"/>
<path d="M281.159 66.6285L283.966 75.8456C282.579 73.0083 280.63 70.0028 281.159 66.6285Z" fill="#994C39"/>
<path d="M295.193 80.2537L302.611 84.0607C300.133 84.0527 296.532 82.2493 295.193 80.2537Z" fill="#562A2B"/>
<path d="M290.983 80.6544C290.029 79.8048 289.018 79.0274 288.176 78.0496L286.773 74.6433C288.481 76.1741 289.7 78.9232 290.983 80.6544Z" fill="#25171B"/>
<path d="M323.662 86.6654L324.063 87.4669C323.55 87.8997 318.097 90.5446 317.848 89.671L323.662 86.6654Z" fill="#2B2018"/>
<path d="M315.643 89.4706C316.252 89.4706 317.487 89.2061 316.846 90.2721L311.032 90.4725C311.81 89.8954 314.833 89.4706 315.643 89.4706Z" fill="#121515"/>
<path d="M299.604 89.0699L305.017 90.4725L300.807 90.2722L299.604 89.0699Z" fill="#734035"/>
<path d="M297.599 73.0403L302.611 74.8436C301.593 75.0119 297.174 74.6593 297.599 73.0403Z" fill="#421F1D"/>
<path d="M295.995 87.0663L299.002 88.8696C298.778 89.5749 295.514 88.1002 295.995 87.0663Z" fill="#443020"/>
<path d="M294.391 83.0587L296.998 84.862C296.765 85.5994 293.654 84.2048 294.391 83.0587Z" fill="#562A2B"/>
<path d="M306.42 90.272C306.677 90.1839 309.131 89.9514 309.027 90.8731L306.02 91.0735C305.627 90.8731 306.3 90.3121 306.42 90.272Z" fill="#734035"/>
<path d="M300.406 80.6543L304.215 81.2554C303.582 81.9206 300.534 81.8725 300.406 80.6543Z" fill="#361E22"/>
<path d="M304.416 86.6655C304.568 86.6414 307.255 87.6112 307.022 88.0681L304.015 87.467C303.614 87.2666 304.335 86.6815 304.416 86.6655Z" fill="#734035"/>
<path d="M297.599 78.6506C298.249 78.7388 299.732 79.8849 299.203 80.6543C298.85 79.8769 296.982 79.8208 297.599 78.6506Z" fill="#562A2B"/>
<path d="M298.602 85.864L301.408 86.8659C300.205 88.02 299.259 86.5693 298.602 85.864Z" fill="#2B2018"/>
<path d="M302.411 71.0366L303.614 72.6396C302.459 72.7197 301.304 71.6618 302.411 71.0366Z" fill="#533430"/>
<path d="M323.662 34.5693C324.224 35.3227 325.443 35.4349 325.266 36.573C324.913 36.7413 323.045 35.2586 323.662 34.5693Z" fill="#994C39"/>
<path d="M310.029 73.4412C310.478 73.4572 311.2 73.8179 310.831 74.2426L308.626 74.0423C309.115 74.0343 309.949 73.4412 310.029 73.4412Z" fill="#734035"/>
<path d="M313.638 87.0663L315.843 87.6674C315.25 88.3967 312.86 87.467 313.638 87.0663Z" fill="#562A2B"/>
<path d="M291.584 85.0625C292.651 84.8541 293.124 85.904 293.79 86.4651C293.309 86.8738 291.432 85.6556 291.584 85.0625Z" fill="#100E16"/>
<path d="M298.401 71.4373C299.243 71.3812 300.053 71.8461 300.606 72.4392C300.414 73.0002 298.136 72.2629 298.401 71.4373Z" fill="#361E22"/>
<path d="M314.64 72.2388C314.36 73.2646 313.085 73.2486 312.235 72.8399C312.956 72.5032 313.895 72.0304 314.64 71.838V72.2388Z" fill="#B5533E"/>
<path d="M287.575 81.0552C288.12 81.2155 289.299 81.8326 289.379 82.4578C289.155 83.1791 287.278 81.5681 287.575 81.0552Z" fill="#121515"/>
<path d="M318.049 69.8344C319.508 69.9546 318.001 71.0447 317.247 71.0366C316.533 70.5317 317.977 69.8264 318.049 69.8344Z" fill="#25171B"/>
<path d="M317.247 77.8492L319.452 78.0496C318.714 78.5866 317.648 78.9713 317.247 77.8492Z" fill="#562A2B"/>
<path d="M290.983 80.6543C291.584 81.1913 292.434 81.4478 292.988 82.0569L291.584 81.8565C290.863 81.2875 291.071 80.7665 290.983 80.6543Z" fill="#25171B"/>
<path d="M311.232 87.0663C311.473 87.0583 311.753 87.0022 311.834 87.2667L310.43 88.2685C309.708 87.7556 311.16 87.0663 311.232 87.0663Z" fill="#1B1310"/>
<path d="M287.174 60.6173C287.462 60.6173 287.518 63.0618 287.174 63.4225C286.861 63.4225 286.861 60.6173 287.174 60.6173Z" fill="#362828"/>
<path d="M313.037 68.6321C313.389 68.3115 313.782 67.3898 314.64 67.6302C314.616 68.9286 313.478 68.4397 313.037 68.6321Z" fill="#562A2B"/>
<path d="M312.034 80.2536C312.187 80.1575 313.205 80.1815 313.438 80.454C312.772 81.6402 311.128 80.8387 312.034 80.2536Z" fill="#361E22"/>
<path d="M307.222 77.4485C307.375 77.3523 308.393 77.3763 308.626 77.6488C307.96 78.835 306.316 78.0335 307.222 77.4485Z" fill="#533430"/>
<path d="M284.367 76.647C285.177 76.4306 285.786 78.0015 285.169 78.2499C285.049 78.298 284.094 77.0157 284.367 76.647Z" fill="#100E16"/>
<path d="M305.619 70.6359C307.014 70.4596 306.589 72.1507 305.218 71.4374C304.825 71.229 305.53 70.6439 305.619 70.6359Z" fill="#562A2B"/>
<path d="M295.193 68.6322C295.426 68.52 296.861 69.8825 295.594 69.8344C294.696 69.8023 294.824 68.8085 295.193 68.6322Z" fill="#362828"/>
<path d="M337.296 65.0256C337.937 65.258 337.143 66.7407 336.895 66.6285C336.261 66.348 337.047 64.9374 337.296 65.0256Z" fill="#562A2B"/>
<path d="M324.865 51.4004C325.194 51.9053 325.194 52.8992 324.865 53.4041C324.665 52.6828 324.007 51.8973 324.865 51.4004Z" fill="#734035"/>
<path d="M303.614 83.8604C305.049 83.644 305.442 85.1107 304.015 84.6619C303.894 84.6218 303.221 84.0608 303.614 83.8604Z" fill="#362828"/>
<path d="M304.416 74.2425C305.851 74.0261 306.244 75.4928 304.817 75.044C304.696 75.0039 304.023 74.4429 304.416 74.2425Z" fill="#562A2B"/>
<path d="M308.024 70.6359C308.706 70.5156 309.019 70.716 309.428 71.237C309.275 71.6778 307.728 71.0767 308.024 70.6359Z" fill="#361E22"/>
<path d="M306.821 81.0551C306.958 80.9589 307.704 80.991 307.824 81.2554C308.129 81.9207 305.53 81.9287 306.821 81.0551Z" fill="#121515"/>
<path d="M315.242 79.4522C315.378 79.356 316.124 79.388 316.244 79.6525C316.549 80.3178 313.951 80.3258 315.242 79.4522Z" fill="#25171B"/>
<path d="M314.64 72.2389V71.8382C314.697 71.8222 315.146 70.9245 315.843 71.6378L314.64 72.2389Z" fill="#1B1310"/>
<path d="M304.616 79.4521C304.72 79.5563 305.659 79.2437 305.819 79.6525C306.445 81.2554 304.704 79.5162 304.616 79.4521Z" fill="#361E22"/>
<path d="M280.758 64.6248C281.127 65.1056 281.199 65.851 280.357 65.827C280.012 65.819 280.646 64.8892 280.758 64.6248Z" fill="#29282F"/>
<path d="M308.826 87.467C309.436 87.2506 309.708 88.0601 309.227 88.2685C308.642 88.5249 308.345 87.6433 308.826 87.467Z" fill="#562A2B"/>
<path d="M309.628 80.6543C309.676 80.6543 310.438 81.2394 310.029 81.4558C308.995 82.0008 308.874 80.7425 309.628 80.6543Z" fill="#361E22"/>
<path d="M302.411 87.0661C303.237 87.0501 303.814 88.0279 302.812 87.8676C302.74 87.8516 302.01 87.2745 302.411 87.0661Z" fill="#272321"/>
<path d="M293.99 72.2389C294.6 72.0225 294.872 72.832 294.391 73.0404C293.806 73.2969 293.509 72.4153 293.99 72.2389Z" fill="#121515"/>
<path d="M310.43 69.4337C311.04 69.2173 311.312 70.0267 310.831 70.2351C310.246 70.4916 309.949 69.61 310.43 69.4337Z" fill="#121515"/>
<path d="M304.616 79.4521C304.343 79.1796 303.341 78.9712 304.015 78.2499C304.648 78.4823 304.56 79.412 304.616 79.4521Z" fill="#361E22"/>
<path d="M313.037 68.6322C312.988 68.6482 312.684 69.6902 312.235 69.2333C312.066 68.3757 312.94 68.7204 313.037 68.6322Z" fill="#642F28"/>
<path d="M293.188 68.6322L293.389 69.2333L292.787 69.4337L292.587 69.2333L293.188 68.6322Z" fill="#4B3E33"/>
<path d="M298.602 85.864C298.537 85.7999 297.527 85.4793 298 85.0625L298.602 85.864Z" fill="#2B2018"/>
<path d="M307.222 74.2425H307.623C308.417 74.1783 308.417 74.7073 307.623 74.6432L307.222 74.2425Z" fill="#100E16"/>
<path d="M296.797 71.0366L297.399 71.237L297.198 71.8381L296.998 71.6377L296.797 71.0366Z" fill="#734035"/>
<defs>
<linearGradient id="paint0_linear_1367_2568" x1="332.298" y1="-16.0418" x2="26.5602" y2="311.4" gradientUnits="userSpaceOnUse">
<stop stop-color="#1685C6"/>
<stop offset="0.5" stop-color="#0AA94D"/>
<stop offset="1" stop-color="#0AA94D" stop-opacity="0"/>
</linearGradient>
</defs>
</svg>
