<svg width="24" height="25" viewBox="0 0 24 25" fill="none" xmlns="http://www.w3.org/2000/svg">
<path fill-rule="evenodd" clip-rule="evenodd" d="M12 1.75C6.06296 1.75 1.25002 6.56294 1.25002 12.5C1.25002 13.9809 1.54989 15.3937 2.09293 16.6795C2.23539 17.0168 2.33142 17.2447 2.39557 17.4198C2.46099 17.5985 2.47018 17.6631 2.47134 17.6798C2.47783 17.7737 2.45407 17.9013 2.29192 18.5074L1.2755 22.3061C1.20627 22.5649 1.28029 22.8409 1.46969 23.0303C1.65909 23.2197 1.93512 23.2937 2.19387 23.2245L5.99264 22.2081C6.59867 22.0459 6.72635 22.0222 6.82026 22.0287C6.83692 22.0298 6.90154 22.039 7.08019 22.1045C7.25534 22.1686 7.48326 22.2646 7.82056 22.4071C9.10634 22.9501 10.5191 23.25 12 23.25C17.9371 23.25 22.75 18.4371 22.75 12.5C22.75 6.56294 17.9371 1.75 12 1.75ZM8.9729 6.75002L8.88025 6.74992C8.40058 6.74911 7.95809 6.74836 7.52291 6.94714C7.20676 7.09155 6.93775 7.33691 6.74186 7.58196C6.54597 7.82701 6.3659 8.14346 6.29467 8.48366C6.19703 8.95 6.27755 9.30483 6.36369 9.68441L6.37558 9.73691C6.8101 11.6612 7.82592 13.5481 9.38873 15.1109C10.9515 16.6737 12.8384 17.6895 14.7627 18.124L14.8152 18.1359C15.1948 18.222 15.5496 18.3026 16.0159 18.2049C16.3561 18.1337 16.6726 17.9536 16.9176 17.7577C17.1627 17.5619 17.408 17.2928 17.5525 16.9767C17.7512 16.5415 17.7505 16.099 17.7497 15.6194L17.7496 15.5267C17.7496 15.3063 17.7428 14.9352 17.5998 14.5922C17.4291 14.1824 17.0773 13.8447 16.5258 13.7583L16.5201 13.7574C15.8368 13.6503 15.317 13.5688 14.9496 13.5154C14.7657 13.4887 14.6131 13.468 14.4937 13.4544C14.3955 13.4432 14.2605 13.4292 14.1475 13.4358C13.6579 13.4645 13.2686 13.6631 12.967 13.8697C12.7751 14.0013 12.5665 14.1774 12.4025 14.3159C12.3381 14.3703 12.2805 14.4189 12.2336 14.4568L12.1562 14.5191C11.861 14.7568 11.7133 14.8756 11.5313 14.8719C11.3493 14.8681 11.2157 14.7512 10.9486 14.5175C10.7787 14.3687 10.6121 14.213 10.4494 14.0502C10.2866 13.8875 10.1309 13.7209 9.98214 13.551C9.74835 13.2839 9.63146 13.1503 9.62771 12.9683C9.62397 12.7863 9.74282 12.6386 9.98054 12.3434L10.0428 12.266C10.0807 12.2191 10.1293 12.1615 10.1837 12.0971C10.3222 11.9331 10.4983 11.7245 10.6299 11.5326C10.8365 11.231 11.0351 10.8417 11.0638 10.3521C11.0704 10.2391 11.0564 10.1041 11.0452 10.0059C11.0316 9.88651 11.0109 9.73387 10.9842 9.54996C10.9308 9.18248 10.8493 8.663 10.7422 7.97946L10.7413 7.97377C10.6549 7.42233 10.3172 7.07053 9.90741 6.89977C9.5644 6.75682 9.19327 6.75002 8.9729 6.75002Z" fill="#25D366"/>
</svg>
