<svg width="22" height="20" viewBox="0 0 22 20" fill="none" xmlns="http://www.w3.org/2000/svg">
<path fill-rule="evenodd" clip-rule="evenodd" d="M5.69662 1.27174C7.3556 0.933561 9.14126 0.75 10.9999 0.75C12.8585 0.75 14.6441 0.933561 16.3031 1.27174L16.4304 1.29766C18.325 1.68329 19.5874 1.94024 20.6753 3.33892C21.7515 4.72258 21.7509 6.3272 21.7499 8.81239V11.1876C21.7509 13.6728 21.7515 15.2774 20.6753 16.6611C19.5874 18.0598 18.325 18.3167 16.4304 18.7023L16.3031 18.7283C14.6441 19.0664 12.8585 19.25 10.9999 19.25C9.14126 19.25 7.3556 19.0664 5.69662 18.7283L5.56934 18.7023C3.67471 18.3167 2.41231 18.0598 1.32445 16.6611C0.248276 15.2774 0.248878 13.6728 0.24981 11.1876L0.24981 8.8124C0.248878 6.3272 0.248276 4.72258 1.32445 3.33892C2.41231 1.94024 3.67471 1.68329 5.56934 1.29766L5.69662 1.27174ZM10.2944 6.25224C10.8129 6.46986 11.4428 6.82163 12.2129 7.25173C12.3143 7.30834 12.4162 7.36458 12.5181 7.42088C13.0215 7.69878 13.5279 7.9783 13.9948 8.31403C14.4143 8.61575 14.8125 8.98964 14.9443 9.53491C15.0183 9.84101 15.0183 10.159 14.9443 10.4651C14.8125 11.0104 14.4143 11.3843 13.9948 11.686C13.5278 12.0217 13.0215 12.3013 12.518 12.5792C12.4161 12.6355 12.3143 12.6917 12.2129 12.7483C11.4428 13.1784 10.8129 13.5301 10.2944 13.7478C9.4514 14.1015 8.55747 14.1302 7.82276 13.5282C7.36292 13.1514 7.20037 12.6119 7.12905 12.0683C6.95669 10.7544 6.95662 9.24618 7.12905 7.93172C7.20037 7.38806 7.36291 6.84858 7.82276 6.47181C8.55747 5.86983 9.4514 5.89845 10.2944 6.25224Z" fill="#0F1113"/>
</svg>
